<svg width="339" height="339" viewBox="0 0 339 339" fill="none" xmlns="http://www.w3.org/2000/svg">
<path d="M314.599 193.415C327.911 113.396 273.834 37.7355 193.815 24.4233C113.795 11.111 38.1347 65.1879 24.8225 145.208C11.5102 225.227 65.5872 300.888 145.607 314.2C225.626 327.512 301.287 273.435 314.599 193.415Z" fill="#F4E6E1"/>
<path d="M227.963 142.329C229.15 125.957 241.596 80.4035 214.731 83.5055C211.247 59.7808 189.035 47.7749 167.627 48.8855C109.55 51.8535 100.57 104.913 109.665 142.348C124.409 181.602 200.121 150.907 227.963 142.405C227.963 142.367 227.963 142.348 227.963 142.329Z" fill="#D76A40"/>
<path d="M297.662 319.22H41.7847C41.7847 319.22 49.5397 276.309 67.1369 251.608C84.7149 226.887 149.991 217.868 149.991 217.868L169.733 220.913L189.475 217.868C189.475 217.868 254.77 226.887 272.348 251.608C289.926 276.309 297.662 319.22 297.662 319.22Z" fill="#5B4850"/>
<path d="M134.826 219.707C152.213 215.705 167.014 216.873 169.389 217.103C169.389 217.103 169.389 217.103 169.408 217.103C171.782 216.873 186.584 215.705 203.97 219.707C205.617 235.274 199.202 254.882 169.733 254.978C139.881 255.073 133.141 235.485 134.826 219.707Z" fill="white"/>
<path d="M169.292 239.659C159.718 239.659 151.963 231.904 151.963 222.33V189.223H186.622V222.33C186.641 231.904 178.867 239.659 169.292 239.659Z" fill="#F1B69A"/>
<path d="M186.641 187.289V207.624C186.641 207.624 180.82 217.754 169.312 217.754C160.063 217.754 151.983 208.984 151.983 208.984V187.308H186.641V187.289Z" fill="#150A08"/>
<path d="M120.809 149.797C111.446 135.55 100.57 144.703 100.57 154.737C100.57 169.251 116.309 181.755 125.309 171.338C134.29 160.922 120.809 149.797 120.809 149.797Z" fill="#F1B69A"/>
<path d="M118.76 156.384C112.92 145.488 104.859 155.656 107.942 159.696" stroke="#E07E61" stroke-miterlimit="10" stroke-linecap="round"/>
<path d="M214.444 149.797C223.807 135.55 234.683 144.703 234.683 154.737C234.683 169.251 218.944 181.755 209.944 171.338C200.944 160.922 214.444 149.797 214.444 149.797Z" fill="#F1B69A"/>
<path d="M216.493 156.384C222.334 145.488 230.395 155.656 227.312 159.696" stroke="#E07E61" stroke-miterlimit="10" stroke-linecap="round"/>
<path d="M167.569 205.728C130.536 205.709 108.631 165.249 117.286 123.678C124.428 89.4414 210.805 89.4414 217.929 123.678C226.603 165.23 204.64 205.728 167.569 205.728Z" fill="#F1B69A"/>
<path d="M222.237 137.293C222.237 137.293 221.759 174.593 207.838 192.038C193.936 209.482 169.312 210.611 169.312 210.611C169.312 210.611 141.719 209.482 127.817 192.038C113.916 174.593 113.418 137.293 113.418 137.293L115.352 133.54C116.769 143.535 123.298 169.443 131.168 175.168C144.055 170.86 153.687 170.381 168.392 170.381C184.113 170.381 194.128 172.066 205.061 173.445C211.38 167.872 219.059 142.654 220.322 133.54L222.237 137.293Z" fill="#D76A40"/>
<path opacity="0.5" d="M162.648 164.119C166.458 165.938 175.056 161.898 175.228 164.119C175.4 166.341 170.671 168.294 168.947 168.294C167.205 168.294 162.648 164.119 162.648 164.119Z" fill="#F1B69A"/>
<path d="M162.782 152.956C157.382 164.636 165.463 166.915 167.627 167.183" stroke="#E07E61" stroke-miterlimit="10" stroke-linecap="round"/>
<path d="M154.146 175.187C168.316 176.719 177.794 175.149 184.534 175.379C184.534 175.379 176.052 187.365 166.056 184.991C156.061 182.597 154.146 175.187 154.146 175.187Z" fill="white"/>
<path d="M152.978 121.113C150.661 115.943 137.104 118.298 135.19 121.993C133.275 125.67 139.613 126.704 144.323 126.474C149.034 126.225 154.453 124.406 152.978 121.113Z" fill="#D76A40"/>
<path d="M182.275 121.113C184.592 115.943 198.148 118.298 200.063 121.993C201.978 125.67 195.64 126.704 190.93 126.474C186.219 126.225 180.8 124.406 182.275 121.113Z" fill="#D76A40"/>
<path opacity="0.5" d="M163.95 188.476C169.139 188.495 176.569 185.795 177.718 188.476C178.867 191.157 172.548 196.518 168.603 196.135C164.678 195.752 158.033 188.457 163.95 188.476Z" fill="#F1B69A"/>
<path d="M143.174 141.027C143.174 143.076 144.84 144.761 146.908 144.761C148.957 144.761 150.642 143.095 150.642 141.027C150.642 138.978 148.976 137.293 146.908 137.293C144.84 137.293 143.174 138.978 143.174 141.027Z" fill="#150A08"/>
<path d="M188.345 144.761C190.407 144.761 192.078 143.089 192.078 141.027C192.078 138.965 190.407 137.293 188.345 137.293C186.282 137.293 184.611 138.965 184.611 141.027C184.611 143.089 186.282 144.761 188.345 144.761Z" fill="#150A08"/>
<path d="M139.249 98.6517L147.885 96.5645C147.885 96.5645 136.645 114.602 160.58 118.068C184.515 121.534 209.466 105.315 189.59 97.0432L196.809 96.5645L179.422 83.2182L139.249 98.6517Z" fill="#D76A40"/>
</svg>
