<svg width="363" height="355" viewBox="0 0 363 355" fill="none" xmlns="http://www.w3.org/2000/svg">
<path d="M251.108 222.092C234.656 231.143 211.993 228.078 199.149 209.838C191.955 199.62 187.383 185.214 184.775 173.113C168.545 97.84 211.576 141.824 210.234 95.6865C208.891 49.5492 210.436 18.9766 269.59 2.91791C269.59 2.91791 322.622 -13.1408 305.416 52.0013C302.263 63.9394 297.551 75.7992 289.861 85.576C281.78 95.8508 271.052 103.555 261.043 111.796C249.064 121.659 257.402 138.025 261.903 149.602C267.498 163.991 272.995 178.575 270.414 194.282C268.271 207.307 260.759 216.784 251.108 222.092Z" fill="url(#paint0_linear_162_2)"/>
<g opacity="0.8">
<path d="M235.055 220.201C234.844 220.201 234.65 220.061 234.59 219.847C234.509 219.555 226.514 190.234 224.841 156.604C223.859 136.835 225.22 119.463 228.886 104.966C233.484 86.7953 241.738 73.113 253.422 64.2995C253.635 64.1392 253.937 64.1809 254.097 64.3947C254.258 64.6072 254.216 64.9096 254.002 65.07C227.914 84.75 224.269 125.682 225.803 156.556C227.471 190.08 235.438 219.298 235.518 219.59C235.588 219.847 235.438 220.113 235.181 220.183C235.14 220.196 235.097 220.201 235.055 220.201Z" fill="white"/>
</g>
<path d="M225.962 249.442C223.715 249.125 221.649 247.572 219.92 244.302C212.74 230.721 226.158 210.156 226.445 195.892C226.734 181.55 223.589 167.566 220.109 153.77C216.521 139.544 214.676 124.424 224.439 112.147C232.856 101.562 247.298 93.4941 260.429 101.342C284.75 115.874 284.108 91.5687 288.312 75.1777C293.151 56.3098 314.285 34.3928 335.262 38.4235C354.072 42.0383 361.827 68.6924 361.834 85.219C361.836 93.8487 358.659 107.026 352.037 113.226C336.795 127.495 302.264 127.397 315.602 155.054C320.1 164.378 324.326 174.359 315.794 182.866C307.054 191.58 292.604 192.344 281.677 196.711C269.249 201.679 260.839 211.877 253.306 222.497C249.644 227.658 235.988 250.851 225.962 249.442Z" fill="url(#paint1_linear_162_2)"/>
<g opacity="0.8">
<path d="M224.66 245.125C224.615 245.123 224.569 245.114 224.525 245.097C224.275 245.005 224.144 244.729 224.235 244.479C224.344 244.18 235.266 214.181 251.84 179.97C261.576 159.872 271.331 142.272 280.831 127.658C292.722 109.369 304.254 95.7243 315.105 87.1051C315.313 86.9396 315.617 86.9748 315.783 87.1833C315.948 87.3919 315.913 87.6956 315.704 87.8612C291.292 107.251 267.972 148.881 252.707 180.391C236.154 214.558 225.25 244.51 225.141 244.809C225.068 245.013 224.868 245.137 224.66 245.125Z" fill="white"/>
</g>
<path d="M37.0097 27.211L29.4281 26.773C24.6245 26.5383 20.3005 31.78 20.3005 36.1822V304.746C20.3005 310.851 26.5355 312.079 31.3392 311.589L37.0097 311.01V27.211V27.211Z" fill="url(#paint2_linear_162_2)"/>
<path d="M241.423 36.7038L32.4474 26.4238C27.6437 26.1878 23.7317 29.5915 23.7317 34.0275V304.69C23.7317 309.127 27.6437 312.32 32.4474 311.825L241.424 290.316C245.199 289.928 248.247 286.446 248.247 282.539V44.1159C248.246 40.2078 245.198 36.8902 241.423 36.7038Z" fill="#D8DEE8"/>
<path opacity="0.3" d="M32.447 308.154C29.8555 308.416 27.7424 306.685 27.7424 304.294V34.2076C27.7424 31.8169 29.8555 29.9723 32.447 30.0949L241.424 39.9668C243.464 40.0633 245.121 41.8609 245.121 43.9753V282.847C245.121 284.961 243.464 286.849 241.424 287.055L32.447 308.154Z" fill="url(#paint3_linear_162_2)"/>
<path d="M227.954 280.649L49.2163 297.87V48.6915L227.954 55.4232V280.649Z" fill="white"/>
<path opacity="0.3" d="M156.464 56.642L85.0305 57.5363L86.6326 41.4268C86.7538 39.3332 88.2673 37.6151 90.2591 37.3088L102.356 35.4499C103.781 35.2309 105.008 34.2897 105.63 32.9379L106.941 30.0896L138.584 32.0437L156.464 56.642Z" fill="#97A6B7"/>
<path d="M194.61 46.1911C194.271 44.3687 192.811 43.0886 190.971 43.0065L179.557 42.4955C174.376 42.2634 170.578 38.0542 170.768 32.7239L171.209 20.3699C171.291 18.0848 169.659 16.2546 167.416 16.1203L163.666 15.8961C160.806 15.7253 158.903 13.2042 159.303 10.2894C160.004 5.19508 156.513 0.799442 151.456 0.453996C146.357 0.105942 141.599 4.00101 140.839 9.16054C140.726 9.92704 140.468 10.6844 140.047 11.361C138.868 13.2511 136.805 14.2914 134.783 14.1702L130.914 13.9394C128.57 13.8 126.342 15.4451 125.749 17.7589L122.533 30.2992C121.142 35.7221 115.894 39.6419 110.323 39.3917L97.8019 38.8298C95.7513 38.7373 93.7386 39.9326 92.7948 41.8072L85.2498 56.7787C84.6319 58.0053 85.3932 59.3298 86.7398 59.3741L195.323 62.9811C196.512 63.0202 197.52 61.8352 197.301 60.6581L194.61 46.1911ZM149.916 11.1459C148.421 11.0533 147.382 9.75236 147.6 8.24153C147.817 6.73069 149.207 5.58485 150.702 5.68131C152.195 5.77908 153.227 7.07874 153.009 8.58437C152.794 10.0926 151.41 11.2384 149.916 11.1459Z" fill="url(#paint4_linear_162_2)"/>
<path d="M195.254 46.5263C194.915 44.7039 193.455 43.4238 191.614 43.3417L180.2 42.8307C175.02 42.5986 171.221 38.3894 171.412 33.0591L171.852 20.7052C171.933 18.42 170.302 16.5898 168.06 16.4555L164.31 16.2313C161.45 16.0605 159.547 13.5394 159.947 10.6246C160.648 5.53028 157.157 1.13465 152.099 0.789201C147.001 0.441147 142.243 4.33621 141.483 9.49575C141.37 10.2622 141.112 11.0196 140.69 11.6962C139.512 13.5864 137.448 14.6266 135.427 14.5054L131.558 14.2746C129.214 14.1352 126.986 15.7803 126.393 18.0941L123.177 30.6344C121.786 36.0573 116.538 39.9771 110.966 39.7269L98.4456 39.165C96.3951 39.0725 94.3824 40.2678 93.4386 42.1424L85.8936 57.1139C85.2757 58.3405 86.0369 59.665 87.3835 59.7093L195.967 63.3163C197.156 63.3554 198.164 62.1704 197.945 60.9933L195.254 46.5263ZM150.56 11.4811C149.065 11.3885 148.026 10.0876 148.243 8.57673C148.461 7.06589 149.851 5.92005 151.346 6.01652C152.838 6.11428 153.871 7.41395 153.653 8.91957C153.437 10.4278 152.052 11.5736 150.56 11.4811Z" fill="#97A6B7"/>
<path opacity="0.5" d="M176.67 53.4065C166.985 47.427 159.553 51.6663 153.516 44.9229C147.055 37.7037 151.412 28.1994 144.726 23.7138C140.445 20.842 136.627 23.3749 131.649 22.5979C129.827 22.3138 127.88 21.589 125.859 20.1759L123.176 30.6344C121.785 36.0573 116.537 39.9758 110.965 39.7269L98.4444 39.1663C96.3939 39.0738 94.3812 40.2691 93.4374 42.1437L85.8923 57.1152C85.2745 58.3418 86.0357 59.6663 87.3823 59.7106L186.063 62.9878C183.575 59.0406 180.489 55.7621 176.67 53.4065Z" fill="white"/>
<path d="M92.3605 165.086V181.802L77.7344 182.249V165.358L92.3605 165.086ZM94.1529 163.258L75.9407 163.597V184.097L94.1529 183.541V163.258Z" fill="#D8DEE8"/>
<path d="M214.003 179.878L100.849 183.336V163.134L214.003 161.031V179.878Z" fill="#D8DEE8"/>
<path d="M92.3605 194.669V211.382L77.7344 212.085V195.196L92.3605 194.669ZM94.1529 192.81L75.9407 193.466V213.966L94.1529 213.091V192.81Z" fill="#D8DEE8"/>
<path d="M214.003 207.34L100.849 212.77V192.569L214.003 188.491V207.34Z" fill="#D8DEE8"/>
<path d="M92.3605 224.254V240.964L77.7344 241.921V225.036L92.3605 224.254ZM94.1529 222.362L75.9407 223.336V243.836L94.1529 242.644V222.362Z" fill="#D8DEE8"/>
<path d="M214.003 234.801L100.849 242.205V222.004L214.003 215.954V234.801Z" fill="#D8DEE8"/>
<path d="M92.3605 253.838V270.545L77.7344 271.757V254.876L92.3605 253.838ZM94.1529 251.914L75.9407 253.206V273.706L94.1529 272.196V251.914Z" fill="#D8DEE8"/>
<path d="M214.003 262.262L100.849 271.641V251.439L214.003 243.415V262.262Z" fill="#D8DEE8"/>
<path d="M214.003 86.4637L75.2722 83.2256V71.1741L214.003 75.06V86.4637Z" fill="#D8DEE8"/>
<path d="M214.003 111.808L75.2722 110.007V103.982L214.003 106.105V111.808Z" fill="#D8DEE8"/>
<path d="M214.003 121.205L75.2722 119.939V113.913L214.003 115.503V121.205Z" fill="#D8DEE8"/>
<path d="M214.003 130.604L75.2722 129.871V123.845L214.003 124.901V130.604Z" fill="#D8DEE8"/>
<path d="M78.6064 184.975C78.2506 185.002 77.8934 184.928 77.5857 184.741L69.0917 179.587C68.2965 179.105 68.1192 178.077 68.6954 177.293C69.2716 176.509 70.3796 176.269 71.1709 176.752L78.3718 181.154L98.4364 158.914C99.0556 158.228 100.105 158.129 100.779 158.693C101.453 159.256 101.5 160.268 100.883 160.954L79.8891 184.338C79.5476 184.719 79.0796 184.938 78.6064 184.975Z" fill="#97A6B7"/>
<path d="M79.6964 216.702C79.3418 216.743 78.9846 216.68 78.6783 216.505L70.2038 211.656C69.4112 211.202 69.2339 210.182 69.8088 209.379C70.3837 208.576 71.4891 208.297 72.2777 208.752L79.4604 212.896L99.4768 189.975C100.095 189.269 101.141 189.133 101.814 189.673C102.487 190.211 102.532 191.22 101.918 191.928L80.9739 216.024C80.6349 216.414 80.1683 216.649 79.6964 216.702Z" fill="#97A6B7"/>
<path d="M78.6064 246.752C78.2506 246.804 77.8934 246.754 77.5857 246.589L69.0917 242.017C68.2965 241.59 68.1192 240.574 68.6954 239.75C69.2716 238.928 70.3796 238.611 71.1709 239.04L78.3718 242.948L98.4364 219.331C99.0556 218.603 100.105 218.433 100.779 218.951C101.453 219.468 101.5 220.476 100.883 221.204L79.8891 246.03C79.5476 246.431 79.0796 246.683 78.6064 246.752Z" fill="#97A6B7"/>
<path d="M78.6064 272.348C78.2506 272.41 77.8934 272.37 77.5857 272.213L69.0917 267.883C68.2965 267.477 68.1192 266.467 68.6954 265.628C69.2716 264.788 70.3796 264.44 71.1709 264.847L78.3718 268.55L98.4364 244.363C99.0556 243.617 100.105 243.416 100.779 243.915C101.453 244.413 101.5 245.421 100.883 246.167L79.8891 271.589C79.5476 272 79.0796 272.264 78.6064 272.348Z" fill="#97A6B7"/>
<path d="M247.975 216.894L199.931 219.496V140.644L247.975 131.755V216.894Z" fill="url(#paint5_linear_162_2)"/>
<path d="M308.632 214.763L247.974 216.894V131.755L308.632 139.935V214.763Z" fill="url(#paint6_linear_162_2)"/>
<path d="M320.91 209.894V308.992L239.276 321.266L239.316 207.171V207.162L320.91 209.894Z" fill="url(#paint7_linear_162_2)"/>
<path d="M239.199 207.16V321.267L175.114 309.873V212.886L193.845 211.218L219.992 208.879L239.199 207.16Z" fill="url(#paint8_linear_162_2)"/>
<path d="M220.116 208.881V227.611L193.648 228.156V211.213L220.116 208.881Z" fill="white"/>
<path opacity="0.2" d="M320.911 304.609V308.993L239.235 321.266L239.255 207.171C240.094 207.441 254.77 212.333 257.236 229.461C258.659 239.305 258.93 251.079 264.879 259.515C272.97 270.977 289.457 267.583 298.284 277.534C301.008 280.603 302.821 284.272 304.066 288.162C306.556 295.908 304.703 303.015 314.836 304.041C316.667 304.226 318.668 304.352 320.911 304.609Z" fill="url(#paint9_linear_162_2)"/>
<path d="M303.792 155.885L286.846 154.728V141.986L303.792 143.529V155.885Z" fill="white"/>
<path d="M312.706 235.486L294.928 234.947V220.771L312.706 222.268V235.486Z" fill="white"/>
<path d="M258.346 187.278C258.346 187.278 257.479 185.546 258.346 183.379C259.212 181.213 259.212 177.746 259.645 176.447C259.75 176.133 259.729 175.946 259.63 175.872C259.426 175.721 258.49 176.966 257.913 178.179C256.888 180.333 257.172 181.971 256.613 182.078C255.987 182.198 255.287 180.215 254.881 180.346C254.565 180.446 254.881 181.725 254.881 182.945C254.881 183.812 257.047 188.144 257.047 188.144L258.346 187.278Z" fill="url(#paint10_linear_162_2)"/>
<path d="M305.575 206.013C305.68 203.891 305.906 199.254 303.342 197.638C299.954 195.502 294.968 200.697 289.382 202.105C283.51 203.584 274.033 201.617 258.67 184.795C257.739 185.726 256.809 186.656 255.878 187.587C257.464 193.169 261.537 204.149 272.071 212.157C274.531 214.026 289.474 225.384 298.874 219.416C303.483 216.489 305.365 210.284 305.575 206.013Z" fill="url(#paint11_linear_162_2)"/>
<path d="M308.314 324.746C308.747 325.098 308.826 325.975 308.879 326.55C308.902 326.807 308.914 326.935 308.885 327.026C308.676 327.687 307.395 327.756 305.385 327.961C302.209 328.285 301.264 328.534 301.017 328.062C300.783 327.619 301.348 326.894 301.41 326.815C301.752 326.385 302.17 326.228 302.98 325.962C304.478 325.47 305.491 325.2 305.797 325.118C307.711 324.607 308.03 324.515 308.314 324.746Z" fill="url(#paint12_linear_162_2)"/>
<path d="M306.427 321.846L306.109 325.464C306.199 325.639 307.274 326.163 308.128 325.713L308.944 322.157L306.427 321.846Z" fill="url(#paint13_linear_162_2)"/>
<path d="M280.56 323.147C281.079 323.719 281.196 324.774 280.746 325.294C280.303 325.805 279.637 325.421 277.747 325.478C275.723 325.537 275.193 326.016 273.818 325.637C273.263 325.483 272.281 325.11 272.299 324.714C272.312 324.435 272.812 324.29 274.482 323.731C276.851 322.937 276.841 322.894 277.344 322.81C278.606 322.601 279.874 322.391 280.56 323.147Z" fill="url(#paint14_linear_162_2)"/>
<path d="M279.263 319.844L278.248 323.222C278.324 323.403 279.357 324.008 280.242 323.625L281.75 320.346L279.263 319.844Z" fill="url(#paint15_linear_162_2)"/>
<path d="M288.285 245.867C288.139 257.219 287.365 269.983 285.506 283.849C283.669 297.555 281.095 309.938 278.287 320.828C279.582 321.176 280.878 321.525 282.174 321.873C285.46 318.808 289.607 313.984 291.608 307.166C292.85 302.935 292.436 300.76 293.223 295.555C294.477 287.268 297.018 282.926 299.643 276.244C302.002 270.239 304.791 261.426 306.287 249.646C300.286 248.386 294.285 247.126 288.285 245.867Z" fill="url(#paint16_linear_162_2)"/>
<path opacity="0.3" d="M288.285 245.867C291.824 248.564 296.221 252.818 296.083 257.943C295.98 261.747 293.476 262.446 291.616 267.994C289.336 274.797 292.114 276.687 290.498 285.304C289.297 291.718 287.821 290.333 286.031 298.147C284.438 305.104 285.146 308.222 282.681 313.782C281.263 316.981 279.525 319.34 278.287 320.826C279.582 321.174 280.878 321.524 282.174 321.872C285.46 318.807 289.607 313.983 291.608 307.165C292.85 302.933 292.436 300.759 293.223 295.554C294.477 287.267 297.018 282.925 299.643 276.243C302.002 270.237 304.791 261.425 306.287 249.645C300.286 248.386 294.285 247.126 288.285 245.867Z" fill="url(#paint17_linear_162_2)"/>
<path d="M302.558 245.919C303.35 260.356 304.001 275.063 304.495 290.029C304.865 301.261 305.137 312.349 305.317 323.291C306.64 323.454 307.964 323.619 309.288 323.781C310.567 321.401 312.265 317.76 313.429 313.096C314.842 307.429 314.515 304.065 315.136 298.192C315.832 291.605 316.842 290.172 318.631 281.863C322.262 265.001 324.08 256.569 320.028 251.324C318.714 249.621 314.592 245.35 302.558 245.919Z" fill="url(#paint18_linear_162_2)"/>
<path d="M297.037 206.317C295.552 205.353 296.905 202.552 296.985 196.535C297.082 189.16 295.124 187.786 296.697 184.892C298.621 181.355 303.462 179.891 306.67 179.822C307.378 179.806 307.544 179.42 313.471 180.956C324.151 183.722 326.825 180.756 331.606 183.718C336.227 186.579 334.203 189.713 338.69 193.069C345.962 198.508 353.61 192.628 358.809 197.177C363.726 201.482 363.84 212.446 358.667 218.429C352.805 225.213 342.233 223.174 335.148 221.829C333.657 221.546 326.127 219.965 318.288 214.179C313.951 210.977 310.973 207.559 309.078 205.04C308.633 204.54 307.94 203.934 307.023 203.836C305.923 203.719 305.041 204.391 304.614 204.686C302.381 206.236 298.497 207.263 297.037 206.317Z" fill="url(#paint19_linear_162_2)"/>
<path d="M302.433 198.348C302.433 198.348 314.839 194.731 320.302 200.915C321.153 201.878 322.015 203.296 322.676 206.426C324.995 217.408 318.824 221.32 319.666 231.284C319.762 232.426 320.839 243.382 328.797 250.117C332.581 253.32 336.894 254.696 336.787 257.535C336.71 259.579 334.379 261.442 332.222 262.1C328.092 263.361 325.683 259.88 320.237 258.676C314.545 257.417 313.226 260.345 304.258 261.529C301.272 261.923 287.645 263.723 284.283 258.105C282.852 255.714 284.617 254.211 287.136 244.408C287.392 243.416 291.754 226.188 290.434 218.681C290.32 218.031 289.934 215.392 290.049 211.892C290.077 211.027 290.185 210.059 290.434 208.904C290.434 208.904 291.489 204.013 295.293 199.815C295.838 199.214 296.488 198.585 302.433 198.348Z" fill="url(#paint20_linear_162_2)"/>
<g opacity="0.2">
<path d="M320.302 200.915C321.552 200.9 322.528 205.729 322.676 206.426C324.995 217.407 318.824 221.319 319.666 231.284C319.762 232.426 320.839 243.382 328.797 250.117C332.582 253.32 336.894 254.696 336.787 257.535C336.71 259.579 334.379 261.442 332.222 262.1C328.092 263.361 325.683 259.88 320.237 258.676C314.545 257.417 313.226 260.344 304.258 261.529C301.272 261.923 287.645 263.723 284.283 258.105C283.936 257.525 283.805 257.271 283.838 257.023C284.214 254.292 296.83 256.775 299.991 251.8C303.08 246.939 295.076 238.212 297.758 235.607C299.851 233.57 305.191 238.447 309.485 236.165C312.178 234.733 312.621 231.463 313.952 224.438C316.287 212.107 318.404 200.936 320.302 200.915Z" fill="url(#paint21_linear_162_2)"/>
</g>
<path d="M306.416 190.301C306.248 191.086 305.393 195.298 307.116 196.381C307.489 196.616 308.207 196.75 309.642 197.02C310.582 197.196 311.371 197.304 311.928 197.37C311.847 198.077 311.61 199.227 310.795 200.272C308.51 203.204 303.929 202.445 303.276 202.325C300.971 201.905 298.704 201.194 298.157 200.758C297.322 200.096 296.667 199.598 296.28 199.094C297.171 198.662 298.971 197.527 300.18 197.154C301.083 196.876 301.931 196.678 302.701 196.536C302.827 195.723 302.954 194.909 303.082 194.094C304.192 192.831 305.304 191.567 306.416 190.301Z" fill="url(#paint22_linear_162_2)"/>
<path d="M306.497 192.401C306.497 192.401 306.186 195.488 303.185 196.032C300.498 196.519 298.476 190.026 299.85 188.347C300.309 187.786 301.441 187.255 302.422 187.282C303.113 187.302 305.444 188.191 305.77 190.523C306.234 190.034 306.813 189.893 307.098 190.098C307.461 190.357 307.266 191.113 307.222 191.284C307.071 191.878 306.684 192.246 306.497 192.401Z" fill="url(#paint23_linear_162_2)"/>
<path d="M301.719 242.501L293.353 221.784C292.787 220.382 293.532 218.796 294.972 218.336L311.529 213.047C312.487 212.829 313.461 213.344 313.819 214.259L322.374 236.101C322.801 237.188 322.2 238.407 321.079 238.733L304.111 243.656C303.135 243.939 302.104 243.441 301.719 242.501Z" fill="#26264F"/>
<path d="M302.783 230.583C302.783 230.583 301.108 229.466 301.108 228.35C301.108 227.234 299.991 225.558 299.433 225.558C298.875 225.558 298.875 226.116 299.433 227.233C299.991 228.35 297.2 227.791 296.083 226.675C294.965 225.558 293.849 225.558 294.407 226.117C295.29 226.999 295.525 227.792 295.525 227.792C295.525 227.792 296.642 232.259 301.528 231.98L302.783 230.583Z" fill="url(#paint24_linear_162_2)"/>
<path d="M314.509 198.753C318.081 197.159 324.058 203.729 325.119 204.896C330.747 211.084 338.734 225.112 332.378 233.374C327.075 240.267 312.838 241.786 301.108 232.816C301.666 231.699 302.225 230.583 302.783 229.466C304.001 229.908 312.01 232.68 317.86 228.348C319.101 227.429 321.01 226.018 321.211 223.881C321.586 219.901 315.539 218.676 312.835 212.713C310.44 207.437 311.43 200.129 314.509 198.753Z" fill="url(#paint25_linear_162_2)"/>
<path opacity="0.3" d="M157.735 167.061C140.661 193.567 105.039 200.672 77.9132 182.223C50.2228 163.39 42.5526 125.658 61.0398 98.694C79.2376 72.152 115.474 66.8556 141.746 86.1354C167.496 105.032 174.551 140.954 157.735 167.061Z" fill="white"/>
<path d="M5.15305 293.531L3.47536 292.488C0.800431 290.826 0.0704313 287.31 1.84981 284.642L71.5856 180.02L82.2984 187.298L13.1713 291.705C11.4102 294.368 7.82016 295.188 5.15305 293.531Z" fill="url(#paint26_linear_162_2)"/>
<path d="M160.955 171.077C141.403 201.569 100.469 209.899 69.1835 188.747C37.1456 167.087 28.2631 123.509 49.6886 92.4081C70.7295 61.8681 112.475 55.9342 142.631 78.1849C172.1 99.9297 180.169 141.112 160.955 171.077ZM152.385 165.018C168.66 139.779 161.833 105.038 136.921 86.7793C111.521 68.163 76.5174 73.3095 58.9517 98.9572C41.1163 124.997 48.518 161.427 75.2412 179.627C101.439 197.468 135.869 190.632 152.385 165.018Z" fill="url(#paint27_linear_162_2)"/>
<path opacity="0.3" d="M71.5858 180.02L62.6941 193.359C64.9832 197.809 65.18 201.272 64.6703 203.898C62.7554 213.776 50.3167 214.923 43.9384 229.899C40.7368 237.414 43.3257 238.399 39.7513 244.742C33.8409 255.23 26.0403 253.822 20.8808 263.188C15.6613 272.662 20.3972 279.993 15.7956 283.367C13.8272 284.81 10.2775 285.429 3.30866 282.453L1.84996 284.642C0.0718929 287.31 0.800589 290.826 3.47552 292.488L5.15321 293.531C7.82032 295.188 11.409 294.368 13.1728 291.705L82.2998 187.298L71.5858 180.02Z" fill="#D8DEE8"/>
<path d="M164.731 172.008C145.179 202.5 104.245 210.83 72.9596 189.678C40.9217 168.018 32.0392 124.44 53.4647 93.339C74.5056 62.799 116.251 56.8651 146.407 79.1158C175.878 100.861 183.946 142.043 164.731 172.008ZM156.163 165.949C172.438 140.709 165.611 105.969 140.698 87.7102C115.298 69.0939 80.2948 74.2404 62.7292 99.8882C44.8937 125.928 52.2954 162.358 79.0186 180.558C105.215 198.399 139.646 191.563 156.163 165.949Z" fill="url(#paint28_linear_162_2)"/>
<path d="M161.708 169.87C143.225 198.638 104.59 206.432 75.1067 186.448C44.9564 166.012 36.6005 124.969 56.7498 95.6607C76.5562 66.8505 115.916 61.1877 144.393 82.1505C172.258 102.662 179.889 141.572 161.708 169.87ZM156.163 165.949C172.438 140.709 165.611 105.969 140.698 87.7102C115.298 69.0939 80.2949 74.2404 62.7293 99.8881C44.8938 125.928 52.2955 162.358 79.0187 180.558C105.215 198.399 139.646 191.563 156.163 165.949Z" fill="url(#paint29_linear_162_2)"/>
<path d="M163.714 346.679C163.574 345.906 161.077 345.206 159.841 346.242C159.227 346.756 158.805 347.799 159.16 348.269C159.289 348.44 158.759 348.741 159.267 348.748C160.948 348.767 163.854 347.448 163.714 346.679Z" fill="url(#paint30_linear_162_2)"/>
<path d="M160.983 346.684L158.393 346.813C159.29 345.182 158.212 340.745 158.212 340.745L161.008 340.827C161.008 340.827 160.939 342.115 160.768 344.029C160.711 344.683 160.819 345.67 160.983 346.684Z" fill="url(#paint31_linear_162_2)"/>
<path d="M161.325 346.645C161.325 346.645 158.234 345.933 157.899 346.546C157.564 347.159 157.305 348.801 159.267 348.748C161.227 348.694 161.5 347.165 161.325 346.645Z" fill="url(#paint32_linear_162_2)"/>
<path d="M196.499 352.287C196.251 351.541 193.682 351.197 192.603 352.396C192.067 352.991 191.795 354.082 192.212 354.499C192.364 354.65 191.882 355.023 192.385 354.958C194.054 354.741 196.745 353.029 196.499 352.287Z" fill="url(#paint33_linear_162_2)"/>
<path d="M193.463 353.005L190.919 353.504C191.573 351.762 189.868 347.525 189.868 347.525L192.647 347.206C192.647 347.206 192.764 348.491 192.87 350.408C192.907 351.065 193.154 352.026 193.463 353.005Z" fill="url(#paint34_linear_162_2)"/>
<path d="M194.129 352.587C194.129 352.587 190.968 352.314 190.723 352.969C190.478 353.623 190.451 355.285 192.385 354.958C194.32 354.631 194.374 353.077 194.129 352.587Z" fill="url(#paint35_linear_162_2)"/>
<path d="M170.751 263.437C170.058 275.287 169.088 287.61 167.78 300.363C166.266 315.138 164.426 329.254 162.363 342.67C159.819 343.542 157.469 342.67 157.469 342.67C157.469 342.67 154.496 337.8 152.226 324.857C150.77 316.552 150.67 316.656 150.654 315.208C150.572 307.899 153.136 305.783 153.625 299.25C154.077 293.205 152.153 291.396 151.003 284.591C150.12 279.359 149.788 271.734 152.575 261.767C158.634 262.323 164.692 262.88 170.751 263.437Z" fill="url(#paint36_linear_162_2)"/>
<path opacity="0.3" d="M170.751 263.437C170.058 275.287 169.088 287.61 167.78 300.363C166.266 315.138 164.426 329.254 162.363 342.67C159.819 343.542 157.469 342.67 157.469 342.67C157.502 341.428 157.588 339.557 157.847 337.297C158.535 331.302 159.632 329.596 159.744 325.916C159.887 321.21 158.183 321.065 157.847 316.432C157.324 309.249 161.269 307.547 161.64 301.257C162.034 294.613 157.873 292.426 154.686 284.186C152.805 279.322 151.134 272.019 152.575 261.767C158.634 262.323 164.692 262.88 170.751 263.437Z" fill="url(#paint37_linear_162_2)"/>
<path d="M183.508 263.065C186.99 274.795 190.365 289.363 192.246 306.301C194.071 322.737 194.038 337.335 193.294 349.35C192.187 349.659 191.08 349.968 189.974 350.278C183.538 343.545 181.24 337.356 180.362 332.836C179.064 326.15 181.021 323.882 179.314 316.321C178.922 314.582 178.369 312.714 171.975 300.178C165.872 288.214 164.62 286.476 163.587 282.178C162.111 276.045 162.501 270.606 163.063 266.963C169.876 265.663 176.692 264.364 183.508 263.065Z" fill="url(#paint38_linear_162_2)"/>
<path d="M210.951 237.715L221.872 212.133C222.418 210.856 221.685 209.393 220.335 209.065L200.33 204.206C199.25 203.944 198.139 204.511 197.718 205.541L187.673 230.128C187.172 231.352 187.832 232.742 189.096 233.129L208.225 238.982C209.322 239.318 210.498 238.772 210.951 237.715Z" fill="#26264F"/>
<path d="M210.455 236.484L220.656 212.588C221.166 211.394 220.481 210.028 219.219 209.722L200.534 205.184C199.524 204.939 198.487 205.468 198.094 206.43L188.711 229.397C188.244 230.54 188.859 231.838 190.04 232.199L207.907 237.666C208.937 237.982 210.034 237.471 210.455 236.484Z" fill="#F4F7FA"/>
<path d="M216.754 229.459L217.081 226.445L218.818 223.134C219.054 222.683 219.178 222.181 219.178 221.673V218.385L217.08 223.235C217.08 223.235 215.704 221.99 215.179 221.728C214.655 221.466 214.721 222.514 215.114 222.908C215.508 223.301 214.917 226.512 215.311 226.839L215.179 228.805L216.754 229.459Z" fill="url(#paint39_linear_162_2)"/>
<path d="M200.109 210.259C198.478 206.271 194.978 203.978 193.162 202.788C188.867 199.974 186.117 200.487 176.254 198.987C163.111 196.987 161.537 195.092 157.119 196.627C151.316 198.645 148.285 203.912 146.897 206.326C139.894 218.495 148.082 224.68 145.979 248.922C145.121 258.822 142.92 267.424 148.207 272.512C149.32 273.584 150.565 274.144 153.056 275.264C162.933 279.708 171.79 278.943 177.172 278.41C183.094 277.823 186.087 277.488 187.657 275.396C190.165 272.053 187.583 267.806 187.133 260.454C186.81 255.176 188.009 250.994 190.41 242.629C195.989 223.185 203.233 217.899 200.109 210.259Z" fill="url(#paint40_linear_162_2)"/>
<path d="M178.107 191.815C178.706 189.683 177.66 187.708 177.429 187.283C176.463 185.503 176.217 185.259 175.756 184.95L175.116 184.555C175.116 184.555 175.079 184.541 175.04 184.526C174.629 184.38 173.228 184.337 172.945 184.399C172.039 184.592 171.073 188.285 171.349 193.504C171.312 193.703 171.275 193.904 171.24 194.106C171.098 194.93 170.984 195.738 170.896 196.528C170.812 197.284 169.741 197.266 168.982 197.218C165.902 197.021 164.395 197.283 164.265 197.742C164.02 198.601 167.672 201.411 172.184 202.044C178.238 202.088 183.162 201.444 182.633 200.491C182.399 200.068 177.707 198.842 176.388 197.627C175.179 196.515 175.278 195.367 175.179 194.544C175.543 194.354 177.667 193.384 178.107 191.815Z" fill="url(#paint41_linear_162_2)"/>
<path d="M176.994 183.072C176.989 184.689 176.226 186.417 175.838 186.693C175.788 186.729 175.505 186.952 175.252 187.333C175.218 187.385 175.187 187.445 175.16 187.525C174.805 188.544 176.426 189.743 176.113 190.2C175.886 190.531 174.784 190.087 174.654 190.374C174.53 190.643 175.445 191.201 175.306 191.523C175.2 191.766 174.637 191.543 174.281 191.916C174.104 192.101 174.156 192.249 173.968 192.816C173.863 193.136 173.714 193.487 173.599 193.683C173.04 194.632 171.458 194.98 171.153 194.599C171.068 194.493 171.141 194.404 171.054 194.049C171.054 194.049 170.973 193.719 170.745 193.339C170.417 192.795 169.626 192.405 168.83 191.832C167.353 190.768 166.951 189.862 166.831 189.556C166.788 189.446 166.762 189.364 166.743 189.305C166.358 188.114 166.357 186.362 166.893 185.285C167.791 183.481 169.815 184.337 171.473 182.55C173.386 180.488 172.246 177.67 173.285 177.358C174.428 177.014 177.003 180.081 176.994 183.072Z" fill="#26264F"/>
<path d="M175.533 189.819C175.136 189.274 174.44 189.786 174.435 190.49C174.431 191.195 175.114 191.928 175.776 191.788C176.439 191.65 176.066 190.553 175.533 189.819Z" fill="url(#paint42_linear_162_2)"/>
<path d="M175.21 188.641L176.129 189.837C176.129 189.837 177.12 191.303 177.699 190.5C178.172 189.844 178.295 189.858 178.323 189.886C178.329 189.891 178.33 189.899 178.331 189.899C178.339 189.896 178.262 189.573 178.192 189.287C178.437 189.639 178.774 190.209 178.978 190.975C179.176 191.72 179.388 192.517 178.969 193.284C178.944 193.328 178.481 194.144 177.617 194.341C177.617 194.341 177.277 194.418 175.84 194.166C175.84 194.166 177.411 193.027 177.434 192.756C177.5 192.019 176.479 191.622 175.72 190.114C175.431 189.531 175.287 189.004 175.21 188.641Z" fill="#26264F"/>
<path opacity="0.3" d="M172.061 271.465C173.803 267.997 169.535 263.386 172.323 258.097C174.692 253.606 178.995 254.611 180.974 250.496C183.363 245.524 178.166 241.808 178.352 234.244C178.575 225.202 186.355 216.151 190.934 216.945C193.897 217.458 194.278 221.878 196.362 226.716C194.518 230.761 192.363 235.828 190.41 242.633C188.01 250.998 186.81 255.18 187.133 260.458C187.584 267.809 190.165 272.057 187.657 275.4C186.086 277.492 183.093 277.828 177.172 278.413C171.791 278.947 162.935 279.712 153.056 275.268C151.806 274.705 150.87 274.284 150.106 273.868C165.539 276.183 170.679 274.216 172.061 271.465Z" fill="url(#paint43_linear_162_2)"/>
<path d="M217.343 228.87C216.382 228.456 215.42 228.04 214.46 227.625C212.835 229.286 210.764 230.902 209.021 230.377C206.423 229.595 207.072 224.816 203.91 216.418C200.326 206.904 196.259 204.458 194.211 203.574C193.067 203.08 192.277 202.753 191.328 202.985C186.96 204.053 185.515 215.437 186.741 223.956C187.431 228.755 188.786 238.166 196.504 242.632C197.601 243.267 203.637 246.759 209.61 244.009C214.714 241.657 217.867 235.627 217.343 228.87Z" fill="url(#paint44_linear_162_2)"/>
<defs>
<linearGradient id="paint0_linear_162_2" x1="181.11" y1="114.09" x2="308.849" y2="114.09" gradientUnits="userSpaceOnUse">
<stop stop-color="#FF9085"/>
<stop offset="1" stop-color="#FB6FBB"/>
</linearGradient>
<linearGradient id="paint1_linear_162_2" x1="216.793" y1="139.974" x2="358.081" y2="148.509" gradientUnits="userSpaceOnUse">
<stop offset="0.00359712" stop-color="#E38DDD"/>
<stop offset="1" stop-color="#9571F6"/>
</linearGradient>
<linearGradient id="paint2_linear_162_2" x1="20.3007" y1="169.225" x2="244.815" y2="169.225" gradientUnits="userSpaceOnUse">
<stop stop-color="#444B8C"/>
<stop offset="0.9964" stop-color="#26264F"/>
</linearGradient>
<linearGradient id="paint3_linear_162_2" x1="27.7424" y1="169.135" x2="245.12" y2="169.135" gradientUnits="userSpaceOnUse">
<stop offset="0.00359712" stop-color="#E38DDD"/>
<stop offset="1" stop-color="#9571F6"/>
</linearGradient>
<linearGradient id="paint4_linear_162_2" x1="85.0308" y1="31.7075" x2="197.33" y2="31.7075" gradientUnits="userSpaceOnUse">
<stop stop-color="#444B8C"/>
<stop offset="0.9964" stop-color="#26264F"/>
</linearGradient>
<linearGradient id="paint5_linear_162_2" x1="248.202" y1="137.816" x2="191.688" y2="233.26" gradientUnits="userSpaceOnUse">
<stop stop-color="#FFC444"/>
<stop offset="0.3138" stop-color="#FBA94A"/>
<stop offset="0.9964" stop-color="#F36F56"/>
</linearGradient>
<linearGradient id="paint6_linear_162_2" x1="298.261" y1="139.552" x2="243.359" y2="232.276" gradientUnits="userSpaceOnUse">
<stop stop-color="#FFC444"/>
<stop offset="0.3138" stop-color="#FBA94A"/>
<stop offset="0.9964" stop-color="#F36F56"/>
</linearGradient>
<linearGradient id="paint7_linear_162_2" x1="308.255" y1="210.548" x2="230.574" y2="341.743" gradientUnits="userSpaceOnUse">
<stop stop-color="#FFC444"/>
<stop offset="0.3138" stop-color="#FBA94A"/>
<stop offset="0.9964" stop-color="#F36F56"/>
</linearGradient>
<linearGradient id="paint8_linear_162_2" x1="238.596" y1="213.978" x2="170.181" y2="329.523" gradientUnits="userSpaceOnUse">
<stop stop-color="#FFC444"/>
<stop offset="0.3138" stop-color="#FBA94A"/>
<stop offset="0.9964" stop-color="#F36F56"/>
</linearGradient>
<linearGradient id="paint9_linear_162_2" x1="289.486" y1="242.199" x2="233.711" y2="336.397" gradientUnits="userSpaceOnUse">
<stop stop-color="#FFC444"/>
<stop offset="0.3138" stop-color="#FBA94A"/>
<stop offset="0.9964" stop-color="#F36F56"/>
</linearGradient>
<linearGradient id="paint10_linear_162_2" x1="257.15" y1="178.965" x2="261.248" y2="195.249" gradientUnits="userSpaceOnUse">
<stop stop-color="#FFC444"/>
<stop offset="0.9964" stop-color="#F36F56"/>
</linearGradient>
<linearGradient id="paint11_linear_162_2" x1="326.312" y1="314.477" x2="271.484" y2="170.47" gradientUnits="userSpaceOnUse">
<stop offset="0.00359712" stop-color="#E38DDD"/>
<stop offset="1" stop-color="#9571F6"/>
</linearGradient>
<linearGradient id="paint12_linear_162_2" x1="301.002" y1="326.365" x2="308.91" y2="326.594" gradientUnits="userSpaceOnUse">
<stop stop-color="#444B8C"/>
<stop offset="0.9964" stop-color="#26264F"/>
</linearGradient>
<linearGradient id="paint13_linear_162_2" x1="305.537" y1="326.477" x2="309.863" y2="319.773" gradientUnits="userSpaceOnUse">
<stop stop-color="#FFC444"/>
<stop offset="0.9964" stop-color="#F36F56"/>
</linearGradient>
<linearGradient id="paint14_linear_162_2" x1="272.749" y1="323.053" x2="280.853" y2="325.281" gradientUnits="userSpaceOnUse">
<stop stop-color="#444B8C"/>
<stop offset="0.9964" stop-color="#26264F"/>
</linearGradient>
<linearGradient id="paint15_linear_162_2" x1="277.77" y1="324.347" x2="282.696" y2="317.858" gradientUnits="userSpaceOnUse">
<stop stop-color="#FFC444"/>
<stop offset="0.9964" stop-color="#F36F56"/>
</linearGradient>
<linearGradient id="paint16_linear_162_2" x1="275.51" y1="309.372" x2="297.928" y2="258.835" gradientUnits="userSpaceOnUse">
<stop stop-color="#444B8C"/>
<stop offset="0.9964" stop-color="#26264F"/>
</linearGradient>
<linearGradient id="paint17_linear_162_2" x1="275.51" y1="309.371" x2="297.928" y2="258.835" gradientUnits="userSpaceOnUse">
<stop stop-color="#444B8C"/>
<stop offset="0.9964" stop-color="#26264F"/>
</linearGradient>
<linearGradient id="paint18_linear_162_2" x1="289.093" y1="312.898" x2="317.538" y2="265.492" gradientUnits="userSpaceOnUse">
<stop stop-color="#444B8C"/>
<stop offset="0.9964" stop-color="#26264F"/>
</linearGradient>
<linearGradient id="paint19_linear_162_2" x1="292.699" y1="177.788" x2="371.66" y2="231.422" gradientUnits="userSpaceOnUse">
<stop stop-color="#311944"/>
<stop offset="1" stop-color="#6B3976"/>
</linearGradient>
<linearGradient id="paint20_linear_162_2" x1="320.359" y1="276.335" x2="289.461" y2="195.181" gradientUnits="userSpaceOnUse">
<stop offset="0.00359712" stop-color="#E38DDD"/>
<stop offset="1" stop-color="#9571F6"/>
</linearGradient>
<linearGradient id="paint21_linear_162_2" x1="319.936" y1="275.117" x2="293.431" y2="205.5" gradientUnits="userSpaceOnUse">
<stop offset="0.00359712" stop-color="#E38DDD"/>
<stop offset="1" stop-color="#9571F6"/>
</linearGradient>
<linearGradient id="paint22_linear_162_2" x1="306.117" y1="207.374" x2="301.487" y2="186.365" gradientUnits="userSpaceOnUse">
<stop stop-color="#FFC444"/>
<stop offset="0.9964" stop-color="#F36F56"/>
</linearGradient>
<linearGradient id="paint23_linear_162_2" x1="302.979" y1="188.655" x2="308.284" y2="215.981" gradientUnits="userSpaceOnUse">
<stop stop-color="#FFC444"/>
<stop offset="0.9964" stop-color="#F36F56"/>
</linearGradient>
<linearGradient id="paint24_linear_162_2" x1="298.441" y1="227.752" x2="300.937" y2="242.732" gradientUnits="userSpaceOnUse">
<stop stop-color="#FFC444"/>
<stop offset="0.2327" stop-color="#FCB048"/>
<stop offset="0.9964" stop-color="#F36F56"/>
</linearGradient>
<linearGradient id="paint25_linear_162_2" x1="342.132" y1="291.126" x2="294.642" y2="166.395" gradientUnits="userSpaceOnUse">
<stop offset="0.00359712" stop-color="#E38DDD"/>
<stop offset="1" stop-color="#9571F6"/>
</linearGradient>
<linearGradient id="paint26_linear_162_2" x1="90.1325" y1="196.843" x2="-8.78162" y2="278.022" gradientUnits="userSpaceOnUse">
<stop stop-color="#444B8C"/>
<stop offset="0.9964" stop-color="#26264F"/>
</linearGradient>
<linearGradient id="paint27_linear_162_2" x1="53.6787" y1="174.517" x2="155.739" y2="90.7564" gradientUnits="userSpaceOnUse">
<stop stop-color="#444B8C"/>
<stop offset="0.9964" stop-color="#26264F"/>
</linearGradient>
<linearGradient id="paint28_linear_162_2" x1="179.106" y1="144.571" x2="82.1986" y2="129.473" gradientUnits="userSpaceOnUse">
<stop stop-color="#444B8C"/>
<stop offset="0.9964" stop-color="#26264F"/>
</linearGradient>
<linearGradient id="paint29_linear_162_2" x1="37.1574" y1="123.035" x2="167.512" y2="142.22" gradientUnits="userSpaceOnUse">
<stop stop-color="#444B8C"/>
<stop offset="0.9964" stop-color="#26264F"/>
</linearGradient>
<linearGradient id="paint30_linear_162_2" x1="165.101" y1="344.448" x2="159.603" y2="348.102" gradientUnits="userSpaceOnUse">
<stop stop-color="#444B8C"/>
<stop offset="0.9964" stop-color="#26264F"/>
</linearGradient>
<linearGradient id="paint31_linear_162_2" x1="159.914" y1="348.086" x2="159.486" y2="339.505" gradientUnits="userSpaceOnUse">
<stop stop-color="#FFC444"/>
<stop offset="0.9964" stop-color="#F36F56"/>
</linearGradient>
<linearGradient id="paint32_linear_162_2" x1="164.688" y1="343.827" x2="159.19" y2="347.48" gradientUnits="userSpaceOnUse">
<stop stop-color="#444B8C"/>
<stop offset="0.9964" stop-color="#26264F"/>
</linearGradient>
<linearGradient id="paint33_linear_162_2" x1="197.56" y1="349.884" x2="192.628" y2="354.27" gradientUnits="userSpaceOnUse">
<stop stop-color="#444B8C"/>
<stop offset="0.9964" stop-color="#26264F"/>
</linearGradient>
<linearGradient id="paint34_linear_162_2" x1="192.605" y1="354.547" x2="190.951" y2="346.116" gradientUnits="userSpaceOnUse">
<stop stop-color="#FFC444"/>
<stop offset="0.9964" stop-color="#F36F56"/>
</linearGradient>
<linearGradient id="paint35_linear_162_2" x1="197.065" y1="349.326" x2="192.133" y2="353.713" gradientUnits="userSpaceOnUse">
<stop stop-color="#444B8C"/>
<stop offset="0.9964" stop-color="#26264F"/>
</linearGradient>
<linearGradient id="paint36_linear_162_2" x1="170.751" y1="302.412" x2="150.372" y2="302.412" gradientUnits="userSpaceOnUse">
<stop stop-color="#311944"/>
<stop offset="1" stop-color="#6B3976"/>
</linearGradient>
<linearGradient id="paint37_linear_162_2" x1="170.751" y1="302.412" x2="152.032" y2="302.412" gradientUnits="userSpaceOnUse">
<stop stop-color="#311944"/>
<stop offset="1" stop-color="#6B3976"/>
</linearGradient>
<linearGradient id="paint38_linear_162_2" x1="133.053" y1="316.359" x2="189.114" y2="306.243" gradientUnits="userSpaceOnUse">
<stop stop-color="#311944"/>
<stop offset="0.7407" stop-color="#5C3169"/>
<stop offset="1" stop-color="#6B3976"/>
</linearGradient>
<linearGradient id="paint39_linear_162_2" x1="216.447" y1="220.249" x2="219.461" y2="234.011" gradientUnits="userSpaceOnUse">
<stop stop-color="#FFC444"/>
<stop offset="0.9964" stop-color="#F36F56"/>
</linearGradient>
<linearGradient id="paint40_linear_162_2" x1="200.862" y1="237.445" x2="144.004" y2="237.445" gradientUnits="userSpaceOnUse">
<stop stop-color="#FF9085"/>
<stop offset="1" stop-color="#FB6FBB"/>
</linearGradient>
<linearGradient id="paint41_linear_162_2" x1="178.17" y1="188.419" x2="164.204" y2="220.46" gradientUnits="userSpaceOnUse">
<stop stop-color="#FFC444"/>
<stop offset="0.9964" stop-color="#F36F56"/>
</linearGradient>
<linearGradient id="paint42_linear_162_2" x1="179.214" y1="181.84" x2="163.62" y2="217.615" gradientUnits="userSpaceOnUse">
<stop stop-color="#FFC444"/>
<stop offset="0.9964" stop-color="#F36F56"/>
</linearGradient>
<linearGradient id="paint43_linear_162_2" x1="202.078" y1="232.543" x2="167.216" y2="265.833" gradientUnits="userSpaceOnUse">
<stop stop-color="#FF9085"/>
<stop offset="1" stop-color="#FB6FBB"/>
</linearGradient>
<linearGradient id="paint44_linear_162_2" x1="217.4" y1="223.979" x2="186.321" y2="223.979" gradientUnits="userSpaceOnUse">
<stop stop-color="#FF9085"/>
<stop offset="1" stop-color="#FB6FBB"/>
</linearGradient>
</defs>
</svg>
