<svg width="429" height="436" viewBox="0 0 429 436" fill="none" xmlns="http://www.w3.org/2000/svg">
<path d="M220.886 435.699C194.87 435.699 174.996 432.061 167.07 430.452C138.323 424.612 82.7558 413.327 42.5816 366.083C-18.1985 294.607 -8.73421 181.998 38.4109 107.664C42.1011 101.845 52.556 84.6953 70.562 66.0319C70.6851 66.3057 70.911 66.5329 71.212 66.6496C72.3992 67.1164 73.5834 67.6393 74.7321 68.2057C74.9012 68.2897 75.0805 68.3286 75.2571 68.3286C75.6505 68.3286 76.0303 68.1326 76.2538 67.7887C76.2791 67.7498 76.3023 67.7093 76.3236 67.6673C76.6142 67.0775 76.3725 66.3649 75.7842 66.0755C74.5833 65.4826 73.3455 64.9348 72.105 64.4478C88.8027 47.4711 111.711 29.4799 141.432 17.7643C129.841 24.7619 119.261 33.9551 110.809 44.6282C110.62 44.7231 110.477 44.8989 110.426 45.1137C94.2302 65.8062 86.0313 91.9731 93.8754 118.46C94.5897 120.871 95.4533 123.379 96.4647 125.923C96.39 126.104 96.3138 126.283 96.236 126.462C95.9761 127.065 96.2547 127.764 96.8569 128.024C97.0109 128.089 97.1696 128.12 97.3268 128.12C97.3424 128.12 97.3564 128.12 97.3704 128.12C102.754 140.695 111.638 153.593 123.448 158.745C124.651 159.27 125.882 159.712 127.136 160.073C127.918 160.538 128.756 160.967 129.659 161.361C135.13 163.748 147 165.479 156.672 165.479C161.255 165.479 165.341 165.091 168.025 164.199C190.213 156.833 204.796 136.673 192.729 114.314C188.865 107.154 183.863 100.614 180.527 93.193C177.189 85.7721 175.668 76.9648 179.07 69.5735C185.467 55.6794 206.086 50.8602 220.457 50.8602C221.092 50.8602 221.711 50.8696 222.319 50.8883C223.065 50.9116 223.805 50.9489 224.543 51.0018C232.799 54.9698 239.909 61.1692 245.044 69.2669C256.433 87.2224 259.318 109.063 257.651 129.907C255.867 152.211 246.463 169.243 232.37 186.353C220.236 201.083 206.874 215.223 198.81 232.52C191.407 248.4 188.987 265.994 188.652 283.366C188.587 286.733 189.721 321.894 189.793 331.589C189.804 332.958 190.905 334.064 192.273 334.08C196.861 335.932 209.928 339.009 211.055 339.022C218.202 339.103 238.445 339.328 245.895 339.412C245.905 339.412 245.916 339.412 245.926 339.412C247.445 339.412 248.69 338.194 248.707 336.672C249.238 289.508 263.745 244.544 300.468 212.869C313.83 201.343 328.221 191.957 338.61 177.409C346.182 166.807 351.793 156.291 355.187 145.125L408.991 142.514C410.801 142.425 412.426 141.668 413.628 140.485C440.671 214.154 430.529 301.071 394.976 355.144C394.523 355.16 394.067 355.168 393.611 355.168C386.061 355.168 378.236 353.205 370.06 351.245C361.883 349.283 353.353 347.32 344.39 347.32C338.473 347.32 332.367 348.176 326.05 350.45C293.063 362.324 297.61 407.1 299.461 419.083C299.723 420.771 301.021 422.092 302.682 422.41C273.273 432.688 244.54 435.699 220.886 435.699M209.735 431.519C209.894 431.578 210.054 431.637 210.216 431.697C214.156 433.12 228.621 433.158 234.142 433.158C234.46 433.158 234.748 433.158 235.001 433.158C256.69 433.158 268.71 413.97 268.71 392.283C268.71 370.991 246.572 355.185 225.242 354.615C222.136 353.825 218.884 353.405 215.532 353.405C193.843 353.405 176.263 370.987 176.263 392.674C176.263 412.392 190.797 428.717 209.735 431.519ZM395.58 168.437C393.631 168.437 391.694 169.765 391.451 172.123C387.832 207.257 360.624 219.535 300.6 279.331C237.373 342.321 284.881 411.231 291.415 420.037C291.863 420.641 292.531 421.034 293.276 421.136C293.408 421.154 293.537 421.162 293.665 421.162C295.448 421.162 296.813 419.467 296.349 417.672C292.599 403.122 286.241 351.926 363.812 305.223C434.134 262.884 412.885 198.378 399.246 170.735C398.469 169.162 397.022 168.437 395.58 168.437M61.5567 153.251C61.499 153.251 61.4405 153.256 61.3815 153.263C60.1353 153.449 58.8678 153.582 57.614 153.662C56.9592 153.702 56.4617 154.267 56.5032 154.922C56.5432 155.552 57.0658 156.036 57.688 156.036C57.7132 156.036 57.7388 156.035 57.7643 156.033C59.0838 155.949 60.418 155.809 61.7293 155.615C62.0803 155.563 62.3729 155.363 62.552 155.087C62.7043 154.852 62.775 154.564 62.7308 154.266C62.6436 153.676 62.1362 153.251 61.5567 153.251M47.5106 153.176C46.9367 153.176 46.4313 153.593 46.3381 154.178C46.2346 154.826 46.6762 155.436 47.3245 155.538C48.6314 155.747 49.9645 155.902 51.2864 155.999C51.3159 156.002 51.3455 156.004 51.3748 156.004C51.7876 156.004 52.1576 155.789 52.3708 155.461C52.4764 155.299 52.5435 155.109 52.5589 154.902C52.6072 154.247 52.1159 153.677 51.4613 153.629C50.2055 153.537 48.9398 153.389 47.699 153.192C47.6357 153.181 47.5728 153.176 47.5106 153.176M71.4086 150.665C71.267 150.665 71.1233 150.69 70.9832 150.744C69.8081 151.194 68.5999 151.602 67.3932 151.952C66.7627 152.134 66.4001 152.793 66.5834 153.425C66.7345 153.945 67.209 154.281 67.7244 154.281C67.8341 154.281 67.9458 154.266 68.0564 154.234C69.3266 153.866 70.5976 153.438 71.8344 152.963C72.0778 152.87 72.2727 152.705 72.4047 152.502C72.6049 152.194 72.6599 151.798 72.5184 151.427C72.337 150.956 71.8865 150.665 71.4086 150.665ZM37.6907 150.466C37.2184 150.466 36.7714 150.749 36.5859 151.212C36.3421 151.822 36.639 152.513 37.2483 152.758C38.479 153.249 39.7439 153.694 41.0087 154.079C41.1243 154.115 41.241 154.132 41.3559 154.132C41.7564 154.132 42.1334 153.928 42.3521 153.59C42.4112 153.5 42.4588 153.399 42.4921 153.29C42.6835 152.661 42.3297 151.997 41.7019 151.805C40.5007 151.44 39.2994 151.018 38.1303 150.55C37.986 150.492 37.8371 150.466 37.6907 150.466M80.4572 145.997C80.2312 145.997 80.0028 146.06 79.8005 146.194C78.7556 146.89 77.6659 147.55 76.562 148.156C75.9867 148.472 75.7764 149.194 76.0929 149.77C76.3092 150.164 76.7156 150.386 77.1351 150.386C77.3285 150.386 77.5248 150.338 77.7063 150.238C78.8686 149.6 80.0157 148.906 81.1162 148.174C81.2554 148.082 81.3692 147.965 81.4548 147.833C81.7053 147.447 81.7188 146.935 81.4482 146.527C81.2193 146.182 80.842 145.997 80.4572 145.997M28.6998 145.676C28.3199 145.676 27.9466 145.858 27.7168 146.196C27.332 146.739 27.4874 147.478 28.0296 147.847C28.3193 148.044 28.6115 148.239 28.9069 148.43C29.7223 148.961 30.566 149.473 31.4137 149.954C31.5986 150.058 31.7998 150.108 31.9982 150.108C32.3892 150.108 32.7698 149.915 32.995 149.568C33.0084 149.548 33.021 149.526 33.0331 149.505C33.3566 148.934 33.1559 148.209 32.5848 147.886C31.7787 147.428 30.9774 146.943 30.202 146.438C29.9213 146.256 29.643 146.07 29.3679 145.883C29.163 145.743 28.9302 145.676 28.6998 145.676M88.2612 139.458C87.9484 139.458 87.6356 139.581 87.4022 139.827C86.5355 140.734 85.6174 141.618 84.6729 142.452C84.1827 142.886 84.136 143.638 84.5702 144.129C84.8051 144.394 85.1319 144.531 85.4618 144.531C85.7403 144.531 86.022 144.431 86.2476 144.232C87.2419 143.354 88.2082 142.424 89.1217 141.467C89.173 141.412 89.2197 141.355 89.2586 141.293C89.5636 140.823 89.5029 140.188 89.0828 139.788C88.8525 139.567 88.5568 139.458 88.2612 139.458M22.3521 140.468C22.0443 140.468 21.737 140.588 21.5042 140.824C21.0425 141.294 21.0514 142.044 21.5193 142.505C21.9824 142.959 22.4598 143.409 22.9383 143.841C23.1656 144.047 23.4507 144.149 23.7348 144.149C24.0593 144.149 24.3823 144.017 24.617 143.757C24.6602 143.709 24.6986 143.659 24.7326 143.606C25.0452 143.126 24.9714 142.475 24.5325 142.078C24.0781 141.668 23.6243 141.241 23.1848 140.809C22.9534 140.581 22.6526 140.468 22.3521 140.468ZM94.4418 131.36C94.0373 131.36 93.6436 131.566 93.4226 131.936C92.766 133.025 92.0657 134.085 91.3344 135.098C90.9516 135.63 91.0714 136.372 91.602 136.757C91.8136 136.909 92.0564 136.982 92.2976 136.982C92.6664 136.982 93.0305 136.811 93.2623 136.489C93.7152 135.862 94.1602 135.213 94.585 134.558C94.8822 134.1 95.1732 133.635 95.458 133.162C95.7972 132.6 95.6167 131.871 95.0549 131.531C94.862 131.416 94.6504 131.36 94.4418 131.36M80.8054 69.1782C80.4245 69.1782 80.0503 69.3603 79.8206 69.6995L79.808 69.7198C79.4562 70.2613 79.601 70.9864 80.138 71.3505C81.1996 72.0694 82.2399 72.8412 83.2304 73.6426C83.4513 73.8215 83.7159 73.9087 83.9789 73.9087C84.3243 73.9087 84.6682 73.7578 84.9032 73.4668C84.9296 73.4341 84.953 73.4014 84.9763 73.3656C85.3031 72.863 85.2035 72.183 84.7273 71.7956C83.6832 70.9522 82.5877 70.1399 81.4711 69.3836C81.2668 69.2452 81.0349 69.1782 80.8054 69.1782M82.3826 59.985C82.1276 59.985 81.88 60.1157 81.7523 60.3522C81.6667 60.5016 81.5819 60.6495 81.4991 60.8004C80.9492 61.7901 80.4475 62.8186 80.0101 63.8518C79.852 64.2253 80.0263 64.6547 80.3998 64.8135C80.4931 64.8524 80.5901 64.8711 80.6856 64.8711C80.9299 64.8711 81.1641 64.7497 81.3009 64.5381C81.3239 64.5023 81.3446 64.4649 81.3616 64.4244C81.7789 63.4379 82.2574 62.4591 82.7838 61.5115C82.8632 61.3668 82.9425 61.2268 83.0234 61.0883C83.2257 60.7366 83.1059 60.2884 82.7558 60.0846C82.6391 60.0177 82.5099 59.985 82.3826 59.985M86.9727 53.9008C86.7813 53.9008 86.5899 53.9755 86.4452 54.1233C85.5443 55.0538 84.69 56.0528 83.9057 57.0923C83.6661 57.4206 83.7268 57.8765 84.0504 58.1208C84.1827 58.2204 84.3383 58.2687 84.4908 58.2687C84.7133 58.2687 84.9343 58.1675 85.079 57.9777C85.8259 56.9849 86.6413 56.0311 87.5002 55.1441C87.5329 55.1099 87.5625 55.0725 87.5889 55.0336C87.7757 54.7457 87.7399 54.3551 87.4831 54.1077C87.3415 53.9692 87.1563 53.9008 86.9727 53.9008ZM92.9076 49.1268C92.7753 49.1268 92.643 49.1626 92.5217 49.2372C91.4169 49.9204 90.3432 50.6782 89.3333 51.4904C89.0174 51.7472 88.9676 52.2078 89.2212 52.5237C89.366 52.7026 89.5791 52.7975 89.7939 52.7975C89.9557 52.7975 90.1175 52.7446 90.2529 52.6357C91.2177 51.8592 92.24 51.1372 93.2935 50.4868C93.3899 50.4276 93.4662 50.3498 93.5238 50.2611C93.6731 50.0308 93.6856 49.7259 93.5315 49.4753C93.3931 49.2513 93.1534 49.1268 92.9076 49.1268M99.8305 45.9508C99.7574 45.9508 99.6827 45.9617 99.6095 45.9851C98.3709 46.3787 97.1447 46.8518 95.9652 47.3933C95.5964 47.5614 95.4362 47.9986 95.6042 48.3658C95.7287 48.6366 95.9948 48.7953 96.2718 48.7953C96.3745 48.7953 96.4787 48.7735 96.5768 48.7284C97.7034 48.2118 98.872 47.759 100.053 47.384C100.221 47.3311 100.358 47.2222 100.447 47.0852C100.562 46.9063 100.599 46.6807 100.531 46.4612C100.431 46.15 100.143 45.9508 99.8305 45.9508M107.323 44.5504C107.307 44.5504 107.292 44.5504 107.276 44.5519C105.979 44.6313 104.673 44.7931 103.399 45.0328C103 45.1075 102.739 45.4918 102.812 45.8902C102.879 46.2418 103.187 46.4877 103.532 46.4877C103.578 46.4877 103.624 46.4846 103.669 46.4752C104.885 46.248 106.129 46.0924 107.367 46.0162C107.609 46.0022 107.815 45.8715 107.938 45.6832C108.02 45.5556 108.064 45.4015 108.054 45.2382C108.031 44.8491 107.707 44.5504 107.323 44.5504M305.997 421.223C306.559 420.533 306.854 419.623 306.716 418.649C305.81 412.264 310.208 406.982 346.735 401.033C333.334 409.627 319.605 416.22 305.997 421.223M352.852 81.1257C348.74 68.2835 342.488 56.1757 333.762 45.7906C327.777 38.6669 320.779 32.522 313.091 27.3341C327.586 34.3815 341.33 43.1126 353.816 53.5725C363.542 61.7216 372.245 70.6814 379.974 80.287L352.852 81.1257" fill="url(#paint0_linear_162_720)"/>
<path d="M293.276 421.135C292.53 421.034 291.863 420.641 291.415 420.037C284.881 411.231 237.373 342.321 300.6 279.331C360.624 219.535 387.832 207.257 391.451 172.123C391.873 168.021 397.42 167.036 399.245 170.735C412.884 198.378 434.134 262.884 363.812 305.223C286.241 351.926 292.599 403.122 296.349 417.672C296.845 419.595 295.244 421.403 293.276 421.135Z" fill="#3576FF"/>
<path d="M302.897 422.446C301.132 422.205 299.733 420.843 299.461 419.083C297.609 407.1 293.063 362.324 326.05 350.45C341.937 344.731 356.485 347.988 370.06 351.245C387.514 355.431 403.36 359.618 418.376 344.728C419.779 343.335 422.141 344.549 421.807 346.499C419.429 360.326 408.848 392.355 361.764 398.798C311.37 405.696 305.698 411.477 306.715 418.649C307.03 420.86 305.11 422.746 302.897 422.446Z" fill="#3576FF"/>
<path d="M288.376 409.834C288.004 409.834 287.651 409.621 287.483 409.272C283.088 399.945 279.806 390.03 277.989 379.792C277.06 374.679 276.511 369.485 276.354 364.272C276.229 359.059 276.449 353.825 277.105 348.637C278.367 338.253 281.297 328.081 285.516 318.505C289.747 308.924 295.336 299.975 301.865 291.812C308.393 283.638 315.965 276.325 324.245 269.936C328.393 266.749 332.73 263.8 337.258 261.15C341.69 258.607 345.897 256.023 349.974 253.082C358.108 247.272 365.625 240.563 372.094 232.907C375.368 229.114 378.332 225.052 381.041 220.82C383.696 216.578 386.178 212.103 387.962 207.475L387.986 207.414C388.123 207.06 388.463 206.84 388.823 206.84C388.93 206.84 389.039 206.86 389.145 206.901C389.568 207.064 389.797 207.514 389.696 207.944C389.08 210.55 388.261 212.996 387.284 215.424C386.325 217.849 385.221 220.215 384.016 222.529C381.632 227.172 378.772 231.565 375.638 235.749C369.332 244.097 361.701 251.431 353.29 257.65C349.095 260.742 344.61 263.584 340.179 266.151C335.862 268.655 331.709 271.456 327.732 274.489C319.769 280.554 312.551 287.592 306.177 295.309C293.477 310.756 284.464 329.396 281.496 349.242C279.982 359.143 279.964 369.28 281.328 379.263C282.676 389.259 285.525 399.047 289.281 408.485C289.485 408.989 289.242 409.56 288.738 409.764C288.62 409.812 288.497 409.834 288.376 409.834" fill="#C5D7FC"/>
<path d="M301.501 415.322C301.232 415.322 300.973 415.176 300.841 414.921C300.743 414.731 300.734 414.519 300.799 414.332L300.805 414.318C300.959 413.884 300.911 413.481 300.897 413.067L300.858 411.832L300.83 409.364C300.832 407.718 300.868 406.073 300.939 404.43C301.087 401.142 301.366 397.857 301.806 394.591C302.702 388.066 304.182 381.56 306.815 375.434C309.42 369.348 313.363 363.533 319.088 359.735C321.938 357.869 325.155 356.542 328.488 355.866C330.686 355.404 332.924 355.2 335.154 355.2C336.304 355.2 337.449 355.255 338.588 355.354C351.707 356.876 364.565 359.391 377.457 361.434C382.012 362.112 386.611 362.739 391.151 362.739C393.012 362.739 394.862 362.634 396.696 362.383C398.263 362.154 399.807 361.812 401.305 361.33C402.79 360.811 404.248 360.206 405.61 359.408C408.351 357.843 410.762 355.701 412.917 353.327L412.923 353.319C413.08 353.146 413.298 353.058 413.516 353.058C413.707 353.058 413.899 353.126 414.053 353.265C414.375 353.557 414.403 354.053 414.12 354.382C411.936 356.895 409.442 359.218 406.526 360.967C405.079 361.857 403.517 362.551 401.925 363.142C400.317 363.698 398.665 364.101 396.998 364.381C394.851 364.695 392.708 364.823 390.576 364.823C386.042 364.823 381.55 364.243 377.132 363.637C370.618 362.71 364.185 361.502 357.731 360.458C351.297 359.411 344.786 358.398 338.378 357.646C337.202 357.533 336.021 357.472 334.843 357.472C332.853 357.472 330.87 357.646 328.933 358.037C325.844 358.635 322.891 359.826 320.248 361.518C314.922 364.91 311.058 370.307 308.435 376.15C305.78 382.021 304.202 388.377 303.202 394.791C302.708 398.005 302.372 401.244 302.168 404.495C302.067 406.119 302.002 407.746 301.969 409.375L301.952 411.816L301.968 413.035C301.979 413.439 301.96 413.853 302.159 414.237C302.347 414.602 302.206 415.05 301.842 415.238C301.733 415.294 301.616 415.322 301.501 415.322" fill="#C5D7FC"/>
<path d="M245.927 339.412C245.916 339.412 245.905 339.412 245.895 339.412C238.445 339.328 218.202 339.103 211.055 339.022C209.929 339.009 196.861 335.931 192.273 334.08C192.275 334.08 192.275 334.08 192.277 334.08C199.422 334.161 219.665 334.386 227.115 334.469C227.126 334.47 227.136 334.47 227.146 334.47C228.665 334.47 229.91 333.252 229.927 331.73C230.458 284.567 244.965 239.602 281.688 207.926C295.05 196.401 309.44 187.014 319.83 172.467C326.044 163.768 330.938 155.126 334.367 146.135L355.187 145.125C351.794 156.291 346.182 166.807 338.611 177.409C328.221 191.956 313.83 201.343 300.468 212.868C263.745 244.544 249.238 289.508 248.707 336.672C248.69 338.194 247.445 339.412 245.927 339.412M156.672 165.478C147 165.478 135.13 163.748 129.659 161.361C128.756 160.967 127.918 160.538 127.136 160.073C130.179 160.95 133.348 161.361 136.534 161.361C140.835 161.361 145.163 160.613 149.245 159.257C171.433 151.891 186.016 131.729 173.949 109.371C170.085 102.212 165.083 95.6717 161.746 88.2508C158.41 80.8299 156.888 72.0226 160.29 64.6313C166.687 50.7372 187.306 45.918 201.677 45.918C202.312 45.918 202.931 45.9274 203.539 45.946C210.977 46.1717 218.107 47.9082 224.543 51.0017C223.806 50.9488 223.065 50.9115 222.319 50.8881C221.711 50.8694 221.092 50.8601 220.457 50.8601C206.087 50.8601 185.467 55.6792 179.07 69.5733C175.669 76.9646 177.189 85.772 180.527 93.1929C183.863 100.614 188.866 107.154 192.729 114.313C204.797 136.672 190.213 156.833 168.025 164.199C165.341 165.091 161.255 165.478 156.672 165.478M335.684 81.6577C331.674 66.7911 324.937 52.6978 314.982 40.8483C302.132 25.5522 284.606 14.764 265.619 8.2908C266.59 8.47908 267.554 8.67358 268.516 8.87742C284.321 12.209 299.745 18.3274 313.091 27.3339C320.78 32.5218 327.777 38.6667 333.762 45.7904C342.488 56.1756 348.74 68.2834 352.852 81.1256L335.684 81.6577Z" fill="url(#paint1_linear_162_720)"/>
<path d="M234.142 433.158C228.621 433.158 214.156 433.12 210.216 431.697C210.054 431.637 209.894 431.578 209.735 431.519C211.628 431.799 213.562 431.944 215.532 431.944C237.22 431.944 254.801 414.362 254.801 392.674C254.801 374.338 242.234 358.936 225.242 354.615C246.572 355.185 268.71 370.991 268.71 392.283C268.71 413.97 256.69 433.158 235.001 433.158C234.748 433.158 234.46 433.158 234.142 433.158" fill="url(#paint2_linear_162_720)"/>
<path d="M227.146 334.47C227.136 334.47 227.126 334.47 227.115 334.469C219.665 334.386 199.422 334.161 192.277 334.08C192.275 334.08 192.275 334.08 192.273 334.08C190.906 334.064 189.804 332.958 189.793 331.589C189.721 321.894 188.587 286.733 188.652 283.366C188.987 265.994 191.407 248.4 198.81 232.52C206.874 215.223 220.236 201.083 232.37 186.353C246.463 169.243 255.867 152.212 257.652 129.907C259.318 109.063 256.433 87.2224 245.044 69.267C239.909 61.1692 232.8 54.9698 224.543 51.0019C218.107 47.9084 210.977 46.1718 203.539 45.9462C202.931 45.9275 202.312 45.9182 201.677 45.9182C187.306 45.9182 166.687 50.7373 160.29 64.6315C156.888 72.0228 158.41 80.8301 161.747 88.251C165.083 95.6719 170.085 102.212 173.949 109.371C186.016 131.729 171.433 151.891 149.245 159.257C145.164 160.613 140.835 161.361 136.534 161.361C133.348 161.361 130.179 160.95 127.136 160.073C125.882 159.712 124.651 159.27 123.449 158.745C111.638 153.593 102.754 140.695 97.3705 128.121C97.7502 128.107 98.1096 127.909 98.3228 127.581C98.3601 127.526 98.3913 127.465 98.4193 127.403C98.9437 126.185 99.4229 124.932 99.8431 123.678C100.052 123.056 99.7155 122.382 99.0931 122.173C98.9686 122.131 98.841 122.111 98.7165 122.111C98.2185 122.111 97.7533 122.425 97.5899 122.923C97.2522 123.93 96.8741 124.937 96.4649 125.923C95.4534 123.379 94.5898 120.871 93.8756 118.46C86.0314 91.9731 94.2303 65.8063 110.426 45.1137C110.417 45.1542 110.41 45.1946 110.407 45.2382C110.382 45.6428 110.69 45.9913 111.095 46.0162C112.332 46.0925 113.577 46.2465 114.794 46.4753C114.84 46.4846 114.886 46.4877 114.931 46.4877C115.181 46.4877 115.412 46.3586 115.545 46.1547C115.597 46.0754 115.632 45.9867 115.651 45.8902C115.726 45.4918 115.463 45.1075 115.065 45.0328C113.789 44.7932 112.483 44.6298 111.185 44.5504C111.17 44.5489 111.154 44.5489 111.139 44.5489C111.02 44.5489 110.908 44.5769 110.809 44.6282C119.261 33.9552 129.841 24.7619 141.432 17.7643C146.191 14.8902 151.122 12.3865 156.145 10.303C173.366 3.1575 192.778 0.000251601 212.082 0.000251601C212.549 0.000251601 213.016 0.00181375 213.483 0.00648194C225.836 0.102958 238.121 1.4863 249.736 3.93555C255.096 5.06525 260.412 6.51551 265.619 8.29098C284.606 14.7642 302.132 25.5524 314.982 40.8485C324.937 52.698 331.674 66.7913 335.684 81.6579L291.714 83.0179C286.294 83.186 281.985 87.6286 281.985 93.0515V133.477L260.641 155.31L286.244 148.471L286.185 148.261C286.588 148.356 287.008 148.405 287.439 148.405C287.528 148.405 287.618 148.404 287.709 148.399L334.367 146.135C330.938 155.126 326.044 163.768 319.83 172.467C309.441 187.015 295.05 196.401 281.688 207.927C244.965 239.602 230.458 284.567 229.927 331.73C229.91 333.252 228.665 334.47 227.146 334.47M109.617 122.092C109.558 122.092 109.497 122.103 109.438 122.125C109.176 122.225 109.047 122.516 109.147 122.775C111.778 129.663 114.609 133.573 114.727 133.735C114.826 133.87 114.979 133.942 115.135 133.942C115.237 133.942 115.341 133.911 115.432 133.845C115.656 133.68 115.706 133.366 115.541 133.14C115.513 133.101 112.668 129.166 110.088 122.416C110.012 122.215 109.819 122.092 109.617 122.092M100.858 112.152C100.255 112.152 99.7404 112.608 99.6781 113.221C99.5505 114.472 99.3685 115.733 99.1366 116.97C99.0152 117.614 99.4401 118.235 100.086 118.356C100.161 118.37 100.234 118.376 100.307 118.376C100.713 118.376 101.086 118.168 101.303 117.836C101.384 117.709 101.443 117.566 101.472 117.407C101.717 116.106 101.908 114.777 102.042 113.461C102.109 112.807 101.633 112.225 100.981 112.158C100.939 112.154 100.898 112.152 100.858 112.152M105.352 107.579C105.618 109.717 105.974 111.712 106.383 113.554C106.435 113.789 106.643 113.949 106.873 113.949C106.911 113.949 106.947 113.946 106.984 113.937C107.255 113.878 107.427 113.609 107.367 113.336C106.985 111.617 106.651 109.761 106.393 107.778C107.318 107.861 108.254 107.901 109.186 107.901C109.301 107.901 109.418 107.901 109.534 107.899C109.789 107.896 110.012 107.764 110.141 107.565C110.217 107.448 110.261 107.308 110.259 107.157C110.255 106.754 109.928 106.431 109.525 106.431C109.523 106.431 109.52 106.431 109.517 106.431C109.402 106.432 109.288 106.434 109.173 106.434C108.187 106.434 107.195 106.384 106.217 106.287C104.944 94.2916 106.631 78.0852 117.786 60.066C119.985 56.515 122.333 53.1601 124.823 50.006C124.855 50.2083 124.972 50.3966 125.16 50.5133C125.345 50.6284 125.529 50.7436 125.71 50.8618C126.567 51.4189 127.406 52.0273 128.202 52.6684C128.339 52.7773 128.501 52.8303 128.663 52.8303C128.878 52.8303 129.089 52.7369 129.236 52.5579C129.251 52.5377 129.265 52.5175 129.279 52.4957C129.481 52.1845 129.419 51.7628 129.124 51.5247C128.288 50.8525 127.409 50.2145 126.509 49.631C126.32 49.5081 126.128 49.3867 125.935 49.2669C125.82 49.1953 125.692 49.1626 125.566 49.1626C125.542 49.1626 125.518 49.1642 125.493 49.1657C144.757 25.2957 172.435 13.0805 206.399 13.0805C223.303 13.0805 241.766 16.1055 261.52 22.2271C261.57 22.2427 261.619 22.2504 261.668 22.2504C261.882 22.2504 262.083 22.1104 262.15 21.8957C262.233 21.6296 262.083 21.3464 261.817 21.2639C241.901 15.0941 223.334 12.0038 206.28 12.0038C194.32 12.0038 183.104 13.524 172.692 16.5661C149.066 23.4735 130.305 37.9294 116.93 59.5353C105.599 77.8394 103.914 94.3119 105.226 106.491C105.127 106.602 105.062 106.74 105.045 106.897C105.014 107.173 105.14 107.43 105.352 107.579M100.956 103.914C100.925 103.914 100.893 103.914 100.862 103.917C100.209 103.969 99.7186 104.538 99.7699 105.193C99.8182 105.81 99.8524 106.432 99.8758 107.042C99.8991 107.683 100.425 108.187 101.061 108.187C101.077 108.187 101.091 108.187 101.107 108.186C101.508 108.172 101.857 107.959 102.059 107.646C102.188 107.447 102.26 107.209 102.25 106.955C102.227 106.312 102.19 105.659 102.14 105.01C102.09 104.387 101.57 103.914 100.956 103.914M116.958 105.444C116.898 105.444 116.837 105.452 116.775 105.467C115.592 105.772 114.381 106.009 113.175 106.169C112.774 106.224 112.491 106.592 112.545 106.994C112.593 107.363 112.909 107.63 113.27 107.63C113.303 107.63 113.336 107.629 113.368 107.624C114.633 107.456 115.903 107.209 117.142 106.888C117.327 106.841 117.476 106.726 117.573 106.578C117.682 106.412 117.722 106.202 117.669 105.995C117.584 105.663 117.285 105.444 116.958 105.444M123.934 102.707C123.816 102.707 123.698 102.735 123.587 102.794C122.515 103.373 121.396 103.893 120.262 104.336C119.884 104.484 119.697 104.91 119.846 105.287C119.958 105.576 120.237 105.754 120.529 105.754C120.618 105.754 120.708 105.738 120.797 105.704C121.986 105.237 123.159 104.692 124.284 104.087C124.395 104.026 124.485 103.941 124.55 103.841C124.692 103.623 124.712 103.337 124.581 103.093C124.448 102.847 124.196 102.707 123.934 102.707M130.051 98.3779C129.875 98.3779 129.698 98.4401 129.558 98.5677C128.652 99.3893 127.692 100.161 126.699 100.864C126.368 101.101 126.29 101.557 126.525 101.888C126.668 102.089 126.894 102.198 127.124 102.198C127.27 102.198 127.42 102.154 127.547 102.063C128.588 101.325 129.597 100.516 130.544 99.6554C130.591 99.6118 130.633 99.562 130.666 99.5107C130.843 99.2384 130.823 98.8696 130.594 98.6175C130.449 98.4588 130.25 98.3779 130.051 98.3779M134.939 92.6967C134.702 92.6967 134.47 92.8103 134.329 93.0234C133.65 94.038 132.905 95.0199 132.111 95.9411C131.851 96.2492 131.882 96.7113 132.189 96.9758C132.328 97.0957 132.499 97.1532 132.668 97.1532C132.874 97.1532 133.079 97.0677 133.225 96.898C134.056 95.9317 134.837 94.9032 135.549 93.8388L135.555 93.831C135.773 93.4949 135.681 93.0437 135.346 92.8212C135.222 92.7371 135.08 92.6967 134.939 92.6967M138.331 86.0087C138.03 86.0087 137.749 86.1954 137.64 86.4911C137.223 87.6364 136.731 88.7692 136.18 89.8568C135.997 90.2179 136.141 90.6598 136.502 90.8418C136.61 90.8963 136.723 90.9228 136.834 90.9228C137.077 90.9228 137.312 90.8014 137.45 90.5882C137.464 90.5664 137.477 90.5446 137.489 90.5197C138.068 89.3807 138.583 88.1934 139.019 86.9937C139.157 86.6124 138.961 86.1923 138.58 86.0538C138.497 86.0227 138.413 86.0087 138.331 86.0087M140.013 78.703C139.643 78.703 139.324 78.9831 139.283 79.3596C139.157 80.5718 138.953 81.7887 138.679 82.9759C138.589 83.3712 138.835 83.7649 139.23 83.8567C139.286 83.8691 139.341 83.8753 139.395 83.8753C139.644 83.8753 139.876 83.7477 140.01 83.5408C140.056 83.4707 140.091 83.3914 140.111 83.3058C140.397 82.0594 140.61 80.7834 140.743 79.5121C140.786 79.1091 140.492 78.7481 140.089 78.7061C140.064 78.703 140.039 78.703 140.013 78.703M140.089 73.084C140.069 73.084 140.05 73.0856 140.032 73.0871C139.629 73.1198 139.325 73.4715 139.356 73.876C139.401 74.4627 139.431 75.0649 139.442 75.664C139.45 76.0639 139.776 76.3844 140.176 76.3844C140.181 76.3844 140.186 76.3844 140.19 76.3844C140.442 76.3782 140.663 76.2475 140.793 76.0499C140.869 75.9301 140.912 75.7884 140.911 75.636C140.898 75.0089 140.869 74.3771 140.821 73.7625C140.789 73.3766 140.469 73.084 140.089 73.084M131.483 53.9366C131.299 53.9366 131.114 54.0051 130.972 54.1436C130.678 54.4252 130.673 54.8905 130.955 55.1815C131.367 55.6078 131.774 56.0529 132.161 56.5041C132.306 56.6737 132.511 56.7609 132.718 56.7609C132.888 56.7609 133.057 56.7018 133.196 56.5835C133.25 56.5368 133.295 56.4839 133.333 56.4263C133.505 56.1602 133.491 55.8024 133.275 55.5487C132.869 55.0757 132.443 54.6088 132.01 54.1607C131.865 54.0113 131.674 53.9366 131.483 53.9366M118.633 45.9571C118.321 45.9571 118.033 46.1578 117.934 46.4675C117.809 46.8534 118.021 47.2673 118.409 47.3902C119.586 47.7684 120.754 48.2243 121.88 48.7456C121.98 48.7907 122.084 48.8125 122.187 48.8125C122.431 48.8125 122.664 48.6911 122.803 48.4795C122.822 48.4499 122.839 48.4204 122.854 48.3877C123.024 48.0189 122.864 47.5832 122.496 47.4136C121.315 46.8659 120.091 46.3881 118.857 45.9929C118.782 45.9695 118.707 45.9571 118.633 45.9571" fill="url(#paint3_linear_162_720)"/>
<path d="M215.532 431.944C213.562 431.944 211.627 431.799 209.735 431.519C190.796 428.717 176.263 412.392 176.263 392.674C176.263 370.987 193.843 353.405 215.532 353.405C218.883 353.405 222.136 353.825 225.241 354.615C242.234 358.937 254.8 374.339 254.8 392.674C254.8 414.362 237.22 431.944 215.532 431.944M201.781 366.533C201.7 366.533 201.617 366.554 201.541 366.594C191.92 371.766 185.941 381.759 185.941 392.674C185.941 402.519 190.818 411.692 198.987 417.211C199.073 417.269 199.171 417.297 199.269 417.297C199.431 417.297 199.59 417.219 199.686 417.076C199.843 416.846 199.781 416.531 199.551 416.376C191.66 411.045 186.948 402.184 186.948 392.674C186.948 382.131 192.723 372.477 202.019 367.481C202.265 367.35 202.356 367.044 202.224 366.799C202.132 366.63 201.96 366.533 201.781 366.533M215.532 363.083C215.253 363.083 215.027 363.309 215.027 363.588C215.027 363.866 215.253 364.092 215.532 364.092C220.075 364.092 224.42 365.127 228.444 367.168C228.517 367.206 228.595 367.223 228.671 367.223C228.855 367.223 229.032 367.121 229.121 366.946C229.247 366.698 229.149 366.395 228.9 366.269C224.733 364.156 220.236 363.083 215.532 363.083Z" fill="url(#paint4_linear_162_720)"/>
<path d="M106.873 113.949C106.643 113.949 106.434 113.789 106.383 113.554C105.974 111.712 105.617 109.717 105.351 107.579C105.449 107.649 105.566 107.694 105.694 107.708C105.925 107.734 106.159 107.758 106.392 107.778C106.651 109.76 106.985 111.617 107.366 113.336C107.427 113.608 107.254 113.878 106.984 113.937C106.946 113.946 106.91 113.949 106.873 113.949M105.225 106.491C103.913 94.3117 105.599 77.8391 116.93 59.5351C130.304 37.9292 149.066 23.4733 172.692 16.5659C183.103 13.5238 194.319 12.0036 206.279 12.0036C223.334 12.0036 241.901 15.0939 261.817 21.2637C262.083 21.3462 262.232 21.6294 262.15 21.8955C262.083 22.1102 261.882 22.2503 261.667 22.2503C261.619 22.2503 261.569 22.2425 261.52 22.2269C241.765 16.1053 223.303 13.0803 206.399 13.0803C172.435 13.0803 144.757 25.2955 125.493 49.1655C125.267 49.1873 125.053 49.3118 124.923 49.5032C124.827 49.6588 124.796 49.8377 124.822 50.0058C122.333 53.1599 119.985 56.5148 117.786 60.0658C106.63 78.085 104.944 94.2914 106.216 106.287C106.097 106.275 105.975 106.262 105.855 106.248C105.827 106.247 105.801 106.245 105.775 106.245C105.56 106.245 105.361 106.338 105.225 106.491" fill="url(#paint5_linear_162_720)"/>
<path d="M115.134 133.942C114.979 133.942 114.826 133.87 114.727 133.735C114.608 133.573 111.778 129.662 109.147 122.775C109.047 122.515 109.176 122.224 109.438 122.125C109.497 122.103 109.557 122.092 109.617 122.092C109.819 122.092 110.012 122.215 110.088 122.416C112.668 129.166 115.512 133.101 115.541 133.14C115.705 133.366 115.656 133.68 115.432 133.845C115.341 133.911 115.237 133.942 115.134 133.942" fill="url(#paint6_linear_162_720)"/>
<path d="M228.671 367.222C228.595 367.222 228.517 367.205 228.444 367.168C224.42 365.126 220.075 364.092 215.532 364.092C215.253 364.092 215.028 363.866 215.028 363.587C215.028 363.309 215.253 363.083 215.532 363.083C220.236 363.083 224.733 364.155 228.9 366.269C229.149 366.395 229.247 366.698 229.121 366.945C229.032 367.121 228.855 367.222 228.671 367.222Z" fill="url(#paint7_linear_162_720)"/>
<path d="M199.269 417.297C199.171 417.297 199.073 417.269 198.988 417.211C190.818 411.692 185.942 402.519 185.942 392.674C185.942 381.759 191.92 371.766 201.541 366.594C201.617 366.554 201.7 366.533 201.781 366.533C201.96 366.533 202.132 366.63 202.224 366.799C202.357 367.044 202.265 367.35 202.019 367.481C192.723 372.478 186.948 382.131 186.948 392.674C186.948 402.184 191.66 411.045 199.551 416.376C199.781 416.531 199.844 416.846 199.686 417.076C199.59 417.219 199.431 417.297 199.269 417.297" fill="url(#paint8_linear_162_720)"/>
<path d="M9.04199 102.925C8.98286 102.925 8.9231 102.92 8.86304 102.911C8.214 102.813 7.76725 102.207 7.86498 101.559C8.06571 100.23 8.32744 98.8899 8.64254 97.5797C8.77357 97.0351 9.26031 96.6694 9.79684 96.6694C9.88896 96.6694 9.98248 96.6803 10.076 96.7021C10.7137 96.8561 11.1067 97.4972 10.9531 98.1352C10.6541 99.3801 10.4059 100.651 10.2154 101.913C10.1894 102.086 10.127 102.245 10.0376 102.383C9.82251 102.713 9.44983 102.925 9.04199 102.925M11.7298 92.9255C11.5848 92.9255 11.4374 92.8991 11.2944 92.843C10.6839 92.6019 10.3841 91.9125 10.6247 91.301C11.1181 90.0515 11.6719 88.8051 12.27 87.5976C12.4756 87.179 12.8967 86.9378 13.3342 86.9378C13.5121 86.9378 13.6928 86.9767 13.8628 87.0623C14.4506 87.3532 14.691 88.0659 14.3995 88.6541C13.8308 89.8009 13.3045 90.9851 12.836 92.1739C12.8061 92.2502 12.7689 92.3202 12.7261 92.3856C12.5053 92.7263 12.1266 92.9255 11.7298 92.9255M16.5718 83.7727C16.3416 83.7727 16.1092 83.7058 15.9044 83.5673C15.369 83.2032 15.2249 82.4781 15.5761 81.9381L15.5902 81.9164C16.3474 80.8022 17.1614 79.7099 18.009 78.6657C18.2441 78.3779 18.5866 78.2269 18.932 78.2269C19.1956 78.2269 19.4606 78.3141 19.6811 78.4946C20.1567 78.8805 20.2553 79.5589 19.9285 80.0631C19.9057 80.0973 19.8805 80.1316 19.8537 80.1658C19.0483 81.157 18.2749 82.1949 17.5554 83.253C17.3255 83.5907 16.9519 83.7727 16.5718 83.7727M23.3156 75.9208C22.9968 75.9208 22.6787 75.7932 22.4447 75.5411C21.9978 75.0588 22.0281 74.3103 22.5069 73.8606C23.4925 72.9456 24.5303 72.0618 25.5911 71.234C25.808 71.0659 26.0655 70.9834 26.321 70.9834C26.6747 70.9834 27.0245 71.1406 27.2589 71.4409C27.5792 71.8517 27.5873 72.4057 27.3186 72.8196C27.2487 72.9269 27.1596 73.025 27.0527 73.109C26.0456 73.8948 25.0601 74.7335 24.1243 75.6034C23.8954 75.815 23.6052 75.9208 23.3156 75.9208Z" fill="#DEE8FD"/>
<path d="M83.9787 73.9087C83.7157 73.9087 83.4512 73.8216 83.2302 73.6426C82.2398 72.8412 81.1994 72.0694 80.1378 71.3505C79.6008 70.9864 79.456 70.2613 79.8078 69.7198L79.8204 69.6995C80.0501 69.3603 80.4243 69.1783 80.8052 69.1783C81.0348 69.1783 81.2666 69.2452 81.4709 69.3837C82.5876 70.1399 83.683 70.9522 84.7271 71.7956C85.2033 72.183 85.3029 72.863 84.9761 73.3656C84.9528 73.4014 84.9294 73.4341 84.903 73.4668C84.668 73.7578 84.3241 73.9087 83.9787 73.9087" fill="url(#paint9_linear_162_720)"/>
<path d="M31.6411 69.7773C31.2302 69.7773 30.8306 69.5642 30.6107 69.1829C30.2827 68.6134 30.4775 67.8867 31.0462 67.5599C32.2116 66.8877 33.4205 66.2575 34.6386 65.6865C34.8016 65.6102 34.9731 65.5729 35.142 65.5729C35.5887 65.5729 36.0166 65.8265 36.2189 66.2575C36.3999 66.6434 36.3549 67.0776 36.1386 67.4106C36.0218 67.5895 35.8554 67.7405 35.6469 67.8385C34.4895 68.38 33.3414 68.9791 32.2338 69.6186C32.0468 69.726 31.8426 69.7773 31.6411 69.7773M70.5621 66.0319C70.4356 65.7503 70.4178 65.4204 70.5392 65.1107C70.7252 64.6408 71.1719 64.356 71.6457 64.356C71.7901 64.356 71.9369 64.3825 72.0797 64.4385C72.0881 64.4416 72.0965 64.4447 72.1051 64.4478C71.5844 64.9769 71.0706 65.5044 70.5621 66.0319" fill="#DEE8FD"/>
<path d="M75.2569 68.3286C75.0803 68.3286 74.901 68.2897 74.7319 68.2057C73.5832 67.6393 72.399 67.1164 71.2117 66.6496C70.9108 66.5329 70.6849 66.3057 70.5618 66.0319C71.0703 65.5044 71.5841 64.9768 72.1048 64.4478C73.3453 64.9348 74.5831 65.4826 75.7839 66.0754C76.3723 66.3649 76.6139 67.0775 76.3234 67.6673C76.3021 67.7093 76.2789 67.7498 76.2536 67.7887C76.0301 68.1326 75.6503 68.3286 75.2569 68.3286" fill="url(#paint10_linear_162_720)"/>
<path d="M41.1265 65.6367C40.6189 65.6367 40.1492 65.3084 39.9914 64.798C39.7973 64.1709 40.1489 63.5065 40.7761 63.3119C42.0634 62.9152 43.3817 62.5682 44.6937 62.2803C44.7792 62.2616 44.8647 62.2523 44.9489 62.2523C45.495 62.2523 45.9869 62.6319 46.1081 63.1875C46.1789 63.5111 46.1109 63.8317 45.9438 64.0884C45.7793 64.3421 45.5193 64.5335 45.2011 64.6019C43.9544 64.8742 42.7016 65.2041 41.4779 65.5838C41.361 65.6196 41.2428 65.6367 41.1265 65.6367ZM65.5247 64.812C65.4335 64.812 65.3408 64.8027 65.248 64.7793C64.0052 64.4837 62.7345 64.2378 61.4702 64.0495C60.8213 63.9531 60.3734 63.3478 60.4703 62.6989C60.5588 62.1091 61.0658 61.6859 61.6448 61.6859C61.703 61.6859 61.7617 61.689 61.821 61.6983C63.1523 61.8975 64.4909 62.1558 65.7995 62.4686C66.4378 62.6195 66.8318 63.2606 66.6799 63.9002C66.6474 64.0355 66.5928 64.1616 66.5206 64.2721C66.3035 64.6051 65.9284 64.812 65.5247 64.812M51.2954 63.6963C50.6805 63.6963 50.1596 63.2217 50.1116 62.5993C50.0616 61.9442 50.5513 61.3731 51.205 61.3233C52.4159 61.23 53.6443 61.1817 54.8619 61.1817C54.9934 61.1817 55.1244 61.1833 55.2556 61.1833C55.912 61.1895 56.4396 61.7263 56.4337 62.383C56.4317 62.6164 56.362 62.8358 56.2428 63.0194C56.0305 63.3462 55.6625 63.5609 55.2453 63.5609C55.2421 63.5609 55.239 63.5609 55.2357 63.5609C55.1065 63.5594 54.9771 63.5594 54.8476 63.5594C53.695 63.5594 52.5333 63.6045 51.3879 63.6916C51.3569 63.6947 51.3261 63.6963 51.2954 63.6963" fill="#DEE8FD"/>
<path d="M8.54647 111.254C7.90802 111.254 7.37988 110.747 7.35981 110.104C7.33974 109.458 7.33243 108.803 7.3385 108.156C7.34348 107.502 7.87503 106.978 8.52608 106.978C8.52997 106.978 8.53387 106.978 8.53776 106.978C9.19395 106.984 9.72114 107.521 9.71492 108.178C9.70947 108.794 9.71601 109.416 9.73561 110.03C9.74355 110.282 9.67228 110.517 9.54468 110.713C9.33991 111.029 8.98917 111.242 8.58459 111.254C8.57183 111.254 8.55923 111.254 8.54647 111.254" fill="#DEE8FD"/>
<path d="M23.7348 144.149C23.4507 144.149 23.1656 144.047 22.9383 143.841C22.4598 143.409 21.9824 142.959 21.5193 142.505C21.0514 142.044 21.0425 141.294 21.5042 140.824C21.737 140.588 22.0443 140.468 22.3521 140.468C22.6526 140.468 22.9534 140.581 23.1847 140.809C23.6243 141.241 24.0781 141.667 24.5325 142.078C24.9714 142.475 25.0452 143.126 24.7326 143.606C24.6986 143.659 24.6602 143.709 24.617 143.757C24.3823 144.017 24.0593 144.149 23.7348 144.149Z" fill="url(#paint11_linear_162_720)"/>
<path d="M57.688 156.036C57.0657 156.036 56.5432 155.552 56.5032 154.922C56.4617 154.267 56.9591 153.702 57.6139 153.662C58.8678 153.582 60.1352 153.449 61.3815 153.263C61.4404 153.256 61.4989 153.251 61.5567 153.251C62.1362 153.251 62.6436 153.676 62.7307 154.266C62.7749 154.564 62.7043 154.852 62.5519 155.087C62.3728 155.363 62.0803 155.563 61.7292 155.615C60.4179 155.809 59.0838 155.949 57.7642 156.033C57.7387 156.035 57.7132 156.036 57.688 156.036M51.3747 156.004C51.3455 156.004 51.3159 156.002 51.2863 155.999C49.9645 155.903 48.6314 155.747 47.3244 155.538C46.6762 155.436 46.2346 154.826 46.338 154.178C46.4312 153.593 46.9367 153.176 47.5105 153.176C47.5728 153.176 47.6356 153.181 47.699 153.192C48.9398 153.39 50.2055 153.537 51.4612 153.629C52.1159 153.677 52.6071 154.247 52.5589 154.902C52.5435 155.109 52.4764 155.299 52.3708 155.461C52.1576 155.789 51.7875 156.004 51.3747 156.004M67.7243 154.281C67.2089 154.281 66.7345 153.945 66.5834 153.425C66.4001 152.794 66.7627 152.134 67.3932 151.952C68.5999 151.602 69.808 151.194 70.9832 150.744C71.1232 150.69 71.267 150.665 71.4086 150.665C71.8865 150.665 72.337 150.956 72.5184 151.427C72.6598 151.798 72.6049 152.194 72.4046 152.503C72.2727 152.705 72.0777 152.87 71.8343 152.963C70.5976 153.438 69.3266 153.866 68.0564 154.234C67.9457 154.266 67.834 154.281 67.7243 154.281ZM41.3558 154.132C41.241 154.132 41.1243 154.115 41.0087 154.079C39.7439 153.695 38.479 153.249 37.2483 152.758C36.6389 152.513 36.342 151.823 36.5859 151.213C36.7713 150.749 37.2184 150.466 37.6907 150.466C37.8371 150.466 37.986 150.492 38.1303 150.55C39.2993 151.018 40.5006 151.44 41.7019 151.805C42.3296 151.997 42.6835 152.661 42.4921 153.29C42.4588 153.399 42.4112 153.5 42.352 153.59C42.1334 153.928 41.7564 154.132 41.3558 154.132M77.1351 150.386C76.7156 150.386 76.3091 150.164 76.0928 149.77C75.7763 149.194 75.9867 148.472 76.562 148.156C77.6658 147.55 78.7556 146.89 79.8005 146.194C80.0027 146.06 80.2312 145.997 80.4571 145.997C80.8419 145.997 81.2193 146.182 81.4482 146.527C81.7188 146.935 81.7052 147.447 81.4547 147.833C81.3691 147.965 81.2554 148.082 81.1161 148.174C80.0157 148.907 78.8685 149.6 77.7063 150.238C77.5247 150.338 77.3285 150.386 77.1351 150.386M31.9981 150.108C31.7997 150.108 31.5985 150.058 31.4137 149.954C30.5659 149.473 29.7222 148.961 28.9068 148.43C28.6115 148.239 28.3193 148.044 28.0295 147.847C27.4874 147.478 27.3319 146.739 27.7168 146.196C27.9466 145.858 28.3199 145.676 28.6997 145.676C28.9302 145.676 29.163 145.743 29.3679 145.883C29.643 146.07 29.9212 146.257 30.2019 146.439C30.9773 146.943 31.7787 147.428 32.5848 147.886C33.1558 148.209 33.3566 148.935 33.0331 149.506C33.0209 149.526 33.0083 149.548 32.9949 149.568C32.7698 149.915 32.3892 150.108 31.9981 150.108M85.4617 144.531C85.1319 144.531 84.8051 144.394 84.5701 144.129C84.136 143.638 84.1827 142.886 84.6728 142.452C85.6173 141.618 86.5354 140.734 87.4022 139.827C87.6356 139.581 87.9483 139.458 88.2611 139.458C88.5568 139.458 88.8524 139.567 89.0827 139.788C89.5028 140.188 89.5635 140.823 89.2585 141.293C89.2196 141.355 89.173 141.412 89.1216 141.467C88.2082 142.424 87.2419 143.354 86.2476 144.232C86.0219 144.431 85.7403 144.531 85.4617 144.531M92.2975 136.982C92.0563 136.982 91.8136 136.909 91.602 136.757C91.0714 136.372 90.9516 135.63 91.3343 135.098C92.0657 134.085 92.7659 133.025 93.4226 131.936C93.6435 131.566 94.0372 131.36 94.4418 131.36C94.6503 131.36 94.8619 131.416 95.0549 131.531C95.6166 131.871 95.7971 132.6 95.4579 133.162C95.1732 133.635 94.8822 134.101 94.585 134.558C94.1601 135.213 93.7151 135.862 93.2623 136.489C93.0304 136.811 92.6663 136.982 92.2975 136.982M97.3267 128.121C97.1696 128.121 97.0109 128.089 96.8568 128.024C96.2546 127.764 95.9761 127.066 96.236 126.462C96.3138 126.283 96.39 126.104 96.4647 125.923C96.7541 126.653 97.0575 127.386 97.3703 128.121C97.3563 128.121 97.3423 128.121 97.3267 128.121" fill="url(#paint12_linear_162_720)"/>
<path d="M97.3705 128.12C97.0577 127.386 96.7543 126.653 96.4648 125.923C96.8741 124.937 97.2522 123.93 97.5899 122.923C97.7533 122.425 98.2185 122.111 98.7165 122.111C98.841 122.111 98.9686 122.131 99.093 122.173C99.7155 122.382 100.052 123.055 99.8431 123.678C99.4229 124.932 98.9437 126.185 98.4193 127.403C98.3913 127.465 98.3601 127.526 98.3228 127.58C98.1096 127.909 97.7502 128.106 97.3705 128.12M100.307 118.376C100.234 118.376 100.161 118.37 100.086 118.356C99.44 118.235 99.0152 117.614 99.1366 116.97C99.3685 115.733 99.5505 114.472 99.6781 113.221C99.7404 112.608 100.255 112.152 100.858 112.152C100.898 112.152 100.939 112.154 100.981 112.158C101.633 112.225 102.109 112.807 102.042 113.461C101.908 114.777 101.717 116.106 101.472 117.407C101.443 117.566 101.384 117.709 101.303 117.836C101.086 118.168 100.713 118.376 100.307 118.376" fill="url(#paint13_linear_162_720)"/>
<path d="M101.062 108.187C100.425 108.187 99.8992 107.683 99.8759 107.042C99.8525 106.432 99.8183 105.81 99.7701 105.193C99.7187 104.538 100.209 103.969 100.862 103.917C100.894 103.914 100.925 103.914 100.956 103.914C101.57 103.914 102.09 104.387 102.14 105.01C102.19 105.659 102.227 106.312 102.25 106.955C102.26 107.209 102.188 107.447 102.059 107.646C101.857 107.959 101.508 108.172 101.107 108.186C101.091 108.187 101.077 108.187 101.062 108.187" fill="url(#paint14_linear_162_720)"/>
<path d="M87.1535 93.7578C87.082 93.5321 86.8734 93.3765 86.6369 93.3719L79.8788 93.2225C78.2553 90.5149 76.1884 88.047 73.7149 85.9416L74.6793 79.2552C74.7131 79.0203 74.5944 78.79 74.3837 78.681L67.1739 74.9714C66.9633 74.8624 66.707 74.8998 66.5358 75.0632L61.655 79.7345C58.5034 78.9456 55.2937 78.6981 52.1469 78.9502L48.0981 73.5367C47.9562 73.3468 47.7094 73.269 47.484 73.3406L39.762 75.8148C39.5365 75.8879 39.3814 76.0949 39.3762 76.3314L39.2278 83.0894C36.5202 84.7139 34.0521 86.7804 31.9459 89.2545L25.2594 88.2898C25.0248 88.2555 24.7946 88.3738 24.6862 88.5854L20.9756 95.7946C20.8671 96.0063 20.9043 96.2615 21.0682 96.4326L25.7392 101.314C24.9504 104.465 24.7027 107.675 24.9551 110.822L19.5417 114.87C19.352 115.012 19.2729 115.259 19.3455 115.485L21.8196 123.206C21.8918 123.432 22.0995 123.588 22.3362 123.592L29.0948 123.742C30.7183 126.449 32.7852 128.917 35.2587 131.022L34.2943 137.709C34.2604 137.944 34.3791 138.174 34.5898 138.283L41.7996 141.993C42.0103 142.102 42.2666 142.064 42.4378 141.901L47.3186 137.23C50.4702 138.019 53.68 138.266 56.8269 138.014L60.8755 143.427C61.0174 143.617 61.264 143.697 61.4898 143.623L69.2116 141.149C69.4372 141.078 69.5921 140.869 69.5974 140.633L69.7458 133.875C72.4534 132.25 74.9213 130.184 77.0279 127.71L83.7146 128.674C83.948 128.709 84.1783 128.59 84.2873 128.379L87.9985 121.169C88.1058 120.958 88.07 120.703 87.9051 120.531L83.2338 115.65C84.0227 112.499 84.2701 109.289 84.0181 106.142L89.4316 102.094C89.6214 101.952 89.7008 101.705 89.6277 101.479L87.1535 93.7578Z" fill="#3576FF"/>
<path d="M48.2497 108.875C48.3544 110.54 49.1017 112.067 50.354 113.17C52.9383 115.448 56.8955 115.2 59.1741 112.616C61.4543 110.03 61.204 106.074 58.6192 103.795C56.0347 101.516 52.0776 101.765 49.7989 104.35C49.5925 104.583 49.4056 104.831 49.2385 105.088C48.5124 106.205 48.1646 107.521 48.2497 108.875V108.875ZM60.6002 113.873C57.628 117.244 52.4678 117.569 49.0962 114.595C47.463 113.156 46.4884 111.167 46.3519 108.993C46.2152 106.821 46.9324 104.725 48.3728 103.093C51.3452 99.7207 56.5054 99.3971 59.8768 102.369C62.9438 105.074 63.4892 109.588 61.3243 112.919C61.1097 113.249 60.868 113.568 60.6002 113.873Z" fill="#BDD0FB"/>
<path d="M71.1046 119.473C71.4765 118.901 71.8216 118.308 72.1383 117.692C72.2378 117.499 72.3343 117.304 72.4278 117.107C72.8883 116.137 73.2708 115.132 73.5694 114.107L73.5818 114.065C73.5932 114.026 73.6045 113.985 73.6154 113.946C73.6374 113.868 73.6585 113.791 73.6795 113.713C73.7346 113.509 73.6483 113.301 73.4802 113.192C73.4393 113.165 73.3935 113.145 73.3441 113.131C73.0906 113.062 72.8304 113.213 72.7618 113.467C72.4106 114.771 71.9164 116.047 71.2928 117.258C68.1981 123.272 62.329 126.947 56.0457 127.528C52.551 127.851 48.928 127.216 45.5826 125.495C44.9958 125.194 44.4286 124.864 43.8832 124.509C40.2106 122.122 37.4934 118.574 36.139 114.346C34.5828 109.491 35.011 104.319 37.3443 99.7861C42.1644 90.4217 53.6955 86.7307 63.0546 91.5467C63.6317 91.8439 64.1916 92.1692 64.732 92.5208C67.0747 94.0442 69.058 96.0624 70.5327 98.4385C70.5708 98.4992 70.6205 98.549 70.6774 98.5864C70.8268 98.6828 71.0255 98.6922 71.187 98.591C71.4099 98.4525 71.4794 98.16 71.3403 97.9359C69.792 95.4416 67.7099 93.3222 65.2505 91.7241C64.6831 91.3553 64.0956 91.013 63.49 90.7018C53.6637 85.6446 41.5546 89.5269 36.4991 99.3504C34.0492 104.11 33.5999 109.538 35.2335 114.637C36.6553 119.075 39.508 122.799 43.3635 125.306C43.9363 125.677 44.5318 126.023 45.1472 126.34C49.9074 128.791 55.3363 129.239 60.434 127.607C64.8731 126.185 68.5985 123.331 71.1046 119.473" fill="#BDD0FB"/>
<path d="M132.718 56.7607C132.511 56.7607 132.306 56.6736 132.161 56.504C131.773 56.0527 131.367 55.6077 130.955 55.1813C130.673 54.8904 130.678 54.4251 130.972 54.1435C131.114 54.005 131.299 53.9365 131.482 53.9365C131.674 53.9365 131.865 54.0112 132.01 54.1606C132.443 54.6087 132.869 55.0755 133.275 55.5486C133.491 55.8022 133.505 56.1601 133.333 56.4262C133.295 56.4838 133.25 56.5367 133.196 56.5834C133.057 56.7016 132.888 56.7607 132.718 56.7607" fill="url(#paint15_linear_162_720)"/>
<path d="M80.6855 64.8711C80.5899 64.8711 80.493 64.8524 80.3996 64.8135C80.0262 64.6548 79.8519 64.2253 80.01 63.8519C80.4474 62.8186 80.9491 61.7901 81.499 60.8004C81.5818 60.6495 81.6666 60.5017 81.7522 60.3523C81.8799 60.1157 82.1275 59.985 82.3825 59.985C82.5098 59.985 82.639 60.0177 82.7557 60.0846C83.1058 60.2885 83.2256 60.7366 83.0233 61.0883C82.9424 61.2268 82.863 61.3668 82.7837 61.5115C82.2573 62.4592 81.7788 63.4379 81.3614 64.4245C81.3445 64.4649 81.3238 64.5023 81.3007 64.5381C81.164 64.7497 80.9298 64.8711 80.6855 64.8711M84.4907 58.2687C84.3382 58.2687 84.1826 58.2205 84.0503 58.1209C83.7266 57.8766 83.666 57.4206 83.9056 57.0923C84.6899 56.0529 85.5441 55.0539 86.4451 54.1233C86.5898 53.9755 86.7812 53.9008 86.9726 53.9008C87.1562 53.9008 87.3414 53.9693 87.483 54.1078C87.7398 54.3552 87.7755 54.7458 87.5888 55.0336C87.5624 55.0725 87.5328 55.1099 87.5001 55.1441C86.6412 56.0311 85.8258 56.985 85.0789 57.9777C84.9342 58.1676 84.7132 58.2687 84.4907 58.2687Z" fill="url(#paint16_linear_162_720)"/>
<path d="M128.663 52.8301C128.501 52.8301 128.339 52.7772 128.202 52.6682C127.406 52.0271 126.567 51.4187 125.709 50.8617C125.529 50.7434 125.345 50.6282 125.16 50.5131C124.972 50.3964 124.855 50.2081 124.823 50.0058C125.047 49.7226 125.268 49.4456 125.493 49.1655C125.518 49.164 125.541 49.1624 125.566 49.1624C125.692 49.1624 125.82 49.1951 125.935 49.2667C126.128 49.3865 126.319 49.5079 126.509 49.6308C127.409 50.2143 128.288 50.8523 129.123 51.5245C129.419 51.7626 129.481 52.1843 129.279 52.4955C129.265 52.5173 129.251 52.5375 129.236 52.5578C129.089 52.7367 128.878 52.8301 128.663 52.8301" fill="url(#paint17_linear_162_720)"/>
<path d="M124.822 50.0061C124.796 49.838 124.827 49.6591 124.923 49.5035C125.053 49.3121 125.267 49.1876 125.493 49.1658C125.267 49.4459 125.046 49.7229 124.822 50.0061Z" fill="url(#paint18_linear_162_720)"/>
<path d="M89.7938 52.7976C89.5791 52.7976 89.3659 52.7027 89.2212 52.5237C88.9675 52.2079 89.0173 51.7473 89.3332 51.4905C90.3431 50.6782 91.4168 49.9204 92.5216 49.2373C92.643 49.1626 92.7752 49.1268 92.9075 49.1268C93.1534 49.1268 93.393 49.2513 93.5315 49.4754C93.6855 49.7259 93.6731 50.0309 93.5237 50.2612C93.4661 50.3499 93.3899 50.4277 93.2934 50.4868C92.2399 51.1373 91.2176 51.8593 90.2529 52.6358C90.1175 52.7447 89.9556 52.7976 89.7938 52.7976" fill="url(#paint19_linear_162_720)"/>
<path d="M122.186 48.8125C122.084 48.8125 121.979 48.7907 121.88 48.7456C120.753 48.2243 119.586 47.7684 118.408 47.3902C118.021 47.2673 117.809 46.8534 117.934 46.4675C118.033 46.1578 118.321 45.9571 118.632 45.9571C118.707 45.9571 118.782 45.9695 118.856 45.9929C120.09 46.3881 121.315 46.8659 122.496 47.4136C122.863 47.5832 123.024 48.0189 122.854 48.3877C122.838 48.4204 122.821 48.4499 122.803 48.4795C122.664 48.6911 122.431 48.8125 122.186 48.8125" fill="url(#paint20_linear_162_720)"/>
<path d="M96.2718 48.7954C95.9949 48.7954 95.7288 48.6367 95.6043 48.3659C95.4362 47.9987 95.5965 47.5614 95.9653 47.3934C97.1448 46.8519 98.371 46.3788 99.6096 45.9851C99.6827 45.9618 99.7574 45.9509 99.8306 45.9509C100.143 45.9509 100.431 46.1501 100.531 46.4613C100.599 46.6807 100.562 46.9063 100.447 47.0853C100.358 47.2222 100.221 47.3311 100.053 47.384C98.872 47.7591 97.7034 48.2119 96.5768 48.7285C96.4788 48.7736 96.3745 48.7954 96.2718 48.7954M110.426 45.1137C110.477 44.899 110.62 44.7232 110.809 44.6283C110.681 44.7901 110.553 44.9503 110.426 45.1137Z" fill="url(#paint21_linear_162_720)"/>
<path d="M114.931 46.4878C114.886 46.4878 114.84 46.4847 114.794 46.4753C113.577 46.2466 112.332 46.0925 111.095 46.0163C110.69 45.9914 110.382 45.6428 110.407 45.2383C110.41 45.1947 110.417 45.1542 110.426 45.1138C110.553 44.9504 110.681 44.7901 110.809 44.6283C110.908 44.5769 111.02 44.5489 111.139 44.5489C111.154 44.5489 111.17 44.5489 111.185 44.5505C112.483 44.6298 113.789 44.7932 115.064 45.0329C115.463 45.1076 115.726 45.4919 115.651 45.8903C115.632 45.9867 115.597 46.0754 115.545 46.1548C115.411 46.3586 115.181 46.4878 114.931 46.4878" fill="url(#paint22_linear_162_720)"/>
<path d="M103.533 46.4878C103.187 46.4878 102.879 46.2419 102.812 45.8903C102.739 45.4919 103 45.1076 103.399 45.0329C104.673 44.7932 105.979 44.6314 107.276 44.552C107.292 44.5505 107.308 44.5505 107.323 44.5505C107.707 44.5505 108.031 44.8492 108.054 45.2383C108.064 45.4016 108.02 45.5557 107.938 45.6833C107.815 45.8716 107.609 46.0023 107.367 46.0163C106.13 46.0925 104.885 46.2481 103.669 46.4753C103.624 46.4847 103.578 46.4878 103.533 46.4878" fill="url(#paint23_linear_162_720)"/>
<path d="M109.185 107.901C108.253 107.901 107.318 107.86 106.392 107.778C106.33 107.289 106.271 106.791 106.216 106.287C107.195 106.384 108.186 106.434 109.173 106.434C109.288 106.434 109.402 106.432 109.517 106.43C109.52 106.43 109.523 106.43 109.525 106.43C109.928 106.43 110.254 106.754 110.259 107.157C110.261 107.308 110.217 107.448 110.141 107.565C110.012 107.764 109.789 107.896 109.534 107.899C109.417 107.901 109.301 107.901 109.185 107.901M105.351 107.579C105.14 107.429 105.014 107.173 105.045 106.897C105.062 106.74 105.127 106.602 105.225 106.491C105.264 106.857 105.308 107.221 105.351 107.579" fill="url(#paint24_linear_162_720)"/>
<path d="M106.392 107.778C106.159 107.758 105.926 107.735 105.694 107.708C105.566 107.694 105.449 107.649 105.351 107.579C105.308 107.221 105.264 106.857 105.225 106.491C105.361 106.339 105.56 106.245 105.775 106.245C105.801 106.245 105.828 106.247 105.856 106.248C105.975 106.262 106.097 106.275 106.217 106.287C106.271 106.792 106.33 107.289 106.392 107.778Z" fill="url(#paint25_linear_162_720)"/>
<path d="M113.27 107.63C112.909 107.63 112.593 107.362 112.545 106.994C112.491 106.592 112.774 106.223 113.175 106.169C114.381 106.009 115.592 105.772 116.774 105.467C116.837 105.452 116.897 105.444 116.958 105.444C117.285 105.444 117.584 105.663 117.669 105.995C117.722 106.202 117.682 106.412 117.573 106.578C117.476 106.726 117.327 106.841 117.142 106.888C115.903 107.208 114.633 107.456 113.368 107.624C113.336 107.629 113.303 107.63 113.27 107.63M120.529 105.753C120.237 105.753 119.958 105.576 119.846 105.287C119.697 104.91 119.883 104.484 120.262 104.336C121.396 103.892 122.515 103.373 123.587 102.794C123.697 102.735 123.816 102.707 123.934 102.707C124.195 102.707 124.447 102.847 124.581 103.093C124.712 103.337 124.692 103.623 124.55 103.841C124.485 103.941 124.394 104.026 124.284 104.087C123.159 104.692 121.986 105.237 120.797 105.704C120.708 105.738 120.618 105.753 120.529 105.753M127.124 102.198C126.894 102.198 126.668 102.089 126.525 101.888C126.29 101.557 126.368 101.101 126.699 100.864C127.692 100.161 128.652 99.3892 129.558 98.5676C129.698 98.44 129.875 98.3777 130.051 98.3777C130.25 98.3777 130.449 98.4587 130.594 98.6174C130.823 98.8695 130.843 99.2383 130.665 99.5106C130.633 99.5619 130.591 99.6117 130.544 99.6553C129.596 100.516 128.588 101.325 127.547 102.063C127.419 102.154 127.27 102.198 127.124 102.198M132.668 97.1531C132.498 97.1531 132.327 97.0955 132.189 96.9757C131.882 96.7112 131.851 96.249 132.111 95.9409C132.905 95.0197 133.65 94.0379 134.328 93.0233C134.47 92.8101 134.702 92.6965 134.938 92.6965C135.08 92.6965 135.222 92.737 135.346 92.821C135.681 93.0435 135.772 93.4948 135.555 93.8309L135.548 93.8387C134.837 94.9031 134.056 95.9316 133.225 96.8979C133.079 97.0675 132.873 97.1531 132.668 97.1531M136.834 90.9226C136.723 90.9226 136.61 90.8962 136.502 90.8417C136.141 90.6597 135.997 90.2177 136.18 89.8567C136.731 88.769 137.223 87.6362 137.64 86.491C137.749 86.1953 138.03 86.0086 138.331 86.0086C138.413 86.0086 138.497 86.0226 138.58 86.0537C138.961 86.1922 139.157 86.6123 139.018 86.9936C138.583 88.1933 138.068 89.3806 137.489 90.5196C137.476 90.5445 137.464 90.5663 137.45 90.5881C137.311 90.8013 137.076 90.9226 136.834 90.9226M139.395 83.8752C139.34 83.8752 139.286 83.869 139.23 83.8565C138.835 83.7647 138.589 83.3711 138.679 82.9758C138.953 81.7885 139.157 80.5717 139.283 79.3595C139.323 78.9829 139.642 78.7029 140.013 78.7029C140.039 78.7029 140.064 78.7028 140.089 78.706C140.492 78.748 140.786 79.109 140.743 79.512C140.61 80.7833 140.397 82.0593 140.111 83.3057C140.091 83.3913 140.056 83.4706 140.01 83.5406C139.876 83.7476 139.644 83.8752 139.395 83.8752" fill="url(#paint26_linear_162_720)"/>
<path d="M140.176 76.3845C139.777 76.3845 139.45 76.064 139.442 75.6641C139.431 75.065 139.402 74.4628 139.356 73.8761C139.325 73.4715 139.629 73.1199 140.032 73.0872C140.05 73.0857 140.069 73.0841 140.089 73.0841C140.469 73.0841 140.79 73.3766 140.821 73.7626C140.869 74.3772 140.899 75.0089 140.911 75.636C140.913 75.7885 140.869 75.9302 140.793 76.05C140.664 76.2476 140.443 76.3783 140.19 76.3845C140.186 76.3845 140.181 76.3845 140.176 76.3845" fill="url(#paint27_linear_162_720)"/>
<path d="M130.853 66.228C130.804 66.0755 130.665 65.9728 130.506 65.9697L125.985 65.8701C124.898 64.0573 123.515 62.4063 121.859 60.9965L122.505 56.5228C122.529 56.3657 122.449 56.2116 122.308 56.1385L117.484 53.6566C117.342 53.5834 117.171 53.6083 117.056 53.7188L113.79 56.8434C111.681 56.3159 109.534 56.151 107.427 56.319L104.718 52.6965C104.623 52.5704 104.458 52.5175 104.307 52.5658L99.1409 54.2214C98.9899 54.2697 98.8857 54.4081 98.8826 54.5669L98.783 59.0888C96.9717 60.1749 95.3192 61.5583 93.9094 63.2139L89.4357 62.5682C89.2785 62.5464 89.1245 62.6257 89.0529 62.7658L86.5694 67.5911C86.4963 67.7312 86.5212 67.9023 86.6316 68.0175L89.7562 71.2837C89.2287 73.3922 89.0638 75.5411 89.2318 77.6464L85.6093 80.3555C85.4833 80.4505 85.4304 80.6154 85.4786 80.7664L87.1343 85.934C87.1825 86.085 87.321 86.1877 87.4797 86.1923L92.0016 86.2904C93.0893 88.1032 94.4711 89.7542 96.1268 91.164L95.481 95.6377C95.4592 95.7948 95.5386 95.9489 95.6786 96.022L100.504 98.504C100.644 98.5771 100.817 98.5522 100.93 98.4433L104.197 95.3171C106.305 95.8446 108.454 96.0111 110.559 95.8415L113.268 99.464C113.363 99.5916 113.528 99.6445 113.679 99.5948L118.847 97.9391C118.998 97.8909 119.101 97.7524 119.105 97.5937L119.205 93.0717C121.016 91.9856 122.667 90.6022 124.077 88.9466L128.551 89.5923C128.708 89.6157 128.862 89.5363 128.935 89.3947L131.417 84.5694C131.49 84.4293 131.465 84.2582 131.356 84.143L128.23 80.8768C128.757 78.7684 128.924 76.621 128.754 74.5141L132.377 71.805C132.504 71.71 132.557 71.5451 132.509 71.3942L130.853 66.228" fill="#3576FF"/>
<path d="M106.293 79.1431C107.111 79.8651 108.162 80.2245 109.251 80.156C110.339 80.0876 111.336 79.599 112.056 78.7805C112.777 77.962 113.138 76.9117 113.069 75.824C113.001 74.7347 112.512 73.7373 111.694 73.0168C110.006 71.5277 107.419 71.6895 105.93 73.3794C105.796 73.5319 105.675 73.6906 105.568 73.8571C104.483 75.5252 104.755 77.7893 106.293 79.1431V79.1431ZM113.158 79.7515C112.178 80.8641 110.823 81.5285 109.343 81.6219C107.863 81.7137 106.434 81.2251 105.322 80.2448C103.027 78.2203 102.806 74.7114 104.829 72.4084C106.855 70.1117 110.37 69.8907 112.665 71.9151C113.777 72.8954 114.442 74.2508 114.535 75.7306C114.61 76.935 114.302 78.1036 113.656 79.0964C113.508 79.3236 113.342 79.543 113.158 79.7515Z" fill="#BDD0FB"/>
<path d="M120.47 83.6496C120.722 83.2606 120.957 82.8545 121.175 82.4328C121.606 81.5972 121.953 80.7149 122.205 79.8108C122.216 79.7704 122.227 79.7299 122.238 79.6894C122.323 79.3735 122.189 79.0515 121.93 78.8834C121.867 78.8414 121.796 78.8103 121.719 78.79C121.329 78.6842 120.927 78.9176 120.82 79.3066C120.593 80.1531 120.272 80.9794 119.869 81.7606C119.848 81.8041 119.824 81.8477 119.802 81.8897C118.831 83.7321 117.439 85.2617 115.752 86.3867C114.835 86.9967 113.83 87.4869 112.758 87.8417L112.732 87.8494C112.705 87.8588 112.679 87.8666 112.652 87.8759C109.509 88.8827 106.16 88.6057 103.226 87.0948C102.846 86.9002 102.479 86.6871 102.125 86.4568C99.7478 84.9116 97.9894 82.6149 97.1118 79.8777C96.105 76.7329 96.382 73.3858 97.893 70.4511C99.4039 67.5194 101.967 65.3456 105.11 64.3373C108.253 63.3305 111.602 63.6075 114.537 65.1184C114.91 65.3098 115.273 65.5199 115.623 65.7471C117.138 66.7336 118.424 68.0407 119.378 69.5781C119.437 69.673 119.513 69.7508 119.602 69.8069C119.832 69.9562 120.138 69.9702 120.387 69.8146C120.731 69.5999 120.839 69.1486 120.624 68.8047C119.557 67.0837 118.12 65.621 116.424 64.5178C116.032 64.2626 115.626 64.0276 115.209 63.8129C111.924 62.1215 108.179 61.8118 104.662 62.94C101.145 64.0665 98.2758 66.4925 96.5874 69.7789C94.8975 73.0622 94.5863 76.8076 95.7145 80.3259C96.6948 83.3866 98.6632 85.9573 101.323 87.6861C101.718 87.9428 102.129 88.1809 102.553 88.4003C108.911 91.6727 116.654 89.5207 120.47 83.6496" fill="#BDD0FB"/>
<path d="M281.985 133.476L260.641 155.31L286.244 148.471L281.985 133.476Z" fill="#91B3FA"/>
<path d="M408.991 142.514L287.709 148.399C284.593 148.55 281.985 146.067 281.985 142.948V93.0515C281.985 87.6286 286.294 83.186 291.714 83.018L401.021 79.6351C409.161 79.6351 415.76 86.2344 415.76 94.3742V135.409C415.76 139.203 412.782 142.329 408.991 142.514" fill="#3576FF"/>
<path d="M291.335 146.396C289.403 146.396 287.581 145.667 286.171 144.324C284.674 142.894 283.849 140.967 283.849 138.896V93.9259C283.849 88.626 288.097 84.3468 293.522 84.1819L399.356 80.9872C407.377 80.9872 413.897 87.3516 413.897 95.1755V133.946C413.897 137.678 410.908 140.742 407.093 140.922L291.701 146.387C291.58 146.393 291.457 146.396 291.335 146.396M399.364 81.5132L293.537 84.7078C288.399 84.8634 284.375 88.9123 284.375 93.9259V138.896C284.375 140.821 285.141 142.614 286.535 143.943C287.844 145.191 289.533 145.871 291.329 145.871C291.444 145.871 291.561 145.867 291.678 145.861L407.068 140.396C410.603 140.23 413.371 137.396 413.371 133.946V95.1755C413.371 87.641 407.088 81.5132 399.364 81.5132" fill="#EFF4FE"/>
<path d="M399.011 90.61L302.03 94.2388C301.078 94.2746 300.328 94.9063 300.361 95.6455L300.396 96.4982C300.428 97.2295 301.213 97.7913 302.155 97.7571L399.138 94.2154C400.092 94.1812 400.842 93.5495 400.811 92.8088L400.77 91.8689C400.739 91.136 399.954 90.5742 399.011 90.61Z" fill="url(#paint28_linear_162_720)"/>
<path d="M390.331 115.162L293.351 118.772C292.398 118.808 291.65 119.461 291.682 120.227L291.721 121.109C291.752 121.867 292.54 122.45 293.481 122.416L390.466 118.896C391.419 118.862 392.169 118.21 392.136 117.443L392.094 116.469C392.061 115.709 391.275 115.126 390.331 115.162Z" fill="url(#paint29_linear_162_720)"/>
<path d="M401.662 125.432L293.55 129.513C292.489 129.554 291.65 130.216 291.684 130.99L291.721 131.881C291.754 132.647 292.629 133.232 293.679 133.193L401.794 129.203C402.857 129.165 403.696 128.502 403.663 127.728L403.621 126.745C403.589 125.978 402.713 125.393 401.662 125.432" fill="url(#paint30_linear_162_720)"/>
<path d="M345.838 105.084L292.98 106.625C292.462 106.64 292.073 107.353 292.117 108.212L292.165 109.203C292.207 110.054 292.655 110.728 293.169 110.714L346.031 109.276C346.551 109.262 346.94 108.55 346.898 107.689L346.844 106.595C346.802 105.744 346.354 105.069 345.838 105.084Z" fill="url(#paint31_linear_162_720)"/>
<path d="M404.082 103.258L354.12 104.689C353.629 104.703 353.265 105.416 353.307 106.275L353.357 107.266C353.399 108.117 353.825 108.793 354.311 108.779L404.276 107.45C404.768 107.437 405.132 106.725 405.09 105.864L405.036 104.77C404.994 103.919 404.567 103.244 404.082 103.258Z" fill="url(#paint32_linear_162_720)"/>
<path d="M97.8309 417.718C97.8309 417.718 96.8319 423.378 96.3417 428.979C96.1487 431.169 97.8371 433.07 100.034 433.162C107.494 433.473 123.453 434.077 129.179 433.822C130.04 433.783 130.603 432.902 130.284 432.101C130.017 431.43 129.501 430.887 128.846 430.587L102.485 418.471L97.8309 417.718" fill="url(#paint33_linear_162_720)"/>
<path d="M97.0122 414.393L97.8151 421.162C97.8151 421.162 102.432 423.312 105.586 420.891L103.674 413.347L97.0122 414.393Z" fill="url(#paint34_linear_162_720)"/>
<path d="M97.6163 287.125C97.2693 288.893 95.7537 375.343 104.995 414.083C105.145 414.717 104.824 415.367 104.223 415.613C102.806 416.192 100.027 417.031 96.6967 417.143C95.6666 417.177 94.7407 416.508 94.4497 415.518C91.8091 406.529 79.1516 361.493 77.5004 318.472C75.6554 270.401 77.5004 316.835 77.5004 316.835L78.5825 287.121L97.6163 287.125" fill="url(#paint35_linear_162_720)"/>
<path d="M67.5081 420.67C67.5081 420.67 65.9167 423.529 64.376 431.121C64.0979 432.492 65.0559 433.803 66.4482 433.94C68.9116 434.183 72.7041 434.494 75.7418 434.473C77.1423 434.463 78.2353 433.245 78.0664 431.854C77.73 429.082 76.6817 424.536 73.4432 420.992L67.5081 420.67" fill="url(#paint36_linear_162_720)"/>
<path d="M66.1104 411.964L67.9871 422.202C67.9871 422.202 69.8429 423.582 73.5136 422.581L72.6178 411.566L66.1104 411.964Z" fill="url(#paint37_linear_162_720)"/>
<path d="M61.0403 289.779C53.4825 335.39 62.6798 402.511 65.7815 415.649C65.9713 416.453 66.6205 417.07 67.4358 417.203C68.8203 417.434 71.0998 417.62 73.3473 416.968C74.1214 416.743 74.6654 416.044 74.697 415.24C75.1131 404.618 74.3641 339.414 81.4063 313.646C81.7631 312.34 82.5613 311.201 83.6646 310.417L97.3315 300.701L98.3803 284.994L61.0403 289.779" fill="url(#paint38_linear_162_720)"/>
<path d="M109.198 203.353C86.5495 202.978 61.5584 209.299 61.5584 209.299C54.8073 248.692 60.378 294.131 60.378 294.131C77.9124 298.729 97.6924 291.319 97.6924 291.319C100.607 274.853 114.204 228.515 114.204 228.515C125.271 227.141 134.386 223.948 141.894 219.726C136.168 213.089 133.468 204.643 132.295 199.65C124.287 202.139 116.185 203.468 109.198 203.353" fill="url(#paint39_linear_162_720)"/>
<path d="M176.099 169.991C173.876 167.304 171.059 168.575 171.059 168.575C167.726 182.654 150.25 194.07 132.295 199.65C133.468 204.643 136.168 213.089 141.894 219.726C171.691 202.973 176.099 169.991 176.099 169.991Z" fill="url(#paint40_linear_162_720)"/>
<path d="M175.56 170.674C175.793 171.415 173.097 172.541 171.509 169.515C171.455 168.065 170.573 161.85 171.439 160.667C176.056 154.373 185.007 146.482 185.007 146.482C186.521 147.976 185.274 149.442 185.274 149.442L180.931 153.965C181.84 155.607 182.948 156.992 183.466 158.977C183.86 160.48 183.619 162.088 182.859 163.456C182.098 164.83 181.057 166.614 180.076 168.012C178.214 170.656 175.56 170.674 175.56 170.674Z" fill="url(#paint41_linear_162_720)"/>
<path d="M179.031 156.9L175.074 160.255L173.833 163.594L177.36 167.509C177.36 167.509 178.547 160.882 179.428 159.447C180.31 158.014 179.853 157.32 179.031 156.9" fill="url(#paint42_linear_162_720)"/>
<path d="M70.2458 231.23L61.5585 209.299C61.5585 209.299 40.4028 223.674 36.9236 241.898C40.921 242.194 48.195 243.234 55.3147 246.828C56.8794 238.223 70.2458 231.23 70.2458 231.23" fill="url(#paint43_linear_162_720)"/>
<path d="M88.7342 251.866C88.7342 251.866 64.9812 265.291 56.9667 253.829C55.3026 251.448 54.9049 249.083 55.3148 246.828C48.195 243.233 40.921 242.194 36.9236 241.898C35.8747 247.393 36.4294 253.237 39.6579 259.143C53.6964 284.822 91.8775 257.724 91.8775 257.724L88.7342 251.866Z" fill="url(#paint44_linear_162_720)"/>
<path d="M85.8785 268.85L98.842 223.579C98.9899 223.065 99.4271 222.69 99.9593 222.628C102.307 222.354 109.114 221.586 116.97 220.921C126.436 220.12 137.428 219.471 143.996 220.023C144.93 220.101 145.494 221.089 145.079 221.93C141.343 229.486 125.98 260.224 118.287 270.294C118.031 270.628 117.636 270.823 117.218 270.818L87.1404 270.539C86.2644 270.53 85.6388 269.691 85.8785 268.85" fill="#91B3FA"/>
<path d="M118.317 216.995L127.715 215.43C128.215 215.346 128.626 215.825 128.465 216.306L127.536 219.125C127.456 219.371 127.241 219.549 126.984 219.583L117.94 220.792C117.473 220.854 117.087 220.428 117.195 219.969L117.771 217.507C117.833 217.243 118.048 217.04 118.317 216.995Z" fill="#BDD0FB"/>
<path d="M111.279 224.953L112.054 220.92C112.131 220.515 112.464 220.21 112.874 220.168L131.858 218.242C132.496 218.176 133.008 218.763 132.858 219.387L131.651 224.411C131.554 224.814 131.204 225.105 130.792 225.126L112.242 226.059C111.638 226.09 111.165 225.546 111.279 224.953" fill="#BDD0FB"/>
<path d="M89.0111 257.912C89.0111 257.912 87.2061 250.486 87.9343 247.852C88.6626 245.218 90.0739 241.832 94.7779 242.583C99.4819 243.336 105.031 245.319 105.031 245.319C105.031 245.319 104.751 248.75 101.176 247.642L103.392 249.358C103.392 249.358 103.076 252.105 100.056 250.637L102.118 252.912C102.118 252.912 100.822 255.169 98.5996 253.722C96.3775 252.274 95.3116 258.807 89.0111 257.912" fill="url(#paint45_linear_162_720)"/>
<path d="M86.2568 184.965L79.05 205.805C78.9307 206.151 79.0724 206.534 79.3922 206.711C81.3566 207.797 88.4337 210.936 96.9625 205.528C97.851 204.965 98.4563 204.046 98.5917 203.003L100.926 184.965H86.2568" fill="url(#paint46_linear_162_720)"/>
<path d="M101.938 165.665C101.938 165.665 109.852 180.561 108.837 186.58C107.823 192.598 98.0148 192.165 89.4502 187.277L83.4656 171.192L101.938 165.665" fill="url(#paint47_linear_162_720)"/>
<path d="M89.8281 179.379C90.1767 179.225 90.3043 178.798 90.0974 178.479C89.4625 177.512 88.2736 175.535 87.8955 173.805C87.8955 173.805 86.4717 172.895 91.5165 171.687C96.5597 170.48 104.08 168.606 105.661 164.313C107.203 160.127 103.153 149.602 96.692 157.989C96.4461 158.308 95.9653 158.314 95.7194 157.995C94.6597 156.617 91.8759 153.755 88.0091 155.49C84.3913 157.113 83.9836 159.765 84.0334 161.101C84.0489 161.493 83.6973 161.8 83.3098 161.725C81.4813 161.377 77.0917 161.078 75.0429 165.58C73.3553 169.289 74.4522 171.388 75.451 172.415C75.7749 172.748 75.6329 173.296 75.1891 173.432C73.9871 173.8 72.4346 174.82 72.5899 177.636C72.8049 181.529 77.1582 181.187 78.3976 181.01C78.6008 180.98 78.8053 181.05 78.943 181.201C80.0056 182.377 84.7943 187.371 89.976 187.973C90.4257 188.026 90.7727 187.582 90.6264 187.155L88.3826 180.636C88.2783 180.333 88.423 180.001 88.7171 179.871L89.8281 179.379" fill="url(#paint48_linear_162_720)"/>
<path d="M90.7303 180.303C90.7303 180.303 85.0958 176.438 84.6835 179.693C84.2727 182.949 89.7578 184.41 92.4747 183.196L90.7303 180.303" fill="url(#paint49_linear_162_720)"/>
<defs>
<linearGradient id="paint0_linear_162_720" x1="484.784" y1="562.91" x2="101.267" y2="86.6062" gradientUnits="userSpaceOnUse">
<stop stop-color="#001B6D"/>
<stop offset="1" stop-color="#004CFF"/>
</linearGradient>
<linearGradient id="paint1_linear_162_720" x1="761.369" y1="-295.383" x2="-40.1018" y2="387.759" gradientUnits="userSpaceOnUse">
<stop stop-color="#E1473D"/>
<stop offset="1" stop-color="#E9605A"/>
</linearGradient>
<linearGradient id="paint2_linear_162_720" x1="878.265" y1="-158.239" x2="76.7928" y2="524.905" gradientUnits="userSpaceOnUse">
<stop stop-color="#E1473D"/>
<stop offset="1" stop-color="#E9605A"/>
</linearGradient>
<linearGradient id="paint3_linear_162_720" x1="13.1615" y1="354.886" x2="708.925" y2="-381.899" gradientUnits="userSpaceOnUse">
<stop stop-color="#FF928E"/>
<stop offset="1" stop-color="#FE7062"/>
</linearGradient>
<linearGradient id="paint4_linear_162_720" x1="296.091" y1="303.657" x2="138.344" y2="477.966" gradientUnits="userSpaceOnUse">
<stop stop-color="#FF928E"/>
<stop offset="1" stop-color="#FE7062"/>
</linearGradient>
<linearGradient id="paint5_linear_162_720" x1="13.1612" y1="354.886" x2="708.925" y2="-381.899" gradientUnits="userSpaceOnUse">
<stop stop-color="#FFD7D5"/>
<stop offset="1" stop-color="#FFCAC5"/>
</linearGradient>
<linearGradient id="paint6_linear_162_720" x1="13.1612" y1="354.886" x2="708.925" y2="-381.9" gradientUnits="userSpaceOnUse">
<stop stop-color="#FFD7D5"/>
<stop offset="1" stop-color="#FFCAC5"/>
</linearGradient>
<linearGradient id="paint7_linear_162_720" x1="296.091" y1="303.657" x2="138.345" y2="477.966" gradientUnits="userSpaceOnUse">
<stop stop-color="#FFD7D5"/>
<stop offset="1" stop-color="#FFCAC5"/>
</linearGradient>
<linearGradient id="paint8_linear_162_720" x1="296.091" y1="303.657" x2="138.344" y2="477.966" gradientUnits="userSpaceOnUse">
<stop stop-color="#FFD7D5"/>
<stop offset="1" stop-color="#FFCAC5"/>
</linearGradient>
<linearGradient id="paint9_linear_162_720" x1="484.784" y1="562.91" x2="101.266" y2="86.6066" gradientUnits="userSpaceOnUse">
<stop stop-color="#C4D5FD"/>
<stop offset="1" stop-color="#CEDDFC"/>
</linearGradient>
<linearGradient id="paint10_linear_162_720" x1="484.785" y1="562.911" x2="101.267" y2="86.6062" gradientUnits="userSpaceOnUse">
<stop stop-color="#C4D5FD"/>
<stop offset="1" stop-color="#CEDDFC"/>
</linearGradient>
<linearGradient id="paint11_linear_162_720" x1="484.784" y1="562.909" x2="101.267" y2="86.6057" gradientUnits="userSpaceOnUse">
<stop stop-color="#C4D5FD"/>
<stop offset="1" stop-color="#CEDDFC"/>
</linearGradient>
<linearGradient id="paint12_linear_162_720" x1="484.784" y1="562.91" x2="101.267" y2="86.6062" gradientUnits="userSpaceOnUse">
<stop stop-color="#C4D5FD"/>
<stop offset="1" stop-color="#CEDDFC"/>
</linearGradient>
<linearGradient id="paint13_linear_162_720" x1="13.1614" y1="354.886" x2="708.925" y2="-381.9" gradientUnits="userSpaceOnUse">
<stop stop-color="#DE9CAF"/>
<stop offset="1" stop-color="#DD8490"/>
</linearGradient>
<linearGradient id="paint14_linear_162_720" x1="13.1614" y1="354.886" x2="708.924" y2="-381.901" gradientUnits="userSpaceOnUse">
<stop stop-color="#DE9CAF"/>
<stop offset="1" stop-color="#DD8490"/>
</linearGradient>
<linearGradient id="paint15_linear_162_720" x1="13.1611" y1="354.886" x2="708.925" y2="-381.901" gradientUnits="userSpaceOnUse">
<stop stop-color="#DE9CAF"/>
<stop offset="1" stop-color="#DD8490"/>
</linearGradient>
<linearGradient id="paint16_linear_162_720" x1="484.784" y1="562.91" x2="101.266" y2="86.6064" gradientUnits="userSpaceOnUse">
<stop stop-color="#C4D5FD"/>
<stop offset="1" stop-color="#CEDDFC"/>
</linearGradient>
<linearGradient id="paint17_linear_162_720" x1="13.1613" y1="354.885" x2="708.923" y2="-381.901" gradientUnits="userSpaceOnUse">
<stop stop-color="#DE9CAF"/>
<stop offset="1" stop-color="#DD8490"/>
</linearGradient>
<linearGradient id="paint18_linear_162_720" x1="13.1621" y1="354.886" x2="708.926" y2="-381.892" gradientUnits="userSpaceOnUse">
<stop stop-color="#DECCE0"/>
<stop offset="1" stop-color="#DEC3D5"/>
</linearGradient>
<linearGradient id="paint19_linear_162_720" x1="484.784" y1="562.911" x2="101.266" y2="86.607" gradientUnits="userSpaceOnUse">
<stop stop-color="#C4D5FD"/>
<stop offset="1" stop-color="#CEDDFC"/>
</linearGradient>
<linearGradient id="paint20_linear_162_720" x1="13.1611" y1="354.886" x2="708.925" y2="-381.899" gradientUnits="userSpaceOnUse">
<stop stop-color="#DE9CAF"/>
<stop offset="1" stop-color="#DD8490"/>
</linearGradient>
<linearGradient id="paint21_linear_162_720" x1="484.784" y1="562.912" x2="101.266" y2="86.6073" gradientUnits="userSpaceOnUse">
<stop stop-color="#C4D5FD"/>
<stop offset="1" stop-color="#CEDDFC"/>
</linearGradient>
<linearGradient id="paint22_linear_162_720" x1="13.1614" y1="354.885" x2="708.923" y2="-381.9" gradientUnits="userSpaceOnUse">
<stop stop-color="#DE9CAF"/>
<stop offset="1" stop-color="#DD8490"/>
</linearGradient>
<linearGradient id="paint23_linear_162_720" x1="484.785" y1="562.91" x2="101.267" y2="86.6058" gradientUnits="userSpaceOnUse">
<stop stop-color="#C4D5FD"/>
<stop offset="1" stop-color="#CEDDFC"/>
</linearGradient>
<linearGradient id="paint24_linear_162_720" x1="13.1613" y1="354.884" x2="708.92" y2="-381.9" gradientUnits="userSpaceOnUse">
<stop stop-color="#DE9CAF"/>
<stop offset="1" stop-color="#DD8490"/>
</linearGradient>
<linearGradient id="paint25_linear_162_720" x1="13.1613" y1="354.886" x2="708.925" y2="-381.899" gradientUnits="userSpaceOnUse">
<stop stop-color="#DECCE0"/>
<stop offset="1" stop-color="#DEC3D5"/>
</linearGradient>
<linearGradient id="paint26_linear_162_720" x1="13.1613" y1="354.886" x2="708.925" y2="-381.899" gradientUnits="userSpaceOnUse">
<stop stop-color="#DE9CAF"/>
<stop offset="1" stop-color="#DD8490"/>
</linearGradient>
<linearGradient id="paint27_linear_162_720" x1="13.1612" y1="354.888" x2="708.93" y2="-381.9" gradientUnits="userSpaceOnUse">
<stop stop-color="#DE9CAF"/>
<stop offset="1" stop-color="#DD8490"/>
</linearGradient>
<linearGradient id="paint28_linear_162_720" x1="300.359" y1="94.1828" x2="400.812" y2="94.1828" gradientUnits="userSpaceOnUse">
<stop stop-color="#DAE3FE"/>
<stop offset="1" stop-color="#E9EFFD"/>
</linearGradient>
<linearGradient id="paint29_linear_162_720" x1="291.682" y1="118.789" x2="392.138" y2="118.789" gradientUnits="userSpaceOnUse">
<stop stop-color="#DAE3FE"/>
<stop offset="1" stop-color="#E9EFFD"/>
</linearGradient>
<linearGradient id="paint30_linear_162_720" x1="291.683" y1="129.312" x2="403.664" y2="129.312" gradientUnits="userSpaceOnUse">
<stop stop-color="#DAE3FE"/>
<stop offset="1" stop-color="#E9EFFD"/>
</linearGradient>
<linearGradient id="paint31_linear_162_720" x1="292.114" y1="107.899" x2="346.902" y2="107.899" gradientUnits="userSpaceOnUse">
<stop stop-color="#DAE3FE"/>
<stop offset="1" stop-color="#E9EFFD"/>
</linearGradient>
<linearGradient id="paint32_linear_162_720" x1="353.304" y1="106.018" x2="405.093" y2="106.018" gradientUnits="userSpaceOnUse">
<stop stop-color="#DAE3FE"/>
<stop offset="1" stop-color="#E9EFFD"/>
</linearGradient>
<linearGradient id="paint33_linear_162_720" x1="128.344" y1="409.896" x2="31.8127" y2="514.895" gradientUnits="userSpaceOnUse">
<stop stop-color="#09005D"/>
<stop offset="1" stop-color="#1A0F91"/>
</linearGradient>
<linearGradient id="paint34_linear_162_720" x1="97.0122" y1="417.695" x2="105.587" y2="417.695" gradientUnits="userSpaceOnUse">
<stop stop-color="#FEBBBA"/>
<stop offset="1" stop-color="#FF928E"/>
</linearGradient>
<linearGradient id="paint35_linear_162_720" x1="135.945" y1="291.154" x2="53.8068" y2="402.482" gradientUnits="userSpaceOnUse">
<stop stop-color="#09005D"/>
<stop offset="1" stop-color="#1A0F91"/>
</linearGradient>
<linearGradient id="paint36_linear_162_720" x1="106.69" y1="389.988" x2="10.159" y2="494.986" gradientUnits="userSpaceOnUse">
<stop stop-color="#09005D"/>
<stop offset="1" stop-color="#1A0F91"/>
</linearGradient>
<linearGradient id="paint37_linear_162_720" x1="66.1104" y1="417.255" x2="73.5135" y2="417.255" gradientUnits="userSpaceOnUse">
<stop stop-color="#FEBBBA"/>
<stop offset="1" stop-color="#FF928E"/>
</linearGradient>
<linearGradient id="paint38_linear_162_720" x1="121.306" y1="280.354" x2="39.1673" y2="391.682" gradientUnits="userSpaceOnUse">
<stop stop-color="#09005D"/>
<stop offset="1" stop-color="#1A0F91"/>
</linearGradient>
<linearGradient id="paint39_linear_162_720" x1="92.2633" y1="230.818" x2="223.212" y2="5.20682" gradientUnits="userSpaceOnUse">
<stop stop-color="#4F52FF"/>
<stop offset="1" stop-color="#4042E2"/>
</linearGradient>
<linearGradient id="paint40_linear_162_720" x1="169.346" y1="142.964" x2="154.218" y2="186.188" gradientUnits="userSpaceOnUse">
<stop stop-color="#FEBBBA"/>
<stop offset="1" stop-color="#FF928E"/>
</linearGradient>
<linearGradient id="paint41_linear_162_720" x1="182.276" y1="147.489" x2="167.148" y2="190.713" gradientUnits="userSpaceOnUse">
<stop stop-color="#FEBBBA"/>
<stop offset="1" stop-color="#FF928E"/>
</linearGradient>
<linearGradient id="paint42_linear_162_720" x1="170.653" y1="175.104" x2="182.049" y2="152.117" gradientUnits="userSpaceOnUse">
<stop stop-color="#FEBBBA"/>
<stop offset="1" stop-color="#FF928E"/>
</linearGradient>
<linearGradient id="paint43_linear_162_720" x1="65.0251" y1="215.008" x2="195.974" y2="-10.6029" gradientUnits="userSpaceOnUse">
<stop stop-color="#4F52FF"/>
<stop offset="1" stop-color="#4042E2"/>
</linearGradient>
<linearGradient id="paint44_linear_162_720" x1="36.4414" y1="256.049" x2="91.8769" y2="256.049" gradientUnits="userSpaceOnUse">
<stop stop-color="#FEBBBA"/>
<stop offset="1" stop-color="#FF928E"/>
</linearGradient>
<linearGradient id="paint45_linear_162_720" x1="87.7616" y1="250.237" x2="105.032" y2="250.237" gradientUnits="userSpaceOnUse">
<stop stop-color="#FEBBBA"/>
<stop offset="1" stop-color="#FF928E"/>
</linearGradient>
<linearGradient id="paint46_linear_162_720" x1="79.008" y1="196.785" x2="100.925" y2="196.785" gradientUnits="userSpaceOnUse">
<stop stop-color="#FEBBBA"/>
<stop offset="1" stop-color="#FF928E"/>
</linearGradient>
<linearGradient id="paint47_linear_162_720" x1="106.139" y1="182.843" x2="82.0408" y2="168.145" gradientUnits="userSpaceOnUse">
<stop stop-color="#FEBBBA"/>
<stop offset="1" stop-color="#FF928E"/>
</linearGradient>
<linearGradient id="paint48_linear_162_720" x1="69.284" y1="152.65" x2="100.416" y2="177.239" gradientUnits="userSpaceOnUse">
<stop stop-color="#09005D"/>
<stop offset="1" stop-color="#1A0F91"/>
</linearGradient>
<linearGradient id="paint49_linear_162_720" x1="99.8084" y1="188.323" x2="78.127" y2="175.099" gradientUnits="userSpaceOnUse">
<stop stop-color="#FEBBBA"/>
<stop offset="1" stop-color="#FF928E"/>
</linearGradient>
</defs>
</svg>
