<svg width="438" height="438" viewBox="0 0 438 438" fill="none" xmlns="http://www.w3.org/2000/svg">
<path d="M213.808 434.25C240.019 434.25 260.043 430.584 268.029 428.963C296.991 423.079 352.976 411.709 393.452 364.11C454.689 292.097 445.154 178.642 397.654 103.748C392.785 96.0713 376.233 68.818 346.201 44.195C346.118 44.1387 346.041 44.0763 345.971 44.006C322.437 24.7636 290.663 7.16433 249.791 1.82269C240.532 0.612235 231.014 0 221.374 0C172.234 0 119.717 15.8734 79.8782 49.2508C-20.1524 133.057 -13.0318 302.36 54.2274 373.168C63.1021 382.511 71.5003 388.537 78.1352 393.297C81.7056 395.859 85.3136 398.273 88.934 400.54C91.6032 401.594 94.3241 402.567 97.0417 403.439C98.4553 403.891 99.3486 405.214 99.3205 406.626C102.552 408.396 105.793 410.058 109.04 411.621C108.885 411.126 108.846 410.586 108.948 410.041C109.245 408.463 110.622 407.364 112.172 407.364C112.372 407.364 112.575 407.382 112.778 407.42C116.037 408.032 119.363 408.524 122.661 408.88C124.462 409.077 125.765 410.695 125.569 412.497C125.413 413.939 124.343 415.062 122.997 415.351C122.775 415.399 122.544 415.424 122.308 415.424C122.191 415.424 122.072 415.418 121.954 415.406C119.747 415.165 117.529 414.87 115.325 414.52C150.428 430.025 185.678 434.25 213.808 434.25ZM149.179 409.033C150.85 409.033 152.278 410.305 152.44 412.002C152.601 413.677 151.473 415.176 149.868 415.521C149.744 415.548 149.616 415.568 149.487 415.581C146.018 415.913 142.489 416.112 139 416.176C138.98 416.176 138.961 416.176 138.941 416.176C137.157 416.176 135.694 414.745 135.661 412.954C135.63 411.142 137.073 409.642 138.883 409.614C142.203 409.555 145.562 409.364 148.862 409.049C148.968 409.038 149.074 409.033 149.179 409.033ZM175.539 403.799C176.944 403.799 178.244 404.71 178.675 406.123C179.204 407.856 178.228 409.691 176.496 410.22C175.829 410.425 175.159 410.623 174.489 410.815C171.804 411.59 169.062 412.291 166.335 412.9L166.308 412.907C166.075 412.957 165.844 412.98 165.616 412.98C164.114 412.98 162.758 411.941 162.417 410.414C162.022 408.646 163.134 406.892 164.904 406.497C167.5 405.916 170.113 405.249 172.671 404.51C173.31 404.326 173.944 404.138 174.578 403.945C174.898 403.846 175.222 403.799 175.539 403.799ZM200.335 393.435C201.5 393.435 202.626 394.056 203.22 395.151C204.084 396.744 203.493 398.736 201.9 399.599C198.839 401.261 195.668 402.826 192.476 404.251C192.262 404.346 192.045 404.416 191.824 404.463C191.596 404.512 191.367 404.537 191.14 404.537C189.885 404.537 188.687 403.812 188.142 402.59C187.403 400.936 188.146 398.997 189.802 398.258C192.84 396.902 195.857 395.414 198.772 393.831C199.27 393.561 199.806 393.435 200.335 393.435ZM222.536 378.291C223.47 378.291 224.397 378.687 225.046 379.457C226.214 380.843 226.037 382.912 224.652 384.081C221.98 386.333 219.19 388.504 216.36 390.536C215.982 390.809 215.565 390.987 215.137 391.079C214.911 391.129 214.679 391.153 214.45 391.153C213.428 391.153 212.423 390.678 211.782 389.785C210.725 388.313 211.061 386.264 212.533 385.207C215.226 383.273 217.88 381.205 220.422 379.062C221.039 378.544 221.789 378.291 222.536 378.291ZM238.112 362.786C238.865 362.786 239.621 363.044 240.238 363.568C241.619 364.743 241.786 366.814 240.611 368.193C239.456 369.55 238.258 370.905 237.047 372.218C236.571 372.735 235.965 373.065 235.326 373.202C235.098 373.252 234.865 373.277 234.632 373.277C233.837 373.277 233.041 372.99 232.41 372.409C231.078 371.181 230.993 369.105 232.221 367.771C233.374 366.522 234.514 365.232 235.613 363.942C236.262 363.178 237.185 362.786 238.112 362.786ZM272.335 271.952C272.371 271.952 272.408 271.953 272.444 271.953C274.256 272.016 275.674 273.534 275.613 275.344C275.552 277.128 275.454 278.935 275.321 280.715C275.212 282.202 274.128 283.383 272.741 283.681C272.519 283.728 272.288 283.755 272.054 283.755C271.972 283.755 271.89 283.752 271.807 283.745C270 283.611 268.644 282.037 268.778 280.23C268.903 278.536 268.997 276.817 269.055 275.121C269.055 275.085 269.058 275.047 269.059 275.011C268.9 275.074 268.733 275.124 268.561 275.161C268.435 275.188 268.307 275.208 268.175 275.221C268.071 275.23 267.966 275.235 267.863 275.235C266.19 275.235 264.761 273.96 264.602 272.261C264.286 268.904 263.833 265.515 263.254 262.187C262.945 260.401 264.152 258.68 265.926 258.393C266.115 258.36 266.304 258.343 266.492 258.343C268.057 258.343 269.444 259.467 269.72 261.064C270.328 264.559 270.804 268.12 271.135 271.647C271.152 271.825 271.154 272.002 271.143 272.175C271.513 272.031 271.915 271.952 272.335 271.952ZM259.113 232.049C260.424 232.049 261.659 232.836 262.167 234.129C263.462 237.418 264.646 240.806 265.686 244.202C266.217 245.935 265.244 247.769 263.51 248.3C263.418 248.328 263.326 248.353 263.234 248.372C263.004 248.422 262.774 248.445 262.548 248.445C261.144 248.445 259.844 247.538 259.412 246.126C258.421 242.891 257.294 239.664 256.06 236.531C255.396 234.844 256.227 232.94 257.912 232.277C258.307 232.122 258.714 232.049 259.113 232.049ZM340.2 235.902C341 235.902 341.671 236.523 341.721 237.333C341.751 237.814 341.556 238.256 341.225 238.557C340.978 238.782 340.654 238.927 340.294 238.951C338.624 239.055 336.926 239.118 335.246 239.136C335.239 239.136 335.233 239.136 335.229 239.136C334.394 239.136 333.712 238.463 333.704 237.628C333.693 236.784 334.369 236.094 335.211 236.085C336.84 236.067 338.485 236.006 340.103 235.905C340.136 235.903 340.169 235.902 340.2 235.902ZM322.19 235.35C322.252 235.35 322.316 235.354 322.379 235.361C323.994 235.563 325.634 235.724 327.254 235.841C328.094 235.902 328.726 236.633 328.665 237.473C328.636 237.879 328.45 238.237 328.17 238.491C327.899 238.738 327.536 238.888 327.146 238.888C327.108 238.888 327.071 238.887 327.033 238.883C325.362 238.763 323.671 238.598 322.003 238.39C321.167 238.287 320.573 237.525 320.676 236.687C320.773 235.916 321.431 235.35 322.19 235.35ZM353.142 234.209C353.854 234.209 354.49 234.71 354.635 235.435C354.744 235.98 354.549 236.516 354.165 236.864C353.968 237.044 353.72 237.173 353.44 237.231C351.795 237.561 350.123 237.851 348.465 238.095C348.39 238.106 348.316 238.11 348.241 238.11C347.497 238.11 346.846 237.565 346.735 236.808C346.611 235.975 347.188 235.199 348.02 235.076C349.626 234.84 351.247 234.559 352.84 234.238C352.94 234.218 353.042 234.209 353.142 234.209ZM309.367 232.878C309.495 232.878 309.625 232.894 309.756 232.928C311.33 233.343 312.934 233.721 314.524 234.054C315.349 234.227 315.877 235.037 315.705 235.86C315.636 236.186 315.468 236.467 315.24 236.675C314.963 236.926 314.599 237.073 314.213 237.073C314.11 237.073 314.004 237.062 313.899 237.04C312.258 236.697 310.602 236.306 308.978 235.878C308.164 235.664 307.677 234.829 307.891 234.015C308.071 233.331 308.691 232.878 309.367 232.878ZM365.741 230.779C366.373 230.779 366.964 231.174 367.182 231.805C367.388 232.399 367.205 233.034 366.767 233.434C366.619 233.568 366.441 233.676 366.24 233.746C364.656 234.295 363.034 234.81 361.42 235.277C361.279 235.319 361.136 235.338 360.995 235.338C360.334 235.338 359.724 234.904 359.531 234.237C359.296 233.428 359.762 232.581 360.572 232.347C362.135 231.894 363.706 231.394 365.241 230.863C365.407 230.805 365.575 230.779 365.741 230.779ZM296.986 228.712C297.18 228.712 297.376 228.75 297.567 228.828C299.071 229.45 300.611 230.038 302.145 230.582C302.94 230.863 303.355 231.736 303.074 232.53C302.987 232.775 302.843 232.984 302.663 233.148C302.384 233.403 302.017 233.546 301.636 233.546C301.467 233.546 301.295 233.518 301.126 233.459C299.544 232.898 297.954 232.289 296.403 231.649C295.624 231.327 295.254 230.435 295.574 229.656C295.819 229.069 296.388 228.712 296.986 228.712ZM377.761 225.679C378.318 225.679 378.855 225.985 379.124 226.516C379.441 227.143 379.285 227.883 378.79 228.333C378.691 228.424 378.577 228.503 378.451 228.567C376.952 229.325 375.415 230.054 373.883 230.732C373.682 230.821 373.473 230.863 373.266 230.863C372.681 230.863 372.123 230.526 371.87 229.956C371.529 229.186 371.876 228.285 372.647 227.942C374.132 227.285 375.621 226.579 377.074 225.843C377.295 225.732 377.53 225.679 377.761 225.679ZM285.273 222.929C285.533 222.929 285.797 222.994 286.037 223.135C287.447 223.953 288.895 224.744 290.34 225.487C291.09 225.871 291.385 226.791 290.999 227.541C290.913 227.708 290.801 227.853 290.67 227.972C290.387 228.228 290.018 228.37 289.64 228.37C289.406 228.37 289.169 228.316 288.945 228.2C287.454 227.435 285.961 226.618 284.505 225.773C283.775 225.35 283.529 224.416 283.952 223.688C284.235 223.201 284.747 222.929 285.273 222.929ZM389.002 219.024C389.488 219.024 389.966 219.255 390.261 219.686C390.697 220.324 390.586 221.172 390.031 221.678C389.98 221.723 389.925 221.768 389.866 221.807C388.483 222.755 387.056 223.683 385.624 224.561C385.375 224.714 385.1 224.786 384.827 224.786C384.314 224.786 383.813 224.528 383.525 224.058C383.085 223.34 383.311 222.402 384.028 221.96C385.416 221.109 386.8 220.211 388.14 219.291C388.404 219.11 388.704 219.024 389.002 219.024ZM246.564 207.799C247.632 207.799 248.68 208.321 249.309 209.281C251.252 212.241 253.103 215.319 254.81 218.429C255.682 220.017 255.101 222.012 253.514 222.885C253.227 223.041 252.927 223.152 252.622 223.218C252.396 223.266 252.166 223.29 251.938 223.29C250.779 223.29 249.655 222.674 249.058 221.587C247.434 218.626 245.672 215.697 243.823 212.881C242.829 211.366 243.251 209.331 244.766 208.338C245.32 207.974 245.945 207.799 246.564 207.799ZM274.44 215.616C274.768 215.616 275.099 215.722 275.377 215.939C276.661 216.939 277.99 217.918 279.324 218.852C280.016 219.333 280.185 220.285 279.702 220.976C279.635 221.072 279.56 221.158 279.477 221.233C279.191 221.492 278.823 221.628 278.449 221.628C278.148 221.628 277.843 221.539 277.578 221.353C276.199 220.391 274.827 219.379 273.503 218.346C272.838 217.829 272.719 216.87 273.236 216.205C273.537 215.819 273.986 215.616 274.44 215.616ZM399.256 210.93C399.672 210.93 400.086 211.099 400.387 211.432C400.952 212.057 400.905 213.019 400.283 213.584L400.28 213.587C399.038 214.712 397.747 215.821 396.444 216.884C396.161 217.115 395.82 217.228 395.481 217.228C395.038 217.228 394.599 217.036 394.298 216.666C393.765 216.013 393.863 215.048 394.515 214.52C395.778 213.49 397.028 212.414 398.232 211.326C398.524 211.06 398.891 210.93 399.256 210.93ZM264.705 206.912C265.1 206.912 265.495 207.066 265.794 207.374C266.931 208.536 268.111 209.686 269.306 210.788C269.925 211.36 269.964 212.325 269.392 212.945C269.361 212.978 269.33 213.009 269.297 213.039C269.008 213.301 268.639 213.436 268.271 213.436C267.901 213.436 267.529 213.301 267.235 213.031C266.003 211.893 264.785 210.706 263.612 209.504C263.023 208.902 263.034 207.936 263.637 207.348C263.94 207.055 264.324 206.912 264.705 206.912ZM408.324 201.526C408.671 201.526 409.019 201.644 409.306 201.884C409.95 202.428 410.033 203.39 409.491 204.035C408.41 205.319 407.281 206.593 406.136 207.821C406.107 207.852 406.077 207.88 406.046 207.91C405.757 208.172 405.389 208.305 405.02 208.305C404.647 208.305 404.274 208.169 403.98 207.894C403.364 207.319 403.33 206.354 403.905 205.739C405.015 204.55 406.109 203.315 407.156 202.07C407.458 201.711 407.89 201.526 408.324 201.526ZM256.229 196.972C256.696 196.972 257.155 197.186 257.455 197.589C258.428 198.899 259.443 200.197 260.475 201.448C260.995 202.079 260.924 203.002 260.325 203.547C260.308 203.563 260.288 203.58 260.269 203.596C259.985 203.83 259.641 203.946 259.299 203.946C258.859 203.946 258.423 203.755 258.122 203.39C257.056 202.1 256.008 200.759 255.004 199.407C254.503 198.731 254.642 197.778 255.321 197.272C255.593 197.07 255.913 196.972 256.229 196.972ZM229.302 186.623C230.141 186.623 230.978 186.943 231.62 187.58C234.133 190.086 236.575 192.721 238.882 195.412C240.062 196.786 239.902 198.859 238.526 200.038C238.097 200.405 237.6 200.644 237.083 200.755C236.855 200.803 236.624 200.828 236.393 200.828C235.468 200.828 234.55 200.439 233.9 199.682C231.705 197.122 229.378 194.613 226.986 192.229C225.703 190.949 225.699 188.872 226.978 187.588C227.62 186.945 228.461 186.623 229.302 186.623ZM416.037 190.982C416.316 190.982 416.597 191.059 416.85 191.218C417.562 191.669 417.775 192.611 417.324 193.323C416.426 194.745 415.479 196.16 414.512 197.528C414.447 197.62 414.373 197.704 414.292 197.778C414.007 198.037 413.638 198.173 413.265 198.173C412.961 198.173 412.653 198.082 412.386 197.893C411.698 197.406 411.534 196.455 412.021 195.766C412.958 194.44 413.875 193.07 414.745 191.693C415.037 191.234 415.532 190.982 416.037 190.982ZM249.161 185.986C249.698 185.986 250.218 186.27 250.497 186.773C250.906 187.51 251.324 188.246 251.755 188.977C252.155 189.659 252.563 190.334 252.978 191.001C253.372 191.637 253.244 192.449 252.71 192.934C252.643 192.995 252.568 193.052 252.486 193.102C252.236 193.258 251.958 193.333 251.684 193.333C251.173 193.333 250.675 193.077 250.386 192.611C249.958 191.922 249.537 191.226 249.125 190.523C248.682 189.769 248.249 189.011 247.827 188.25C247.42 187.512 247.688 186.584 248.424 186.176C248.658 186.047 248.911 185.986 249.161 185.986ZM421.194 181.74C421.419 181.74 421.647 181.79 421.863 181.895C422.62 182.265 422.934 183.179 422.564 183.936C422.201 184.677 421.829 185.416 421.448 186.148C421.362 186.312 421.251 186.454 421.121 186.573C420.839 186.829 420.471 186.97 420.093 186.97C419.856 186.97 419.615 186.915 419.39 186.798C418.643 186.409 418.352 185.487 418.741 184.741C419.111 184.03 419.471 183.315 419.822 182.596C420.086 182.054 420.629 181.74 421.194 181.74ZM208.085 169.423C208.701 169.423 209.324 169.595 209.878 169.958C212.841 171.894 215.77 173.975 218.581 176.143C220.016 177.248 220.283 179.309 219.176 180.744C218.684 181.384 218.002 181.79 217.269 181.948C217.041 181.998 216.808 182.022 216.576 182.022C215.876 182.022 215.171 181.8 214.575 181.339C211.898 179.276 209.11 177.295 206.289 175.451C204.771 174.461 204.344 172.427 205.336 170.91C205.966 169.947 207.015 169.423 208.085 169.423ZM243.616 174.158C244.227 174.158 244.803 174.528 245.038 175.131C245.628 176.646 246.265 178.165 246.932 179.651C247.21 180.268 247.043 180.972 246.568 181.405C246.453 181.511 246.318 181.6 246.167 181.667C245.964 181.759 245.751 181.801 245.542 181.801C244.96 181.801 244.405 181.467 244.151 180.902C243.462 179.37 242.803 177.8 242.195 176.238C241.889 175.452 242.278 174.568 243.064 174.262C243.245 174.192 243.432 174.158 243.616 174.158ZM62.7381 168.95C63.8158 168.95 64.8716 169.481 65.498 170.454C66.4804 171.976 66.0431 174.008 64.5202 174.99C61.6823 176.821 58.8834 178.787 56.2032 180.831C55.8065 181.134 55.3629 181.333 54.9053 181.431C54.6773 181.48 54.4461 181.503 54.215 181.503C53.2279 181.503 52.2501 181.059 51.605 180.213C50.5055 178.771 50.782 176.713 52.2236 175.613C55.0396 173.466 57.9791 171.399 60.9623 169.475C61.5121 169.119 62.129 168.95 62.7381 168.95ZM240.34 164.155C241.013 164.155 241.63 164.605 241.812 165.286C242.019 166.058 242.236 166.828 242.464 167.598C242.636 168.177 242.445 168.778 242.026 169.16C241.861 169.309 241.661 169.425 241.433 169.492C241.289 169.534 241.142 169.556 241 169.556C240.341 169.556 239.734 169.125 239.537 168.461C239.302 167.668 239.079 166.873 238.865 166.076C238.646 165.263 239.129 164.425 239.943 164.207C240.076 164.172 240.208 164.155 240.34 164.155ZM183.824 156.886C184.224 156.886 184.63 156.96 185.026 157.114C188.321 158.412 191.609 159.855 194.797 161.406C196.427 162.198 197.105 164.163 196.313 165.792C195.854 166.735 195.001 167.36 194.049 167.565C193.824 167.613 193.592 167.638 193.36 167.638C192.877 167.638 192.388 167.532 191.926 167.307C188.891 165.831 185.761 164.457 182.622 163.221C180.935 162.557 180.107 160.654 180.771 158.967C181.277 157.675 182.514 156.886 183.824 156.886ZM87.091 156.591C88.4092 156.591 89.6587 157.388 90.1601 158.692C90.8098 160.383 89.9664 162.283 88.2749 162.932C85.1246 164.143 81.9821 165.494 78.9348 166.946C78.699 167.059 78.4553 167.142 78.2101 167.193C77.9821 167.243 77.7525 167.267 77.526 167.267C76.3 167.267 75.1239 166.576 74.5616 165.395C73.7806 163.76 74.4757 161.802 76.111 161.022C79.3113 159.496 82.6131 158.078 85.9196 156.807C86.3053 156.66 86.7005 156.591 87.091 156.591ZM157.535 149.538C157.718 149.538 157.904 149.553 158.091 149.584C161.58 150.184 165.091 150.929 168.527 151.799C170.285 152.244 171.348 154.03 170.903 155.787C170.586 157.036 169.59 157.936 168.409 158.189C168.185 158.237 167.957 158.262 167.725 158.262C167.458 158.262 167.186 158.229 166.916 158.161C163.645 157.333 160.303 156.622 156.98 156.052C155.194 155.746 153.994 154.05 154.302 152.263C154.575 150.665 155.964 149.538 157.535 149.538ZM113.457 149.417C115.033 149.417 116.425 150.556 116.69 152.162C116.978 153.897 115.848 155.54 114.146 155.905C114.094 155.916 114.043 155.926 113.991 155.935C110.661 156.488 107.331 157.172 104.033 157.986C103.767 158.048 103.505 158.08 103.246 158.08C101.762 158.08 100.429 157.081 100.061 155.584C99.6282 153.823 100.703 152.046 102.463 151.613C105.926 150.761 109.421 150.041 112.917 149.461C113.099 149.431 113.279 149.417 113.457 149.417ZM135.134 147.631C137.043 147.631 138.952 147.671 140.845 147.751C142.655 147.826 144.062 149.356 143.986 151.167C143.922 152.691 142.825 153.93 141.399 154.237C141.176 154.284 140.946 154.309 140.71 154.309C140.663 154.309 140.617 154.309 140.57 154.306C138.77 154.231 136.957 154.194 135.144 154.194C133.563 154.194 131.981 154.222 130.41 154.279C130.369 154.281 130.329 154.281 130.288 154.281C128.531 154.281 127.075 152.889 127.011 151.12C126.945 149.308 128.365 147.788 130.169 147.721C131.819 147.66 133.476 147.631 135.134 147.631ZM190.794 136.813C191.839 136.813 192.701 137.644 192.733 138.695C192.762 139.61 192.151 140.397 191.306 140.629C191.161 140.668 191.008 140.691 190.851 140.696C190.217 140.716 189.582 140.725 188.944 140.725C187.415 140.725 185.883 140.669 184.365 140.558C183.295 140.48 182.491 139.549 182.569 138.479C182.644 137.458 183.496 136.679 184.504 136.679C184.552 136.679 184.599 136.682 184.648 136.685C186.07 136.788 187.507 136.841 188.94 136.841C189.538 136.841 190.136 136.832 190.733 136.813C190.753 136.813 190.773 136.813 190.794 136.813ZM203.995 134.95C204.861 134.95 205.652 135.534 205.875 136.413C206.138 137.442 205.525 138.487 204.505 138.765L204.473 138.775C203.445 139.037 202.394 139.276 201.347 139.487C201.218 139.513 201.09 139.526 200.961 139.526C200.056 139.526 199.247 138.889 199.061 137.966C198.848 136.914 199.526 135.895 200.582 135.679C201.563 135.481 202.55 135.256 203.514 135.011C203.674 134.97 203.835 134.95 203.995 134.95ZM168.401 133.28C168.616 133.28 168.837 133.317 169.052 133.394L169.399 133.516C171.198 134.144 173.044 134.69 174.886 135.142C175.928 135.396 176.565 136.449 176.309 137.491C176.135 138.2 175.592 138.723 174.933 138.903C174.77 138.947 174.598 138.971 174.425 138.971C174.272 138.971 174.116 138.953 173.96 138.914C172.001 138.434 170.036 137.852 168.12 137.183L167.748 137.053C166.738 136.693 166.211 135.582 166.57 134.572C166.853 133.777 167.601 133.28 168.401 133.28ZM153.774 125.747C154.158 125.747 154.547 125.861 154.886 126.098C156.54 127.256 158.275 128.341 160.042 129.324C160.979 129.845 161.318 131.028 160.796 131.965C160.531 132.441 160.096 132.761 159.611 132.894C159.444 132.941 159.27 132.964 159.097 132.964C158.777 132.964 158.453 132.885 158.153 132.719C156.271 131.671 154.422 130.515 152.659 129.282C151.779 128.666 151.565 127.454 152.181 126.576C152.559 126.036 153.162 125.747 153.774 125.747ZM141.693 114.576C142.252 114.576 142.808 114.817 143.192 115.284C144.478 116.844 145.86 118.355 147.297 119.774C148.061 120.527 148.07 121.758 147.316 122.522C147.067 122.773 146.766 122.943 146.447 123.031C146.278 123.076 146.107 123.1 145.933 123.1C145.44 123.1 144.948 122.914 144.568 122.54C143.036 121.027 141.565 119.417 140.193 117.753C139.511 116.926 139.63 115.701 140.457 115.02C140.82 114.722 141.257 114.576 141.693 114.576ZM238.097 112.132C238.498 112.132 238.904 112.257 239.253 112.516C240.113 113.155 240.293 114.372 239.654 115.234C239.02 116.085 238.354 116.935 237.675 117.756C237.411 118.077 237.064 118.291 236.693 118.394C236.524 118.439 236.351 118.462 236.177 118.462C235.741 118.462 235.303 118.317 234.942 118.017C234.114 117.335 233.998 116.11 234.681 115.282C235.318 114.512 235.941 113.716 236.535 112.916C236.916 112.404 237.503 112.132 238.097 112.132ZM133.02 100.587C133.762 100.587 134.472 101.015 134.794 101.736C135.622 103.584 136.553 105.408 137.562 107.159C138.097 108.088 137.779 109.275 136.849 109.811C136.701 109.897 136.548 109.96 136.39 110.003C136.221 110.049 136.051 110.072 135.881 110.072C135.209 110.072 134.557 109.722 134.196 109.099C133.121 107.234 132.129 105.291 131.248 103.323C130.811 102.344 131.248 101.196 132.228 100.757C132.485 100.641 132.754 100.587 133.02 100.587ZM246.137 97.4614C246.367 97.4614 246.601 97.5035 246.829 97.591C247.832 97.9737 248.333 99.0951 247.951 100.098C247.168 102.147 246.272 104.176 245.284 106.125C245.025 106.636 244.574 106.983 244.062 107.122C243.896 107.167 243.724 107.192 243.549 107.192C243.254 107.192 242.956 107.123 242.673 106.981C241.717 106.497 241.333 105.329 241.819 104.371C242.745 102.541 243.587 100.637 244.322 98.7124C244.618 97.9377 245.355 97.4614 246.137 97.4614ZM128.371 84.7992C129.313 84.7992 130.141 85.4864 130.288 86.447C130.594 88.4478 131.008 90.4532 131.519 92.4087C131.787 93.4395 131.175 94.4922 130.15 94.7718L130.129 94.778C129.965 94.8202 129.799 94.8405 129.637 94.8405C128.774 94.8405 127.987 94.2626 127.759 93.388C127.216 91.3044 126.775 89.1662 126.449 87.0358C126.286 85.9753 127.006 84.985 128.075 84.821C128.175 84.807 128.273 84.7992 128.371 84.7992ZM256.11 89.3661C256.369 89.3661 256.633 89.4333 256.874 89.5723C257.603 89.9956 257.85 90.9296 257.427 91.6574C257.025 92.3509 256.632 93.0475 256.247 93.7488C256.163 93.9018 256.058 94.0346 255.937 94.1455C255.654 94.4016 255.285 94.5422 254.907 94.5422C254.66 94.5422 254.409 94.4813 254.176 94.3548C253.438 93.9502 253.166 93.0225 253.572 92.2837C253.967 91.559 254.373 90.8406 254.789 90.1252C255.071 89.6379 255.584 89.3661 256.11 89.3661ZM249.937 81.1694C249.997 81.1694 250.056 81.171 250.117 81.1772C251.185 81.2756 251.971 82.2221 251.873 83.2904C251.671 85.4692 251.351 87.6637 250.921 89.8159C250.773 90.5625 250.215 91.1217 249.528 91.3091C249.364 91.3544 249.194 91.3778 249.019 91.3778C248.892 91.3778 248.764 91.3654 248.636 91.3404C247.585 91.1295 246.903 90.1065 247.112 89.0553C247.516 87.0358 247.816 84.9757 248.004 82.9328C248.097 81.9254 248.946 81.1694 249.937 81.1694ZM263.141 78.8906C263.466 78.8906 263.794 78.9953 264.071 79.2092C264.739 79.7231 264.863 80.6805 264.349 81.349C263.396 82.5844 262.459 83.8636 261.566 85.1506C261.498 85.2475 261.422 85.3349 261.338 85.4099C261.053 85.6692 260.685 85.8066 260.311 85.8066C260.01 85.8066 259.707 85.7176 259.441 85.5333C258.749 85.0538 258.579 84.1026 259.059 83.4107C259.982 82.0815 260.949 80.7617 261.931 79.4857C262.232 79.0952 262.684 78.8906 263.141 78.8906ZM128.095 68.3416C128.172 68.3416 128.251 68.3463 128.329 68.3557C129.395 68.4838 130.155 69.4506 130.027 70.5158C129.787 72.5244 129.648 74.5673 129.616 76.5884C129.602 77.4724 128.999 78.2096 128.186 78.4314C128.023 78.4767 127.851 78.5001 127.673 78.5001C127.662 78.5001 127.653 78.5001 127.642 78.5001C126.571 78.4829 125.715 77.5989 125.732 76.5275C125.766 74.3721 125.913 72.1948 126.169 70.0535C126.288 69.0679 127.125 68.3416 128.095 68.3416ZM271.443 69.4662C271.833 69.4662 272.224 69.6146 272.522 69.9129C273.116 70.5095 273.114 71.4764 272.517 72.0714C271.41 73.1741 270.315 74.3206 269.262 75.4779C269.23 75.5154 269.195 75.5497 269.159 75.5825C268.87 75.8449 268.502 75.9777 268.133 75.9777C267.768 75.9777 267.401 75.8465 267.107 75.581C266.484 75.014 266.439 74.0503 267.004 73.4256C268.091 72.2307 269.22 71.0484 270.364 69.9098C270.662 69.6146 271.052 69.4662 271.443 69.4662ZM249.177 64.4573C250.094 64.4573 250.91 65.1101 251.084 66.0457C251.484 68.2011 251.774 70.4002 251.946 72.5822C252.019 73.5271 251.406 74.3674 250.523 74.6079C250.407 74.6407 250.286 74.661 250.162 74.672C250.109 74.6751 250.058 74.6782 250.008 74.6782C249.003 74.6782 248.152 73.9051 248.072 72.8883C247.912 70.8406 247.64 68.7774 247.265 66.7548C247.068 65.699 247.768 64.6868 248.819 64.4901C248.939 64.4682 249.058 64.4573 249.177 64.4573ZM280.897 61.196C281.356 61.196 281.809 61.4022 282.109 61.7943C282.595 62.4284 282.506 63.3218 281.926 63.8497C281.893 63.8778 281.861 63.9059 281.825 63.9341C280.585 64.8837 279.349 65.8786 278.156 66.8891C277.868 67.1328 277.519 67.2515 277.17 67.2515C276.736 67.2515 276.307 67.0687 276.005 66.711C275.46 66.0691 275.546 65.1054 276.183 64.5619C277.416 63.517 278.69 62.4908 279.971 61.51C280.247 61.2991 280.574 61.196 280.897 61.196ZM132.234 52.4058C132.478 52.4058 132.726 52.4511 132.965 52.5495C133.958 52.954 134.436 54.0879 134.032 55.0813C133.641 56.0371 133.273 57.0133 132.934 57.9848C132.606 58.9251 132.298 59.8841 132.02 60.8322C131.822 61.5022 131.295 61.9864 130.666 62.1582C130.502 62.2035 130.332 62.2269 130.157 62.2269C129.976 62.2269 129.791 62.2019 129.608 62.1472C128.579 61.8458 127.99 60.7665 128.292 59.7372C128.589 58.7267 128.917 57.7068 129.266 56.7056C129.626 55.6717 130.019 54.6315 130.433 53.6147C130.741 52.8619 131.467 52.4058 132.234 52.4058ZM291.341 54.216C291.868 54.216 292.38 54.4893 292.663 54.9782C293.028 55.6108 292.889 56.3979 292.37 56.8712C292.291 56.943 292.202 57.0071 292.107 57.0633L291.591 57.3648C290.413 58.0567 289.234 58.7829 288.086 59.5248C287.83 59.6904 287.544 59.7701 287.26 59.7701C286.76 59.7701 286.27 59.5233 285.978 59.0719C285.52 58.3644 285.722 57.421 286.431 56.9618C287.615 56.1965 288.83 55.4483 290.042 54.7361L290.577 54.4222C290.818 54.2832 291.082 54.216 291.341 54.216ZM243.908 48.5776C244.625 48.5776 245.316 48.9775 245.653 49.6647C246.618 51.6295 247.491 53.6678 248.247 55.7232C248.618 56.7306 248.102 57.8474 247.096 58.2176C247.043 58.2379 246.989 58.2535 246.935 58.2691C246.765 58.3159 246.595 58.3378 246.425 58.3378C245.634 58.3378 244.891 57.8505 244.602 57.0649C243.891 55.136 243.073 53.2211 242.167 51.3765C241.694 50.4144 242.09 49.2508 243.054 48.7775C243.329 48.6416 243.621 48.5776 243.908 48.5776ZM302.587 48.6292C303.183 48.6292 303.749 48.9806 303.994 49.5647C304.252 50.177 304.078 50.8611 303.614 51.2828C303.488 51.3968 303.343 51.4921 303.177 51.5608C301.734 52.1668 300.288 52.815 298.877 53.4897C298.665 53.5912 298.442 53.6381 298.221 53.6381C297.651 53.6381 297.106 53.3179 296.844 52.7712C296.48 52.0106 296.802 51.1001 297.562 50.7361C299.016 50.0411 300.508 49.3726 301.998 48.7479C302.19 48.6666 302.39 48.6292 302.587 48.6292ZM314.46 44.5386C315.132 44.5386 315.747 44.9837 315.931 45.6616C316.088 46.2348 315.897 46.8189 315.486 47.1938C315.313 47.35 315.102 47.4702 314.862 47.5358C313.353 47.9482 311.835 48.4042 310.349 48.89C310.192 48.9415 310.032 48.965 309.875 48.965C309.233 48.965 308.636 48.5573 308.425 47.9138C308.164 47.1141 308.6 46.2504 309.401 45.9896C310.933 45.4882 312.5 45.0181 314.057 44.5917C314.192 44.5558 314.327 44.5386 314.46 44.5386ZM138.56 40.7042C138.941 40.7042 139.327 40.8166 139.662 41.0493C140.545 41.66 140.767 42.8689 140.156 43.7514C139.586 44.5776 139.033 45.4242 138.51 46.2692C138.241 46.7034 137.827 46.9954 137.371 47.1204C137.204 47.1657 137.031 47.1891 136.856 47.1891C136.507 47.1891 136.154 47.0954 135.837 46.8986C134.924 46.3348 134.642 45.1383 135.206 44.2262C135.762 43.325 136.353 42.4222 136.962 41.5429C137.338 40.9978 137.944 40.7042 138.56 40.7042ZM326.755 42.0271C327.507 42.0271 328.159 42.5816 328.266 43.3469C328.336 43.8639 328.139 44.3559 327.778 44.6823C327.558 44.8838 327.279 45.0212 326.96 45.065C325.415 45.2774 323.853 45.5304 322.318 45.8193C322.223 45.8365 322.129 45.8443 322.035 45.8443C321.315 45.8443 320.675 45.3336 320.537 44.6011C320.381 43.7733 320.926 42.9752 321.756 42.8205C323.339 42.5222 324.951 42.2598 326.546 42.0411C326.616 42.0318 326.687 42.0271 326.755 42.0271ZM339.274 41.1353C340.113 41.1353 340.793 41.8131 340.8 42.6519C340.803 43.1032 340.609 43.5093 340.3 43.7904C340.031 44.0341 339.675 44.184 339.283 44.1872C337.724 44.1965 336.141 44.245 334.579 44.3324C334.551 44.334 334.521 44.334 334.493 44.334C333.688 44.334 333.017 43.7061 332.972 42.894C332.925 42.0521 333.57 41.3321 334.41 41.2852C336.022 41.1962 337.656 41.1462 339.264 41.1353C339.268 41.1353 339.271 41.1353 339.274 41.1353ZM234.564 34.705C235.098 34.705 235.629 34.9252 236.013 35.3532C237.472 36.9853 238.86 38.7128 240.144 40.4902C240.772 41.3602 240.575 42.5738 239.705 43.2016C239.512 43.3422 239.299 43.4406 239.081 43.4999C238.914 43.5468 238.742 43.5687 238.57 43.5687C237.967 43.5687 237.374 43.2891 236.994 42.7627C235.79 41.0962 234.486 39.4734 233.117 37.9428C232.402 37.1431 232.471 35.9154 233.271 35.2001C233.641 34.869 234.103 34.705 234.564 34.705ZM221.817 23.8874C222.173 23.8874 222.534 23.9843 222.856 24.1904C224.704 25.3634 226.511 26.6473 228.227 28.0092C229.067 28.6761 229.208 29.8975 228.541 30.7378C228.274 31.0752 227.918 31.2985 227.532 31.4047C227.365 31.45 227.192 31.4734 227.018 31.4734C226.595 31.4734 226.169 31.336 225.813 31.0518C224.202 29.7757 222.508 28.5699 220.774 27.4688C219.868 26.894 219.601 25.6945 220.176 24.7886C220.546 24.2045 221.174 23.8874 221.817 23.8874ZM206.6 16.9292C206.787 16.9292 206.976 16.9558 207.164 17.0136C208.024 17.2729 208.893 17.5555 209.745 17.8523C210.965 18.2787 212.184 18.7457 213.366 19.2393C214.356 19.6532 214.823 20.7917 214.409 21.782C214.169 22.3552 213.685 22.7535 213.127 22.9065C212.961 22.9518 212.79 22.9753 212.616 22.9753C212.366 22.9753 212.113 22.9268 211.868 22.8238C210.758 22.3599 209.613 21.921 208.465 21.5211C207.665 21.2416 206.85 20.9761 206.041 20.7309C205.015 20.4216 204.432 19.3376 204.743 18.3115C204.997 17.4712 205.767 16.9292 206.6 16.9292ZM179.695 15.0144C180.638 15.0144 181.466 15.7031 181.613 16.6637C181.764 17.6477 181.146 18.5739 180.207 18.83C180.137 18.8503 180.064 18.866 179.987 18.8769C179.008 19.0268 178.013 19.2064 177.027 19.4095C176.896 19.436 176.765 19.4485 176.635 19.4485C175.732 19.4485 174.923 18.816 174.734 17.8976C174.519 16.8464 175.2 15.8187 176.245 15.6032C177.293 15.3876 178.355 15.1971 179.4 15.0378C179.498 15.0222 179.598 15.0144 179.695 15.0144ZM190.081 14.3209C190.092 14.3209 190.103 14.3209 190.116 14.3209C192.306 14.3631 194.517 14.5208 196.693 14.7926C197.756 14.9253 198.512 15.8953 198.38 16.9605C198.28 17.7648 197.7 18.3927 196.963 18.5942C196.801 18.6379 196.629 18.6629 196.454 18.6629C196.374 18.6629 196.293 18.6567 196.212 18.6473C194.172 18.3927 192.096 18.2443 190.042 18.2053C188.969 18.185 188.117 17.2994 188.137 16.2264C188.157 15.1659 189.021 14.3209 190.081 14.3209Z" fill="url(#paint0_linear_162_548)"/>
<path d="M215.849 119.72L207.688 114.808C203.716 116.81 199.396 118.194 194.864 118.84L190.979 127.531C190.843 127.837 190.528 128.021 190.195 127.992L178.814 126.984C178.483 126.954 178.205 126.717 178.123 126.392L175.827 117.155C171.479 115.721 167.47 113.6 163.912 110.931L155.014 114.331C154.701 114.45 154.348 114.358 154.134 114.102L146.8 105.341C146.586 105.085 146.558 104.721 146.73 104.435L151.64 96.2744C149.638 92.3025 148.254 87.9824 147.607 83.4498L138.917 79.5654C138.612 79.4295 138.428 79.114 138.458 78.7829L139.465 67.4015C139.495 67.0688 139.732 66.7908 140.056 66.7111L149.294 64.4136C150.728 60.0653 152.849 56.056 155.518 52.498L152.118 43.6015C151.999 43.2891 152.092 42.9362 152.348 42.7206L161.107 35.3876C161.363 35.172 161.727 35.1439 162.013 35.3157L170.175 40.2279C174.147 38.224 178.467 36.8417 182.998 36.1951L186.884 27.5048C187.02 27.2002 187.334 27.0143 187.666 27.044L199.048 28.053C199.381 28.0811 199.657 28.3185 199.738 28.6434L202.036 37.8804C206.383 39.3142 210.392 41.4352 213.95 44.1045L222.848 40.7042C223.16 40.5855 223.513 40.6777 223.727 40.9338L231.062 49.6944C231.276 49.9506 231.304 50.3129 231.132 50.6003L226.222 58.7611C228.224 62.733 229.608 67.0532 230.254 71.5858L238.945 75.4701C239.249 75.606 239.435 75.9215 239.405 76.2542L238.396 87.6341C238.367 87.9668 238.129 88.2448 237.806 88.3244L228.567 90.6219C227.135 94.9687 225.014 98.9796 222.343 102.538L225.744 111.436C225.864 111.746 225.772 112.099 225.516 112.315L216.755 119.65C216.499 119.863 216.135 119.892 215.849 119.72" fill="#3576FF"/>
<path d="M185.59 87.0966L185.583 87.0981L185.59 87.0966ZM186.48 68.4727C188.29 67.9792 190.207 68.0401 192.017 68.6726C196.894 70.3735 199.478 75.7261 197.777 80.6038C196.076 85.4816 190.722 88.0649 185.846 86.3625V86.3641C180.968 84.6616 178.385 79.309 180.086 74.4328C180.91 72.0697 182.605 70.1689 184.859 69.0818C185.385 68.8273 185.929 68.6242 186.48 68.4727V68.4727ZM191.795 88.054C195.15 87.1372 198.014 84.6397 199.244 81.1146C201.227 75.4293 198.214 69.1881 192.529 67.206C189.774 66.2439 186.809 66.4142 184.182 67.6824C181.555 68.9506 179.58 71.1654 178.619 73.9206C177.658 76.6757 177.827 79.6386 179.095 82.2657C180.364 84.8928 182.58 86.8701 185.333 87.8307H185.335C187.495 88.5835 189.738 88.6163 191.795 88.054" fill="#91B3FA"/>
<path d="M236.177 118.462C236.351 118.462 236.524 118.439 236.693 118.394C237.064 118.291 237.411 118.077 237.675 117.756C238.355 116.935 239.02 116.085 239.654 115.234C240.293 114.372 240.113 113.155 239.253 112.516C238.904 112.257 238.498 112.132 238.097 112.132C237.503 112.132 236.916 112.404 236.535 112.916C235.941 113.716 235.318 114.512 234.681 115.282C233.998 116.11 234.114 117.335 234.942 118.017C235.303 118.317 235.742 118.462 236.177 118.462Z" fill="#00C2FF"/>
<path d="M243.549 107.192C243.724 107.192 243.896 107.167 244.061 107.121C244.574 106.982 245.025 106.636 245.284 106.125C246.271 104.176 247.168 102.147 247.95 100.098C248.333 99.0949 247.832 97.9734 246.829 97.5908C246.601 97.5033 246.367 97.4611 246.137 97.4611C245.355 97.4611 244.617 97.9375 244.322 98.7122C243.587 100.636 242.745 102.54 241.818 104.371C241.333 105.328 241.717 106.497 242.673 106.981C242.956 107.123 243.254 107.192 243.549 107.192ZM249.019 91.3776C249.194 91.3776 249.364 91.3542 249.528 91.3089C250.215 91.1215 250.773 90.5623 250.921 89.8157C251.351 87.6635 251.671 85.469 251.872 83.2902C251.971 82.2218 251.185 81.2754 250.117 81.177C250.056 81.1707 249.996 81.1692 249.937 81.1692C248.945 81.1692 248.097 81.9251 248.004 82.9325C247.816 84.9755 247.516 87.0356 247.112 89.0551C246.902 90.1062 247.585 91.1293 248.636 91.3401C248.764 91.3651 248.892 91.3776 249.019 91.3776ZM250.007 74.678C250.057 74.678 250.109 74.6749 250.162 74.6717C250.285 74.6608 250.407 74.6405 250.523 74.6077C251.405 74.3672 252.019 73.5269 251.946 72.5819C251.774 70.4 251.483 68.2009 251.084 66.0455C250.91 65.1099 250.093 64.457 249.177 64.457C249.058 64.457 248.939 64.468 248.819 64.4898C247.768 64.6866 247.068 65.6987 247.265 66.7546C247.64 68.7772 247.911 70.8404 248.072 72.8881C248.152 73.9048 249.003 74.678 250.007 74.678ZM246.424 58.3376C246.595 58.3376 246.765 58.3157 246.935 58.2688C246.988 58.2532 247.043 58.2376 247.096 58.2173C248.102 57.8472 248.617 56.7304 248.247 55.723C247.491 53.6675 246.618 51.6293 245.653 49.6645C245.316 48.9772 244.625 48.5774 243.908 48.5774C243.621 48.5774 243.329 48.6414 243.054 48.7773C242.09 49.2506 241.694 50.4142 242.167 51.3763C243.073 53.2209 243.891 55.1357 244.602 57.0646C244.891 57.8503 245.634 58.3376 246.424 58.3376ZM238.57 43.5684C238.742 43.5684 238.913 43.5466 239.081 43.4997C239.299 43.4404 239.512 43.342 239.705 43.2014C240.575 42.5735 240.772 41.3599 240.144 40.49C238.86 38.7126 237.472 36.9851 236.013 35.3529C235.629 34.925 235.098 34.7048 234.564 34.7048C234.103 34.7048 233.64 34.8687 233.27 35.1999C232.471 35.9152 232.402 37.1429 233.117 37.9426C234.485 39.4732 235.79 41.096 236.994 42.7625C237.373 43.2889 237.967 43.5684 238.57 43.5684ZM227.018 31.4732C227.191 31.4732 227.365 31.4498 227.532 31.4045C227.918 31.2983 228.274 31.075 228.541 30.7376C229.208 29.8973 229.067 28.6759 228.227 28.009C226.51 26.647 224.703 25.3632 222.856 24.1902C222.534 23.984 222.173 23.8872 221.817 23.8872C221.174 23.8872 220.546 24.2042 220.176 24.7884C219.601 25.6943 219.868 26.8938 220.774 27.4686C222.507 28.5697 224.202 29.7755 225.812 31.0515C226.168 31.3358 226.595 31.4732 227.018 31.4732ZM212.616 22.975C212.789 22.975 212.961 22.9516 213.127 22.9063C213.684 22.7532 214.169 22.355 214.409 21.7818C214.823 20.7915 214.356 19.6529 213.366 19.239C212.183 18.7455 210.965 18.2785 209.745 17.8521C208.892 17.5553 208.024 17.2726 207.163 17.0134C206.976 16.9556 206.787 16.929 206.6 16.929C205.767 16.929 204.997 17.471 204.743 18.3113C204.432 19.3374 205.014 20.4214 206.04 20.7306C206.85 20.9758 207.665 21.2414 208.465 21.5209C209.612 21.9208 210.757 22.3597 211.868 22.8235C212.113 22.9266 212.366 22.975 212.616 22.975ZM196.454 18.6627C196.629 18.6627 196.8 18.6377 196.963 18.594C197.7 18.3925 198.28 17.7646 198.379 16.9602C198.512 15.895 197.756 14.9251 196.693 14.7923C194.517 14.5206 192.305 14.3628 190.116 14.3207C190.103 14.3207 190.092 14.3207 190.081 14.3207C189.021 14.3207 188.157 15.1656 188.137 16.2262C188.116 17.2992 188.969 18.1847 190.042 18.205C192.096 18.2441 194.172 18.3925 196.212 18.6471C196.293 18.6564 196.374 18.6627 196.454 18.6627Z" fill="#00C2FF"/>
<path d="M176.635 19.4482C176.765 19.4482 176.896 19.4357 177.027 19.4092C178.013 19.2062 179.008 19.0265 179.987 18.8766C180.064 18.8657 180.137 18.85 180.207 18.8297C181.146 18.5736 181.764 17.6474 181.613 16.6634C181.466 15.7029 180.638 15.0141 179.695 15.0141C179.598 15.0141 179.498 15.0219 179.4 15.0375C178.355 15.1968 177.293 15.3874 176.245 15.6029C175.2 15.8184 174.519 16.8462 174.734 17.8973C174.923 18.8157 175.732 19.4482 176.635 19.4482" fill="#00C2FF"/>
<path d="M136.856 47.189C137.031 47.189 137.204 47.1655 137.371 47.1202C137.827 46.9953 138.241 46.7032 138.51 46.269C139.033 45.424 139.586 44.5775 140.156 43.7512C140.767 42.8688 140.545 41.6599 139.662 41.0492C139.327 40.8165 138.941 40.704 138.56 40.704C137.944 40.704 137.338 40.9977 136.962 41.5428C136.353 42.4221 135.762 43.3249 135.206 44.2261C134.643 45.1382 134.924 46.3346 135.837 46.8984C136.154 47.0952 136.507 47.189 136.856 47.189" fill="url(#paint1_linear_162_548)"/>
<path d="M188.945 140.725C189.582 140.725 190.217 140.716 190.852 140.695C191.008 140.691 191.161 140.667 191.306 140.628C192.151 140.397 192.762 139.61 192.734 138.695C192.701 137.644 191.839 136.813 190.794 136.813C190.774 136.813 190.753 136.813 190.733 136.813C190.136 136.831 189.538 136.841 188.94 136.841C187.508 136.841 186.071 136.788 184.648 136.685C184.599 136.681 184.553 136.678 184.504 136.678C183.497 136.678 182.644 137.458 182.569 138.479C182.491 139.549 183.295 140.48 184.365 140.558C185.883 140.669 187.415 140.725 188.945 140.725M174.425 138.971C174.599 138.971 174.771 138.946 174.933 138.902C175.592 138.723 176.136 138.2 176.309 137.49C176.565 136.449 175.928 135.396 174.886 135.141C173.045 134.69 171.198 134.143 169.399 133.515L169.052 133.394C168.837 133.317 168.617 133.28 168.401 133.28C167.601 133.28 166.853 133.776 166.571 134.571C166.211 135.582 166.738 136.692 167.748 137.053L168.12 137.183C170.036 137.851 172.001 138.434 173.96 138.913C174.116 138.952 174.272 138.971 174.425 138.971ZM159.097 132.964C159.27 132.964 159.444 132.941 159.611 132.894C160.097 132.761 160.531 132.441 160.796 131.965C161.318 131.027 160.979 129.845 160.042 129.323C158.275 128.341 156.54 127.255 154.886 126.098C154.547 125.861 154.158 125.747 153.774 125.747C153.162 125.747 152.559 126.036 152.181 126.576C151.566 127.454 151.78 128.666 152.659 129.281C154.422 130.515 156.272 131.671 158.154 132.719C158.454 132.884 158.777 132.964 159.097 132.964M145.933 123.099C146.107 123.099 146.279 123.076 146.447 123.031C146.766 122.943 147.067 122.773 147.316 122.521C148.07 121.758 148.061 120.527 147.297 119.774C145.86 118.354 144.478 116.844 143.192 115.284C142.808 114.817 142.252 114.576 141.693 114.576C141.257 114.576 140.82 114.721 140.458 115.02C139.63 115.701 139.511 116.925 140.194 117.753C141.565 119.416 143.036 121.027 144.568 122.54C144.948 122.913 145.44 123.099 145.933 123.099ZM135.881 110.072C136.051 110.072 136.222 110.048 136.39 110.003C136.548 109.959 136.701 109.897 136.85 109.811C137.779 109.275 138.098 108.088 137.562 107.159C136.553 105.408 135.622 103.584 134.794 101.736C134.472 101.014 133.762 100.586 133.02 100.586C132.754 100.586 132.486 100.641 132.228 100.757C131.249 101.195 130.811 102.343 131.249 103.323C132.13 105.291 133.121 107.234 134.196 109.099C134.557 109.722 135.21 110.072 135.881 110.072ZM129.637 94.8401C129.799 94.8401 129.965 94.8198 130.129 94.7777L130.151 94.7714C131.175 94.4919 131.788 93.4392 131.519 92.4083C131.008 90.4528 130.594 88.4474 130.288 86.4466C130.141 85.4861 129.313 84.7988 128.372 84.7988C128.273 84.7988 128.175 84.8066 128.075 84.8207C127.007 84.9847 126.287 85.9749 126.449 87.0354C126.775 89.1658 127.216 91.304 127.759 93.3876C127.987 94.2623 128.775 94.8401 129.637 94.8401M127.674 78.4998C127.852 78.4998 128.023 78.4763 128.186 78.431C129 78.2092 129.602 77.472 129.617 76.588C129.648 74.5669 129.787 72.524 130.027 70.5154C130.155 69.4502 129.395 68.4834 128.33 68.3553C128.251 68.346 128.172 68.3413 128.095 68.3413C127.125 68.3413 126.288 69.0675 126.169 70.0531C125.913 72.1944 125.766 74.3717 125.732 76.5271C125.715 77.5985 126.571 78.4826 127.642 78.4998C127.653 78.4998 127.663 78.4998 127.674 78.4998M130.157 62.2265C130.332 62.2265 130.502 62.2031 130.666 62.1578C131.296 61.986 131.822 61.5018 132.02 60.8318C132.298 59.8837 132.606 58.9247 132.934 57.9845C133.273 57.013 133.641 56.0368 134.032 55.0809C134.436 54.0876 133.959 52.9536 132.965 52.5491C132.726 52.4507 132.478 52.4054 132.234 52.4054C131.467 52.4054 130.741 52.8615 130.433 53.6143C130.019 54.6311 129.626 55.6713 129.267 56.7053C128.917 57.7064 128.589 58.7263 128.292 59.7369C127.991 60.7662 128.579 61.8454 129.609 62.1469C129.791 62.2015 129.976 62.2265 130.157 62.2265" fill="url(#paint2_linear_162_548)"/>
<path d="M200.962 139.525C201.09 139.525 201.218 139.513 201.347 139.486C202.394 139.275 203.445 139.037 204.473 138.774L204.506 138.765C205.525 138.487 206.138 137.442 205.875 136.413C205.652 135.533 204.862 134.949 203.995 134.949C203.835 134.949 203.675 134.969 203.514 135.01C202.55 135.255 201.563 135.48 200.582 135.678C199.526 135.894 198.848 136.914 199.061 137.965C199.247 138.888 200.056 139.525 200.962 139.525" fill="url(#paint3_linear_162_548)"/>
<path d="M192.574 105.626C192.94 105.526 193.186 105.169 193.138 104.781C193.133 104.744 193.127 104.706 193.118 104.672C193.018 104.305 192.66 104.058 192.271 104.107C190.394 104.341 188.474 104.374 186.567 104.205C172.94 102.998 162.575 91.7319 162.152 78.3872C162.117 77.322 162.147 76.2411 162.244 75.1525C163.547 60.438 176.579 49.5283 191.295 50.8293C198.423 51.4603 204.88 54.8309 209.474 60.3178C211.991 63.3244 213.783 66.7683 214.787 70.4403C215.615 73.4719 215.904 76.6582 215.618 79.8819C215.19 84.719 213.463 89.3422 210.623 93.25C210.479 93.4484 210.442 93.692 210.503 93.9123C210.547 94.0763 210.647 94.2262 210.795 94.334C211.142 94.587 211.627 94.5105 211.88 94.1622C214.886 90.0279 216.713 85.136 217.166 80.0177C217.469 76.6082 217.163 73.2376 216.287 70.0311C215.224 66.1451 213.328 62.5013 210.665 59.3197C205.805 53.5142 198.975 49.95 191.432 49.2815C175.862 47.9024 162.075 59.4478 160.696 75.0166C160.392 78.4559 160.718 81.8092 161.579 84.9595C164.615 96.0723 174.302 104.678 186.43 105.753C188.284 105.917 190.148 105.9 191.982 105.704C192.038 105.698 192.093 105.692 192.149 105.686C192.254 105.673 192.359 105.661 192.465 105.648C192.501 105.644 192.538 105.636 192.574 105.626Z" fill="#91B3FA"/>
<path d="M435.481 124.129C435.57 124.129 435.66 124.121 435.751 124.104C436.045 124.052 436.303 123.919 436.509 123.732C436.884 123.391 437.08 122.87 436.985 122.334C436.84 121.522 436.684 120.711 436.518 119.901C436.37 119.177 435.734 118.681 435.025 118.681C434.923 118.681 434.821 118.69 434.717 118.712C433.892 118.881 433.36 119.687 433.529 120.513C433.69 121.299 433.841 122.084 433.981 122.87C434.113 123.61 434.756 124.129 435.481 124.129" fill="#00C2FF"/>
<path d="M433.155 114.184C433.296 114.184 433.439 114.164 433.582 114.123C433.812 114.054 434.015 113.939 434.182 113.787C434.599 113.408 434.789 112.81 434.621 112.232C434.17 110.679 433.674 109.12 433.148 107.596C432.929 106.965 432.338 106.568 431.706 106.568C431.54 106.568 431.372 106.595 431.208 106.653C430.412 106.929 429.988 107.796 430.264 108.593C430.774 110.069 431.254 111.58 431.691 113.083C431.885 113.75 432.494 114.184 433.155 114.184M428.873 102.376C429.077 102.376 429.285 102.336 429.484 102.248C429.64 102.179 429.779 102.087 429.899 101.978C430.37 101.55 430.539 100.853 430.269 100.238C429.621 98.759 428.928 97.2767 428.208 95.8336C427.941 95.2978 427.402 94.987 426.842 94.987C426.613 94.987 426.381 95.0386 426.163 95.1479C425.41 95.5228 425.102 96.4396 425.477 97.194C426.175 98.5934 426.846 100.03 427.474 101.463C427.725 102.036 428.285 102.376 428.873 102.376M423.103 91.2182C423.37 91.2182 423.641 91.1479 423.887 91.0011C423.975 90.948 424.056 90.8871 424.129 90.8215C424.657 90.3404 424.79 89.5408 424.409 88.9066C423.575 87.5197 422.698 86.1374 421.804 84.8004C421.509 84.3616 421.026 84.1241 420.535 84.1241C420.243 84.1241 419.948 84.2069 419.687 84.3818C418.987 84.852 418.799 85.7985 419.268 86.4982C420.135 87.7946 420.985 89.1331 421.794 90.4794C422.08 90.9542 422.585 91.2182 423.103 91.2182" fill="#00C2FF"/>
<path d="M260.311 85.8064C260.685 85.8064 261.053 85.6689 261.338 85.4097C261.422 85.3347 261.498 85.2472 261.566 85.1504C262.459 83.8634 263.396 82.5842 264.349 81.3488C264.863 80.6803 264.739 79.7229 264.071 79.209C263.794 78.995 263.466 78.8904 263.142 78.8904C262.684 78.8904 262.233 79.095 261.931 79.4854C260.949 80.7615 259.982 82.0813 259.059 83.4105C258.579 84.1024 258.75 85.0536 259.441 85.5331C259.707 85.7174 260.01 85.8064 260.311 85.8064" fill="#00C2FF"/>
<path d="M415.956 80.8879C416.288 80.8879 416.622 80.7802 416.902 80.5584C416.93 80.5365 416.957 80.5131 416.983 80.4897C417.571 79.9555 417.652 79.048 417.151 78.4155C416.149 77.1503 415.102 75.8931 414.039 74.6779C413.737 74.3343 413.315 74.1578 412.89 74.1578C412.533 74.1578 412.175 74.2812 411.886 74.5358C411.241 75.0902 411.188 76.0539 411.743 76.688C412.774 77.8641 413.788 79.084 414.759 80.31C415.06 80.6896 415.506 80.8879 415.956 80.8879" fill="#00C2FF"/>
<path d="M268.133 75.9775C268.502 75.9775 268.871 75.8448 269.16 75.5824C269.196 75.5496 269.23 75.5152 269.263 75.4777C270.315 74.3204 271.41 73.174 272.518 72.0713C273.114 71.4762 273.116 70.5094 272.522 69.9127C272.224 69.6144 271.834 69.4661 271.443 69.4661C271.053 69.4661 270.662 69.6144 270.364 69.9096C269.221 71.0482 268.091 72.2306 267.004 73.4254C266.439 74.0502 266.484 75.0139 267.107 75.5808C267.401 75.8463 267.768 75.9775 268.133 75.9775" fill="#00C2FF"/>
<path d="M407.535 71.5681C407.904 71.5681 408.271 71.4354 408.561 71.173C408.585 71.1511 408.608 71.1292 408.63 71.1058C409.217 70.5014 409.203 69.5361 408.599 68.9489C407.441 67.8243 406.237 66.7107 405.02 65.6408C404.73 65.3862 404.37 65.2613 404.012 65.2613C403.589 65.2613 403.168 65.4362 402.867 65.7798C402.311 66.4124 402.373 67.376 403.006 67.9321C404.184 68.9692 405.351 70.0468 406.473 71.137C406.769 71.4244 407.152 71.5681 407.535 71.5681" fill="#00C2FF"/>
<path d="M277.17 67.2515C277.519 67.2515 277.868 67.1327 278.156 66.8891C279.349 65.8786 280.585 64.8836 281.825 63.934C281.861 63.9059 281.893 63.8778 281.926 63.8497C282.506 63.3218 282.595 62.4284 282.109 61.7942C281.809 61.4022 281.356 61.196 280.897 61.196C280.574 61.196 280.247 61.2991 279.971 61.51C278.69 62.4908 277.415 63.517 276.183 64.5619C275.546 65.1054 275.46 66.0691 276.005 66.711C276.307 67.0687 276.736 67.2515 277.17 67.2515" fill="#00C2FF"/>
<path d="M397.966 63.4167C398.338 63.4167 398.707 63.2809 398.992 63.0216C399.064 62.956 399.131 62.8841 399.19 62.8029C399.694 62.1266 399.554 61.1723 398.878 60.6678C397.583 59.7042 396.245 58.7577 394.903 57.8565C394.642 57.6831 394.347 57.5987 394.056 57.5987C393.564 57.5987 393.081 57.8361 392.786 58.275C392.317 58.9747 392.503 59.9228 393.203 60.3914C394.504 61.2645 395.8 62.1797 397.056 63.1153C397.329 63.3183 397.649 63.4167 397.966 63.4167Z" fill="#00C2FF"/>
<path d="M287.26 59.7698C287.544 59.7698 287.83 59.6901 288.086 59.5245C289.234 58.7826 290.413 58.0564 291.591 57.3645L292.107 57.063C292.202 57.0068 292.291 56.9427 292.371 56.8709C292.889 56.3976 293.028 55.6105 292.663 54.9779C292.38 54.489 291.868 54.2157 291.341 54.2157C291.082 54.2157 290.818 54.2829 290.577 54.4219L290.042 54.7358C288.83 55.448 287.615 56.1962 286.431 56.9615C285.722 57.4207 285.52 58.3641 285.978 59.0716C286.27 59.523 286.76 59.7698 287.26 59.7698Z" fill="#00C2FF"/>
<path d="M387.421 56.582C387.797 56.582 388.166 56.443 388.449 56.1853C388.568 56.0776 388.671 55.9495 388.754 55.8011C389.165 55.0654 388.903 54.1362 388.167 53.7254C386.761 52.9382 385.313 52.1729 383.864 51.4544C383.646 51.3466 383.415 51.2951 383.187 51.2951C382.626 51.2951 382.085 51.6059 381.819 52.1416C381.444 52.896 381.752 53.8128 382.507 54.1877C383.911 54.8843 385.314 55.6246 386.677 56.3868C386.913 56.5196 387.169 56.582 387.421 56.582" fill="#00C2FF"/>
<path d="M298.221 53.6379C298.442 53.6379 298.665 53.5911 298.877 53.4896C300.288 52.8148 301.734 52.1666 303.177 51.5606C303.343 51.4919 303.488 51.3967 303.615 51.2826C304.078 50.8609 304.252 50.1768 303.994 49.5646C303.749 48.9804 303.183 48.629 302.587 48.629C302.39 48.629 302.19 48.6665 301.998 48.7477C300.508 49.3724 299.016 50.0409 297.562 50.736C296.802 51.0999 296.48 52.0105 296.844 52.7711C297.106 53.3178 297.651 53.6379 298.221 53.6379" fill="#00C2FF"/>
<path d="M376.084 51.1704C376.465 51.1704 376.833 51.0267 377.113 50.7721C377.278 50.6222 377.413 50.4317 377.501 50.2114C377.815 49.4289 377.434 48.5402 376.652 48.2279C375.155 47.6281 373.621 47.058 372.094 46.5316C371.929 46.4738 371.761 46.4473 371.596 46.4473C370.964 46.4473 370.373 46.844 370.154 47.4766C369.88 48.2731 370.303 49.1415 371.1 49.4164C372.58 49.9256 374.066 50.4801 375.518 51.0595C375.704 51.1345 375.896 51.1704 376.084 51.1704Z" fill="#00C2FF"/>
<path d="M309.875 48.9646C310.032 48.9646 310.192 48.9412 310.35 48.8896C311.835 48.4039 313.353 47.9478 314.862 47.5355C315.102 47.4699 315.313 47.3496 315.487 47.1934C315.897 46.8186 316.088 46.2344 315.932 45.6612C315.747 44.9834 315.132 44.5382 314.46 44.5382C314.328 44.5382 314.192 44.5554 314.057 44.5913C312.5 45.0177 310.934 45.4879 309.401 45.9892C308.6 46.2501 308.164 47.1138 308.425 47.9134C308.636 48.5569 309.233 48.9646 309.875 48.9646" fill="url(#paint4_linear_162_548)"/>
<path d="M364.148 47.2622C364.532 47.2622 364.898 47.1154 365.175 46.8639C365.387 46.6703 365.547 46.4157 365.624 46.1158C365.834 45.3005 365.343 44.468 364.527 44.2587C362.967 43.8573 361.374 43.4887 359.791 43.1623C359.687 43.1404 359.583 43.131 359.481 43.131C358.773 43.131 358.138 43.6277 357.989 44.3493C357.819 45.174 358.351 45.9815 359.176 46.1502C360.71 46.4672 362.254 46.8233 363.766 47.2138C363.894 47.2466 364.022 47.2622 364.148 47.2622" fill="#00C2FF"/>
<path d="M322.035 45.844C322.129 45.844 322.223 45.8362 322.318 45.819C323.853 45.5301 325.415 45.2771 326.96 45.0646C327.279 45.0209 327.558 44.8835 327.778 44.682C328.139 44.3555 328.336 43.8636 328.266 43.3466C328.159 42.5812 327.507 42.0268 326.755 42.0268C326.687 42.0268 326.616 42.0314 326.546 42.0408C324.951 42.2595 323.34 42.5219 321.756 42.8202C320.926 42.9748 320.381 43.7729 320.537 44.6007C320.675 45.3333 321.315 45.844 322.035 45.844" fill="url(#paint5_linear_162_548)"/>
<path d="M351.811 44.9209C352.2 44.9209 352.562 44.7725 352.836 44.5226C353.095 44.2852 353.276 43.9588 353.323 43.5824C353.426 42.7452 352.833 41.9846 351.995 41.8799C350.396 41.6831 348.769 41.5223 347.16 41.402C347.122 41.3989 347.083 41.3989 347.046 41.3989C346.255 41.3989 345.585 42.0096 345.526 42.8108C345.492 43.2731 345.667 43.7026 345.971 44.0056C346.046 44.0666 346.126 44.1321 346.201 44.1946C346.413 44.3352 346.663 44.4258 346.935 44.4461C348.494 44.5617 350.07 44.7163 351.621 44.9084C351.685 44.9162 351.749 44.9209 351.811 44.9209" fill="#00C2FF"/>
<path d="M334.493 44.3337C334.521 44.3337 334.55 44.3337 334.578 44.3322C336.14 44.2447 337.724 44.1963 339.283 44.1869C339.675 44.1838 340.031 44.0338 340.3 43.7902C340.609 43.5091 340.803 43.103 340.799 42.6516C340.793 41.8129 340.112 41.135 339.273 41.135C339.27 41.135 339.267 41.135 339.264 41.135C337.655 41.1459 336.022 41.1959 334.41 41.285C333.57 41.3318 332.924 42.0518 332.971 42.8937C333.017 43.7059 333.688 44.3337 334.493 44.3337ZM346.2 44.1947C346.125 44.1323 346.046 44.0667 345.971 44.0057C346.041 44.076 346.118 44.1385 346.2 44.1947Z" fill="url(#paint6_linear_162_548)"/>
<path d="M254.907 94.542C255.285 94.542 255.654 94.4014 255.937 94.1453C256.058 94.0344 256.163 93.9016 256.247 93.7486C256.632 93.0473 257.025 92.3507 257.427 91.6572C257.85 90.9294 257.603 89.9954 256.874 89.5721C256.633 89.4331 256.369 89.3659 256.11 89.3659C255.584 89.3659 255.071 89.6377 254.789 90.125C254.373 90.8404 253.967 91.5588 253.572 92.2835C253.166 93.0223 253.438 93.95 254.176 94.3546C254.409 94.4811 254.66 94.542 254.907 94.542" fill="url(#paint7_linear_162_548)"/>
<path d="M241 169.556C241.142 169.556 241.289 169.534 241.433 169.492C241.661 169.425 241.861 169.309 242.026 169.159C242.445 168.778 242.635 168.177 242.464 167.598C242.236 166.828 242.018 166.058 241.812 165.286C241.63 164.605 241.013 164.155 240.339 164.155C240.208 164.155 240.075 164.172 239.943 164.207C239.129 164.425 238.646 165.263 238.865 166.076C239.079 166.873 239.302 167.668 239.537 168.461C239.733 169.125 240.341 169.556 241 169.556Z" fill="#00C2FF"/>
<path d="M335.228 239.136C335.233 239.136 335.239 239.136 335.246 239.136C336.926 239.117 338.624 239.055 340.294 238.95C340.654 238.927 340.978 238.782 341.224 238.557C341.556 238.255 341.751 237.813 341.721 237.332C341.671 236.523 340.999 235.902 340.2 235.902C340.169 235.902 340.136 235.903 340.103 235.905C338.485 236.006 336.84 236.067 335.211 236.084C334.369 236.094 333.693 236.784 333.704 237.627C333.712 238.463 334.394 239.136 335.228 239.136M327.146 238.888C327.536 238.888 327.898 238.738 328.17 238.491C328.45 238.237 328.636 237.879 328.665 237.473C328.726 236.633 328.094 235.902 327.253 235.841C325.634 235.724 323.994 235.563 322.379 235.361C322.316 235.353 322.252 235.35 322.19 235.35C321.431 235.35 320.773 235.916 320.676 236.687C320.573 237.524 321.167 238.287 322.002 238.39C323.67 238.597 325.362 238.763 327.033 238.883C327.071 238.886 327.108 238.888 327.146 238.888M348.24 238.11C348.315 238.11 348.39 238.105 348.465 238.094C350.122 237.851 351.795 237.56 353.44 237.231C353.719 237.173 353.968 237.043 354.165 236.864C354.549 236.515 354.744 235.98 354.635 235.435C354.489 234.71 353.854 234.208 353.142 234.208C353.042 234.208 352.94 234.218 352.84 234.238C351.247 234.558 349.626 234.839 348.02 235.075C347.188 235.199 346.611 235.975 346.735 236.807C346.846 237.565 347.497 238.11 348.24 238.11M314.213 237.073C314.599 237.073 314.963 236.926 315.239 236.675C315.467 236.467 315.636 236.186 315.705 235.859C315.877 235.036 315.349 234.227 314.524 234.054C312.934 233.721 311.33 233.343 309.756 232.928C309.624 232.893 309.495 232.878 309.367 232.878C308.69 232.878 308.07 233.331 307.891 234.015C307.677 234.829 308.164 235.664 308.978 235.878C310.602 236.306 312.258 236.697 313.899 237.04C314.004 237.062 314.11 237.073 314.213 237.073M360.995 235.338C361.136 235.338 361.278 235.319 361.42 235.277C363.033 234.81 364.655 234.294 366.24 233.746C366.441 233.676 366.619 233.568 366.767 233.434C367.205 233.034 367.388 232.398 367.182 231.805C366.963 231.174 366.372 230.779 365.741 230.779C365.575 230.779 365.406 230.805 365.241 230.863C363.706 231.394 362.134 231.894 360.572 232.347C359.762 232.581 359.296 233.428 359.531 234.237C359.724 234.904 360.334 235.338 360.995 235.338ZM301.635 233.546C302.017 233.546 302.384 233.403 302.663 233.148C302.843 232.984 302.986 232.775 303.074 232.529C303.355 231.736 302.94 230.863 302.145 230.582C300.611 230.038 299.071 229.449 297.567 228.828C297.376 228.75 297.179 228.712 296.986 228.712C296.387 228.712 295.819 229.068 295.574 229.656C295.254 230.435 295.624 231.327 296.403 231.649C297.954 232.289 299.544 232.898 301.126 233.459C301.295 233.518 301.467 233.546 301.635 233.546M373.266 230.863C373.472 230.863 373.682 230.821 373.883 230.732C375.415 230.054 376.952 229.324 378.451 228.567C378.577 228.503 378.691 228.423 378.79 228.333C379.285 227.883 379.441 227.143 379.124 226.516C378.855 225.985 378.318 225.679 377.761 225.679C377.53 225.679 377.295 225.732 377.074 225.843C375.621 226.579 374.132 227.285 372.647 227.942C371.876 228.284 371.529 229.185 371.87 229.955C372.122 230.526 372.681 230.863 373.266 230.863M289.64 228.37C290.018 228.37 290.387 228.228 290.669 227.972C290.801 227.853 290.913 227.708 290.999 227.541C291.385 226.791 291.09 225.871 290.34 225.487C288.895 224.743 287.447 223.953 286.037 223.135C285.796 222.994 285.532 222.929 285.273 222.929C284.747 222.929 284.234 223.2 283.952 223.688C283.529 224.415 283.775 225.349 284.505 225.773C285.96 226.618 287.454 227.435 288.945 228.2C289.168 228.316 289.406 228.37 289.64 228.37M384.827 224.786C385.099 224.786 385.375 224.714 385.624 224.561C387.056 223.683 388.483 222.755 389.866 221.807C389.925 221.768 389.98 221.723 390.031 221.678C390.586 221.171 390.697 220.323 390.261 219.686C389.965 219.255 389.488 219.024 389.002 219.024C388.704 219.024 388.404 219.11 388.14 219.291C386.799 220.211 385.416 221.109 384.028 221.96C383.311 222.402 383.085 223.339 383.525 224.058C383.813 224.528 384.314 224.786 384.827 224.786M278.449 221.628C278.823 221.628 279.191 221.492 279.477 221.232C279.56 221.157 279.635 221.072 279.702 220.976C280.185 220.284 280.016 219.333 279.324 218.852C277.99 217.918 276.661 216.939 275.377 215.939C275.099 215.722 274.768 215.616 274.44 215.616C273.985 215.616 273.537 215.819 273.236 216.205C272.719 216.87 272.837 217.829 273.503 218.346C274.827 219.378 276.199 220.391 277.578 221.353C277.843 221.538 278.148 221.628 278.449 221.628M395.48 217.228C395.819 217.228 396.161 217.115 396.444 216.884C397.747 215.82 399.038 214.712 400.28 213.587L400.283 213.584C400.905 213.018 400.952 212.056 400.387 211.432C400.086 211.099 399.672 210.93 399.256 210.93C398.89 210.93 398.524 211.06 398.232 211.325C397.028 212.414 395.778 213.49 394.515 214.519C393.863 215.047 393.765 216.013 394.297 216.665C394.599 217.036 395.038 217.228 395.48 217.228M268.271 213.435C268.639 213.435 269.008 213.301 269.297 213.039C269.329 213.009 269.361 212.978 269.392 212.945C269.964 212.325 269.925 211.36 269.306 210.788C268.111 209.685 266.93 208.536 265.793 207.374C265.495 207.066 265.1 206.911 264.705 206.911C264.324 206.911 263.939 207.055 263.636 207.347C263.034 207.936 263.023 208.901 263.611 209.504C264.784 210.705 266.003 211.892 267.235 213.031C267.529 213.301 267.9 213.435 268.271 213.435M405.02 208.305C405.389 208.305 405.757 208.172 406.046 207.91C406.077 207.88 406.107 207.852 406.136 207.821C407.281 206.593 408.41 205.318 409.491 204.035C410.033 203.389 409.95 202.427 409.305 201.884C409.019 201.643 408.671 201.526 408.324 201.526C407.89 201.526 407.458 201.71 407.156 202.07C406.109 203.314 405.015 204.55 403.905 205.739C403.33 206.354 403.364 207.319 403.979 207.894C404.273 208.169 404.647 208.305 405.02 208.305M259.299 203.945C259.641 203.945 259.985 203.83 260.269 203.596C260.288 203.58 260.308 203.563 260.325 203.547C260.923 203.002 260.995 202.079 260.475 201.448C259.443 200.197 258.428 198.899 257.454 197.589C257.155 197.186 256.695 196.972 256.228 196.972C255.913 196.972 255.593 197.07 255.321 197.272C254.642 197.778 254.503 198.73 255.004 199.407C256.008 200.759 257.056 202.099 258.121 203.389C258.423 203.755 258.859 203.945 259.299 203.945M413.265 198.173C413.638 198.173 414.007 198.037 414.292 197.778C414.372 197.704 414.446 197.62 414.512 197.528C415.479 196.16 416.425 194.744 417.324 193.323C417.774 192.611 417.562 191.669 416.85 191.218C416.597 191.058 416.315 190.982 416.037 190.982C415.531 190.982 415.037 191.233 414.745 191.693C413.874 193.07 412.958 194.44 412.021 195.766C411.534 196.455 411.698 197.406 412.386 197.893C412.653 198.082 412.961 198.173 413.265 198.173M251.683 193.332C251.958 193.332 252.236 193.258 252.486 193.101C252.567 193.051 252.642 192.995 252.709 192.934C253.244 192.448 253.372 191.636 252.978 191.001C252.563 190.334 252.155 189.659 251.755 188.976C251.324 188.245 250.906 187.51 250.496 186.773C250.218 186.27 249.698 185.985 249.161 185.985C248.911 185.985 248.658 186.046 248.424 186.176C247.688 186.584 247.419 187.511 247.827 188.25C248.249 189.011 248.681 189.768 249.125 190.523C249.537 191.226 249.957 191.922 250.385 192.611C250.674 193.076 251.173 193.332 251.683 193.332M245.542 181.801C245.751 181.801 245.964 181.759 246.167 181.667C246.318 181.6 246.453 181.511 246.568 181.404C247.043 180.972 247.21 180.267 246.932 179.65C246.265 178.165 245.628 176.645 245.038 175.13C244.803 174.527 244.227 174.157 243.616 174.157C243.432 174.157 243.244 174.192 243.063 174.262C242.278 174.568 241.889 175.452 242.195 176.238C242.802 177.8 243.462 179.369 244.15 180.902C244.405 181.467 244.959 181.801 245.542 181.801Z" fill="#00C2FF"/>
<path d="M420.093 186.969C420.471 186.969 420.839 186.829 421.121 186.573C421.251 186.454 421.362 186.312 421.448 186.148C421.829 185.415 422.201 184.677 422.563 183.936C422.933 183.179 422.62 182.265 421.863 181.895C421.647 181.79 421.419 181.74 421.194 181.74C420.629 181.74 420.086 182.054 419.822 182.596C419.471 183.315 419.111 184.03 418.741 184.741C418.352 185.487 418.643 186.409 419.39 186.798C419.615 186.915 419.856 186.969 420.093 186.969" fill="#00C2FF"/>
<path d="M418.155 165.042C418.035 165.573 417.59 165.972 417.048 166.031L401.573 167.74C398.396 174.279 394.153 180.36 388.905 185.692L392.47 200.836C392.595 201.367 392.369 201.918 391.908 202.21L376.119 212.181C375.657 212.473 375.061 212.439 374.636 212.099L362.494 202.37C355.423 204.817 348.109 206.034 340.84 206.092L332.646 219.33C332.359 219.794 331.809 220.024 331.277 219.905L313.062 215.789C312.529 215.669 312.131 215.225 312.072 214.682L310.365 199.208C303.825 196.032 297.745 191.788 292.412 186.54L277.267 190.104C276.736 190.231 276.184 190.004 275.892 189.543L265.921 173.753C265.631 173.292 265.664 172.697 266.006 172.271L275.733 160.129C273.287 153.058 272.069 145.745 272.013 138.475L258.774 130.281C258.31 129.994 258.079 129.444 258.199 128.911L262.313 110.697C262.434 110.164 262.879 109.767 263.421 109.706L278.896 107.999C282.073 101.46 286.315 95.3792 291.563 90.047L287.999 74.903C287.874 74.3719 288.099 73.819 288.561 73.5269L304.35 63.5575C304.812 63.2654 305.407 63.2982 305.832 63.6402L317.974 73.3692C325.045 70.9217 332.359 69.7034 339.63 69.6472L347.822 56.4087C348.109 55.9448 348.659 55.7137 349.191 55.834L367.407 59.9479C367.939 60.0682 368.337 60.5133 368.397 61.0553L370.104 76.5304C376.644 79.7073 382.724 83.9494 388.057 89.1989L403.201 85.6331C403.732 85.5081 404.284 85.7346 404.575 86.1953L414.546 101.984C414.838 102.447 414.804 103.042 414.463 103.468L404.735 115.61C407.181 122.681 408.399 129.994 408.457 137.264L421.695 145.458C422.159 145.744 422.389 146.293 422.269 146.826L418.155 165.042" fill="#3576FF"/>
<path d="M329.996 126.581C331.538 125.178 333.392 124.071 335.499 123.382C339.368 122.118 343.499 122.435 347.129 124.277C350.76 126.118 353.456 129.264 354.721 133.133C355.986 137.003 355.668 141.133 353.828 144.762C351.984 148.394 348.839 151.09 344.97 152.355C336.983 154.966 328.359 150.593 325.748 142.605C323.825 136.723 325.69 130.496 329.996 126.581V126.581ZM352.295 151.14C353.887 149.692 355.217 147.952 356.219 145.976C358.384 141.707 358.758 136.85 357.27 132.3C355.782 127.749 352.612 124.05 348.342 121.886C344.074 119.719 339.216 119.346 334.665 120.834C325.27 123.904 320.128 134.045 323.199 143.438C326.27 152.831 336.411 157.974 345.804 154.904C348.248 154.106 350.448 152.82 352.295 151.14" fill="#91B3FA"/>
<path d="M370.678 171.543C370.818 171.415 370.958 171.287 371.097 171.157L371.107 171.148C371.174 171.084 371.242 171.021 371.309 170.957L371.317 170.951L371.333 170.935C371.508 170.77 371.681 170.603 371.853 170.434C371.872 170.417 371.891 170.398 371.911 170.379C372.169 170.125 372.179 169.716 371.937 169.45L371.92 169.43C371.66 169.166 371.231 169.166 370.971 169.422C368.732 171.618 366.236 173.591 363.557 175.282C345.095 186.942 321.241 183.262 307.03 167.638C305.312 165.75 303.733 163.685 302.322 161.452C289.254 140.757 295.455 113.288 316.154 100.218C334.616 88.5587 358.469 92.2385 372.681 107.862C374.4 109.752 375.978 111.815 377.388 114.049C381.685 120.854 384.054 128.679 384.239 136.68C384.243 136.847 384.308 137 384.413 137.114C384.539 137.253 384.722 137.339 384.925 137.335C385.295 137.325 385.588 137.019 385.579 136.649C385.389 128.405 382.948 120.343 378.522 113.333C377.069 111.033 375.443 108.905 373.672 106.959C359.032 90.864 334.458 87.0733 315.438 99.0842C294.118 112.548 287.725 140.847 301.189 162.167C302.643 164.468 304.267 166.595 306.038 168.543C320.679 184.636 345.252 188.427 364.273 176.416C366.55 174.979 368.698 173.342 370.678 171.543" fill="#91B3FA"/>
<path d="M272.053 283.754C272.288 283.754 272.519 283.728 272.741 283.681C274.128 283.383 275.212 282.202 275.321 280.715C275.454 278.934 275.552 277.127 275.613 275.344C275.674 273.533 274.256 272.015 272.444 271.953C272.408 271.953 272.371 271.951 272.335 271.951C271.914 271.951 271.513 272.031 271.143 272.175C271.059 273.452 270.232 274.555 269.059 275.011C269.058 275.047 269.055 275.084 269.055 275.12C268.997 276.817 268.903 278.536 268.778 280.229C268.644 282.036 270 283.611 271.807 283.745C271.889 283.751 271.972 283.754 272.053 283.754" fill="url(#paint8_linear_162_548)"/>
<path d="M267.863 275.234C267.966 275.234 268.071 275.23 268.175 275.22C268.307 275.208 268.435 275.188 268.561 275.161C268.733 275.123 268.9 275.074 269.059 275.011C270.232 274.555 271.059 273.452 271.143 272.175C271.154 272.001 271.152 271.825 271.135 271.647C270.804 268.12 270.328 264.559 269.72 261.063C269.444 259.467 268.057 258.343 266.492 258.343C266.304 258.343 266.115 258.36 265.926 258.393C264.152 258.68 262.945 260.401 263.254 262.186C263.833 265.515 264.286 268.904 264.602 272.261C264.761 273.96 266.19 275.234 267.863 275.234ZM262.548 248.445C262.774 248.445 263.004 248.422 263.234 248.372C263.326 248.353 263.418 248.328 263.51 248.3C265.244 247.769 266.217 245.935 265.686 244.201C264.646 240.806 263.462 237.418 262.167 234.129C261.659 232.836 260.424 232.048 259.113 232.048C258.714 232.048 258.307 232.122 257.912 232.276C256.227 232.94 255.396 234.844 256.06 236.531C257.294 239.664 258.421 242.891 259.412 246.126C259.844 247.538 261.144 248.445 262.548 248.445ZM251.938 223.289C252.166 223.289 252.396 223.266 252.622 223.217C252.927 223.152 253.227 223.041 253.514 222.885C255.101 222.012 255.682 220.017 254.81 218.429C253.103 215.319 251.252 212.241 249.309 209.281C248.68 208.32 247.632 207.799 246.564 207.799C245.945 207.799 245.32 207.974 244.766 208.337C243.251 209.331 242.829 211.366 243.823 212.881C245.672 215.697 247.434 218.626 249.058 221.587C249.655 222.674 250.779 223.289 251.938 223.289ZM236.393 200.828C236.624 200.828 236.855 200.803 237.083 200.755C237.6 200.644 238.097 200.405 238.526 200.038C239.902 198.858 240.062 196.786 238.882 195.411C236.575 192.72 234.133 190.085 231.62 187.58C230.978 186.943 230.14 186.623 229.302 186.623C228.461 186.623 227.62 186.944 226.978 187.588C225.698 188.872 225.703 190.949 226.985 192.228C229.378 194.613 231.705 197.122 233.9 199.681C234.55 200.439 235.468 200.828 236.393 200.828ZM216.576 182.021C216.808 182.021 217.041 181.998 217.269 181.948C218.002 181.79 218.684 181.384 219.176 180.744C220.283 179.308 220.016 177.248 218.581 176.142C215.77 173.974 212.841 171.894 209.878 169.957C209.324 169.595 208.701 169.423 208.085 169.423C207.015 169.423 205.966 169.946 205.336 170.91C204.344 172.427 204.771 174.46 206.289 175.45C209.11 177.295 211.898 179.276 214.575 181.339C215.171 181.8 215.876 182.021 216.576 182.021ZM54.2149 181.503C54.4461 181.503 54.6772 181.479 54.9053 181.431C55.3629 181.333 55.8065 181.134 56.2032 180.831C58.8834 178.787 61.6823 176.82 64.5202 174.99C66.043 174.007 66.4803 171.975 65.4979 170.454C64.8716 169.481 63.8158 168.95 62.7381 168.95C62.1289 168.95 61.512 169.119 60.9622 169.475C57.979 171.399 55.0396 173.465 52.2235 175.613C50.7819 176.712 50.5054 178.771 51.605 180.213C52.25 181.059 53.2278 181.503 54.2149 181.503ZM193.36 167.638C193.592 167.638 193.824 167.613 194.049 167.565C195.001 167.36 195.854 166.735 196.313 165.792C197.105 164.163 196.427 162.198 194.797 161.406C191.609 159.855 188.321 158.412 185.026 157.114C184.63 156.959 184.224 156.886 183.824 156.886C182.514 156.886 181.277 157.675 180.771 158.966C180.107 160.653 180.935 162.557 182.622 163.221C185.761 164.456 188.891 165.831 191.926 167.307C192.388 167.532 192.877 167.638 193.36 167.638ZM77.526 167.266C77.7525 167.266 77.982 167.243 78.2101 167.193C78.4553 167.141 78.6989 167.059 78.9348 166.946C81.982 165.494 85.1245 164.142 88.2748 162.932C89.9664 162.282 90.8098 160.383 90.16 158.692C89.6587 157.387 88.4091 156.591 87.0909 156.591C86.7004 156.591 86.3053 156.659 85.9195 156.806C82.613 158.078 79.3112 159.496 76.1109 161.022C74.4756 161.801 73.7806 163.76 74.5615 165.395C75.1238 166.576 76.2999 167.266 77.526 167.266ZM167.725 158.262C167.957 158.262 168.185 158.237 168.409 158.189C169.589 157.936 170.586 157.036 170.903 155.786C171.348 154.029 170.285 152.244 168.527 151.799C165.091 150.929 161.58 150.184 158.091 149.584C157.903 149.553 157.718 149.537 157.535 149.537C155.964 149.537 154.575 150.665 154.302 152.263C153.994 154.05 155.194 155.746 156.98 156.052C160.303 156.622 163.645 157.333 166.916 158.16C167.186 158.229 167.458 158.262 167.725 158.262ZM103.245 158.079C103.505 158.079 103.767 158.048 104.033 157.986C107.331 157.172 110.661 156.488 113.991 155.935C114.043 155.925 114.094 155.916 114.146 155.905C115.848 155.54 116.978 153.897 116.69 152.161C116.425 150.556 115.033 149.417 113.457 149.417C113.279 149.417 113.099 149.431 112.917 149.461C109.421 150.04 105.926 150.76 102.463 151.613C100.703 152.046 99.6281 153.823 100.061 155.583C100.429 157.081 101.762 158.079 103.245 158.079ZM140.71 154.309C140.946 154.309 141.176 154.284 141.399 154.237C142.825 153.929 143.922 152.691 143.986 151.166C144.062 149.356 142.655 147.826 140.845 147.751C138.952 147.671 137.043 147.63 135.134 147.63C133.476 147.63 131.819 147.66 130.169 147.721C128.365 147.788 126.945 149.308 127.011 151.119C127.075 152.889 128.531 154.281 130.288 154.281C130.328 154.281 130.369 154.281 130.41 154.279C131.981 154.221 133.563 154.193 135.144 154.193C136.957 154.193 138.77 154.231 140.57 154.306C140.617 154.309 140.663 154.309 140.71 154.309Z" fill="url(#paint9_linear_162_548)"/>
<path d="M3.44106 289.515C3.49728 289.515 3.55508 289.515 3.61131 289.512C3.79092 289.502 3.9674 289.479 4.13765 289.441C5.68391 289.11 6.80535 287.697 6.72101 286.068C6.6351 284.364 6.58045 282.644 6.56171 280.951C6.5414 279.152 5.07636 277.707 3.28176 277.707C3.26926 277.707 3.25676 277.707 3.24426 277.707C1.4278 277.729 -0.0200847 279.212 0.000219771 281.026C0.0205242 282.803 0.0767702 284.612 0.167359 286.402C0.256387 288.154 1.70581 289.515 3.44106 289.515" fill="#00C2FF"/>
<path d="M138.941 416.175C138.961 416.175 138.98 416.175 139 416.175C142.489 416.111 146.017 415.913 149.486 415.58C149.616 415.568 149.744 415.547 149.868 415.521C151.473 415.176 152.601 413.676 152.44 412.002C152.277 410.304 150.85 409.033 149.179 409.033C149.074 409.033 148.968 409.038 148.862 409.048C145.561 409.364 142.203 409.554 138.883 409.614C137.073 409.642 135.629 411.141 135.661 412.953C135.693 414.745 137.157 416.175 138.941 416.175" fill="url(#paint10_linear_162_548)"/>
<path d="M115.325 414.52C113.231 413.595 111.131 412.627 109.04 411.621C109.39 412.742 110.333 413.639 111.569 413.87C112.814 414.104 114.066 414.32 115.325 414.52Z" fill="#00C2FF"/>
<path d="M122.308 415.424C122.544 415.424 122.775 415.399 122.997 415.351C124.344 415.062 125.413 413.939 125.57 412.497C125.765 410.695 124.462 409.077 122.661 408.88C119.363 408.524 116.038 408.032 112.778 407.42C112.575 407.382 112.372 407.363 112.172 407.363C110.622 407.363 109.245 408.463 108.948 410.041C108.847 410.586 108.886 411.126 109.04 411.621C111.132 412.627 113.231 413.595 115.325 414.52C117.529 414.87 119.747 415.165 121.954 415.406C122.073 415.418 122.191 415.424 122.308 415.424ZM165.616 412.98C165.844 412.98 166.075 412.957 166.308 412.907L166.335 412.9C169.062 412.291 171.804 411.59 174.489 410.815C175.159 410.623 175.829 410.425 176.496 410.22C178.228 409.691 179.205 407.855 178.675 406.123C178.244 404.71 176.945 403.799 175.539 403.799C175.222 403.799 174.899 403.846 174.578 403.944C173.944 404.138 173.31 404.326 172.671 404.51C170.113 405.249 167.5 405.916 164.904 406.497C163.134 406.892 162.022 408.646 162.418 410.414C162.758 411.941 164.114 412.98 165.616 412.98Z" fill="#00C2FF"/>
<path d="M96.041 409.845C96.2737 409.845 96.5033 409.82 96.7266 409.772C97.8371 409.533 98.793 408.724 99.1647 407.565C99.2647 407.252 99.3162 406.937 99.3209 406.626C95.8411 404.721 92.383 402.698 88.9344 400.54C88.5033 400.369 88.0738 400.197 87.6459 400.023C87.2398 399.857 86.8212 399.779 86.4089 399.779C85.1141 399.779 83.8864 400.55 83.3695 401.823C82.6853 403.502 83.4913 405.417 85.1703 406.1C88.4018 407.416 91.7224 408.624 95.0383 409.687C95.3709 409.794 95.7099 409.845 96.041 409.845" fill="#00C2FF"/>
<path d="M99.3208 406.626C99.3489 405.214 98.4556 403.891 97.0421 403.438C94.3244 402.567 91.6036 401.594 88.9343 400.539C92.383 402.698 95.841 404.72 99.3208 406.626M191.141 404.536C191.367 404.536 191.597 404.511 191.825 404.463C192.045 404.416 192.262 404.346 192.476 404.25C195.669 402.826 198.839 401.261 201.901 399.599C203.494 398.735 204.084 396.744 203.22 395.151C202.627 394.056 201.501 393.434 200.335 393.434C199.806 393.434 199.27 393.561 198.772 393.831C195.858 395.413 192.84 396.902 189.802 398.257C188.147 398.996 187.403 400.936 188.142 402.59C188.687 403.811 189.885 404.536 191.141 404.536" fill="url(#paint11_linear_162_548)"/>
<path d="M71.4049 399.115C71.6376 399.115 71.8687 399.09 72.0952 399.042C72.9839 398.851 73.7899 398.294 74.2694 397.439C75.155 395.859 74.5942 393.86 73.0136 392.972C70.1132 391.345 67.244 389.588 64.4826 387.748C63.925 387.376 63.2925 387.198 62.6677 387.198C61.6072 387.198 60.5654 387.712 59.9329 388.66C58.9286 390.167 59.3378 392.205 60.845 393.21C63.7439 395.14 66.7567 396.986 69.8008 398.695C70.31 398.979 70.8598 399.115 71.4049 399.115" fill="#00C2FF"/>
<path d="M214.45 391.152C214.679 391.152 214.911 391.129 215.137 391.079C215.565 390.987 215.982 390.809 216.36 390.535C219.19 388.503 221.98 386.332 224.652 384.08C226.037 382.912 226.214 380.842 225.046 379.457C224.397 378.687 223.47 378.29 222.536 378.29C221.789 378.29 221.039 378.543 220.422 379.062C217.88 381.205 215.226 383.273 212.533 385.206C211.061 386.264 210.725 388.313 211.782 389.784C212.422 390.678 213.428 391.152 214.45 391.152" fill="url(#paint12_linear_162_548)"/>
<path d="M49.4031 383.684C49.6374 383.684 49.8685 383.659 50.0966 383.61C50.7713 383.465 51.4039 383.109 51.8881 382.547C53.0735 381.175 52.922 379.104 51.5491 377.92C49.0345 375.749 46.573 373.454 44.2348 371.097C43.5929 370.45 42.7495 370.127 41.9045 370.127C41.0689 370.127 40.2333 370.444 39.5945 371.079C38.3075 372.356 38.3012 374.433 39.5773 375.72C42.0341 378.195 44.619 380.607 47.2617 382.886C47.8802 383.423 48.644 383.684 49.4031 383.684M30.937 364.151C31.1681 364.151 31.3993 364.128 31.6273 364.079C32.0896 363.979 32.5379 363.778 32.9362 363.472C34.3731 362.366 34.6402 360.304 33.536 358.869C31.5086 356.235 29.5594 353.491 27.7445 350.711C27.115 349.747 26.0655 349.222 24.994 349.222C24.3786 349.222 23.757 349.396 23.2041 349.758C21.686 350.748 21.2595 352.78 22.2498 354.299C24.1568 357.219 26.2045 360.104 28.3349 362.872C28.9815 363.712 29.9546 364.151 30.937 364.151M16.791 341.302C17.019 341.302 17.2471 341.279 17.4751 341.229C17.7297 341.176 17.9796 341.09 18.2233 340.971C19.8523 340.179 20.5317 338.214 19.7383 336.585C18.2904 333.605 16.9363 330.527 15.7149 327.433C15.2057 326.143 13.9703 325.354 12.663 325.354C12.2616 325.354 11.8539 325.429 11.4588 325.585C9.77193 326.25 8.94568 328.156 9.61105 329.841C10.8933 333.091 12.3147 336.326 13.8375 339.456C14.406 340.623 15.5743 341.302 16.791 341.302ZM7.51657 316.083C7.7446 316.083 7.97575 316.059 8.20691 316.009C8.25064 316 8.29437 315.989 8.33967 315.978C10.0937 315.525 11.1495 313.735 10.6966 311.981C10.2499 310.252 9.83282 308.489 9.45797 306.738C9.1331 305.227 8.83634 303.717 8.5677 302.208C8.285 300.618 6.89962 299.502 5.3393 299.502C5.14875 299.502 4.95664 299.517 4.7614 299.552C2.95743 299.864 1.78915 301.573 2.10621 303.358C2.38891 304.945 2.70129 306.53 3.04178 308.115C3.43694 309.954 3.87424 311.806 4.34281 313.621C4.72391 315.1 6.05621 316.083 7.51657 316.083" fill="#00C2FF"/>
<path d="M234.632 373.277C234.865 373.277 235.098 373.252 235.326 373.202C235.965 373.064 236.571 372.735 237.047 372.218C238.258 370.904 239.456 369.55 240.611 368.193C241.786 366.814 241.619 364.743 240.238 363.568C239.621 363.043 238.865 362.786 238.112 362.786C237.185 362.786 236.261 363.178 235.613 363.941C234.514 365.232 233.374 366.522 232.221 367.771C230.993 369.105 231.078 371.181 232.41 372.408C233.041 372.989 233.837 373.277 234.632 373.277Z" fill="url(#paint13_linear_162_548)"/>
<path d="M229.153 351.817C228.768 352.501 227.99 352.868 227.217 352.726L205.147 348.702C198.064 356.421 189.699 363.067 180.254 368.265L178.93 390.643C178.884 391.429 178.345 392.097 177.588 392.31L151.676 399.565C150.919 399.776 150.11 399.484 149.663 398.839L136.912 380.399C126.14 380.861 115.541 379.527 105.479 376.608L88.7075 391.507C88.1202 392.029 87.2659 392.121 86.5802 391.735L63.1286 378.543C62.4429 378.158 62.0775 377.38 62.218 376.607L66.243 354.537C58.5242 347.454 51.8784 339.089 46.6804 329.644L24.3018 328.32C23.5162 328.274 22.8477 327.734 22.6353 326.978L15.3804 301.065C15.1679 300.309 15.46 299.5 16.1066 299.053L34.5446 286.3C34.0823 275.53 35.4177 264.931 38.3369 254.869L23.4381 238.098C22.9164 237.51 22.8243 236.656 23.2101 235.97L36.4017 212.519C36.7875 211.833 37.5653 211.468 38.3385 211.608L60.4078 215.633C67.491 207.913 75.8564 201.268 85.3011 196.071L86.624 173.69C86.6708 172.906 87.2097 172.236 87.9672 172.025L113.879 164.77C114.636 164.558 115.444 164.85 115.892 165.497L128.643 183.935C139.414 183.472 150.014 184.808 160.076 187.727L176.846 172.828C177.435 172.305 178.289 172.214 178.975 172.599L202.426 185.792C203.112 186.178 203.478 186.955 203.336 187.729L199.312 209.798C207.031 216.879 213.677 225.245 218.875 234.691L241.253 236.014C242.039 236.061 242.707 236.6 242.92 237.357L250.175 263.269C250.387 264.025 250.095 264.834 249.448 265.282L231.01 278.033C231.473 288.804 230.137 299.403 227.218 309.465L242.117 326.236C242.639 326.823 242.731 327.678 242.345 328.365L229.153 351.817" fill="#3576FF"/>
<path d="M129.421 263.099C130.358 262.936 131.313 262.841 132.279 262.816C142.95 262.541 151.854 270.999 152.129 281.669C152.262 286.838 150.374 291.75 146.813 295.498C143.252 299.248 138.441 301.385 133.276 301.519C128.106 301.65 123.195 299.764 119.447 296.203C115.697 292.642 113.559 287.834 113.426 282.666C113.293 277.496 115.18 272.585 118.741 268.835C121.637 265.788 125.356 263.805 129.421 263.099V263.099ZM137.663 310.174C151.316 307.801 161.563 295.692 161.196 281.437C161.001 273.844 157.86 266.785 152.354 261.555C146.85 256.326 139.636 253.554 132.047 253.749C116.37 254.152 103.956 267.228 104.359 282.899C104.554 290.489 107.694 297.551 113.199 302.778C118.705 308.009 125.918 310.781 133.509 310.584C134.922 310.549 136.309 310.41 137.663 310.174Z" fill="#91B3FA"/>
<path d="M143.631 347.318C145.829 346.936 148.023 346.441 150.218 345.827C154.238 344.699 158.146 343.201 161.855 341.366C162.277 341.155 162.699 340.943 163.116 340.724C163.198 340.682 163.278 340.64 163.359 340.596C163.954 340.284 164.253 339.629 164.145 339.001C164.118 338.85 164.067 338.698 163.992 338.555C163.603 337.816 162.688 337.533 161.949 337.922C157.986 340.014 153.765 341.693 149.402 342.914C149.043 343.015 148.682 343.112 148.323 343.208C123.925 349.591 98.9692 340.771 83.669 322.542C78.1462 315.961 73.8807 308.151 71.3598 299.384C71.3176 299.237 71.2755 299.091 71.2364 298.945C70.6476 296.848 70.1744 294.747 69.8104 292.646C64.3173 261.006 83.6284 229.62 115.205 220.778C148.881 211.352 183.943 231.075 193.372 264.748C193.953 266.824 194.427 268.921 194.794 271.031C196.381 280.176 195.948 289.568 193.497 298.527C193.436 298.749 193.429 298.974 193.466 299.184C193.563 299.745 193.972 300.225 194.556 300.385C195.362 300.604 196.192 300.131 196.413 299.325C198.983 289.937 199.434 280.097 197.772 270.516C197.39 268.304 196.893 266.108 196.284 263.933C186.405 228.655 149.66 207.991 114.391 217.867C81.3074 227.13 61.0764 260.012 66.8304 293.162C67.213 295.362 67.7097 297.563 68.3235 299.759C77.587 332.844 110.48 353.079 143.631 347.318" fill="#91B3FA"/>
<path d="M271.618 252.006C288.735 255.003 300.136 243.973 308.602 237.31C319.78 228.516 328.264 233.057 328.264 233.057L316.086 256.089C298.231 272.914 280.327 268.764 269.1 262.991C269.01 258.496 270.237 254.76 271.618 252.006" fill="url(#paint14_linear_162_548)"/>
<path d="M247.69 240.922L253.322 244.208C260.069 248.651 266.136 251.047 271.618 252.006C270.237 254.76 269.01 258.496 269.1 262.991C261.953 259.316 257.509 254.983 257.509 254.983C244.765 246.758 247.69 240.922 247.69 240.922" fill="url(#paint15_linear_162_548)"/>
<path d="M302.573 402.807C300.936 394.325 295.524 388.238 290.484 389.21C285.443 390.183 282.684 397.847 284.322 406.329C285.959 414.812 291.371 420.899 296.411 419.926C301.451 418.954 304.209 411.288 302.573 402.807ZM311.816 401.558L313.083 408.124C315.258 419.39 310.863 429.711 303.266 431.177L294.235 432.92C286.638 434.385 278.718 426.442 276.544 415.176L275.277 408.61C275.193 408.176 275.118 407.738 275.054 407.301L245.894 211.04L265.569 207.243L311.536 400.26C311.639 400.691 311.733 401.124 311.816 401.558Z" fill="url(#paint16_linear_162_548)"/>
<path d="M262.651 138.812L270.003 176.907C270.526 179.62 269.762 182.422 267.932 184.491L258.554 195.101C255.877 198.129 251.496 198.974 247.885 197.159L235.232 190.801C232.765 189.561 231.011 187.246 230.487 184.533L223.136 146.437C222.027 140.691 214.619 138.84 211.043 143.473C202.492 154.558 198.567 169.383 201.493 184.539C206.78 211.936 231.779 226.659 258.129 221.573C284.482 216.488 302.206 193.519 296.919 166.123C293.993 150.965 284.833 138.665 272.771 131.56C267.729 128.59 261.542 133.066 262.651 138.812" fill="url(#paint17_linear_162_548)"/>
<path d="M259.06 139.504L266.414 177.6C266.937 180.311 266.171 183.113 264.341 185.182L254.963 195.794C252.286 198.822 247.905 199.667 244.294 197.852L231.641 191.494C229.174 190.254 227.421 187.938 226.896 185.226L219.545 147.13C218.436 141.384 211.028 139.532 207.454 144.166C198.901 155.251 194.976 170.074 197.902 185.232C203.189 212.628 228.188 227.352 254.54 222.266C280.891 217.181 298.615 194.212 293.328 166.815C290.402 151.658 281.242 139.358 269.18 132.252C264.138 129.283 257.951 133.758 259.06 139.504" fill="#91B3FA"/>
<path d="M246.954 249.416C246.745 248.187 247.105 246.938 247.921 245.993C249.503 244.162 252.236 241.655 254.22 243.345C257.172 245.862 253.937 254.471 253.937 254.471L250.663 259.47L250.617 262.661C248.845 260.587 247.786 255.486 246.954 249.416" fill="url(#paint18_linear_162_548)"/>
<path d="M359.275 290.666C361.733 293.39 365.382 295.773 367.954 297.265C363.982 301.99 358.64 306.694 351.599 311.266L349.525 315.692L343.294 307.931C343.294 307.931 354.841 302.455 359.275 290.666" fill="url(#paint19_linear_162_548)"/>
<path d="M322.423 434.935C322.423 434.799 322.435 434.66 322.473 434.523C324.692 426.375 335.037 421.47 335.037 421.47L339.091 421.865C341.29 429.123 340.906 433.544 340.494 435.507C340.483 435.563 340.466 435.615 340.45 435.668C337.094 435.904 330.195 435.969 322.423 434.935" fill="url(#paint20_linear_162_548)"/>
<path d="M340.45 435.668C340.256 436.322 339.761 436.827 339.137 436.945C334.352 437.857 326.793 436.908 323.621 436.431C322.921 436.327 322.42 435.668 322.423 434.935C330.195 435.969 337.094 435.904 340.45 435.668Z" fill="url(#paint21_linear_162_548)"/>
<path d="M340.839 415.847L338.963 424.094C338.826 424.699 338.349 425.144 337.784 425.186C337.092 425.239 336.108 425.258 335.121 425.094C334.235 424.947 333.636 424.033 333.811 423.068L335.144 415.74L340.839 415.847Z" fill="url(#paint22_linear_162_548)"/>
<path d="M304.83 434.912C309.317 434.871 311.646 434.387 312.855 433.92C312.849 434.365 312.838 434.819 312.814 435.29C312.789 435.791 312.41 436.185 311.952 436.174L287.329 435.549C286.543 435.53 286.101 434.61 286.456 433.895C289.68 434.223 297.892 434.976 304.83 434.912" fill="url(#paint23_linear_162_548)"/>
<path d="M286.455 433.895C286.487 433.833 286.513 433.77 286.557 433.712C288.789 430.714 294.443 424.768 305.437 422.35L310.691 422.283C310.691 422.283 312.953 426.39 312.854 433.92C311.645 434.387 309.317 434.871 304.829 434.912C297.891 434.976 289.679 434.223 286.455 433.895Z" fill="url(#paint24_linear_162_548)"/>
<path d="M311.816 414.343C311.75 414.734 310.918 420.669 310.596 422.969C310.519 423.516 310.113 423.933 309.612 423.983C308.715 424.074 307.267 424.144 306.005 423.86C305.326 423.707 304.843 423.041 304.859 422.279L305.034 412.941L311.816 414.343" fill="url(#paint25_linear_162_548)"/>
<path d="M318.077 305.863C318.077 305.863 304.505 353.753 303.589 414.326C303.572 415.43 304.33 416.397 305.406 416.646C306.993 417.011 309.326 417.453 311.264 417.436C312.3 417.427 313.179 416.675 313.371 415.659C315.344 405.278 326.643 346.805 332.629 337.39C332.629 337.39 335.463 389.713 333.729 416.799C333.687 417.472 334.169 418.065 334.838 418.156C335.852 418.292 337.477 418.412 339.552 418.231C340.339 418.162 340.984 417.581 341.11 416.8C342.543 408.012 350.813 355.687 351.217 317.889C351.241 315.759 345.796 306.386 345.796 306.386L318.077 305.863" fill="url(#paint26_linear_162_548)"/>
<path d="M301.564 247.28C303.668 244.743 305.522 242.015 307.082 239.197C309.259 235.263 307.202 241.774 307.861 237.296C323.83 226.226 347.443 232.428 356.597 233.757C359.598 234.193 362.322 235.728 364.261 238.06C371.952 247.308 388.736 272.546 367.953 297.265C365.382 295.773 361.733 293.39 359.275 290.666C361.641 284.374 361.978 276.284 357.457 266.271C357.281 267.055 357.067 267.829 356.811 268.592C349.934 289.029 349.264 306.131 349.204 310.075C349.196 310.611 348.865 311.087 348.364 311.276C339.758 314.538 323.355 312.19 317.851 311.264C316.842 311.094 316.178 310.139 316.338 309.129C319.418 289.555 306.125 257.009 302.606 248.853C302.353 248.267 301.998 247.736 301.564 247.28" fill="url(#paint27_linear_162_548)"/>
<path d="M342.146 216.954L343.474 233.804C343.474 233.804 333.959 236.475 327.169 231.489L332.295 216.295L342.146 216.954" fill="url(#paint28_linear_162_548)"/>
<path d="M331.529 197.578C331.298 197.787 321.567 216.036 321.567 216.036L332.105 221.37L343.897 205.445C343.897 205.445 335.41 194.06 331.529 197.578" fill="url(#paint29_linear_162_548)"/>
<path d="M339.184 205.802C339.363 206.298 339.307 206.844 339.027 207.289L333.556 216.031C333.473 216.164 333.375 216.284 333.259 216.387C332.616 216.964 330.425 218.632 328.797 216.273C327.412 214.263 326.111 212.434 324.694 211.664C323.866 211.214 322.831 211.541 322.39 212.373C321.484 214.09 319.726 217.588 318.598 220.915C318.315 221.749 318.732 222.658 319.541 223.005C321.678 223.919 325.904 225.576 329.672 226.169C330.29 226.266 330.909 226.016 331.288 225.517C332.955 223.322 337.651 217.189 339.244 215.661C340.724 214.241 343.393 214.838 344.594 215.207C345.05 215.347 345.54 215.294 345.953 215.055C347.193 214.34 349.365 212.542 347.468 209.395C346.996 208.612 347.263 207.586 348.036 207.099C349.422 206.224 350.938 204.562 349.575 201.801C348.196 199.005 345.644 198.708 343.899 198.888C343.126 198.968 342.351 198.549 342.07 197.826C341.945 197.504 341.689 197.226 341.208 197.12C340.299 196.917 339.715 196.072 339.911 195.161C340.249 193.6 340.055 191.56 337.58 190.137C333.039 187.527 328.942 191.563 327.854 195.013C326.767 198.465 331.851 201.014 335.07 201.484C337.434 201.829 338.685 204.44 339.184 205.802" fill="url(#paint30_linear_162_548)"/>
<path d="M337.191 218.869C337.191 218.869 339.344 212.939 341.951 213.207C344.559 213.474 346.565 216.115 343.274 218.98C339.179 222.541 337.191 218.869 337.191 218.869Z" fill="url(#paint31_linear_162_548)"/>
<path d="M358.347 264.75C361.968 255.392 360.934 243.992 360.922 243.878L359.972 243.969C359.982 244.081 360.994 255.263 357.456 264.404L358.347 264.75" fill="url(#paint32_linear_162_548)"/>
<path d="M333.118 336.171C333.329 336.176 333.526 336.037 333.587 335.823C334.713 331.792 342.661 327.489 342.741 327.445C342.974 327.321 343.061 327.031 342.936 326.798C342.811 326.567 342.524 326.478 342.29 326.605C341.948 326.787 333.902 331.143 332.667 335.565C332.595 335.82 332.743 336.084 332.998 336.154C333.037 336.165 333.078 336.171 333.118 336.171" fill="url(#paint33_linear_162_548)"/>
<path d="M326.049 192.039L350.408 211.01C350.76 211.283 351.277 211.076 351.341 210.635L351.594 208.895C351.594 208.895 361.731 198.702 351.316 189.487C340.9 180.272 328.611 190.712 328.611 190.712L326.254 191.179C325.845 191.258 325.721 191.783 326.049 192.039" fill="url(#paint34_linear_162_548)"/>
<defs>
<linearGradient id="paint0_linear_162_548" x1="-52.0741" y1="562.416" x2="334.326" y2="82.5314" gradientUnits="userSpaceOnUse">
<stop stop-color="#001B6D"/>
<stop offset="1" stop-color="#004CFF"/>
</linearGradient>
<linearGradient id="paint1_linear_162_548" x1="-52.0736" y1="562.417" x2="334.328" y2="82.5334" gradientUnits="userSpaceOnUse">
<stop stop-color="#003BFF"/>
<stop offset="1" stop-color="#F7F9FE"/>
</linearGradient>
<linearGradient id="paint2_linear_162_548" x1="-52.0741" y1="562.416" x2="334.326" y2="82.5308" gradientUnits="userSpaceOnUse">
<stop stop-color="#003BFF"/>
<stop offset="1" stop-color="#F7F9FE"/>
</linearGradient>
<linearGradient id="paint3_linear_162_548" x1="-52.0744" y1="562.416" x2="334.325" y2="82.5301" gradientUnits="userSpaceOnUse">
<stop stop-color="#003BFF"/>
<stop offset="1" stop-color="#F7F9FE"/>
</linearGradient>
<linearGradient id="paint4_linear_162_548" x1="-52.0738" y1="562.416" x2="334.327" y2="82.5319" gradientUnits="userSpaceOnUse">
<stop stop-color="#00C2FF"/>
<stop offset="1" stop-color="#00C2FF"/>
</linearGradient>
<linearGradient id="paint5_linear_162_548" x1="-52.074" y1="562.412" x2="334.323" y2="82.5285" gradientUnits="userSpaceOnUse">
<stop stop-color="#00C2FF"/>
<stop offset="1" stop-color="#00C2FF"/>
</linearGradient>
<linearGradient id="paint6_linear_162_548" x1="-52.0744" y1="562.418" x2="334.327" y2="82.5327" gradientUnits="userSpaceOnUse">
<stop stop-color="#00C2FF"/>
<stop offset="1" stop-color="#00C2FF"/>
</linearGradient>
<linearGradient id="paint7_linear_162_548" x1="-52.0747" y1="562.416" x2="334.326" y2="82.5309" gradientUnits="userSpaceOnUse">
<stop stop-color="#00C2FF"/>
<stop offset="1" stop-color="#00C2FF"/>
</linearGradient>
<linearGradient id="paint8_linear_162_548" x1="-52.0747" y1="562.416" x2="334.325" y2="82.5306" gradientUnits="userSpaceOnUse">
<stop stop-color="#F2F5FF"/>
<stop offset="1" stop-color="#F7F9FE"/>
</linearGradient>
<linearGradient id="paint9_linear_162_548" x1="-52.0742" y1="562.416" x2="334.326" y2="82.5311" gradientUnits="userSpaceOnUse">
<stop stop-color="#003BFF"/>
<stop stop-color="#003BFF"/>
<stop offset="1" stop-color="white"/>
</linearGradient>
<linearGradient id="paint10_linear_162_548" x1="-52.0741" y1="562.416" x2="334.326" y2="82.5314" gradientUnits="userSpaceOnUse">
<stop stop-color="#00C2FF"/>
<stop offset="1" stop-color="#F7F9FE"/>
</linearGradient>
<linearGradient id="paint11_linear_162_548" x1="-52.0739" y1="562.416" x2="334.326" y2="82.5309" gradientUnits="userSpaceOnUse">
<stop stop-color="#00C2FF"/>
<stop offset="1" stop-color="#00C2FF"/>
</linearGradient>
<linearGradient id="paint12_linear_162_548" x1="-52.0745" y1="562.416" x2="334.325" y2="82.5306" gradientUnits="userSpaceOnUse">
<stop stop-color="#00C2FF"/>
<stop offset="1" stop-color="#F7F9FE"/>
</linearGradient>
<linearGradient id="paint13_linear_162_548" x1="-52.0744" y1="562.416" x2="334.326" y2="82.531" gradientUnits="userSpaceOnUse">
<stop stop-color="#00C2FF"/>
<stop offset="1" stop-color="#F7F9FE"/>
</linearGradient>
<linearGradient id="paint14_linear_162_548" x1="60.0237" y1="-74.9751" x2="144.685" y2="39.6059" gradientUnits="userSpaceOnUse">
<stop stop-color="#FF928E"/>
<stop offset="1" stop-color="#FE7062"/>
</linearGradient>
<linearGradient id="paint15_linear_162_548" x1="230.23" y1="209.634" x2="308.764" y2="314.123" gradientUnits="userSpaceOnUse">
<stop stop-color="#FEBBBA"/>
<stop offset="1" stop-color="#FF928E"/>
</linearGradient>
<linearGradient id="paint16_linear_162_548" x1="-12.6743" y1="1939.78" x2="65.8134" y2="1503.35" gradientUnits="userSpaceOnUse">
<stop stop-color="#4F52FF"/>
<stop offset="1" stop-color="#4042E2"/>
</linearGradient>
<linearGradient id="paint17_linear_162_548" x1="3768.22" y1="1769.17" x2="3364.31" y2="1586.13" gradientUnits="userSpaceOnUse">
<stop stop-color="#4F52FF"/>
<stop offset="1" stop-color="#4042E2"/>
</linearGradient>
<linearGradient id="paint18_linear_162_548" x1="263.171" y1="240.015" x2="195.515" y2="309.542" gradientUnits="userSpaceOnUse">
<stop stop-color="#FEBBBA"/>
<stop offset="1" stop-color="#FF928E"/>
</linearGradient>
<linearGradient id="paint19_linear_162_548" x1="367.837" y1="303.433" x2="343.388" y2="302.971" gradientUnits="userSpaceOnUse">
<stop stop-color="#FEBBBA"/>
<stop offset="1" stop-color="#FF928E"/>
</linearGradient>
<linearGradient id="paint20_linear_162_548" x1="333.134" y1="379.443" x2="331.246" y2="446.881" gradientUnits="userSpaceOnUse">
<stop stop-color="#09005D"/>
<stop offset="1" stop-color="#1A0F91"/>
</linearGradient>
<linearGradient id="paint21_linear_162_548" x1="331.488" y1="408.23" x2="331.634" y2="331.344" gradientUnits="userSpaceOnUse">
<stop stop-color="#09005D"/>
<stop offset="1" stop-color="#1A0F91"/>
</linearGradient>
<linearGradient id="paint22_linear_162_548" x1="336.175" y1="407.787" x2="339.099" y2="438.415" gradientUnits="userSpaceOnUse">
<stop stop-color="#FEBBBA"/>
<stop offset="1" stop-color="#FF928E"/>
</linearGradient>
<linearGradient id="paint23_linear_162_548" x1="299.643" y1="408.171" x2="299.789" y2="331.284" gradientUnits="userSpaceOnUse">
<stop stop-color="#09005D"/>
<stop offset="1" stop-color="#1A0F91"/>
</linearGradient>
<linearGradient id="paint24_linear_162_548" x1="301.204" y1="378.55" x2="299.316" y2="445.988" gradientUnits="userSpaceOnUse">
<stop stop-color="#09005D"/>
<stop offset="1" stop-color="#1A0F91"/>
</linearGradient>
<linearGradient id="paint25_linear_162_548" x1="307.586" y1="410.517" x2="310.51" y2="441.145" gradientUnits="userSpaceOnUse">
<stop stop-color="#FEBBBA"/>
<stop offset="1" stop-color="#FF928E"/>
</linearGradient>
<linearGradient id="paint26_linear_162_548" x1="268.619" y1="269.973" x2="377.339" y2="445.892" gradientUnits="userSpaceOnUse">
<stop stop-color="#09005D"/>
<stop offset="1" stop-color="#1A0F91"/>
</linearGradient>
<linearGradient id="paint27_linear_162_548" x1="74.5414" y1="-85.7022" x2="159.203" y2="28.8789" gradientUnits="userSpaceOnUse">
<stop stop-color="#FF928E"/>
<stop offset="1" stop-color="#FE7062"/>
</linearGradient>
<linearGradient id="paint28_linear_162_548" x1="332.127" y1="212.262" x2="344.405" y2="270.297" gradientUnits="userSpaceOnUse">
<stop stop-color="#FEBBBA"/>
<stop offset="1" stop-color="#FF928E"/>
</linearGradient>
<linearGradient id="paint29_linear_162_548" x1="334.554" y1="201.119" x2="327.231" y2="239.775" gradientUnits="userSpaceOnUse">
<stop stop-color="#FEBBBA"/>
<stop offset="1" stop-color="#FF928E"/>
</linearGradient>
<linearGradient id="paint30_linear_162_548" x1="341.137" y1="219.606" x2="322.106" y2="198.608" gradientUnits="userSpaceOnUse">
<stop stop-color="#09005D"/>
<stop offset="1" stop-color="#1A0F91"/>
</linearGradient>
<linearGradient id="paint31_linear_162_548" x1="339.629" y1="241.04" x2="341.316" y2="213.829" gradientUnits="userSpaceOnUse">
<stop stop-color="#FEBBBA"/>
<stop offset="1" stop-color="#FF928E"/>
</linearGradient>
<linearGradient id="paint32_linear_162_548" x1="313.745" y1="246.241" x2="398.463" y2="261.145" gradientUnits="userSpaceOnUse">
<stop stop-color="#E1473D"/>
<stop offset="1" stop-color="#E9605A"/>
</linearGradient>
<linearGradient id="paint33_linear_162_548" x1="330.551" y1="317.827" x2="339.627" y2="334.719" gradientUnits="userSpaceOnUse">
<stop stop-color="#4F52FF"/>
<stop offset="1" stop-color="#4042E2"/>
</linearGradient>
<linearGradient id="paint34_linear_162_548" x1="323.639" y1="88.3741" x2="340.897" y2="194.538" gradientUnits="userSpaceOnUse">
<stop stop-color="#FF928E"/>
<stop offset="1" stop-color="#FE7062"/>
</linearGradient>
</defs>
</svg>
