<svg width="367" height="369" viewBox="0 0 367 369" fill="none" xmlns="http://www.w3.org/2000/svg">
<path d="M178.125 366.776C200.264 366.776 217.176 363.681 223.921 362.31C248.384 357.342 295.67 347.738 329.857 307.536C365.268 265.893 372.66 207.847 360.927 155.076C354.81 185.131 341.065 219.373 314.626 256.41C289.04 304.814 236.49 339.215 174.454 341.938C172.207 342.037 169.979 342.094 167.751 342.107V354.256C167.751 354.773 167.351 355.268 166.852 355.631C166.352 355.995 165.618 356.199 164.914 356.199C164.912 356.199 164.909 356.199 164.906 356.199L110.328 356.089C134.723 364.336 158.481 366.776 178.125 366.776M2.66725 218.717L2.70941 216.539C2.73969 215.001 4.04341 213.735 5.64079 213.735H6.0622C5.23387 208.501 4.69526 203.18 4.45691 197.772C0.788056 114.192 70.9492 43.2246 161.167 39.2648C163.804 39.1489 166.424 39.0909 169.036 39.0909C195.87 39.0909 221.277 45.1394 243.677 55.8997C245.445 41.7906 248.184 27.6749 252.131 13.812C239.237 8.05852 224.723 3.65745 208.518 1.5399C200.698 0.516677 192.659 0.0004778 184.516 0.0004778C143.011 0.0004778 98.6552 13.4077 65.0061 41.5983C12.8402 85.3032 -4.82321 156.534 2.66725 218.717M311.951 76.3259C313.534 72.3424 315.253 68.4615 317.125 64.6926C310.569 56.6543 302.108 47.5296 291.635 38.7275C298.912 49.5128 306.132 62.1562 311.951 76.3259" fill="url(#paint0_linear_162_118)"/>
<path d="M268.974 259.414C268.974 259.414 216.007 118.241 255.983 1.50538C256.504 -0.0169437 258.417 -0.502885 259.588 0.599349C278.094 18.0139 390.131 132.965 268.974 259.414Z" fill="#BDD0FB"/>
<path d="M280.541 80.1763C279.742 76.1624 278.874 72.163 277.944 68.1781C276.929 63.8798 275.819 59.6038 274.64 55.349C273.464 51.0902 272.203 46.8669 270.737 42.6792C270.648 42.4237 270.409 42.2644 270.154 42.2644C270.085 42.2644 270.017 42.2762 269.948 42.2999C269.64 42.4066 269.472 42.7345 269.556 43.044L269.561 43.0637C271.872 51.5129 273.853 60.0885 275.499 68.7062C276.061 71.548 276.595 74.3951 277.1 77.2462C278.263 78.2075 279.41 79.1847 280.541 80.1763" fill="#CFDDFC"/>
<path d="M303.661 270.99C303.661 270.99 269.714 98.9483 340.71 32.0886C341.97 30.9021 344.01 31.2063 344.875 32.7063C354.942 50.1445 402.208 146.304 303.661 270.99" fill="#91B3FA"/>
<path d="M329.097 164.723C332.195 148.124 334.71 131.419 336.696 114.654C337.217 110.421 337.637 106.178 338.112 101.94C338.544 97.6986 338.93 93.4529 339.316 89.206C339.995 80.7028 340.573 72.201 340.862 63.6597C340.874 63.3147 340.604 63.0263 340.259 63.0144C340.252 63.0144 340.245 63.0144 340.238 63.0144C339.905 63.0144 339.63 63.2765 339.614 63.6097L339.614 63.6228C339.234 72.1075 338.554 80.6014 337.792 89.073C337.39 93.3081 336.989 97.5445 336.541 101.776C336.05 106.003 335.616 110.237 335.08 114.457C334.526 118.677 334.007 122.9 333.426 127.115L331.57 139.744C330.472 146.489 329.378 153.236 328.163 159.961C328.501 161.541 328.812 163.123 329.097 164.723" fill="#B0C8FB"/>
<path d="M167.751 342.106C169.979 342.093 172.207 342.037 174.454 341.938C236.49 339.215 289.04 304.814 314.627 256.41C326.25 234.421 332.31 209.538 331.164 183.429C330.885 177.078 330.187 170.832 329.097 164.723C328.812 163.123 328.502 161.541 328.163 159.961C323.837 139.767 315.189 121.097 303.188 104.785C296.599 95.8274 288.998 87.5837 280.541 80.1762C279.41 79.1846 278.263 78.2075 277.1 77.2461C267.005 68.8984 255.777 61.7108 243.678 55.8994C221.277 45.1391 195.871 39.0906 169.036 39.0906C166.424 39.0906 163.804 39.1485 161.167 39.2644C70.9493 43.2243 0.788213 114.191 4.45706 197.772C4.69542 203.18 5.23403 208.5 6.06235 213.735H53.4914C51.1473 206.162 49.567 198.28 48.8296 190.171L20.0635 189.94C20.0082 189.939 19.9647 189.895 19.9634 189.84C19.9634 189.785 20.0082 189.74 20.0635 189.74L48.7716 189.509C48.4951 186.263 48.3555 182.986 48.3555 179.672C48.3555 163.165 51.8479 147.431 58.1729 133.089L31.9062 132.861C31.8523 132.86 31.8075 132.816 31.8075 132.761C31.8062 132.706 31.8509 132.661 31.9062 132.661L58.4666 132.429C65.3381 117.107 75.4491 103.397 87.9899 92.0664C91.8786 86.4406 96.1704 81.0888 100.864 76.1149L95.637 76.078C87.5724 75.9766 79.5065 75.9174 71.4418 75.7804C71.3878 75.7804 71.3444 75.737 71.3431 75.683C71.3431 75.6277 71.3865 75.5816 71.4418 75.5803C79.5065 75.4433 87.5724 75.384 95.637 75.284L101.696 75.2405C102.211 74.7059 102.731 74.1751 103.255 73.6484C109.323 67.5604 116.03 62.0953 123.314 57.5244C130.603 52.968 138.477 49.3373 146.707 46.8576C154.933 44.3687 163.52 43.0663 172.118 43.0505C180.716 43.0584 189.306 44.3542 197.535 46.8365C205.77 49.3097 213.65 52.9337 220.947 57.4849C228.238 62.0505 234.955 67.5117 241.033 73.597C241.588 74.1514 242.137 74.7124 242.681 75.2774C250.121 75.3577 257.562 75.4143 265.003 75.5315C265.082 75.5328 265.148 75.5974 265.149 75.679C265.151 75.7607 265.085 75.8291 265.003 75.8291C257.816 75.9437 250.629 75.999 243.442 76.0754C243.497 76.1347 243.554 76.1939 243.609 76.2532C266.354 89.4194 284.417 109.092 294.901 132.533L304.538 132.611C304.62 132.612 304.686 132.678 304.686 132.76C304.687 132.841 304.621 132.908 304.538 132.91L295.102 132.986C301.457 147.356 304.965 163.124 304.965 179.672C304.965 183.015 304.822 186.329 304.541 189.603L316.381 189.691C316.463 189.691 316.529 189.757 316.529 189.839C316.53 189.92 316.464 189.989 316.381 189.989L304.499 190.077C302.629 210.854 295.207 230.141 283.648 246.602L304.538 246.77C304.62 246.77 304.686 246.836 304.686 246.918C304.687 247.001 304.621 247.068 304.538 247.068L283.195 247.241C280.038 251.673 276.581 255.898 272.848 259.889C268.723 270.146 263.598 279.997 257.43 289.175C254.066 294.17 250.391 298.961 246.405 303.476H260.125C260.415 303.476 260.648 303.71 260.648 303.998C260.648 304.287 260.415 304.521 260.125 304.521H245.471C244.052 306.094 242.594 307.632 241.098 309.132C235.019 315.226 228.298 320.693 221.006 325.273C213.707 329.836 205.824 333.486 197.575 335.961C189.331 338.44 180.728 339.729 172.118 339.731C171.08 339.729 170.041 339.71 169.003 339.672C168.612 339.71 168.22 339.729 167.826 339.729C167.801 339.729 167.776 339.729 167.751 339.729V342.106M172.846 338.679C181.108 338.567 189.343 337.256 197.236 334.839C205.365 332.358 213.127 328.716 220.312 324.176C227.49 319.611 234.047 314.109 239.986 308.033C241.107 306.884 242.205 305.713 243.281 304.521H194.789C194.12 306.545 193.412 308.557 192.66 310.554C190.28 316.81 187.511 322.975 183.741 328.581C181.84 331.361 179.676 334.017 177 336.157C175.735 337.159 174.354 338.044 172.846 338.679M169.01 338.615C170.094 338.493 171.162 338.205 172.177 337.79C173.664 337.187 175.04 336.306 176.303 335.286C178.833 333.235 180.919 330.644 182.753 327.914C186.397 322.41 189.094 316.297 191.4 310.084C192.077 308.243 192.717 306.387 193.324 304.521H167.751V338.556C168.171 338.579 168.59 338.6 169.01 338.615M167.751 303.476H193.66C194.061 302.214 194.448 300.946 194.822 299.674C188.891 300.468 182.823 300.879 176.66 300.879C173.668 300.879 170.693 300.783 167.751 300.592V303.476ZM195.132 303.476H244.215C248.468 298.658 252.36 293.52 255.888 288.15C260.897 280.526 265.173 272.446 268.755 264.065C249.764 282.555 224.589 295.346 196.38 299.456C195.979 300.801 195.564 302.142 195.132 303.476M92.6214 88.0802C97.989 83.6818 103.748 79.6969 109.841 76.1781L102.589 76.1268C99.0293 79.9062 95.7068 83.9069 92.6214 88.0802M103.444 75.2286L111.617 75.1707C123.319 68.656 136.205 63.8481 149.906 61.1037C151.027 59.0863 152.236 57.1162 153.556 55.2159C155.487 52.4728 157.662 49.8601 160.292 47.7228C161.606 46.6614 163.038 45.7251 164.597 45.0364C165.834 44.4925 167.155 44.1106 168.503 43.9526C161.2 44.2844 153.945 45.546 146.955 47.6728C138.807 50.1485 131.036 53.8095 123.841 58.358C116.655 62.9316 110.082 68.4335 104.134 74.5162C103.903 74.7519 103.673 74.9903 103.444 75.2286ZM239.427 73.9328C233.652 68.1003 227.299 62.8157 220.371 58.3975C213.182 53.8437 205.419 50.1762 197.276 47.6938C189.136 45.2102 180.636 43.8999 172.118 43.8643C171.606 43.8657 171.093 43.8722 170.582 43.8828C171.947 43.9526 173.298 44.2594 174.563 44.7664C176.154 45.3919 177.605 46.3164 178.924 47.3791C181.559 49.5217 183.675 52.1976 185.517 55.0026C186.348 56.2773 187.124 57.5863 187.853 58.919C206.466 60.4387 223.939 65.7102 239.427 73.9328M151.015 60.8864C159.302 59.2969 167.876 58.4647 176.66 58.4647C180.09 58.4647 183.484 58.5911 186.846 58.84C186.216 57.6837 185.551 56.546 184.844 55.4358C183.064 52.6572 181.015 50.0142 178.486 47.9138C177.222 46.8721 175.835 45.97 174.325 45.3564C172.924 44.7796 171.417 44.4556 169.903 44.4556C169.792 44.4556 169.68 44.4582 169.568 44.4609C167.941 44.5043 166.339 44.9429 164.854 45.6105C163.366 46.2874 161.991 47.2066 160.726 48.2522C158.192 50.3566 156.08 52.943 154.208 55.6663C153.063 57.3559 152.002 59.0994 151.015 60.8864" fill="url(#paint1_linear_162_118)"/>
<path d="M176.66 300.879C182.823 300.879 188.891 300.468 194.822 299.674C195.664 296.806 196.439 293.915 197.161 291.013C198.765 284.56 200.103 278.039 201.248 271.486C202.631 263.55 203.737 255.567 204.616 247.558L168.222 247.625L131.004 247.55C131.331 250.513 131.689 253.472 132.08 256.427H165.799C166.746 256.427 167.751 256.992 167.751 257.684V300.592C170.693 300.783 173.668 300.879 176.66 300.879M196.38 299.457C224.589 295.347 249.764 282.556 268.755 264.065C271.095 258.592 273.139 252.993 274.898 247.308L270.459 247.343L236.38 247.5L206.469 247.555C205.52 255.662 204.339 263.743 202.875 271.777C201.674 278.354 200.278 284.898 198.615 291.38C197.919 294.085 197.179 296.779 196.38 299.457M272.848 259.889C276.581 255.898 280.038 251.673 283.194 247.241L277.357 247.288C276.015 251.543 274.514 255.749 272.848 259.889M122.946 256.427H130.284C129.873 253.471 129.497 250.511 129.152 247.546L122.946 247.533V256.427ZM283.647 246.602C295.207 230.141 302.629 210.854 304.499 190.077L285.743 190.216C285.747 190.588 285.749 190.961 285.752 191.332C285.712 199.945 285.142 208.553 284.007 217.091C282.867 225.625 281.144 234.085 278.828 242.381C278.43 243.776 278.016 245.167 277.587 246.552L283.647 246.602M275.136 246.532C275.621 244.941 276.083 243.345 276.524 241.743C278.767 233.544 280.393 225.182 281.496 216.757C282.602 208.331 283.15 199.834 283.175 191.332C283.173 190.968 283.172 190.601 283.169 190.235L279.341 190.263L242.301 190.421L235.469 190.432L237.821 194.572C238.374 195.545 237.912 196.795 236.851 197.146C230.074 199.393 221.879 200.061 214.519 200.061C212.836 200.061 211.196 200.025 209.628 199.967C209.418 210.663 208.89 221.352 208.013 232.015C207.62 236.778 207.156 241.535 206.615 246.285L236.38 246.339L270.459 246.495L275.136 246.532ZM122.946 246.306L129.007 246.293C127.071 229.226 126.183 212.042 126.054 194.873L108.154 195.213C108.08 195.214 108.005 195.216 107.932 195.216C104.102 195.216 100.704 193.323 98.6326 190.416L94.1421 190.408L60.9104 190.255C60.9078 190.615 60.9064 190.974 60.9064 191.332C60.9222 198.815 61.3437 206.301 62.1931 213.735H66.0476C67.6673 213.735 69.2568 215.067 69.2568 216.626V228.762H121.071C121.981 228.762 122.946 229.479 122.946 230.353V246.306M130.866 246.289L168.222 246.214L204.754 246.281C205.266 241.482 205.697 236.674 206.059 231.862C206.852 221.214 207.296 210.542 207.422 199.866C203.287 199.646 199.791 199.28 197.512 199.001C195.708 198.779 194.07 197.843 192.956 196.406L190.815 193.642L128.026 194.835C128.098 206.984 128.569 219.129 129.497 231.239C129.876 236.262 130.329 241.281 130.866 246.289M53.491 213.735H59.9846C59.1207 206.301 58.6796 198.816 58.6388 191.332C58.6414 190.97 58.644 190.608 58.6493 190.245L57.1033 190.237L48.8293 190.171C49.5667 198.28 51.147 206.162 53.491 213.735M304.541 189.603C304.822 186.329 304.965 183.015 304.965 179.673C304.965 163.125 301.457 147.356 295.102 132.986L276.59 133.135C277.375 135.505 278.109 137.893 278.793 140.294C281.116 148.586 282.845 157.043 283.991 165.578C285.049 173.495 285.621 181.475 285.733 189.464L304.541 189.603M48.7713 189.51L57.1033 189.443L58.6598 189.436C58.91 172.863 61.1356 156.308 65.5827 140.332C66.2648 137.93 66.997 135.54 67.7793 133.167L65.9843 133.157L58.1726 133.089C51.8476 147.431 48.3552 163.165 48.3552 179.673C48.3552 182.986 48.4948 186.264 48.7713 189.51M283.162 189.445C283.072 181.574 282.531 173.71 281.511 165.906C280.414 157.48 278.795 149.117 276.557 140.914C275.844 138.312 275.073 135.724 274.244 133.155L270.459 133.185L236.38 133.341L212.108 133.385L213.264 151.361L234.795 189.246L242.301 189.26L279.341 189.416L283.162 189.445M60.9183 189.425L94.1421 189.273L97.9123 189.265C97.026 187.644 96.523 185.783 96.523 183.801V133.31L69.8402 133.177C69.0158 135.727 68.2494 138.293 67.5383 140.874C63.2176 156.681 61.0934 173.05 60.9183 189.425M294.9 132.533C284.417 109.093 266.354 89.4197 243.609 76.2534C248.662 81.6184 253.247 87.4207 257.368 93.5323C265.441 105.527 271.735 118.676 276.34 132.383L294.9 132.533ZM58.4663 132.429L65.9843 132.363L68.0506 132.353C72.636 118.677 78.9083 105.559 86.9532 93.5876C87.2956 93.078 87.6406 92.571 87.9895 92.0666C75.4488 103.397 65.3378 117.107 58.4663 132.429M273.987 132.365C269.613 119.035 263.652 106.215 255.951 94.4752C251.673 87.9553 246.862 81.7778 241.515 76.0968C241.279 76.0994 241.043 76.102 240.808 76.106L216.613 76.2614C209.455 76.3206 202.299 76.3219 195.143 76.3351C196.887 81.6303 198.351 87.0137 199.641 92.4314C201.185 98.9382 202.469 105.503 203.57 112.095C204.215 115.972 204.799 119.861 205.327 123.756C209.077 124.786 211.834 128.134 212.03 132.136L236.38 132.18L270.459 132.336L273.987 132.365M70.1128 132.342L96.5493 132.211C96.9602 125.913 102.157 120.913 108.557 120.843C112.943 120.796 118.354 120.758 124.48 120.758C126.792 120.758 129.206 120.763 131.705 120.775C132.225 117.706 132.785 114.643 133.387 111.588C134.693 105.031 136.203 98.5141 137.987 92.068C139.463 86.7543 141.118 81.4854 143.049 76.3153L119.832 76.2482L109.841 76.1784C103.747 79.6971 97.9887 83.682 92.6211 88.0804C91.0895 90.1519 89.6159 92.2668 88.2016 94.4186C80.4794 106.167 74.5033 119 70.1128 132.342M203.693 123.464C203.226 119.744 202.708 116.031 202.133 112.327C201.108 105.75 199.901 99.2015 198.436 92.7119C197.186 87.1968 195.756 81.7199 194.036 76.3378C193.496 76.3391 192.957 76.3403 192.417 76.3417L168.222 76.3878L144.164 76.318C142.247 81.5895 140.616 86.9663 139.173 92.3906C137.47 98.821 136.039 105.324 134.809 111.863C134.25 114.829 133.734 117.804 133.256 120.784C135.207 120.796 137.206 120.812 139.247 120.833C139.235 120.731 139.224 120.631 139.215 120.53C137.57 103.688 147.132 93.9234 147.132 93.9234C151.491 87.102 157.545 85.6573 161.892 85.6573C165.089 85.6573 167.365 86.4383 167.365 86.4383L193.942 117.363L197.119 122.952C199.327 123.11 201.514 123.281 203.67 123.463C203.678 123.463 203.685 123.464 203.693 123.464M240.716 75.2566C240.494 75.0261 240.273 74.797 240.051 74.5678C239.842 74.3558 239.634 74.1438 239.426 73.9331C223.938 65.7105 206.466 60.4389 187.853 58.9192C188.735 60.5298 189.549 62.1772 190.313 63.8444C191.713 66.8904 192.939 70.0101 194.061 73.1627C194.28 73.783 194.495 74.4045 194.706 75.0261C202.008 75.0406 209.31 75.0406 216.613 75.1012L240.716 75.2566M111.617 75.171L119.832 75.113L143.529 75.0459C143.787 74.3729 144.051 73.7013 144.318 73.0324C145.962 68.9658 147.772 64.9467 149.906 61.104C136.205 63.8484 123.319 68.6563 111.617 75.171ZM144.635 75.0419L168.222 74.9748L192.417 75.0209C192.815 75.0222 193.213 75.0222 193.611 75.0235C193.442 74.5139 193.272 74.0055 193.098 73.4985C192.02 70.3564 190.837 67.2486 189.485 64.2184C188.672 62.3932 187.799 60.593 186.846 58.8402C183.484 58.5913 180.09 58.4649 176.66 58.4649C167.876 58.4649 159.302 59.2972 151.014 60.8867C148.793 64.9006 146.933 69.1265 145.258 73.4037C145.048 73.9489 144.84 74.4954 144.635 75.0419" fill="url(#paint2_linear_162_118)"/>
<path d="M167.826 339.729C168.22 339.729 168.612 339.71 169.003 339.672C168.586 339.656 168.168 339.637 167.751 339.616V339.729C167.776 339.729 167.801 339.729 167.826 339.729M172.118 338.685C172.36 338.684 172.604 338.681 172.846 338.679C174.354 338.044 175.735 337.159 176.999 336.157C179.675 334.017 181.84 331.361 183.741 328.581C187.511 322.975 190.28 316.81 192.66 310.554C193.412 308.557 194.12 306.545 194.789 304.521H193.324C192.717 306.387 192.077 308.243 191.4 310.084C189.094 316.297 186.397 322.41 182.753 327.914C180.919 330.644 178.833 333.235 176.303 335.286C175.04 336.306 173.664 337.187 172.177 337.79C171.162 338.205 170.094 338.493 169.01 338.615C170.045 338.658 171.081 338.681 172.118 338.685" fill="url(#paint3_linear_162_118)"/>
<path d="M130.284 256.427H132.08C131.689 253.472 131.331 250.513 131.004 247.55L129.151 247.546C129.496 250.51 129.873 253.471 130.284 256.427Z" fill="url(#paint4_linear_162_118)"/>
<path d="M193.66 303.476H195.132C195.564 302.142 195.979 300.801 196.38 299.456C195.862 299.532 195.343 299.605 194.822 299.674C194.448 300.946 194.061 302.214 193.66 303.476Z" fill="url(#paint5_linear_162_118)"/>
<path d="M194.822 299.674C195.342 299.605 195.861 299.532 196.38 299.457C197.179 296.779 197.919 294.085 198.615 291.38C200.278 284.898 201.674 278.353 202.875 271.777C204.339 263.743 205.521 255.662 206.469 247.555L204.616 247.558C203.737 255.567 202.631 263.55 201.249 271.486C200.103 278.039 198.765 284.56 197.161 291.013C196.439 293.915 195.664 296.806 194.822 299.674M129.007 246.292L130.866 246.289C130.329 241.28 129.876 236.262 129.497 231.239C128.57 219.129 128.098 206.983 128.026 194.835L126.054 194.873C126.183 212.042 127.071 229.226 129.007 246.292M206.615 246.285C207.156 241.535 207.62 236.778 208.013 232.015C208.89 221.352 209.419 210.663 209.628 199.967C208.876 199.938 208.139 199.904 207.422 199.866C207.296 210.542 206.852 221.214 206.059 231.862C205.697 236.674 205.266 241.482 204.754 246.281L206.615 246.285M205.327 123.756C204.799 119.861 204.216 115.972 203.57 112.095C202.469 105.503 201.185 98.938 199.641 92.4313C198.351 87.0136 196.887 81.6302 195.143 76.335C194.775 76.3363 194.405 76.3363 194.036 76.3376C195.756 81.7198 197.186 87.1967 198.436 92.7118C199.901 99.2014 201.108 105.75 202.134 112.327C202.708 116.031 203.227 119.744 203.693 123.464C204.254 123.512 204.8 123.611 205.327 123.756M133.256 120.784C133.734 117.804 134.251 114.829 134.809 111.863C136.039 105.324 137.47 98.8208 139.173 92.3905C140.616 86.9662 142.247 81.5894 144.164 76.3179L143.049 76.3152C141.118 81.4853 139.463 86.7542 137.987 92.0679C136.204 98.514 134.693 105.031 133.387 111.588C132.785 114.643 132.225 117.706 131.705 120.775C132.22 120.777 132.735 120.781 133.256 120.784" fill="url(#paint6_linear_162_118)"/>
<path d="M149.906 61.1038C150.272 61.03 150.647 60.9563 151.015 60.8865C152.003 59.0995 153.063 57.3559 154.208 55.6663C156.08 52.943 158.192 50.3566 160.726 48.2523C161.991 47.2066 163.366 46.2875 164.854 45.6106C166.34 44.9429 167.941 44.5044 169.569 44.4609C169.68 44.4583 169.792 44.4557 169.903 44.4557C171.417 44.4557 172.924 44.7796 174.325 45.3564C175.836 45.9701 177.222 46.8722 178.486 47.9138C181.015 50.0143 183.064 52.6572 184.844 55.4359C185.552 56.546 186.217 57.6838 186.846 58.84C187.182 58.865 187.519 58.8914 187.854 58.919C187.124 57.5863 186.348 56.2774 185.517 55.0026C183.675 52.1976 181.559 49.5217 178.924 47.3792C177.606 46.3164 176.154 45.392 174.563 44.7665C173.298 44.2595 171.947 43.9526 170.583 43.8828C169.889 43.8986 169.196 43.921 168.503 43.9526C167.155 44.1106 165.834 44.4925 164.597 45.0364C163.038 45.7252 161.607 46.6615 160.292 47.7229C157.663 49.8602 155.487 52.4729 153.556 55.216C152.236 57.1162 151.027 59.0863 149.906 61.1038" fill="url(#paint7_linear_162_118)"/>
<path d="M143.53 75.0459L144.636 75.042C144.84 74.4955 145.048 73.9489 145.259 73.4038C146.934 69.1265 148.793 64.9006 151.015 60.8867C150.647 60.9565 150.272 61.0303 149.906 61.104C147.773 64.9467 145.962 68.9659 144.318 73.0324C144.051 73.7014 143.788 74.373 143.53 75.0459M194.707 75.0261C194.496 74.4046 194.28 73.783 194.061 73.1627C192.939 70.0101 191.713 66.8904 190.313 63.8445C189.55 62.1773 188.736 60.5299 187.853 58.9193C187.519 58.8916 187.182 58.8653 186.846 58.8403C187.799 60.5931 188.673 62.3933 189.485 64.2185C190.838 67.2486 192.02 70.3565 193.099 73.4986C193.272 74.0056 193.442 74.5139 193.611 75.0235C193.976 75.0248 194.34 75.0248 194.707 75.0261" fill="url(#paint8_linear_162_118)"/>
<path d="M172.118 339.731C180.727 339.73 189.331 338.44 197.574 335.961C205.823 333.486 213.706 329.836 221.006 325.273C228.297 320.693 235.019 315.226 241.097 309.132C242.593 307.632 244.051 306.094 245.471 304.521H243.281C242.205 305.713 241.107 306.884 239.986 308.033C234.047 314.11 227.49 319.612 220.312 324.176C213.127 328.717 205.365 332.358 197.236 334.839C189.342 337.257 181.108 338.567 172.846 338.679C172.758 338.716 172.669 338.753 172.58 338.787C171.442 339.246 170.233 339.551 169.003 339.672C170.041 339.71 171.08 339.73 172.118 339.731ZM167.844 338.683C168.234 338.683 168.623 338.66 169.01 338.616C168.59 338.6 168.171 338.579 167.751 338.556V338.683C167.782 338.683 167.813 338.683 167.844 338.683ZM244.215 303.476H246.405C250.391 298.961 254.066 294.171 257.43 289.176C263.598 279.997 268.723 270.147 272.848 259.889C271.518 261.312 270.153 262.704 268.755 264.065C265.173 272.446 260.897 280.526 255.887 288.15C252.36 293.52 248.468 298.659 244.215 303.476Z" fill="url(#paint9_linear_162_118)"/>
<path d="M268.755 264.065C270.153 262.703 271.518 261.311 272.848 259.889C274.514 255.749 276.015 251.543 277.357 247.288L274.898 247.308C273.139 252.993 271.095 258.592 268.755 264.065M277.587 246.552C278.016 245.166 278.43 243.776 278.828 242.381C281.144 234.085 282.867 225.625 284.007 217.09C285.142 208.553 285.712 199.944 285.752 191.332C285.749 190.961 285.747 190.588 285.743 190.215L283.169 190.235C283.172 190.601 283.173 190.967 283.175 191.332C283.15 199.834 282.602 208.33 281.496 216.757C280.393 225.181 278.767 233.543 276.524 241.742C276.083 243.345 275.621 244.941 275.136 246.532L277.587 246.552" fill="url(#paint10_linear_162_118)"/>
<path d="M59.985 213.735H62.1935C61.3441 206.301 60.9226 198.815 60.9068 191.332C60.9068 190.974 60.9081 190.615 60.9108 190.255L58.6497 190.244C58.6444 190.608 58.6418 190.97 58.6392 191.332C58.68 198.816 59.1211 206.301 59.985 213.735ZM285.734 189.464C285.622 181.475 285.049 173.495 283.992 165.578C282.846 157.043 281.117 148.586 278.794 140.294C278.109 137.893 277.375 135.505 276.591 133.135L274.244 133.155C275.074 135.724 275.844 138.312 276.558 140.914C278.795 149.117 280.415 157.48 281.512 165.906C282.531 173.71 283.072 181.574 283.162 189.445L285.734 189.464M58.6602 189.436L60.9187 189.425C61.0939 173.05 63.218 156.681 67.5387 140.874C68.2498 138.293 69.0162 135.727 69.8406 133.177L67.7797 133.167C66.9975 135.54 66.2653 137.93 65.5831 140.332C61.136 156.308 58.9105 172.863 58.6602 189.436Z" fill="url(#paint11_linear_162_118)"/>
<path d="M243.609 76.2532C243.554 76.1938 243.497 76.1344 243.441 76.0751C243.397 76.0764 243.35 76.0764 243.304 76.0777C243.405 76.1344 243.509 76.1951 243.609 76.2532Z" fill="url(#paint12_linear_162_118)"/>
<path d="M276.34 132.383C271.735 118.675 265.442 105.526 257.368 93.532C253.247 87.4203 248.662 81.6181 243.609 76.2531C243.509 76.1952 243.405 76.1346 243.305 76.078C242.708 76.0832 242.112 76.0898 241.515 76.0964C246.862 81.7775 251.673 87.955 255.951 94.4749C263.652 106.215 269.613 119.035 273.987 132.364L276.34 132.383" fill="url(#paint13_linear_162_118)"/>
<path d="M87.9893 92.0667C89.4985 90.7024 91.0432 89.3749 92.6209 88.0804C95.7063 83.9072 99.0288 79.9065 102.588 76.1271L100.863 76.1152C96.1699 81.0891 91.8781 86.4409 87.9893 92.0667" fill="url(#paint14_linear_162_118)"/>
<path d="M68.0506 132.352L70.1128 132.342C74.5033 118.999 80.4794 106.166 88.2016 94.418C89.616 92.2662 91.0896 90.1513 92.6211 88.0798C91.0435 89.3743 89.4987 90.7018 87.9896 92.0661C87.6406 92.5704 87.2956 93.0774 86.9532 93.5871C78.9083 105.559 72.636 118.676 68.0506 132.352" fill="url(#paint15_linear_162_118)"/>
<path d="M242.681 75.2773C242.137 74.7124 241.588 74.1514 241.033 73.597C234.954 67.5116 228.238 62.0505 220.947 57.4849C213.65 52.9337 205.77 49.3096 197.535 46.8365C189.306 44.3542 180.716 43.0584 172.118 43.0505C163.52 43.0663 154.932 44.3687 146.707 46.8576C138.477 49.3373 130.603 52.9679 123.314 57.5244C116.03 62.0953 109.323 67.5604 103.255 73.6483C102.731 74.1751 102.211 74.7058 101.696 75.2405L103.443 75.2286C103.673 74.9902 103.903 74.7519 104.134 74.5162C110.082 68.4335 116.655 62.9315 123.841 58.358C131.036 53.8094 138.807 50.1485 146.955 47.6727C153.945 45.546 161.2 44.2844 168.503 43.9525C168.851 43.9117 169.2 43.8867 169.55 43.8762C169.695 43.8709 169.841 43.8682 169.986 43.8682C170.185 43.8682 170.384 43.8735 170.582 43.8827C171.093 43.8722 171.606 43.8656 172.118 43.8643C180.635 43.8999 189.136 45.2102 197.276 47.6938C205.419 50.1761 213.182 53.8437 220.371 58.3975C227.299 62.8156 233.652 68.1003 239.427 73.9328C240.246 74.3687 241.07 74.8164 241.879 75.2681C242.146 75.2721 242.413 75.2747 242.681 75.2773" fill="url(#paint16_linear_162_118)"/>
<path d="M241.879 75.2683C241.07 74.8166 240.246 74.3689 239.427 73.933C239.635 74.1437 239.843 74.3557 240.051 74.5677C240.273 74.7969 240.495 75.026 240.716 75.2565H240.808C241.165 75.2604 241.522 75.2644 241.879 75.2683" fill="url(#paint17_linear_162_118)"/>
<path d="M169.003 339.672C170.233 339.55 171.442 339.246 172.58 338.787C172.67 338.752 172.758 338.716 172.846 338.679C172.604 338.681 172.36 338.684 172.118 338.685C171.081 338.681 170.045 338.658 169.01 338.615C168.623 338.66 168.234 338.683 167.845 338.683C167.813 338.683 167.783 338.683 167.751 338.683V339.616C168.168 339.637 168.586 339.656 169.003 339.672ZM168.503 43.9527C169.196 43.9211 169.888 43.8987 170.582 43.8829C170.383 43.8737 170.185 43.8684 169.986 43.8684C169.841 43.8684 169.695 43.8711 169.55 43.8763C169.2 43.8869 168.851 43.9119 168.503 43.9527" fill="url(#paint18_linear_162_118)"/>
<path d="M212.108 133.385L236.381 133.34L270.459 133.185L274.244 133.155C274.16 132.891 274.073 132.627 273.987 132.365L270.459 132.336L236.381 132.18L212.03 132.136C212.033 132.175 212.034 132.215 212.036 132.254L212.108 133.385ZM96.5235 133.31V133.018C96.5235 132.747 96.5314 132.477 96.5498 132.211L70.1133 132.342C70.0224 132.62 69.9316 132.899 69.8407 133.177L96.5235 133.31Z" fill="url(#paint19_linear_162_118)"/>
<path d="M58.1724 133.089C58.2698 132.869 58.3673 132.648 58.4661 132.429L31.9058 132.661C31.8504 132.661 31.8057 132.706 31.807 132.761C31.807 132.816 31.8518 132.86 31.9058 132.861L58.1724 133.089" fill="url(#paint20_linear_162_118)"/>
<path d="M67.7795 133.167C67.8691 132.895 67.9599 132.624 68.0508 132.353L65.9846 132.363L58.4665 132.429C58.3677 132.648 58.2703 132.869 58.1728 133.089L65.9846 133.157L67.7795 133.167" fill="url(#paint21_linear_162_118)"/>
<path d="M295.102 132.986L304.538 132.91C304.62 132.908 304.687 132.841 304.686 132.76C304.685 132.678 304.619 132.612 304.538 132.611L294.9 132.533C294.967 132.682 295.036 132.836 295.102 132.986" fill="url(#paint22_linear_162_118)"/>
<path d="M276.59 133.135L295.101 132.986C295.036 132.836 294.967 132.682 294.9 132.533L276.34 132.383C276.424 132.634 276.507 132.883 276.59 133.135" fill="url(#paint23_linear_162_118)"/>
<path d="M69.8401 133.177C69.9309 132.899 70.0218 132.62 70.1127 132.342L68.0504 132.352C67.9596 132.624 67.8687 132.895 67.7791 133.166L69.8401 133.177M274.243 133.154L276.59 133.135C276.507 132.883 276.424 132.634 276.34 132.383L273.987 132.364C274.072 132.626 274.159 132.891 274.243 133.154Z" fill="url(#paint24_linear_162_118)"/>
<path d="M168.222 76.3872L192.417 76.3411C192.957 76.3398 193.496 76.3385 194.036 76.3372C193.896 75.8987 193.754 75.4601 193.61 75.0229C193.213 75.0216 192.815 75.0216 192.417 75.0203L168.222 74.9742L144.635 75.0414C144.476 75.4667 144.319 75.8921 144.164 76.3174L168.222 76.3872M195.143 76.3345C202.299 76.3214 209.455 76.3201 216.613 76.2608L240.808 76.1054C241.043 76.1014 241.279 76.0988 241.515 76.0962C241.249 75.8157 240.983 75.5352 240.716 75.256L216.613 75.1006C209.31 75.04 202.008 75.04 194.706 75.0255C194.854 75.4614 194.998 75.8973 195.143 76.3345" fill="url(#paint25_linear_162_118)"/>
<path d="M109.84 76.1782C110.428 75.8385 111.022 75.5013 111.617 75.1708L103.443 75.2288C103.156 75.5264 102.872 75.8266 102.588 76.1269L109.84 76.1782" fill="url(#paint26_linear_162_118)"/>
<path d="M143.049 76.3152C143.207 75.8911 143.367 75.4684 143.529 75.0457L119.832 75.1129L111.617 75.1708C111.022 75.5013 110.428 75.8385 109.841 76.1782L119.832 76.248L143.049 76.3152" fill="url(#paint27_linear_162_118)"/>
<path d="M100.864 76.1147C101.14 75.8224 101.417 75.5314 101.696 75.2403L95.6369 75.2838C87.5723 75.3839 79.5063 75.4431 71.4417 75.5801C71.3864 75.5814 71.3429 75.6275 71.3429 75.6828C71.3443 75.7368 71.3877 75.7803 71.4417 75.7803C79.5063 75.9172 87.5723 75.9765 95.6369 76.0779L100.864 76.1147M243.442 76.0752C250.629 75.9989 257.816 75.9435 265.003 75.829C265.085 75.829 265.151 75.7605 265.149 75.6789C265.148 75.5972 265.082 75.5327 265.003 75.5314C257.561 75.4142 250.121 75.3575 242.681 75.2772C242.935 75.5419 243.19 75.8092 243.442 76.0752" fill="url(#paint28_linear_162_118)"/>
<path d="M194.036 76.3374C194.405 76.3361 194.775 76.3361 195.144 76.3348C194.999 75.8975 194.854 75.4617 194.707 75.0258C194.341 75.0244 193.976 75.0245 193.611 75.0231C193.754 75.4603 193.897 75.8989 194.036 76.3374M144.164 76.3176C144.32 75.8923 144.477 75.4669 144.636 75.0416L143.53 75.0455C143.368 75.4682 143.207 75.891 143.049 76.315L144.164 76.3176Z" fill="url(#paint29_linear_162_118)"/>
<path d="M102.589 76.1272C102.872 75.8269 103.156 75.5267 103.443 75.2291L101.696 75.2409C101.417 75.532 101.14 75.823 100.864 76.1153L102.589 76.1272M243.305 76.0785C243.351 76.0771 243.397 76.0772 243.442 76.0758C243.19 75.8098 242.935 75.5425 242.681 75.2778C242.413 75.2752 242.146 75.2725 241.879 75.2686C242.358 75.5359 242.831 75.8045 243.305 76.0785Z" fill="url(#paint30_linear_162_118)"/>
<path d="M241.515 76.0962C242.112 76.0896 242.708 76.083 243.305 76.0777C242.831 75.8038 242.358 75.5352 241.879 75.2679C241.522 75.2639 241.165 75.26 240.808 75.256H240.716C240.983 75.5352 241.249 75.8157 241.515 76.0962" fill="url(#paint31_linear_162_118)"/>
<path d="M235.469 190.431L242.301 190.421L279.341 190.263L283.17 190.235C283.167 189.972 283.164 189.708 283.162 189.445L279.341 189.416L242.301 189.259L234.795 189.246L235.469 190.431ZM98.6329 190.415C98.3709 190.048 98.1312 189.663 97.9126 189.264L94.1423 189.272L60.9186 189.425C60.9146 189.702 60.9133 189.978 60.9107 190.255L94.1423 190.407L98.6329 190.415" fill="url(#paint32_linear_162_118)"/>
<path d="M48.8296 190.17C48.8098 189.95 48.7901 189.729 48.7716 189.509L20.0635 189.74C20.0082 189.74 19.9634 189.785 19.9634 189.84C19.9647 189.895 20.0082 189.939 20.0635 189.94L48.8296 190.17" fill="url(#paint33_linear_162_118)"/>
<path d="M58.6491 190.244C58.6518 189.975 58.6557 189.704 58.6597 189.435L57.1031 189.442L48.7712 189.509C48.7896 189.729 48.8093 189.95 48.8291 190.17L57.1031 190.236L58.6491 190.244" fill="url(#paint34_linear_162_118)"/>
<path d="M304.499 190.077L316.381 189.989C316.464 189.989 316.53 189.92 316.529 189.839C316.529 189.757 316.463 189.691 316.381 189.691L304.541 189.603C304.527 189.763 304.514 189.916 304.499 190.077" fill="url(#paint35_linear_162_118)"/>
<path d="M285.743 190.215L304.499 190.077C304.514 189.916 304.527 189.764 304.541 189.603L285.734 189.463C285.737 189.715 285.74 189.965 285.743 190.215Z" fill="url(#paint36_linear_162_118)"/>
<path d="M60.9106 190.255C60.9132 189.978 60.9145 189.702 60.9185 189.425L58.66 189.436C58.6561 189.704 58.6521 189.976 58.6495 190.244L60.9106 190.255ZM283.17 190.235L285.743 190.215C285.74 189.965 285.738 189.715 285.734 189.463L283.162 189.445C283.164 189.708 283.167 189.972 283.17 190.235Z" fill="url(#paint37_linear_162_118)"/>
<path d="M168.222 247.625L204.616 247.558C204.663 247.132 204.709 246.706 204.754 246.28L168.222 246.213L130.866 246.288C130.912 246.708 130.957 247.13 131.005 247.55L168.222 247.625ZM206.469 247.555L236.381 247.5L270.459 247.343L274.898 247.308C274.979 247.05 275.058 246.79 275.137 246.532L270.459 246.495L236.381 246.338L206.615 246.284C206.568 246.707 206.518 247.131 206.469 247.555" fill="url(#paint38_linear_162_118)"/>
<path d="M129.152 247.546C129.103 247.127 129.054 246.711 129.007 246.292L122.946 246.306V247.533L129.152 247.546Z" fill="url(#paint39_linear_162_118)"/>
<path d="M283.194 247.24L304.538 247.068C304.62 247.068 304.687 247.001 304.686 246.918C304.685 246.836 304.619 246.77 304.538 246.77L283.647 246.602C283.496 246.816 283.347 247.026 283.194 247.24Z" fill="url(#paint40_linear_162_118)"/>
<path d="M277.357 247.288L283.195 247.24C283.347 247.026 283.496 246.816 283.648 246.602L277.587 246.552C277.511 246.797 277.433 247.043 277.357 247.288" fill="url(#paint41_linear_162_118)"/>
<path d="M204.616 247.558L206.469 247.555C206.518 247.131 206.568 246.707 206.615 246.285L204.754 246.281C204.71 246.706 204.664 247.133 204.616 247.558ZM131.005 247.55C130.957 247.13 130.913 246.709 130.866 246.289L129.007 246.293C129.054 246.711 129.103 247.127 129.152 247.546L131.005 247.55Z" fill="url(#paint42_linear_162_118)"/>
<path d="M274.898 247.307L277.356 247.288C277.433 247.043 277.511 246.796 277.587 246.551L275.136 246.532C275.057 246.79 274.978 247.049 274.898 247.307Z" fill="url(#paint43_linear_162_118)"/>
<path d="M167.751 304.521H193.323C193.437 304.174 193.548 303.825 193.659 303.476H167.751V304.521ZM194.789 304.521H243.281C243.594 304.175 243.905 303.827 244.214 303.476H195.131C195.018 303.825 194.904 304.174 194.789 304.521ZM245.471 304.521H260.125C260.415 304.521 260.648 304.287 260.648 303.998C260.648 303.71 260.415 303.476 260.125 303.476H246.404C246.095 303.826 245.784 304.175 245.471 304.521" fill="url(#paint44_linear_162_118)"/>
<path d="M193.324 304.521H194.789C194.904 304.174 195.019 303.825 195.132 303.476H193.66C193.549 303.825 193.437 304.174 193.324 304.521Z" fill="url(#paint45_linear_162_118)"/>
<path d="M243.281 304.521H245.471C245.784 304.175 246.095 303.826 246.405 303.476H244.215C243.905 303.827 243.594 304.175 243.281 304.521Z" fill="url(#paint46_linear_162_118)"/>
<path d="M126.766 70.0401L60.895 18.5064C60.6566 18.3207 60.4815 18.0652 60.3933 17.7755L56.3056 4.4262C56.195 4.06669 55.9514 3.76249 55.6235 3.57681L52.9687 2.06897C52.704 1.91885 52.3997 1.85301 52.0982 1.8833L43.8439 2.6866C43.1776 2.75113 42.639 3.25812 42.5323 3.9192L41.9068 7.78033C41.8462 8.15564 41.9331 8.54149 42.1504 8.85491L43.2579 10.4549C43.5766 10.9145 43.6069 11.515 43.3369 12.0049C43.0367 12.5514 43.1078 13.2283 43.5252 13.6918C44.8909 15.2155 48.3306 18.5828 53.8391 20.9426C54.0274 21.023 54.1999 21.1428 54.3395 21.2942L117.465 87.7141C118.027 88.3251 127.47 70.5893 126.766 70.0401" fill="url(#paint47_linear_162_118)"/>
<path d="M51.2104 13.5325C51.2657 13.5325 51.3223 13.5193 51.3737 13.4903C51.5383 13.3995 51.5989 13.1927 51.508 13.0281C51.4264 12.8793 49.4748 9.39085 47.0227 10.1428C45.104 10.7328 44.5667 10.5115 44.5614 10.5089C44.4061 10.4049 44.2072 10.4549 44.1018 10.6116C43.9978 10.7683 44.0531 10.9869 44.2098 11.0923C44.3613 11.1924 45.0263 11.4689 47.2229 10.7933C49.1508 10.1981 50.8943 13.3244 50.9115 13.356C50.9734 13.4693 51.0906 13.5325 51.2104 13.5325Z" fill="url(#paint48_linear_162_118)"/>
<path d="M126.58 69.8847L156.344 94.8279L147.132 116.123L113.683 85.1791C120.143 80.7464 124.631 75.7067 126.58 69.8847" fill="url(#paint49_linear_162_118)"/>
<path d="M321.313 326.899C321.032 323.128 319.801 320.474 318.487 318.666C321.296 319.584 322.353 321.671 323.008 327.255C323.786 333.896 325.18 351.877 325.547 355.856C325.913 359.836 324.273 361.785 323.008 363.079C322.592 363.506 321.936 363.308 321.164 362.704C322.743 360.687 323.373 358.628 323.688 356.933C324.186 354.261 321.966 335.687 321.313 326.899" fill="url(#paint50_linear_162_118)"/>
<path d="M302.943 321.685L307.824 315.358C307.824 315.358 312.508 317.59 316.7 318.251C317.367 318.355 317.955 318.492 318.487 318.666C319.801 320.474 321.033 323.127 321.313 326.899C321.967 335.686 324.186 354.261 323.689 356.933C323.373 358.628 322.743 360.686 321.165 362.704C319.591 361.47 317.523 358.511 315.956 355.487C313.619 350.982 305.703 337.494 303.847 332.46C301.991 327.424 302.943 321.685 302.943 321.685" fill="url(#paint51_linear_162_118)"/>
<path d="M236.529 264.2C235.628 260.527 233.974 258.113 232.38 256.547C235.302 256.987 236.69 258.871 238.26 264.269C240.126 270.689 244.477 288.192 245.496 292.057C246.516 295.921 245.221 298.115 244.187 299.6C243.847 300.09 243.169 300.003 242.308 299.534C243.53 297.284 243.812 295.15 243.842 293.427C243.891 290.708 238.628 272.758 236.529 264.2Z" fill="url(#paint52_linear_162_118)"/>
<path d="M217.55 262.096L221.317 255.049C221.317 255.049 226.305 256.474 230.548 256.432C231.224 256.426 231.827 256.464 232.38 256.547C233.975 258.113 235.629 260.526 236.529 264.199C238.628 272.758 243.891 290.708 243.842 293.426C243.812 295.15 243.53 297.283 242.308 299.534C240.551 298.578 238.023 296.002 235.976 293.28C232.926 289.223 222.888 277.231 220.224 272.573C217.561 267.914 217.55 262.096 217.55 262.096Z" fill="url(#paint53_linear_162_118)"/>
<path d="M302.943 306.29C303.799 307.411 310.034 318.756 311.384 321.216C311.611 321.629 311.761 322.075 311.817 322.543C311.972 323.82 311.842 326.263 309.156 328.044C307.513 329.131 305.303 328.756 304.111 327.188L292.778 312.265L302.943 306.29" fill="url(#paint54_linear_162_118)"/>
<path d="M215.002 246.914C216.032 247.878 224.059 258.034 225.797 260.237C226.089 260.607 226.312 261.022 226.445 261.475C226.808 262.709 227.084 265.138 224.73 267.339C223.29 268.685 221.047 268.679 219.611 267.329L207.424 253.266L215.002 246.914" fill="url(#paint55_linear_162_118)"/>
<path d="M199.728 193.419C199.728 190.271 181.66 191.389 165.822 189.558C157.504 188.597 152.574 198.599 158.401 204.611L206.366 254.108C207.37 255.143 208.876 255.533 210.248 255.086C212.131 254.473 214.861 253.344 217.286 251.433C218.701 250.318 218.956 248.265 217.919 246.79L195.872 215.397L215.986 221.199L292.319 315.618C293.58 317.178 295.804 317.548 297.503 316.482C299.75 315.073 302.744 312.95 304.719 310.6C305.761 309.359 305.828 307.571 304.942 306.216C296.521 293.35 250.758 223.251 248.588 215.97C246.198 207.948 237.416 193.261 229.205 192.737C220.995 192.214 199.728 193.419 199.728 193.419Z" fill="url(#paint56_linear_162_118)"/>
<path d="M194.667 214.981C194.894 214.981 195.099 214.83 195.161 214.602C195.232 214.329 195.07 214.049 194.797 213.976L176.702 209.179C176.427 209.106 176.149 209.268 176.077 209.541C176.004 209.813 176.167 210.094 176.44 210.166L194.535 214.964C194.579 214.976 194.624 214.981 194.667 214.981" fill="url(#paint57_linear_162_118)"/>
<path d="M214.188 219.881C214.312 219.881 214.437 219.836 214.535 219.745C214.743 219.554 214.755 219.23 214.564 219.024L210.044 214.123C209.853 213.915 209.529 213.904 209.322 214.094C209.116 214.285 209.103 214.609 209.293 214.816L213.813 219.716C213.914 219.826 214.051 219.881 214.188 219.881Z" fill="url(#paint58_linear_162_118)"/>
<path d="M214.519 200.06C221.879 200.06 230.074 199.393 236.851 197.146C237.912 196.794 238.374 195.545 237.821 194.572L235.469 190.431L234.795 189.246L213.264 151.36L215.193 181.353C215.429 187.846 210.294 193.272 203.797 193.396L190.815 193.642L192.956 196.406C194.07 197.843 195.709 198.779 197.513 199C199.791 199.279 203.287 199.645 207.422 199.865C208.139 199.904 208.876 199.938 209.628 199.967C211.197 200.025 212.836 200.06 214.519 200.06M197.119 122.951L193.943 117.362L167.365 86.4379C167.365 86.4379 165.09 85.657 161.892 85.657C157.545 85.657 151.491 87.1016 147.133 93.9231C147.133 93.9231 137.571 103.688 139.215 120.53C139.225 120.631 139.235 120.731 139.247 120.832C157.017 121.014 177.937 121.57 197.119 122.951" fill="url(#paint59_linear_162_118)"/>
<path d="M285.855 163.398C286.011 163.398 286.164 163.314 286.245 163.166C286.362 162.952 286.281 162.683 286.067 162.566C285.88 162.465 267.343 152.371 263.395 149.103C263.207 148.947 262.928 148.973 262.771 149.163C262.616 149.351 262.641 149.63 262.83 149.786C266.844 153.108 284.878 162.928 285.644 163.344C285.711 163.381 285.784 163.398 285.855 163.398Z" fill="url(#paint60_linear_162_118)"/>
<path d="M144.812 64.8855L159.236 85.2512C160.174 86.576 160.046 88.3709 158.937 89.5548C156.993 91.6289 153.717 94.5524 150.184 95.22C149.087 95.4268 147.97 94.9659 147.362 94.0309L139.691 82.2566C139.691 82.2566 138.222 63.7596 144.812 64.8855" fill="url(#paint61_linear_162_118)"/>
<path d="M140.74 47.8638C140.449 48.139 128.434 71.7337 128.434 71.7337L142.052 78.3076L156.762 57.6364C156.762 57.6364 145.622 43.2692 140.74 47.8638Z" fill="url(#paint62_linear_162_118)"/>
<path d="M150.573 60.1173L143.781 71.4386C143.678 71.6098 143.556 71.7652 143.409 71.9021C142.601 72.6554 139.834 74.8441 137.695 71.864C135.873 69.3237 134.162 67.0139 132.331 66.0618C131.26 65.506 129.943 65.9498 129.399 67.027C128.281 69.2447 126.113 73.7655 124.752 78.0533C124.411 79.1266 124.965 80.2815 126.009 80.7042C128.767 81.8209 134.218 83.8424 139.053 84.5087C139.847 84.6193 140.635 84.2835 141.106 83.6356C143.187 80.7859 149.052 72.82 151.053 70.8263C152.913 68.9734 156.345 69.6727 157.891 70.1165C158.477 70.285 159.103 70.2047 159.626 69.8886C161.195 68.9444 163.933 66.5911 161.428 62.6062C160.806 61.6159 161.123 60.2964 162.101 59.6525C163.853 58.5002 165.753 56.3378 163.942 52.8349C162.109 49.2899 158.835 48.9712 156.606 49.2438C155.62 49.3649 154.618 48.8474 154.238 47.9282C153.854 46.9932 152.824 47.358 152.325 46.7219C151.888 46.1636 152.009 45.7764 151.728 45.28C150.831 43.6918 150.892 42.4144 148.834 41.5084C147.238 40.8065 145.416 40.7828 143.695 41.0646C142.742 41.2213 141.777 41.4794 141.002 42.0575C140.311 42.5737 139.821 43.3073 139.346 44.0276C138.354 45.5236 137.321 47.3383 137.971 49.012C138.95 51.5352 143.15 51.9987 145.372 52.7796C148.132 53.7515 149.669 55.4476 150.737 58.2091C150.98 58.8373 150.92 59.5392 150.573 60.1173" fill="url(#paint63_linear_162_118)"/>
<path d="M148.502 74.9837C148.502 74.9837 151.115 67.3392 154.46 67.6197C157.805 67.9002 160.436 71.2319 156.292 74.9771C151.136 79.6363 148.502 74.9837 148.502 74.9837Z" fill="url(#paint64_linear_162_118)"/>
<path d="M107.932 195.216C108.005 195.216 108.08 195.214 108.154 195.213L126.054 194.873L128.025 194.835L190.815 193.642L203.797 193.396C210.294 193.272 215.429 187.846 215.193 181.353L213.264 151.361L212.107 133.385L212.035 132.254C212.034 132.214 212.032 132.175 212.03 132.135C211.834 128.133 209.077 124.786 205.327 123.756C204.8 123.611 204.254 123.512 203.693 123.464C203.685 123.464 203.678 123.462 203.67 123.462C201.514 123.281 199.327 123.109 197.119 122.951C177.937 121.57 157.017 121.014 139.247 120.832C137.205 120.811 135.206 120.796 133.256 120.784C132.735 120.781 132.22 120.777 131.705 120.775C129.205 120.763 126.792 120.757 124.48 120.757C118.354 120.757 112.943 120.796 108.557 120.843C102.157 120.913 96.9601 125.913 96.5492 132.21C96.5308 132.476 96.5229 132.746 96.5229 133.018V133.31V183.801C96.5229 185.783 97.0259 187.643 97.9122 189.265C98.1308 189.664 98.3705 190.048 98.6325 190.416C100.704 193.323 104.102 195.216 107.932 195.216M148.419 120.958C153.904 121.051 159.587 121.184 165.35 121.367L168.355 162.259C168.488 164.074 167.044 165.586 165.271 165.586C165.159 165.586 165.046 165.579 164.933 165.567L151.186 164.084C149.612 163.914 148.419 162.586 148.419 161.003V120.958" fill="url(#paint65_linear_162_118)"/>
<path d="M108.121 138.512C108.035 142.832 108.163 149.689 108.268 154.119C108.324 156.424 110.346 158.179 112.636 157.911L129.115 155.98C131.31 155.722 132.857 153.699 132.529 151.513L130.507 138.019C130.22 136.104 128.573 134.686 126.636 134.686H112.033C109.905 134.686 108.162 136.384 108.121 138.512" fill="white"/>
<path d="M165.545 165.585V165.572H165.664V165.559H165.743V165.546H165.822V165.533H165.914V165.52H165.966V165.506H166.006V165.493H166.059V165.48H166.111V165.467H166.164V165.454H166.203V165.441H166.243V165.427H166.282V165.414H166.322V165.401H166.348V165.388H166.388V165.375H166.414V165.362H166.454V165.348H166.493V165.335H166.52V165.322H166.546V165.309H166.572V165.296H166.599V165.283H166.625V165.269H166.651V165.256H166.678V165.243H166.704V165.23H166.73V165.217H166.757V165.204H166.783V165.19H166.809V165.177H166.836V165.164H166.849V165.151H166.875V165.138H166.888V165.125H166.915V165.111H166.928V165.098H166.954V165.085H166.967V165.072H166.994V165.059H167.02V165.046H167.033V165.032H167.059V165.019H167.073V165.006H167.086V164.993H167.112V164.98H167.125V164.967H167.138V164.953H167.152V164.94H167.178V164.927H167.191V164.914H167.204V164.901H167.217V164.887H167.244V164.874H167.257V164.861H167.27V164.848H167.296V164.835H167.31V164.822H167.323V164.808H167.336V164.795H167.349V164.782H167.362V164.769H167.375V164.756H167.389V164.743H167.402V164.729H167.415V164.716H167.428V164.703H167.441V164.69H167.455V164.677H167.468V164.664H167.481V164.65H167.494V164.637H167.507V164.624H167.52V164.611H167.534V164.598H167.547V164.585H167.56V164.571H167.573V164.558H167.586V164.545H167.599V164.519H167.613V164.506H167.626V164.492H167.639V164.479H167.652V164.466H167.665V164.453H167.678V164.427H167.692V164.413H167.705V164.4H167.718V164.387H167.731V164.374H167.744V164.348H167.757V164.334H167.771V164.308H167.784V164.295H167.797V164.269H167.81V164.255H167.823V164.229H167.836V164.216H167.85V164.203H167.863V164.176H167.876V164.163H167.889V164.137H167.902V164.124H167.915V164.097H167.929V164.071H167.942V164.045H167.955V164.032H167.968V164.005H167.981V163.979H167.994V163.953H168.008V163.926H168.021V163.9H168.034V163.887H168.047V163.86H168.06V163.834H168.073V163.794H168.087V163.768H168.1V163.742H168.113V163.702H168.126V163.676H168.139V163.65H168.152V163.61H168.166V163.584H168.179V163.544H168.192V163.505H168.205V163.465H168.218V163.426H168.231V163.373H168.245V163.334H168.258V163.294H168.271V163.255H168.284V163.189H168.297V163.11H168.31V163.044H168.324V162.978H168.337V162.886H168.35V162.741H168.363V162.188H168.35V162.004H168.337V161.819H168.324V161.648H168.31V161.464H168.297V161.279H168.284V161.108H168.271V160.924H168.258V160.752H168.245V160.568H168.231V160.384H168.218V160.213H168.205V160.028H168.192V159.857H168.179V159.673H168.166V159.488H168.152V159.317H168.139V159.133H168.126V158.962H168.113V158.777H168.1V158.593H168.087V158.422H168.073V158.237H168.06V158.066H168.047V157.882H168.034V157.697H168.021V157.526H168.008V157.342H167.994V157.157H167.981V156.986H167.968V156.802H167.955V156.631H167.942V156.446H167.929V156.262H167.915V156.091H167.902V155.906H167.889V155.735H167.876V155.551H167.863V155.366H167.85V155.195H167.836V155.011H167.823V154.84H167.81V154.655H167.797V154.471H167.784V154.3H167.771V154.115H167.757V153.944H167.744V153.76H167.731V153.575H167.718V153.404H167.705V153.22H167.692V153.049H167.678V152.864H167.665V152.68H167.652V152.509H167.639V152.324H167.626V152.14H167.613V151.969H167.599V151.784H167.586V151.613H167.573V151.429H167.56V151.245H167.547V151.073H167.534V150.889H167.52V150.718H167.507V150.533H167.494V150.349H167.481V150.178H167.468V149.994H167.455V149.822H167.441V149.638H167.428V149.454H167.415V149.282H167.402V149.098H167.389V148.927H167.375V148.742H167.362V148.558H167.349V148.387H167.336V148.203H167.323V148.031H167.31V147.847H167.296V147.663H167.283V147.491H167.27V147.307H167.257V147.123H167.244V146.951H167.231V146.767H167.217V146.596H167.204V146.412H167.191V146.227H167.178V146.056H167.165V145.872H167.152V145.7H167.138V145.516H167.125V145.332H167.112V145.161H167.099V144.976H167.086V144.805H167.073V144.621H167.059V144.436H167.046V144.265H167.033V144.081H167.02V143.909H167.007V143.725H166.994V143.541H166.98V143.37H166.967V143.185H166.954V143.014H166.941V142.83H166.928V142.645H166.915V142.474H166.901V142.29H166.888V142.105H166.875V141.934H166.862V141.75H166.849V141.579H166.836V141.394H166.822V141.21H166.809V141.039H166.796V140.854H166.783V140.683H166.77V140.499H166.757V140.314H166.743V140.143H166.73V139.959H166.717V139.788H166.704V139.603H166.691V139.419H166.678V139.248H166.664V139.063H166.651V138.892H166.638V138.708H166.625V138.523H166.612V138.352H166.599V138.168H166.585V137.997H166.572V137.812H166.559V137.628H166.546V137.457H166.533V137.272H166.52V137.088H166.506V136.917H166.493V136.732H166.48V136.561H166.467V136.377H166.454V136.193H166.441V136.021H166.427V135.837H166.414V135.666H166.401V135.481H166.388V135.297H166.375V135.126H166.361V134.941H166.348V134.77H166.335V134.586H166.322V134.402H166.309V134.23H166.296V134.046H166.282V133.875H166.269V133.69H166.256V133.506H166.243V133.335H166.23V133.151H166.217V132.979H166.203V132.795H166.19V132.611H166.177V132.439H166.164V132.255H166.151V132.071H166.138V131.899H166.124V131.715H166.111V131.544H166.098V131.36H166.085V131.175H166.072V131.004H166.059V130.82H166.045V130.648H166.032V130.464H166.019V130.28H166.006V130.108H165.993V129.924H165.98V129.753H165.966V129.569H165.953V129.384H165.94V129.213H165.927V129.029H165.914V128.857H165.901V128.673H165.887V128.489H165.874V128.318H165.861V128.133H165.848V127.962H165.835V127.778H165.822V127.593H165.808V127.422H165.795V127.238H165.782V127.053H165.769V126.882H165.756V126.698H165.743V126.527H165.729V126.342H165.716V126.158H165.703V125.987H165.69V125.802H165.677V125.631H165.664V125.447H165.65V125.262H165.637V125.091H165.624V124.907H165.611V124.736H165.598V124.551H165.585V124.367H165.571V124.196H165.558V124.011H165.545V123.84H165.532V123.656H165.519V123.471H165.506V123.3H165.492V123.116H165.479V122.945H165.466V122.76H165.453V122.576H165.44V122.405H165.426V122.22H165.413V122.036H165.4V121.865H165.387V121.68H165.374V121.509H165.361V121.364H165.268V121.351H164.86V121.338H164.439V121.325H164.004V121.312H163.557V121.299H163.096V121.285H162.648V121.272H162.2V121.259H161.739V121.246H161.291V121.233H160.804V121.22H160.304V121.206H159.79V121.193H159.277V121.18H158.776V121.167H158.263V121.154H157.749V121.14H157.249V121.127H156.722V121.114H156.129V121.101H155.537V121.088H154.944V121.075H154.351V121.061H153.759V121.048H153.166V121.035H152.574V121.022H151.889V121.009H151.204V120.996H150.533V120.982H149.848V120.969H149.123V120.956H148.412V161.187H148.425V161.345H148.439V161.437H148.452V161.529H148.465V161.608H148.478V161.661H148.491V161.714H148.504V161.78H148.518V161.832H148.531V161.885H148.544V161.925H148.557V161.964H148.57V162.004H148.584V162.03H148.597V162.069H148.61V162.109H148.623V162.148H148.636V162.175H148.649V162.214H148.663V162.241H148.676V162.267H148.689V162.293H148.702V162.333H148.715V162.359H148.728V162.385H148.742V162.412H148.755V162.438H148.768V162.464H148.781V162.478H148.794V162.504H148.807V162.53H148.821V162.557H148.834V162.583H148.847V162.596H148.86V162.622H148.873V162.649H148.886V162.662H148.9V162.688H148.913V162.701H148.926V162.728H148.939V162.741H148.952V162.767H148.965V162.78H148.979V162.794H148.992V162.82H149.005V162.833H149.018V162.859H149.031V162.873H149.044V162.886H149.058V162.912H149.071V162.925H149.084V162.939H149.097V162.952H149.11V162.978H149.123V162.991H149.137V163.004H149.15V163.018H149.163V163.031H149.176V163.057H149.189V163.07H149.202V163.083H149.216V163.097H149.229V163.11H149.242V163.123H149.255V163.136H149.268V163.149H149.281V163.162H149.295V163.176H149.308V163.189H149.321V163.202H149.334V163.215H149.347V163.228H149.36V163.241H149.374V163.255H149.387V163.268H149.4V163.281H149.413V163.294H149.426V163.307H149.439V163.32H149.453V163.334H149.479V163.347H149.492V163.36H149.505V163.373H149.518V163.386H149.532V163.399H149.545V163.413H149.571V163.426H149.584V163.439H149.598V163.452H149.611V163.465H149.637V163.478H149.65V163.492H149.663V163.505H149.69V163.518H149.703V163.531H149.729V163.544H149.742V163.557H149.756V163.571H149.782V163.584H149.795V163.597H149.821V163.61H149.835V163.623H149.861V163.636H149.874V163.65H149.9V163.663H149.927V163.676H149.953V163.689H149.966V163.702H149.993V163.715H150.019V163.729H150.045V163.742H150.058V163.755H150.085V163.768H150.111V163.781H150.137V163.794H150.177V163.808H150.203V163.821H150.23V163.834H150.256V163.847H150.282V163.86H150.309V163.873H150.348V163.887H150.374V163.9H150.414V163.913H150.453V163.926H150.493V163.939H150.533V163.953H150.559V163.966H150.598V163.979H150.651V163.992H150.704V164.005H150.756V164.018H150.809V164.032H150.862V164.045H150.928V164.058H150.993V164.071H151.072V164.084H151.178V164.097H151.296V164.111H151.428V164.124H151.547V164.137H151.665V164.15H151.784V164.163H151.915V164.176H152.034V164.19H152.152V164.203H152.284V164.216H152.402V164.229H152.521V164.242H152.64V164.255H152.771V164.269H152.89V164.282H153.008V164.295H153.127V164.308H153.258V164.321H153.377V164.334H153.495V164.348H153.627V164.361H153.746V164.374H153.864V164.387H153.983V164.4H154.114V164.413H154.233V164.427H154.351V164.44H154.47V164.453H154.602V164.466H154.72V164.479H154.839V164.492H154.97V164.506H155.089V164.519H155.207V164.532H155.326V164.545H155.458V164.558H155.576V164.571H155.695V164.585H155.813V164.598H155.945V164.611H156.063V164.624H156.182V164.637H156.314V164.65H156.432V164.664H156.551V164.677H156.669V164.69H156.801V164.703H156.919V164.716H157.038V164.729H157.156V164.743H157.288V164.756H157.407V164.769H157.525V164.782H157.657V164.795H157.775V164.808H157.894V164.822H158.012V164.835H158.144V164.848H158.263V164.861H158.381V164.874H158.5V164.887H158.631V164.901H158.75V164.914H158.868V164.927H158.987V164.94H159.119V164.953H159.237V164.967H159.356V164.98H159.487V164.993H159.606V165.006H159.724V165.019H159.843V165.032H159.975V165.046H160.093V165.059H160.212V165.072H160.33V165.085H160.462V165.098H160.58V165.111H160.699V165.125H160.831V165.138H160.949V165.151H161.068V165.164H161.186V165.177H161.318V165.19H161.436V165.204H161.555V165.217H161.673V165.23H161.805V165.243H161.924V165.256H162.042V165.269H162.174V165.283H162.292V165.296H162.411V165.309H162.529V165.322H162.661V165.335H162.78V165.348H162.898V165.362H163.017V165.375H163.148V165.388H163.267V165.401H163.385V165.414H163.517V165.427H163.636V165.441H163.754V165.454H163.873V165.467H164.004V165.48H164.123V165.493H164.241V165.506H164.36V165.52H164.492V165.533H164.61V165.546H164.729V165.559H164.847V165.572H164.992V165.585" fill="url(#paint66_linear_162_118)"/>
<path d="M156.819 156.997C156.863 157.733 157.471 158.299 158.199 158.299C158.226 158.299 158.253 158.299 158.28 158.296C159.042 158.253 159.624 157.598 159.579 156.836L157.507 121.148C156.578 121.125 155.655 121.104 154.735 121.084L156.819 156.997" fill="white"/>
<path d="M115.742 151.393C115.501 151.393 115.297 151.206 115.281 150.961L114.568 139.72C114.552 139.466 114.745 139.248 114.999 139.231C115.268 139.211 115.472 139.408 115.489 139.662L116.201 150.903C116.217 151.158 116.025 151.376 115.771 151.392L115.742 151.393" fill="url(#paint67_linear_162_118)"/>
<path d="M117.209 151.393C116.961 151.393 116.756 151.197 116.748 150.947L116.374 139.491C116.366 139.236 116.566 139.024 116.82 139.015C117.114 139 117.287 139.207 117.296 139.461L117.67 150.917C117.678 151.172 117.478 151.385 117.225 151.393H117.209Z" fill="url(#paint68_linear_162_118)"/>
<path d="M119.109 139.475H119.1H119.109ZM119.199 151.392C119.453 151.38 119.649 151.164 119.637 150.91C119.454 147.062 119.105 139.722 119.1 139.472C119.099 139.219 118.892 139.015 118.639 139.015C118.385 139.015 118.178 139.221 118.178 139.475C118.178 139.666 118.627 149.07 118.717 150.953C118.729 151.201 118.931 151.393 119.176 151.393L119.199 151.392" fill="url(#paint69_linear_162_118)"/>
<path d="M122.249 151.855C121.755 151.855 121.347 151.462 121.33 150.964C120.94 139.866 121.008 139.616 121.053 139.45C121.186 138.957 121.697 138.667 122.184 138.802C122.636 138.926 122.918 139.363 122.856 139.814C122.827 140.481 123.032 146.939 123.171 150.9C123.189 151.408 122.791 151.836 122.283 151.853L122.249 151.855" fill="url(#paint70_linear_162_118)"/>
<path d="M124.246 151.393C123.992 151.393 123.785 151.187 123.785 150.932V139.691C123.785 139.436 123.992 139.231 124.246 139.231C124.502 139.231 124.707 139.436 124.707 139.691V150.932C124.707 151.187 124.502 151.393 124.246 151.393Z" fill="url(#paint71_linear_162_118)"/>
<path d="M125.859 151.393C125.609 151.393 125.404 151.193 125.399 150.943C125.31 147.037 125.105 140.657 124.92 139.89C124.839 139.745 124.84 139.561 124.938 139.412C125.077 139.198 125.362 139.14 125.575 139.279C125.827 139.444 126.065 139.601 126.32 150.922C126.326 151.176 126.124 151.387 125.871 151.393H125.859Z" fill="url(#paint72_linear_162_118)"/>
<path d="M113.261 152.417C112.775 152.417 112.368 152.035 112.341 151.542L111.726 139.739C111.7 139.231 112.091 138.797 112.6 138.77C113.082 138.736 113.541 139.135 113.569 139.643L114.182 151.448C114.209 151.956 113.819 152.389 113.309 152.415C113.294 152.417 113.278 152.417 113.261 152.417" fill="url(#paint73_linear_162_118)"/>
<path d="M135.344 48.6529C146.905 26.815 176.869 46.6539 162.923 65.0508C152.555 58.1556 140.839 47.9075 135.344 48.6529Z" fill="url(#paint74_linear_162_118)"/>
<path d="M158.417 119.484L184.389 106.173C184.389 106.173 202.932 124.454 207.675 149.304C202.225 149.705 192.307 151.122 182.599 156.024C180.466 144.29 158.417 119.484 158.417 119.484Z" fill="url(#paint75_linear_162_118)"/>
<path d="M137.032 162.895C137.032 162.895 169.418 181.197 180.347 165.568C182.615 162.323 183.157 159.098 182.599 156.023C192.307 151.122 202.225 149.705 207.675 149.303C209.105 156.794 208.349 164.762 203.947 172.815C184.806 207.83 132.747 170.879 132.747 170.879L137.032 162.895" fill="url(#paint76_linear_162_118)"/>
<path d="M135.494 172.215C137.561 172.764 139.654 171.41 140.067 169.311C140.714 166.028 141.511 160.995 140.869 158.678C139.876 155.086 137.952 150.467 131.538 151.493C125.123 152.521 117.558 155.221 117.558 155.221C117.558 155.221 117.94 159.9 122.815 158.391L119.792 160.73C119.792 160.73 120.224 164.477 124.341 162.475L121.529 165.577C121.529 165.577 123.298 168.654 126.328 166.681C128.826 165.053 130.251 170.825 135.494 172.215" fill="url(#paint77_linear_162_118)"/>
<path d="M298.863 167.633C299.99 167.847 300.593 169.084 300.084 170.112C297.744 174.829 290.849 185.237 276.645 181.956C258.458 177.754 202.971 135.813 190.409 124.355C177.846 112.897 161.211 98.6191 153.073 100.612C144.935 102.604 149.842 97.8883 155.481 94.1035C161.12 90.3201 163.213 84.7642 159.014 85.8019C159.014 85.8019 169.139 82.5162 184.6 91.0378C199.709 99.3645 273.486 127.83 298.187 119.589C299.101 119.284 300.067 119.872 300.233 120.822C301.217 126.448 302.707 144.061 288.269 163.879C288.269 163.879 293.895 166.697 298.863 167.633" fill="url(#paint78_linear_162_118)"/>
<path d="M153.401 57.9039L132.641 57.2612C132.115 57.2454 131.633 56.9531 131.377 56.4922C129.518 53.1341 126.796 50.9942 123.393 49.8195C122.962 49.6707 123.052 49.036 123.506 49.0044L136.234 48.1392C136.248 48.1379 136.263 48.1379 136.276 48.1392C142.619 48.6264 148.235 52.4428 153.592 57.443C153.769 57.6102 153.646 57.9118 153.401 57.9039" fill="url(#paint79_linear_162_118)"/>
<path d="M65.0351 230.32C65.0522 229.458 65.7844 228.762 66.6812 228.762H121.071C121.981 228.762 122.947 229.479 122.947 230.353V352.493C122.947 353.146 122.562 353.772 122.081 354.233C121.601 354.694 120.892 354.952 120.214 354.949L65.2274 354.806C64.5426 354.804 63.8736 354.537 63.3956 354.067C62.9162 353.597 62.6476 352.959 62.6608 352.301L65.0351 230.32" fill="#7D97F4"/>
<path d="M96.2716 237.418L114.064 237.358L114.058 235.217L96.2848 235.271L96.2716 237.418Z" fill="#C6D3FA"/>
<path d="M96.2233 245.309L114.089 245.23L114.083 243.07L96.2364 243.144L96.2233 245.309Z" fill="#C6D3FA"/>
<path d="M96.1741 253.264L114.113 253.165L114.106 250.988L96.1873 251.081L96.1741 253.264Z" fill="#C6D3FA"/>
<path d="M96.1243 261.284L107.344 261.212L107.401 259.014L96.1374 259.083L96.1243 261.284Z" fill="#C6D3FA"/>
<path d="M96.0743 269.372L107.136 269.288L107.194 267.072L96.0875 267.153L96.0743 269.372" fill="#C6D3FA"/>
<path d="M95.9729 285.751L106.717 285.646L106.775 283.393L95.9873 283.496L95.9729 285.751" fill="#C6D3FA"/>
<path d="M95.817 310.845L106.074 310.709L106.134 308.397L95.8315 308.53L95.817 310.845" fill="#C6D3FA"/>
<path d="M96.0244 277.528L106.928 277.433L106.985 275.198L96.0376 275.29L96.0244 277.528" fill="#C6D3FA"/>
<path d="M95.9207 294.045L106.503 293.929L106.562 291.656L95.9352 291.77L95.9207 294.045Z" fill="#C6D3FA"/>
<path d="M95.8703 302.41L106.291 302.284L106.349 299.991L95.8847 300.115L95.8703 302.41" fill="#C6D3FA"/>
<path d="M95.7649 319.352L105.856 319.207L105.917 316.875L95.7793 317.017L95.7649 319.352" fill="#C6D3FA"/>
<path d="M95.7118 327.932L105.636 327.779L105.696 325.426L95.7262 325.577L95.7118 327.932Z" fill="#C6D3FA"/>
<path d="M95.6579 336.586L105.415 336.424L105.475 334.051L95.6737 334.212L95.6579 336.586Z" fill="#C6D3FA"/>
<path d="M95.6037 345.314L105.191 345.145L105.253 342.75L95.6195 342.919L95.6037 345.314Z" fill="#C6D3FA"/>
<path d="M72.9445 237.495L90.8489 237.436L90.8673 235.287L72.984 235.342L72.9445 237.495Z" fill="#C6D3FA"/>
<path d="M72.7994 245.412L90.7776 245.333L90.7974 243.166L72.839 243.239L72.7994 245.412Z" fill="#C6D3FA"/>
<path d="M72.6519 253.392L90.7051 253.293L90.7249 251.108L72.6927 251.202L72.6519 253.392" fill="#C6D3FA"/>
<path d="M72.5046 261.439L90.6328 261.32L90.6526 259.117L72.5454 259.231L72.5046 261.439" fill="#C6D3FA"/>
<path d="M72.3558 269.553L90.5604 269.414L90.5802 267.194L72.3966 267.327L72.3558 269.553" fill="#C6D3FA"/>
<path d="M72.0544 285.988L90.4131 285.807L90.4329 283.549L72.0965 283.724L72.0544 285.988" fill="#C6D3FA"/>
<path d="M71.5919 311.165L90.1863 310.919L90.2074 308.602L71.6353 308.842L71.5919 311.165Z" fill="#C6D3FA"/>
<path d="M72.2054 277.736L90.4865 277.577L90.5062 275.336L72.2462 275.491L72.2054 277.736" fill="#C6D3FA"/>
<path d="M71.9009 294.309L90.3373 294.107L90.3584 291.829L71.943 292.025L71.9009 294.309" fill="#C6D3FA"/>
<path d="M71.747 302.701L90.2625 302.477L90.2822 300.181L71.7892 300.398L71.747 302.701Z" fill="#C6D3FA"/>
<path d="M71.4369 319.701L90.1104 319.432L90.1315 317.096L71.4791 317.358L71.4369 319.701" fill="#C6D3FA"/>
<path d="M71.2785 328.311L90.0323 328.02L90.0533 325.664L71.3206 325.948L71.2785 328.311" fill="#C6D3FA"/>
<path d="M71.1191 336.994L89.9545 336.681L89.9756 334.304L71.1625 334.612L71.1191 336.994" fill="#C6D3FA"/>
<path d="M70.9573 345.754L89.8757 345.417L89.8967 343.02L71.002 343.351L70.9573 345.754" fill="#C6D3FA"/>
<path d="M107.435 257.657C107.452 256.975 108.215 256.427 109.148 256.427H165.8C166.746 256.427 167.751 256.992 167.751 257.683V354.256C167.751 354.772 167.351 355.267 166.852 355.631C166.351 355.996 165.613 356.2 164.907 356.198L107.635 356.084C106.923 356.083 106.225 355.873 105.727 355.501C105.228 355.128 104.948 354.625 104.961 354.105L107.435 257.657" fill="#91B3FA"/>
<path d="M139.968 263.271L158.501 263.224L158.493 261.53L139.983 261.572L139.968 263.271" fill="white"/>
<path d="M139.919 269.509L158.526 269.447L158.52 267.739L139.932 267.797L139.919 269.509" fill="white"/>
<path d="M139.867 275.798L158.551 275.721L158.545 273.999L139.881 274.072L139.867 275.798Z" fill="white"/>
<path d="M139.816 282.141L158.578 282.047L158.571 280.311L139.829 280.4L139.816 282.141" fill="white"/>
<path d="M139.763 288.535L158.604 288.426L158.596 286.676L139.777 286.78L139.763 288.535" fill="white"/>
<path d="M139.658 301.487L158.657 301.345L158.649 299.564L139.672 299.701L139.658 301.487" fill="white"/>
<path d="M139.496 321.326L158.737 321.134L158.73 319.308L139.51 319.495L139.496 321.326Z" fill="white"/>
<path d="M139.711 294.985L158.63 294.86L158.622 293.094L139.725 293.215L139.711 294.985" fill="white"/>
<path d="M139.604 308.044L158.683 307.886L158.676 306.091L139.618 306.245L139.604 308.044" fill="white"/>
<path d="M139.55 314.657L158.711 314.482L158.703 312.671L139.566 312.843L139.55 314.657Z" fill="white"/>
<path d="M139.442 328.053L158.765 327.842L158.757 326.001L139.456 326.206L139.442 328.053" fill="white"/>
<path d="M139.387 334.836L158.792 334.608L158.784 332.751L139.401 332.975L139.387 334.836Z" fill="white"/>
<path d="M139.33 341.68L158.82 341.432L158.812 339.56L139.346 339.802L139.33 341.68Z" fill="white"/>
<path d="M139.275 348.58L158.847 348.315L158.841 346.427L139.289 346.686L139.275 348.58Z" fill="white"/>
<path d="M115.672 263.332L134.32 263.284L134.34 261.586L115.713 261.629L115.672 263.332" fill="white"/>
<path d="M115.52 269.59L134.246 269.528L134.266 267.814L115.562 267.872L115.52 269.59" fill="white"/>
<path d="M115.368 275.9L134.171 275.822L134.191 274.095L115.41 274.168L115.368 275.9Z" fill="white"/>
<path d="M115.215 282.263L134.096 282.17L134.116 280.427L115.257 280.517L115.215 282.263Z" fill="white"/>
<path d="M115.06 288.679L134.02 288.569L134.041 286.813L115.102 286.919L115.06 288.679" fill="white"/>
<path d="M114.745 301.673L133.866 301.529L133.887 299.744L114.788 299.882L114.745 301.673Z" fill="white"/>
<path d="M114.264 321.579L133.63 321.386L133.653 319.554L114.309 319.743L114.264 321.579" fill="white"/>
<path d="M114.903 295.147L133.943 295.022L133.964 293.251L114.946 293.372L114.903 295.147Z" fill="white"/>
<path d="M114.587 308.252L133.788 308.092L133.809 306.291L114.63 306.446L114.587 308.252" fill="white"/>
<path d="M114.426 314.886L133.71 314.71L133.732 312.894L114.47 313.067L114.426 314.886" fill="white"/>
<path d="M114.101 328.328L133.55 328.117L133.573 326.27L114.146 326.476L114.101 328.328Z" fill="white"/>
<path d="M113.936 335.136L133.47 334.906L133.492 333.042L113.983 333.268L113.936 335.136Z" fill="white"/>
<path d="M113.77 342.002L133.389 341.755L133.412 339.874L113.817 340.118L113.77 342.002Z" fill="white"/>
<path d="M113.603 348.928L133.306 348.662L133.329 346.765L113.649 347.027L113.603 348.928Z" fill="white"/>
<path d="M2.70913 216.539C2.73942 215.001 4.04313 213.735 5.64051 213.735H66.0475C67.6672 213.735 69.2567 215.067 69.2567 216.626V355.908C69.2567 356.657 68.8077 357.376 68.2572 357.905C67.7054 358.435 66.8876 358.731 66.108 358.73L2.9501 358.564C2.16524 358.561 1.39487 358.256 0.845731 357.716C0.295271 357.174 -0.0142126 356.428 0.000273132 355.672L2.70913 216.539Z" fill="#91B3FA"/>
<path d="M47.1953 230.149L64.4031 230.127L64.54 221.639H47.3152L47.1953 230.149" fill="#C8D9FD"/>
<path d="M27.9068 230.145L45.0974 230.122L45.2159 221.639H28.0082L27.9068 230.145" fill="#C8D9FD"/>
<path d="M8.63704 230.139L25.8119 230.117L25.9106 221.639H8.71999L8.63704 230.139Z" fill="#C8D9FD"/>
<path d="M64.1581 245.393L64.295 236.961L47.0991 236.954L46.9806 245.383L64.1581 245.393" fill="#C8D9FD"/>
<path d="M44.8867 245.381L45.0039 236.953L27.8264 236.946L27.725 245.371L44.8867 245.381Z" fill="#C8D9FD"/>
<path d="M25.6337 245.37L25.7324 236.947L8.57207 236.939L8.48909 245.359L25.6337 245.37" fill="#C8D9FD"/>
<path d="M63.9146 260.528L64.0503 252.126L46.8847 252.113L46.7661 260.511L63.9146 260.528Z" fill="#C8D9FD"/>
<path d="M44.6762 260.51L44.7935 252.111L27.645 252.097L27.5449 260.491L44.6762 260.51" fill="#C8D9FD"/>
<path d="M25.4559 260.49L25.5547 252.096L8.42329 252.083L8.34166 260.473L25.4559 260.49" fill="#C8D9FD"/>
<path d="M63.671 275.611L63.8066 267.239L46.6713 267.217L46.5528 275.588L63.671 275.611Z" fill="#C8D9FD"/>
<path d="M44.4652 275.585L44.5824 267.216L27.4642 267.195L27.3641 275.56L44.4652 275.585Z" fill="#C8D9FD"/>
<path d="M25.2795 275.558L25.377 267.193L8.27717 267.173L8.19553 275.534L25.2795 275.558" fill="#C8D9FD"/>
<path d="M63.4285 290.642L63.5629 282.299L46.4578 282.271L46.3393 290.612L63.4285 290.642" fill="#C8D9FD"/>
<path d="M44.2558 290.608L44.373 282.268L27.2838 282.242L27.185 290.578L44.2558 290.608Z" fill="#C8D9FD"/>
<path d="M25.1042 290.574L25.2017 282.238L8.12953 282.212L8.0492 290.544L25.1042 290.574Z" fill="#C8D9FD"/>
<path d="M63.1874 305.622L63.3204 297.307L46.2457 297.273L46.1272 305.585L63.1874 305.622Z" fill="#C8D9FD"/>
<path d="M44.0479 305.58L44.1638 297.269L27.1049 297.235L27.0061 305.543L44.0479 305.58" fill="#C8D9FD"/>
<path d="M24.9279 305.539L25.0254 297.231L7.98355 297.198L7.9032 305.501L24.9279 305.539" fill="#C8D9FD"/>
<path d="M62.9466 320.551L63.0796 312.263L46.0338 312.223L45.9166 320.506L62.9466 320.551" fill="#C8D9FD"/>
<path d="M43.8395 320.5L43.9554 312.218L26.9254 312.177L26.8267 320.457L43.8395 320.5Z" fill="#C8D9FD"/>
<path d="M24.7541 320.451L24.8502 312.172L7.83868 312.133L7.75702 320.408L24.7541 320.451" fill="#C8D9FD"/>
<path d="M62.7054 335.426L62.8397 327.168L45.8229 327.122L45.7057 335.376L62.7054 335.426Z" fill="#C8D9FD"/>
<path d="M43.6328 335.369L43.7473 327.115L26.7476 327.069L26.6488 335.319L43.6328 335.369Z" fill="#C8D9FD"/>
<path d="M24.5789 335.313L24.6764 327.062L7.69248 327.016L7.61216 335.263L24.5789 335.313" fill="#C8D9FD"/>
<path d="M62.4672 350.251L62.6002 342.021L45.6124 341.968L45.4952 350.195L62.4672 350.251" fill="#C8D9FD"/>
<path d="M43.4259 350.188L43.5417 341.961L26.5697 341.908L26.4723 350.13L43.4259 350.188Z" fill="#C8D9FD"/>
<path d="M24.4051 350.124L24.5026 341.902L7.54898 341.848L7.46862 350.067L24.4051 350.124Z" fill="#C8D9FD"/>
<path d="M66.4813 257.419H80.4561V239.046H66.4813V257.419Z" fill="url(#paint80_linear_162_118)"/>
<path d="M62.7145 243.863H84.9568C87.2942 243.863 89.1892 241.968 89.1892 239.63C90.3402 234.061 86.566 229.84 80.0803 230.521H63.161C60.6523 230.521 58.6203 232.554 58.6203 235.062V239.768C58.6203 242.029 60.4534 243.863 62.7145 243.863" fill="url(#paint81_linear_162_118)"/>
<path d="M33.0688 273.489L38.4562 267.825L31.0118 260.741L25.6231 266.405L33.0688 273.489Z" fill="url(#paint82_linear_162_118)"/>
<path d="M24.8202 271.158L36.1481 259.252C36.2495 259.146 36.2455 258.978 36.1389 258.877L31.5693 254.529C31.2137 254.19 30.6501 254.205 30.3116 254.56L19.4684 265.957C19.2853 266.149 19.2932 266.452 19.4842 266.633L24.2553 271.173C24.4146 271.324 24.6688 271.318 24.8202 271.158" fill="url(#paint83_linear_162_118)"/>
<path d="M113.216 273.254L107.829 267.592L115.273 260.507L120.662 266.171L113.216 273.254Z" fill="url(#paint84_linear_162_118)"/>
<path d="M121.465 270.923L110.137 259.017C110.036 258.911 110.04 258.743 110.146 258.642L114.716 254.294C115.071 253.955 115.635 253.97 115.974 254.325L126.84 265.748C127.01 265.924 127.002 266.206 126.826 266.375L122.03 270.938C121.871 271.09 121.616 271.084 121.465 270.923" fill="url(#paint85_linear_162_118)"/>
<path d="M17.1727 311.68C17.1727 343.188 42.7138 368.729 74.2203 368.729C105.728 368.729 131.269 343.188 131.269 311.68C131.269 280.173 105.728 254.632 74.2203 254.632C42.7138 254.632 17.1727 280.173 17.1727 311.68Z" fill="url(#paint86_linear_162_118)"/>
<path d="M25.3006 312.37C25.3006 339.055 46.9344 360.688 73.6198 360.688C100.305 360.688 121.938 339.055 121.938 312.37C121.938 285.683 100.305 264.05 73.6198 264.05C46.9344 264.05 25.3006 285.683 25.3006 312.37Z" fill="white"/>
<path d="M73.0313 278.914H74.7788V265.056H73.0313V278.914Z" fill="url(#paint87_linear_162_118)"/>
<path d="M73.0313 359.92H74.7788V346.064H73.0313V359.92Z" fill="url(#paint88_linear_162_118)"/>
<path d="M40.192 312.822L40.2104 311.075L26.3542 310.932L26.3357 312.678L40.192 312.822Z" fill="url(#paint89_linear_162_118)"/>
<path d="M120.845 313.622L120.863 311.875L107.007 311.733L106.988 313.479L120.845 313.622Z" fill="url(#paint90_linear_162_118)"/>
<path d="M73.9924 313.114C74.1214 313.114 74.2492 313.056 74.3361 312.946L95.484 285.951C95.6328 285.762 95.5998 285.487 95.4102 285.338C95.2206 285.189 94.9454 285.223 94.7965 285.413L73.6486 312.408C73.4998 312.597 73.5328 312.871 73.7224 313.02C73.8027 313.083 73.8976 313.114 73.9924 313.114Z" fill="url(#paint91_linear_162_118)"/>
<path d="M79.5973 321.624C79.9753 321.624 80.3572 321.5 80.6772 321.247C81.4357 320.651 81.5648 319.551 80.9669 318.794L59.6518 291.78C59.0539 291.023 57.9556 290.894 57.1984 291.492C56.4412 292.09 56.3121 293.188 56.91 293.945L78.2238 320.959C78.5688 321.395 79.0811 321.624 79.5973 321.624" fill="url(#paint92_linear_162_118)"/>
<path d="M47.2625 342.486C47.6154 342.486 47.967 342.345 48.2251 342.066L80.718 306.963C81.2105 306.432 81.1776 305.602 80.6469 305.111C80.1162 304.62 79.2865 304.651 78.7953 305.182L46.3011 340.285C45.8099 340.816 45.8415 341.645 46.3736 342.137C46.6251 342.37 46.9438 342.486 47.2625 342.486" fill="url(#paint93_linear_162_118)"/>
<path d="M69.275 312.677C69.275 315.282 71.3873 317.394 73.9921 317.394C76.5969 317.394 78.7079 315.282 78.7079 312.677C78.7079 310.072 76.5969 307.961 73.9921 307.961C71.3873 307.961 69.275 310.072 69.275 312.677Z" fill="url(#paint94_linear_162_118)"/>
<path d="M70.8482 312.677C70.8482 314.414 72.256 315.821 73.993 315.821C75.73 315.821 77.1377 314.414 77.1377 312.677C77.1377 310.941 75.73 309.533 73.993 309.533C72.256 309.533 70.8482 310.941 70.8482 312.677Z" fill="white"/>
<path d="M73.0313 273.761H74.7788V266.297H73.0313V273.761Z" fill="url(#paint95_linear_162_118)"/>
<path d="M54.824 278.796L56.3661 277.973L52.8513 271.388L51.3106 272.21L54.824 278.796" fill="url(#paint96_linear_162_118)"/>
<path d="M39.8916 293.902L40.7712 292.393L34.3238 288.633L33.4441 290.142L39.8916 293.902Z" fill="url(#paint97_linear_162_118)"/>
<path d="M40.1907 331.986L39.3623 330.448L32.7911 333.989L33.6207 335.527L40.1907 331.986Z" fill="url(#paint98_linear_162_118)"/>
<path d="M55.4084 346.883L53.8953 346.011L50.1712 352.479L51.6856 353.351L55.4084 346.883Z" fill="url(#paint99_linear_162_118)"/>
<path d="M93.4881 346.372L91.9553 347.21L95.532 353.76L97.0648 352.922L93.4881 346.372Z" fill="url(#paint100_linear_162_118)"/>
<path d="M109.043 329.613L108.245 331.167L114.883 334.579L115.681 333.025L109.043 329.613Z" fill="url(#paint101_linear_162_118)"/>
<path d="M109.343 296.376L110.036 297.98L116.889 295.022L116.196 293.418L109.343 296.376Z" fill="url(#paint102_linear_162_118)"/>
<path d="M97.2238 281.44L98.5986 282.517L103.2 276.64L101.824 275.562L97.2238 281.44" fill="url(#paint103_linear_162_118)"/>
<path d="M73.7215 365.558C83.1886 365.558 92.4832 363.039 100.602 358.273C100.685 358.224 100.712 358.116 100.664 358.033C100.615 357.95 100.508 357.923 100.425 357.971C92.3607 362.707 83.1267 365.209 73.7215 365.209C68.5988 365.209 63.534 364.477 58.6695 363.033C58.5773 363.006 58.4798 363.058 58.4522 363.151C58.4258 363.244 58.4785 363.342 58.5707 363.368C63.4669 364.822 68.5646 365.558 73.7215 365.558" fill="#BDD0FB"/>
<path d="M23.6333 329.913C23.6517 329.913 23.6715 329.909 23.6899 329.903C23.7821 329.871 23.8295 329.772 23.7979 329.682C21.8778 324.134 20.9034 318.317 20.9034 312.391C20.9034 300.717 24.6354 289.653 31.6939 280.394C31.7532 280.318 31.7374 280.209 31.661 280.151C31.5846 280.092 31.4753 280.106 31.4161 280.184C27.9619 284.714 25.2741 289.732 23.4291 295.099C21.521 300.649 20.5544 306.467 20.5544 312.391C20.5544 318.355 21.5341 324.211 23.4686 329.796C23.4937 329.867 23.5608 329.913 23.6333 329.913" fill="#BDD0FB"/>
<path d="M124.702 327.08C124.777 327.08 124.848 327.03 124.869 326.953C126.209 322.239 126.888 317.34 126.888 312.391C126.888 306.44 125.912 300.597 123.988 295.025C122.126 289.638 119.417 284.603 115.934 280.063C112.487 275.568 108.37 271.67 103.699 268.475C98.957 265.232 93.7606 262.796 88.2547 261.235C88.1625 261.209 88.065 261.263 88.0387 261.355C88.0123 261.449 88.0663 261.545 88.1598 261.571C110.756 267.978 126.539 288.877 126.539 312.391C126.539 317.307 125.865 322.174 124.534 326.857C124.507 326.951 124.561 327.047 124.653 327.073C124.671 327.078 124.686 327.08 124.702 327.08" fill="#BDD0FB"/>
<path d="M87.4435 241.399C87.5264 241.399 87.6002 241.34 87.616 241.255C88.31 237.323 88.0611 235.021 86.7824 233.561C84.5476 231.01 79.1984 231.238 69.4877 231.653L68.9307 231.676C68.8345 231.68 68.7595 231.762 68.7634 231.858C68.7674 231.954 68.849 232.028 68.9452 232.025L69.5022 232.002C79.105 231.592 84.3949 231.366 86.519 233.791C87.7042 235.145 87.9373 237.429 87.271 241.195C87.2552 241.29 87.3184 241.38 87.4132 241.396L87.4435 241.399" fill="#BDD0FB"/>
<defs>
<linearGradient id="paint0_linear_162_118" x1="-46.4434" y1="475.029" x2="279.918" y2="69.7085" gradientUnits="userSpaceOnUse">
<stop stop-color="#001B6D"/>
<stop offset="1" stop-color="#004CFF"/>
</linearGradient>
<linearGradient id="paint1_linear_162_118" x1="331.302" y1="190.601" x2="4.3198" y2="190.601" gradientUnits="userSpaceOnUse">
<stop stop-color="#3576FF"/>
<stop offset="1" stop-color="#4042E2"/>
</linearGradient>
<linearGradient id="paint2_linear_162_118" x1="331.301" y1="190.601" x2="4.31952" y2="190.601" gradientUnits="userSpaceOnUse">
<stop stop-color="#6265FF"/>
<stop offset="1" stop-color="#5557E5"/>
</linearGradient>
<linearGradient id="paint3_linear_162_118" x1="331.301" y1="190.601" x2="4.31979" y2="190.601" gradientUnits="userSpaceOnUse">
<stop stop-color="#7A7DFF"/>
<stop offset="1" stop-color="#6B6DEB"/>
</linearGradient>
<linearGradient id="paint4_linear_162_118" x1="331.302" y1="190.601" x2="4.31922" y2="190.601" gradientUnits="userSpaceOnUse">
<stop stop-color="#8B8DFF"/>
<stop offset="1" stop-color="#7F81EE"/>
</linearGradient>
<linearGradient id="paint5_linear_162_118" x1="331.302" y1="190.601" x2="4.32033" y2="190.601" gradientUnits="userSpaceOnUse">
<stop stop-color="#7A7DFF"/>
<stop offset="1" stop-color="#6B6DEB"/>
</linearGradient>
<linearGradient id="paint6_linear_162_118" x1="331.302" y1="190.601" x2="4.31962" y2="190.601" gradientUnits="userSpaceOnUse">
<stop stop-color="#8B8DFF"/>
<stop offset="1" stop-color="#7F81EE"/>
</linearGradient>
<linearGradient id="paint7_linear_162_118" x1="331.302" y1="190.601" x2="4.31997" y2="190.601" gradientUnits="userSpaceOnUse">
<stop stop-color="#7A7DFF"/>
<stop offset="1" stop-color="#6B6DEB"/>
</linearGradient>
<linearGradient id="paint8_linear_162_118" x1="331.302" y1="190.601" x2="4.31985" y2="190.601" gradientUnits="userSpaceOnUse">
<stop stop-color="#8B8DFF"/>
<stop offset="1" stop-color="#7F81EE"/>
</linearGradient>
<linearGradient id="paint9_linear_162_118" x1="331.301" y1="190.601" x2="4.31954" y2="190.601" gradientUnits="userSpaceOnUse">
<stop stop-color="#7A7DFF"/>
<stop offset="1" stop-color="#6B6DEB"/>
</linearGradient>
<linearGradient id="paint10_linear_162_118" x1="331.301" y1="190.601" x2="4.31971" y2="190.601" gradientUnits="userSpaceOnUse">
<stop stop-color="#8B8DFF"/>
<stop offset="1" stop-color="#7F81EE"/>
</linearGradient>
<linearGradient id="paint11_linear_162_118" x1="331.302" y1="190.601" x2="4.3199" y2="190.601" gradientUnits="userSpaceOnUse">
<stop stop-color="#8B8DFF"/>
<stop offset="1" stop-color="#7F81EE"/>
</linearGradient>
<linearGradient id="paint12_linear_162_118" x1="331.463" y1="190.809" x2="3.87961" y2="190.809" gradientUnits="userSpaceOnUse">
<stop stop-color="#7A7DFF"/>
<stop offset="1" stop-color="#6B6DEB"/>
</linearGradient>
<linearGradient id="paint13_linear_162_118" x1="331.301" y1="190.601" x2="4.31957" y2="190.601" gradientUnits="userSpaceOnUse">
<stop stop-color="#8B8DFF"/>
<stop offset="1" stop-color="#7F81EE"/>
</linearGradient>
<linearGradient id="paint14_linear_162_118" x1="331.301" y1="190.601" x2="4.3192" y2="190.601" gradientUnits="userSpaceOnUse">
<stop stop-color="#7A7DFF"/>
<stop offset="1" stop-color="#6B6DEB"/>
</linearGradient>
<linearGradient id="paint15_linear_162_118" x1="331.302" y1="190.601" x2="4.31954" y2="190.601" gradientUnits="userSpaceOnUse">
<stop stop-color="#8B8DFF"/>
<stop offset="1" stop-color="#7F81EE"/>
</linearGradient>
<linearGradient id="paint16_linear_162_118" x1="331.302" y1="190.601" x2="4.31978" y2="190.601" gradientUnits="userSpaceOnUse">
<stop stop-color="#7A7DFF"/>
<stop offset="1" stop-color="#6B6DEB"/>
</linearGradient>
<linearGradient id="paint17_linear_162_118" x1="331.302" y1="190.602" x2="4.31952" y2="190.602" gradientUnits="userSpaceOnUse">
<stop stop-color="#8B8DFF"/>
<stop offset="1" stop-color="#7F81EE"/>
</linearGradient>
<linearGradient id="paint18_linear_162_118" x1="331.302" y1="190.601" x2="4.31959" y2="190.601" gradientUnits="userSpaceOnUse">
<stop stop-color="#9A9DFF"/>
<stop offset="1" stop-color="#8F91F0"/>
</linearGradient>
<linearGradient id="paint19_linear_162_118" x1="331.302" y1="190.602" x2="4.32001" y2="190.602" gradientUnits="userSpaceOnUse">
<stop stop-color="#8B8DFF"/>
<stop offset="1" stop-color="#7F81EE"/>
</linearGradient>
<linearGradient id="paint20_linear_162_118" x1="331.301" y1="190.603" x2="4.31931" y2="190.603" gradientUnits="userSpaceOnUse">
<stop stop-color="#7A7DFF"/>
<stop offset="1" stop-color="#6B6DEB"/>
</linearGradient>
<linearGradient id="paint21_linear_162_118" x1="331.301" y1="190.6" x2="4.31977" y2="190.6" gradientUnits="userSpaceOnUse">
<stop stop-color="#8B8DFF"/>
<stop offset="1" stop-color="#7F81EE"/>
</linearGradient>
<linearGradient id="paint22_linear_162_118" x1="331.301" y1="190.602" x2="4.31929" y2="190.602" gradientUnits="userSpaceOnUse">
<stop stop-color="#7A7DFF"/>
<stop offset="1" stop-color="#6B6DEB"/>
</linearGradient>
<linearGradient id="paint23_linear_162_118" x1="331.301" y1="190.603" x2="4.31938" y2="190.603" gradientUnits="userSpaceOnUse">
<stop stop-color="#8B8DFF"/>
<stop offset="1" stop-color="#7F81EE"/>
</linearGradient>
<linearGradient id="paint24_linear_162_118" x1="331.301" y1="190.601" x2="4.3194" y2="190.601" gradientUnits="userSpaceOnUse">
<stop stop-color="#A8AAFF"/>
<stop offset="1" stop-color="#9FA0F2"/>
</linearGradient>
<linearGradient id="paint25_linear_162_118" x1="331.301" y1="190.6" x2="4.31952" y2="190.6" gradientUnits="userSpaceOnUse">
<stop stop-color="#8B8DFF"/>
<stop offset="1" stop-color="#7F81EE"/>
</linearGradient>
<linearGradient id="paint26_linear_162_118" x1="331.301" y1="190.601" x2="4.3194" y2="190.601" gradientUnits="userSpaceOnUse">
<stop stop-color="#7A7DFF"/>
<stop offset="1" stop-color="#6B6DEB"/>
</linearGradient>
<linearGradient id="paint27_linear_162_118" x1="331.301" y1="190.602" x2="4.31973" y2="190.602" gradientUnits="userSpaceOnUse">
<stop stop-color="#8B8DFF"/>
<stop offset="1" stop-color="#7F81EE"/>
</linearGradient>
<linearGradient id="paint28_linear_162_118" x1="331.302" y1="190.602" x2="4.31969" y2="190.602" gradientUnits="userSpaceOnUse">
<stop stop-color="#7A7DFF"/>
<stop offset="1" stop-color="#6B6DEB"/>
</linearGradient>
<linearGradient id="paint29_linear_162_118" x1="331.302" y1="190.602" x2="4.31995" y2="190.602" gradientUnits="userSpaceOnUse">
<stop stop-color="#A8AAFF"/>
<stop offset="1" stop-color="#9FA0F2"/>
</linearGradient>
<linearGradient id="paint30_linear_162_118" x1="331.302" y1="190.604" x2="4.31976" y2="190.604" gradientUnits="userSpaceOnUse">
<stop stop-color="#9A9DFF"/>
<stop offset="1" stop-color="#8F91F0"/>
</linearGradient>
<linearGradient id="paint31_linear_162_118" x1="331.302" y1="190.602" x2="4.32036" y2="190.602" gradientUnits="userSpaceOnUse">
<stop stop-color="#A8AAFF"/>
<stop offset="1" stop-color="#9FA0F2"/>
</linearGradient>
<linearGradient id="paint32_linear_162_118" x1="331.302" y1="190.601" x2="4.3198" y2="190.601" gradientUnits="userSpaceOnUse">
<stop stop-color="#8B8DFF"/>
<stop offset="1" stop-color="#7F81EE"/>
</linearGradient>
<linearGradient id="paint33_linear_162_118" x1="331.302" y1="190.601" x2="4.31984" y2="190.601" gradientUnits="userSpaceOnUse">
<stop stop-color="#7A7DFF"/>
<stop offset="1" stop-color="#6B6DEB"/>
</linearGradient>
<linearGradient id="paint34_linear_162_118" x1="331.301" y1="190.601" x2="4.31933" y2="190.601" gradientUnits="userSpaceOnUse">
<stop stop-color="#8B8DFF"/>
<stop offset="1" stop-color="#7F81EE"/>
</linearGradient>
<linearGradient id="paint35_linear_162_118" x1="331.302" y1="190.601" x2="4.31992" y2="190.601" gradientUnits="userSpaceOnUse">
<stop stop-color="#7A7DFF"/>
<stop offset="1" stop-color="#6B6DEB"/>
</linearGradient>
<linearGradient id="paint36_linear_162_118" x1="331.302" y1="190.601" x2="4.3196" y2="190.601" gradientUnits="userSpaceOnUse">
<stop stop-color="#8B8DFF"/>
<stop offset="1" stop-color="#7F81EE"/>
</linearGradient>
<linearGradient id="paint37_linear_162_118" x1="331.302" y1="190.601" x2="4.31966" y2="190.601" gradientUnits="userSpaceOnUse">
<stop stop-color="#A8AAFF"/>
<stop offset="1" stop-color="#9FA0F2"/>
</linearGradient>
<linearGradient id="paint38_linear_162_118" x1="331.302" y1="190.601" x2="4.31973" y2="190.601" gradientUnits="userSpaceOnUse">
<stop stop-color="#8B8DFF"/>
<stop offset="1" stop-color="#7F81EE"/>
</linearGradient>
<linearGradient id="paint39_linear_162_118" x1="331.302" y1="190.601" x2="4.31934" y2="190.601" gradientUnits="userSpaceOnUse">
<stop stop-color="#8B8DFF"/>
<stop offset="1" stop-color="#7F81EE"/>
</linearGradient>
<linearGradient id="paint40_linear_162_118" x1="331.301" y1="190.601" x2="4.31954" y2="190.601" gradientUnits="userSpaceOnUse">
<stop stop-color="#7A7DFF"/>
<stop offset="1" stop-color="#6B6DEB"/>
</linearGradient>
<linearGradient id="paint41_linear_162_118" x1="331.302" y1="190.601" x2="4.31965" y2="190.601" gradientUnits="userSpaceOnUse">
<stop stop-color="#8B8DFF"/>
<stop offset="1" stop-color="#7F81EE"/>
</linearGradient>
<linearGradient id="paint42_linear_162_118" x1="331.302" y1="190.601" x2="4.31988" y2="190.601" gradientUnits="userSpaceOnUse">
<stop stop-color="#A8AAFF"/>
<stop offset="1" stop-color="#9FA0F2"/>
</linearGradient>
<linearGradient id="paint43_linear_162_118" x1="331.301" y1="190.601" x2="4.32041" y2="190.601" gradientUnits="userSpaceOnUse">
<stop stop-color="#A8AAFF"/>
<stop offset="1" stop-color="#9FA0F2"/>
</linearGradient>
<linearGradient id="paint44_linear_162_118" x1="331.301" y1="190.602" x2="4.31935" y2="190.602" gradientUnits="userSpaceOnUse">
<stop stop-color="#7A7DFF"/>
<stop offset="1" stop-color="#6B6DEB"/>
</linearGradient>
<linearGradient id="paint45_linear_162_118" x1="331.301" y1="190.602" x2="4.32145" y2="190.602" gradientUnits="userSpaceOnUse">
<stop stop-color="#9A9DFF"/>
<stop offset="1" stop-color="#8F91F0"/>
</linearGradient>
<linearGradient id="paint46_linear_162_118" x1="331.302" y1="190.602" x2="4.31942" y2="190.602" gradientUnits="userSpaceOnUse">
<stop stop-color="#9A9DFF"/>
<stop offset="1" stop-color="#8F91F0"/>
</linearGradient>
<linearGradient id="paint47_linear_162_118" x1="126.803" y1="44.8033" x2="41.8878" y2="44.8033" gradientUnits="userSpaceOnUse">
<stop stop-color="#FEBBBA"/>
<stop offset="1" stop-color="#FF928E"/>
</linearGradient>
<linearGradient id="paint48_linear_162_118" x1="51.5502" y1="11.785" x2="44.0485" y2="11.785" gradientUnits="userSpaceOnUse">
<stop stop-color="#FEBBBA"/>
<stop offset="1" stop-color="#FF928E"/>
</linearGradient>
<linearGradient id="paint49_linear_162_118" x1="104.249" y1="96.6083" x2="-28.0413" y2="111.233" gradientUnits="userSpaceOnUse">
<stop stop-color="#E1473D"/>
<stop offset="1" stop-color="#E9605A"/>
</linearGradient>
<linearGradient id="paint50_linear_162_118" x1="325.599" y1="340.987" x2="318.487" y2="340.987" gradientUnits="userSpaceOnUse">
<stop stop-color="#4F52FF"/>
<stop offset="1" stop-color="#4042E2"/>
</linearGradient>
<linearGradient id="paint51_linear_162_118" x1="323.761" y1="339.03" x2="302.699" y2="339.03" gradientUnits="userSpaceOnUse">
<stop stop-color="#09005D"/>
<stop offset="1" stop-color="#1A0F91"/>
</linearGradient>
<linearGradient id="paint52_linear_162_118" x1="245.867" y1="278.238" x2="232.379" y2="278.238" gradientUnits="userSpaceOnUse">
<stop stop-color="#4F52FF"/>
<stop offset="1" stop-color="#4042E2"/>
</linearGradient>
<linearGradient id="paint53_linear_162_118" x1="243.842" y1="277.292" x2="217.55" y2="277.292" gradientUnits="userSpaceOnUse">
<stop stop-color="#09005D"/>
<stop offset="1" stop-color="#1A0F91"/>
</linearGradient>
<linearGradient id="paint54_linear_162_118" x1="311.861" y1="317.477" x2="292.778" y2="317.477" gradientUnits="userSpaceOnUse">
<stop stop-color="#FEBBBA"/>
<stop offset="1" stop-color="#FF928E"/>
</linearGradient>
<linearGradient id="paint55_linear_162_118" x1="226.684" y1="257.629" x2="207.423" y2="257.629" gradientUnits="userSpaceOnUse">
<stop stop-color="#FEBBBA"/>
<stop offset="1" stop-color="#FF928E"/>
</linearGradient>
<linearGradient id="paint56_linear_162_118" x1="121.107" y1="128.214" x2="245.741" y2="248.762" gradientUnits="userSpaceOnUse">
<stop stop-color="#09005D"/>
<stop offset="1" stop-color="#1A0F91"/>
</linearGradient>
<linearGradient id="paint57_linear_162_118" x1="186.433" y1="212.775" x2="206.525" y2="230.143" gradientUnits="userSpaceOnUse">
<stop stop-color="#09005D"/>
<stop offset="1" stop-color="#1A0F91"/>
</linearGradient>
<linearGradient id="paint58_linear_162_118" x1="209.824" y1="213.907" x2="220.608" y2="229.346" gradientUnits="userSpaceOnUse">
<stop stop-color="#09005D"/>
<stop offset="1" stop-color="#1A0F91"/>
</linearGradient>
<linearGradient id="paint59_linear_162_118" x1="110.343" y1="151.731" x2="-21.9466" y2="166.355" gradientUnits="userSpaceOnUse">
<stop stop-color="#E1473D"/>
<stop offset="1" stop-color="#E9605A"/>
</linearGradient>
<linearGradient id="paint60_linear_162_118" x1="266.424" y1="146.205" x2="282.545" y2="166.195" gradientUnits="userSpaceOnUse">
<stop stop-color="#F9C200"/>
<stop offset="0.996377" stop-color="#9B1E5F"/>
<stop offset="1" stop-color="#9B1E5F"/>
</linearGradient>
<linearGradient id="paint61_linear_162_118" x1="166.061" y1="91.2009" x2="136.321" y2="73.9686" gradientUnits="userSpaceOnUse">
<stop stop-color="#FEBBBA"/>
<stop offset="1" stop-color="#FF928E"/>
</linearGradient>
<linearGradient id="paint62_linear_162_118" x1="144.699" y1="52.3254" x2="136.26" y2="101.986" gradientUnits="userSpaceOnUse">
<stop stop-color="#FEBBBA"/>
<stop offset="1" stop-color="#FF928E"/>
</linearGradient>
<linearGradient id="paint63_linear_162_118" x1="153.572" y1="75.8317" x2="130.792" y2="51.6331" gradientUnits="userSpaceOnUse">
<stop stop-color="#09005D"/>
<stop offset="1" stop-color="#1A0F91"/>
</linearGradient>
<linearGradient id="paint64_linear_162_118" x1="152.021" y1="106.531" x2="153.522" y2="71.6579" gradientUnits="userSpaceOnUse">
<stop stop-color="#FEBBBA"/>
<stop offset="1" stop-color="#FF928E"/>
</linearGradient>
<linearGradient id="paint65_linear_162_118" x1="189.473" y1="187.653" x2="111.029" y2="123.17" gradientUnits="userSpaceOnUse">
<stop stop-color="#FF928E"/>
<stop offset="1" stop-color="#FE7062"/>
</linearGradient>
<linearGradient id="paint66_linear_162_118" x1="189.473" y1="187.653" x2="111.03" y2="123.169" gradientUnits="userSpaceOnUse">
<stop stop-color="#FFBAB8"/>
<stop offset="1" stop-color="#FEA59C"/>
</linearGradient>
<linearGradient id="paint67_linear_162_118" x1="120.958" y1="137.214" x2="91.4594" y2="180.079" gradientUnits="userSpaceOnUse">
<stop stop-color="#09005D"/>
<stop offset="1" stop-color="#1A0F91"/>
</linearGradient>
<linearGradient id="paint68_linear_162_118" x1="122.018" y1="137.944" x2="92.5198" y2="180.809" gradientUnits="userSpaceOnUse">
<stop stop-color="#09005D"/>
<stop offset="1" stop-color="#1A0F91"/>
</linearGradient>
<linearGradient id="paint69_linear_162_118" x1="123.298" y1="138.825" x2="93.7997" y2="181.69" gradientUnits="userSpaceOnUse">
<stop stop-color="#09005D"/>
<stop offset="1" stop-color="#1A0F91"/>
</linearGradient>
<linearGradient id="paint70_linear_162_118" x1="125.512" y1="140.349" x2="96.0135" y2="183.214" gradientUnits="userSpaceOnUse">
<stop stop-color="#09005D"/>
<stop offset="1" stop-color="#1A0F91"/>
</linearGradient>
<linearGradient id="paint71_linear_162_118" x1="126.971" y1="141.352" x2="97.4724" y2="184.217" gradientUnits="userSpaceOnUse">
<stop stop-color="#09005D"/>
<stop offset="1" stop-color="#1A0F91"/>
</linearGradient>
<linearGradient id="paint72_linear_162_118" x1="127.877" y1="141.976" x2="98.3786" y2="184.841" gradientUnits="userSpaceOnUse">
<stop stop-color="#09005D"/>
<stop offset="1" stop-color="#1A0F91"/>
</linearGradient>
<linearGradient id="paint73_linear_162_118" x1="119.439" y1="136.17" x2="89.941" y2="179.035" gradientUnits="userSpaceOnUse">
<stop stop-color="#09005D"/>
<stop offset="1" stop-color="#1A0F91"/>
</linearGradient>
<linearGradient id="paint74_linear_162_118" x1="-178.884" y1="-37.889" x2="-97.7766" y2="-16.1901" gradientUnits="userSpaceOnUse">
<stop stop-color="#E1473D"/>
<stop offset="1" stop-color="#E9605A"/>
</linearGradient>
<linearGradient id="paint75_linear_162_118" x1="108.973" y1="139.337" x2="-23.3173" y2="153.962" gradientUnits="userSpaceOnUse">
<stop stop-color="#E1473D"/>
<stop offset="1" stop-color="#E9605A"/>
</linearGradient>
<linearGradient id="paint76_linear_162_118" x1="207.815" y1="151.318" x2="143.996" y2="184.557" gradientUnits="userSpaceOnUse">
<stop stop-color="#FEBBBA"/>
<stop offset="1" stop-color="#FF928E"/>
</linearGradient>
<linearGradient id="paint77_linear_162_118" x1="72.4055" y1="155.41" x2="1.27454" y2="148.097" gradientUnits="userSpaceOnUse">
<stop stop-color="#FEBBBA"/>
<stop offset="1" stop-color="#FF928E"/>
</linearGradient>
<linearGradient id="paint78_linear_162_118" x1="302.896" y1="159.686" x2="161.299" y2="82.5719" gradientUnits="userSpaceOnUse">
<stop stop-color="#E1473D"/>
<stop offset="1" stop-color="#E9605A"/>
</linearGradient>
<linearGradient id="paint79_linear_162_118" x1="444.359" y1="-28.3838" x2="369.67" y2="-8.4019" gradientUnits="userSpaceOnUse">
<stop stop-color="#E1473D"/>
<stop offset="1" stop-color="#E9605A"/>
</linearGradient>
<linearGradient id="paint80_linear_162_118" x1="-65.077" y1="219.234" x2="20.6789" y2="237.183" gradientUnits="userSpaceOnUse">
<stop stop-color="#09005D"/>
<stop offset="1" stop-color="#1A0F91"/>
</linearGradient>
<linearGradient id="paint81_linear_162_118" x1="51.6514" y1="199.128" x2="3.78043" y2="115.354" gradientUnits="userSpaceOnUse">
<stop stop-color="#09005D"/>
<stop offset="1" stop-color="#1A0F91"/>
</linearGradient>
<linearGradient id="paint82_linear_162_118" x1="34.8426" y1="240.909" x2="31.3489" y2="273.575" gradientUnits="userSpaceOnUse">
<stop stop-color="#09005D"/>
<stop offset="1" stop-color="#1A0F91"/>
</linearGradient>
<linearGradient id="paint83_linear_162_118" x1="29.0895" y1="258.357" x2="12.7809" y2="311.913" gradientUnits="userSpaceOnUse">
<stop stop-color="#09005D"/>
<stop offset="1" stop-color="#1A0F91"/>
</linearGradient>
<linearGradient id="paint84_linear_162_118" x1="104.368" y1="247.011" x2="119.216" y2="276.883" gradientUnits="userSpaceOnUse">
<stop stop-color="#09005D"/>
<stop offset="1" stop-color="#1A0F91"/>
</linearGradient>
<linearGradient id="paint85_linear_162_118" x1="118.627" y1="253.423" x2="117.994" y2="303.657" gradientUnits="userSpaceOnUse">
<stop stop-color="#09005D"/>
<stop offset="1" stop-color="#1A0F91"/>
</linearGradient>
<linearGradient id="paint86_linear_162_118" x1="-197.31" y1="-26.8958" x2="-89.6007" y2="107.408" gradientUnits="userSpaceOnUse">
<stop stop-color="#09005D"/>
<stop offset="1" stop-color="#1A0F91"/>
</linearGradient>
<linearGradient id="paint87_linear_162_118" x1="70.2079" y1="269.388" x2="120.692" y2="304.848" gradientUnits="userSpaceOnUse">
<stop stop-color="#FF928E"/>
<stop offset="1" stop-color="#FE7062"/>
</linearGradient>
<linearGradient id="paint88_linear_162_118" x1="70.2079" y1="350.394" x2="120.692" y2="385.855" gradientUnits="userSpaceOnUse">
<stop stop-color="#FF928E"/>
<stop offset="1" stop-color="#FE7062"/>
</linearGradient>
<linearGradient id="paint89_linear_162_118" x1="30.638" y1="315.547" x2="66.6158" y2="265.434" gradientUnits="userSpaceOnUse">
<stop stop-color="#FF928E"/>
<stop offset="1" stop-color="#FE7062"/>
</linearGradient>
<linearGradient id="paint90_linear_162_118" x1="111.291" y1="316.348" x2="147.268" y2="266.234" gradientUnits="userSpaceOnUse">
<stop stop-color="#FF928E"/>
<stop offset="1" stop-color="#FE7062"/>
</linearGradient>
<linearGradient id="paint91_linear_162_118" x1="99.7322" y1="291.365" x2="72.2437" y2="310.978" gradientUnits="userSpaceOnUse">
<stop stop-color="#FF928E"/>
<stop offset="1" stop-color="#FE7062"/>
</linearGradient>
<linearGradient id="paint92_linear_162_118" x1="67.5663" y1="307.451" x2="70.309" y2="305.287" gradientUnits="userSpaceOnUse">
<stop stop-color="#FF928E"/>
<stop offset="1" stop-color="#FE7062"/>
</linearGradient>
<linearGradient id="paint93_linear_162_118" x1="81.6372" y1="306.12" x2="45.6471" y2="341.399" gradientUnits="userSpaceOnUse">
<stop stop-color="#FF928E"/>
<stop offset="1" stop-color="#FE7062"/>
</linearGradient>
<linearGradient id="paint94_linear_162_118" x1="70.2785" y1="310.069" x2="120.975" y2="345.68" gradientUnits="userSpaceOnUse">
<stop stop-color="#09005D"/>
<stop offset="1" stop-color="#1A0F91"/>
</linearGradient>
<linearGradient id="paint95_linear_162_118" x1="71.6539" y1="268.448" x2="102.391" y2="290.038" gradientUnits="userSpaceOnUse">
<stop stop-color="#FF928E"/>
<stop offset="1" stop-color="#FE7062"/>
</linearGradient>
<linearGradient id="paint96_linear_162_118" x1="51.1078" y1="274.757" x2="88.3895" y2="279.335" gradientUnits="userSpaceOnUse">
<stop stop-color="#FF928E"/>
<stop offset="1" stop-color="#FE7062"/>
</linearGradient>
<linearGradient id="paint97_linear_162_118" x1="34.6069" y1="292.415" x2="68.7434" y2="276.741" gradientUnits="userSpaceOnUse">
<stop stop-color="#FF928E"/>
<stop offset="1" stop-color="#FE7062"/>
</linearGradient>
<linearGradient id="paint98_linear_162_118" x1="36.1676" y1="335.719" x2="40.5921" y2="298.418" gradientUnits="userSpaceOnUse">
<stop stop-color="#FF928E"/>
<stop offset="1" stop-color="#FE7062"/>
</linearGradient>
<linearGradient id="paint99_linear_162_118" x1="53.952" y1="352.175" x2="38.0858" y2="318.128" gradientUnits="userSpaceOnUse">
<stop stop-color="#FF928E"/>
<stop offset="1" stop-color="#FE7062"/>
</linearGradient>
<linearGradient id="paint100_linear_162_118" x1="97.2439" y1="350.375" x2="59.9191" y2="346.158" gradientUnits="userSpaceOnUse">
<stop stop-color="#FF928E"/>
<stop offset="1" stop-color="#FE7062"/>
</linearGradient>
<linearGradient id="paint101_linear_162_118" x1="114.399" y1="330.817" x2="81.1471" y2="348.285" gradientUnits="userSpaceOnUse">
<stop stop-color="#FF928E"/>
<stop offset="1" stop-color="#FE7062"/>
</linearGradient>
<linearGradient id="paint102_linear_162_118" x1="113.676" y1="293.006" x2="106.03" y2="329.782" gradientUnits="userSpaceOnUse">
<stop stop-color="#FF928E"/>
<stop offset="1" stop-color="#FE7062"/>
</linearGradient>
<linearGradient id="paint103_linear_162_118" x1="99.4138" y1="276.406" x2="110.308" y2="312.355" gradientUnits="userSpaceOnUse">
<stop stop-color="#FF928E"/>
<stop offset="1" stop-color="#FE7062"/>
</linearGradient>
</defs>
</svg>
