<svg width="367" height="355" viewBox="0 0 367 355" fill="none" xmlns="http://www.w3.org/2000/svg">
<path d="M336.257 304.022C276.906 383.432 110.733 364.333 43.5587 280.329C8.61631 236.633 9.18565 186.288 9.5014 176.182C11.9118 98.7408 72.9195 19.718 150.267 10.8298C208.169 4.17675 252.887 39.3963 266.754 50.317C340.535 108.426 388.89 233.6 336.257 304.022Z" fill="url(#paint0_linear_162_530)"/>
<path d="M306.657 324.535C307.426 324.381 308.191 324.216 308.952 324.038C309.139 323.995 309.318 323.929 309.484 323.847C310.448 323.364 310.995 322.266 310.74 321.168C310.446 319.907 309.205 319.112 307.943 319.365C307.919 319.37 307.894 319.374 307.87 319.379C307.154 319.546 306.434 319.702 305.712 319.847C303.983 320.193 302.236 320.476 300.493 320.695C300.434 320.703 300.377 320.711 300.318 320.723C299.102 320.966 298.261 322.113 298.417 323.364C298.582 324.675 299.778 325.604 301.088 325.44C302.947 325.207 304.811 324.904 306.657 324.535M288.705 325.927C288.915 325.885 289.116 325.813 289.301 325.721C290.054 325.345 290.583 324.582 290.621 323.684C290.679 322.364 289.655 321.248 288.336 321.192C286.004 321.092 283.643 320.879 281.319 320.555L280.871 320.492C280.592 320.452 280.317 320.46 280.057 320.512C279.092 320.705 278.309 321.486 278.16 322.514C277.97 323.82 278.874 325.034 280.181 325.225L280.661 325.292C283.136 325.636 285.649 325.864 288.129 325.969C288.327 325.979 288.52 325.964 288.705 325.927ZM268.749 322.38C268.958 322.338 269.162 322.268 269.352 322.171C269.907 321.893 270.354 321.402 270.559 320.762C270.962 319.505 270.267 318.16 269.01 317.756C266.64 316.997 264.283 316.106 262.006 315.109C261.54 314.904 261.043 314.861 260.579 314.954C259.84 315.102 259.182 315.596 258.856 316.34C258.325 317.548 258.877 318.96 260.087 319.49C262.514 320.553 265.026 321.502 267.551 322.312C267.953 322.439 268.363 322.457 268.749 322.38M250.474 313.653C250.683 313.611 250.885 313.541 251.078 313.446C251.441 313.263 251.764 312.985 252.003 312.621C252.729 311.517 252.42 310.033 251.316 309.309C249.238 307.942 247.205 306.453 245.276 304.88C244.699 304.409 243.97 304.254 243.295 304.389C242.769 304.494 242.276 304.775 241.911 305.223C241.076 306.245 241.229 307.752 242.253 308.586C244.31 310.263 246.475 311.851 248.691 313.308C249.239 313.667 249.878 313.772 250.474 313.653ZM235.19 300.356C235.396 300.314 235.596 300.245 235.788 300.15C235.968 300.059 236.138 299.946 236.296 299.807C237.288 298.935 237.386 297.425 236.515 296.433C234.874 294.563 233.309 292.586 231.863 290.556C231.3 289.762 230.339 289.417 229.443 289.597C229.123 289.661 228.812 289.792 228.529 289.994C227.452 290.76 227.202 292.252 227.967 293.328C229.506 295.491 231.173 297.597 232.921 299.588C233.507 300.253 234.379 300.518 235.19 300.356ZM223.97 283.478C224.167 283.438 224.362 283.374 224.549 283.283L224.574 283.271C225.744 282.685 226.228 281.267 225.655 280.087C224.566 277.85 223.581 275.529 222.728 273.188C222.319 272.064 221.153 271.434 220.016 271.662C219.897 271.685 219.781 271.719 219.663 271.76C218.413 272.216 217.783 273.585 218.236 274.826C219.145 277.319 220.193 279.794 221.353 282.178C221.84 283.179 222.93 283.686 223.97 283.478M217.651 264.226C217.866 264.183 218.068 264.113 218.253 264.019C219.182 263.555 219.731 262.519 219.534 261.449C219.084 259.001 218.758 256.502 218.563 254.019C218.46 252.702 217.308 251.719 215.991 251.821C215.894 251.829 215.797 251.843 215.705 251.861C214.534 252.096 213.699 253.175 213.794 254.393C214.002 257.04 214.351 259.704 214.83 262.314C215.069 263.612 216.316 264.472 217.613 264.234C217.626 264.231 217.638 264.229 217.651 264.226M216.716 243.981C216.927 243.939 217.127 243.869 217.314 243.775C218.032 243.416 218.55 242.704 218.628 241.847C218.734 240.635 218.874 239.403 219.043 238.189C219.217 236.934 219.426 235.667 219.666 234.418C219.915 233.121 219.064 231.868 217.767 231.62C217.454 231.559 217.144 231.564 216.85 231.623C215.924 231.808 215.157 232.535 214.968 233.518C214.714 234.845 214.49 236.196 214.306 237.531C214.126 238.824 213.977 240.135 213.863 241.426C213.747 242.742 214.719 243.902 216.035 244.017C216.268 244.039 216.497 244.025 216.716 243.981" fill="url(#paint1_linear_162_530)"/>
<path d="M191.56 229.167C200.207 233.557 211.072 229.526 215.825 220.163C220.579 210.8 217.423 199.651 208.776 195.26C208.328 195.032 207.871 194.841 207.412 194.658C209.019 189.477 210.23 184.256 211.042 179.033C211.538 179.031 212.035 179.023 212.54 178.978C222.405 178.099 230.235 169.033 230.029 158.729C229.823 148.425 221.657 140.785 211.791 141.664C211.275 141.71 210.769 141.792 210.266 141.881C209.236 136.775 207.823 131.787 206.042 126.959C206.496 126.693 206.947 126.419 207.388 126.11C215.829 120.197 218.528 108.525 213.416 100.041C208.304 91.5567 197.318 89.4732 188.877 95.3867C188.445 95.69 188.038 96.0169 187.635 96.3488C184.301 92.663 180.645 89.2482 176.689 86.1305C176.967 85.6743 177.239 85.2119 177.485 84.7271C182.239 75.364 188.452 65.1358 179.737 60.8806C159.576 51.039 150.925 59.4635 146.17 68.8265C145.924 69.3114 145.712 69.8036 145.508 70.2971C140.657 68.9434 135.742 68.0061 130.799 67.489C130.831 66.9681 130.854 66.4472 130.844 65.9189C130.638 55.6149 133.695 50.0395 123.792 49.8469C102.197 49.4267 94.9099 58.7997 95.1175 69.1038C95.1287 69.642 95.1734 70.1691 95.2269 70.6912C90.2781 72.1021 85.4175 73.9059 80.6875 76.0875C80.4625 75.6276 80.2301 75.1713 79.9628 74.7276C74.8512 66.2434 63.8646 64.1599 55.424 70.0746C46.9833 75.9881 44.2845 87.6595 49.3962 96.1437C49.6572 96.5788 49.9444 96.9853 50.2365 97.3856C46.4985 101.124 42.9979 105.184 39.7634 109.538C39.3457 109.276 38.9205 109.02 38.473 108.792C29.826 104.402 18.9613 108.433 14.2077 117.796C9.45405 127.159 12.6103 138.309 21.2573 142.699C21.7048 142.927 22.1623 143.118 22.621 143.301C21.0149 148.482 19.8029 153.703 18.9911 158.927C18.4951 158.928 17.9979 158.937 17.4932 158.981C7.62669 159.861 -0.202368 168.927 0.0039873 179.231C0.210342 189.536 8.37628 197.176 18.2415 196.297C18.7574 196.251 19.2634 196.17 19.7668 196.08C20.7974 201.187 22.2095 206.176 23.9909 211.003C23.5372 211.269 23.0859 211.542 22.6446 211.852C14.2039 217.765 11.5052 229.437 16.6168 237.921C21.7284 246.405 38.652 250.346 47.0927 244.433C47.5253 244.13 41.9947 241.945 42.3975 241.613C45.7315 245.299 49.3875 248.713 53.3443 251.831C53.0658 252.287 52.7936 252.75 52.5474 253.235C47.7938 262.598 50.95 273.747 59.5971 278.138C68.2441 282.528 79.1088 278.497 83.8624 269.134C84.1086 268.649 84.3211 268.157 84.525 267.662C89.3756 269.017 94.2908 269.953 99.2334 270.47C99.2023 270.991 99.1787 271.513 99.1886 272.04C99.395 282.344 107.561 289.984 117.426 289.106C127.293 288.227 135.123 279.159 134.915 268.857C134.904 268.318 134.859 267.791 134.806 267.269C139.755 265.858 144.615 264.055 149.345 261.873C149.57 262.333 149.804 262.789 150.07 263.233C155.182 271.717 166.168 273.8 174.609 267.887C183.05 261.974 185.748 250.302 180.637 241.818C180.374 241.384 180.088 240.978 179.796 240.576C183.534 236.838 187.035 232.778 190.269 228.423C190.687 228.683 191.111 228.939 191.56 229.167ZM83.7617 230.534C52.3647 214.594 40.9058 174.112 58.1663 140.116C75.4267 106.12 114.872 91.4833 146.267 107.424C177.664 123.365 189.123 163.847 171.863 197.843C154.602 231.84 115.159 246.476 83.7617 230.534Z" fill="url(#paint2_linear_162_530)"/>
<path d="M212.54 178.977C222.405 178.097 230.235 169.031 230.029 158.727C229.823 148.422 221.657 140.782 211.791 141.661C211.276 141.707 210.77 141.789 210.266 141.879C209.236 136.772 207.823 131.785 206.042 126.957C206.496 126.692 206.947 126.417 207.388 126.108C215.829 120.194 226.271 105.906 220.317 97.991C209.014 82.9694 197.317 89.4721 188.876 95.3843C188.443 95.6876 188.037 96.0145 187.634 96.3464C184.3 92.6606 180.644 89.2458 176.687 86.1281C176.966 85.6719 177.238 85.2107 177.484 84.7259C180.071 79.6304 180.3 74.0116 178.591 69.2356C170.438 83.5847 162.395 97.9948 154.496 112.482C179.543 130.836 187.517 167.006 171.86 197.842C158.593 223.973 132.22 238.646 106.47 236.807C105.321 239.786 104.193 242.781 102.963 245.731C99.625 253.737 95.8323 261.58 92.0359 269.41C94.4239 269.86 96.8218 270.214 99.2272 270.467C99.1962 270.987 99.1725 271.51 99.1825 272.037C99.3888 282.341 105.645 291.096 123.525 290.147C133.416 289.623 135.116 279.157 134.909 268.852C134.898 268.313 134.853 267.786 134.8 267.264C139.749 265.853 144.609 264.05 149.339 261.868C149.564 262.328 149.798 262.784 150.065 263.228C155.177 271.712 172.911 275.317 181.352 269.402C189.792 263.489 185.743 250.297 180.632 241.812C180.37 241.377 180.084 240.97 179.791 240.57C183.529 236.832 187.03 232.772 190.265 228.419C190.684 228.681 191.107 228.938 191.555 229.164C200.202 233.555 211.067 229.524 215.82 220.161C220.574 210.798 217.418 199.647 208.771 195.258C208.323 195.03 207.866 194.839 207.407 194.656C209.014 189.475 210.225 184.254 211.037 179.03C211.538 179.03 212.035 179.021 212.54 178.977Z" fill="url(#paint3_linear_162_530)"/>
<path d="M200.861 230.225C209.508 234.615 220.372 230.584 225.126 221.221C229.88 211.858 226.723 200.707 218.076 196.318C217.629 196.09 217.171 195.899 216.713 195.716C218.32 190.535 219.531 185.314 220.343 180.089C220.839 180.088 221.336 180.079 221.84 180.035C231.707 179.156 239.536 170.09 239.33 159.786C239.123 149.482 230.957 141.841 221.092 142.72C220.576 142.766 220.07 142.848 219.567 142.938C218.536 137.831 217.124 132.843 215.343 128.016C215.796 127.751 216.248 127.476 216.689 127.167C225.13 121.253 227.828 109.582 222.717 101.098C217.605 92.6134 206.619 90.53 198.178 96.4434C197.745 96.7467 197.339 97.0736 196.936 97.4055C193.602 93.7197 189.946 90.3049 185.989 87.1872C186.268 86.731 186.54 86.2686 186.786 85.7838C191.54 76.4207 188.384 65.2713 179.737 60.8807C171.09 56.4901 160.226 60.5215 155.471 69.8845C155.225 70.3693 155.013 70.8628 154.809 71.3563C149.958 70.0014 145.043 69.0653 140.1 68.5482C140.131 68.0273 140.155 67.5065 140.145 66.9781C139.939 56.6741 131.773 49.0339 121.907 49.9128C112.042 50.7917 104.212 59.8589 104.418 70.1617C104.429 70.7 104.474 71.2271 104.528 71.7492C99.5789 73.1601 94.7183 74.9638 89.9883 77.1455C89.7633 76.6855 89.5296 76.2293 89.2636 75.7855C84.152 67.3013 73.1654 65.2179 64.7248 71.1326C56.2841 77.046 53.5853 88.7175 58.697 97.2017C58.9592 97.6368 59.2452 98.0433 59.5373 98.4435C55.7993 102.182 52.2987 106.242 49.0642 110.595C48.6465 110.333 48.2213 110.076 47.7738 109.849C39.1268 105.458 28.2621 109.49 23.5085 118.853C18.7548 128.216 21.9111 139.365 30.5581 143.756C31.0056 143.983 31.4631 144.175 31.9218 144.358C30.3157 149.539 29.1037 154.76 28.2919 159.983C27.7959 159.985 27.2987 159.993 26.794 160.038C16.9275 160.918 9.09841 169.984 9.30477 180.288C9.51112 190.592 17.6771 198.232 27.5423 197.353C28.0582 197.307 28.5642 197.227 29.0676 197.137C30.0981 202.244 31.5103 207.231 33.2917 212.059C32.8379 212.325 32.3867 212.599 31.9454 212.908C23.5047 218.822 20.8059 230.493 25.9176 238.977C31.0292 247.462 42.0158 249.545 50.4564 243.632C50.889 243.328 51.2955 243.001 51.6983 242.67C55.0323 246.355 58.6883 249.77 62.645 252.888C62.3666 253.344 62.0944 253.806 61.8482 254.291C57.0946 263.654 60.2508 274.804 68.8979 279.194C77.5449 283.585 88.4096 279.554 93.1632 270.191C93.4093 269.706 93.6219 269.213 93.8258 268.72C98.6764 270.075 103.592 271.011 108.534 271.528C108.503 272.049 108.479 272.57 108.489 273.098C108.696 283.402 116.862 291.042 126.727 290.163C136.593 289.285 144.424 280.217 144.216 269.915C144.205 269.376 144.16 268.849 144.107 268.326C149.056 266.915 153.916 265.111 158.646 262.931C158.871 263.391 159.105 263.847 159.372 264.291C164.484 272.775 175.47 274.858 183.911 268.945C192.352 263.032 195.05 251.36 189.939 242.876C189.676 242.442 189.391 242.036 189.098 241.634C192.836 237.896 196.337 233.836 199.572 229.483C199.988 229.741 200.412 229.997 200.861 230.225ZM93.0625 231.592C61.6655 215.652 50.2066 175.17 67.467 141.174C84.7275 107.178 124.172 92.5413 155.568 108.482C186.965 124.422 198.424 164.904 181.164 198.9C163.903 232.896 124.46 247.534 93.0625 231.592Z" fill="url(#paint4_linear_162_530)"/>
<path d="M238.074 225.975C238.16 226.031 238.25 226.085 238.343 226.135C238.459 226.197 238.577 226.25 238.697 226.298C238.862 226.361 239.029 226.411 239.196 226.447C240.426 226.712 241.723 226.247 242.497 225.227C242.602 225.088 242.698 224.94 242.781 224.782C244.447 221.656 246.01 218.421 247.428 215.169C248.076 213.684 247.538 211.982 246.232 211.12C246.075 211.017 245.908 210.927 245.732 210.85C244.093 210.113 242.137 210.885 241.412 212.545C240.063 215.642 238.575 218.721 236.99 221.696C236.187 223.203 236.678 225.053 238.074 225.975ZM248.39 200.686C248.579 200.811 248.784 200.918 249.003 201.003C249.09 201.038 249.181 201.068 249.274 201.095C251.013 201.606 252.835 200.612 253.347 198.872C254.348 195.465 255.226 191.985 255.956 188.527C256.245 187.168 255.647 185.83 254.553 185.109C254.219 184.888 253.84 184.726 253.425 184.637C251.653 184.263 249.911 185.395 249.536 187.169C248.84 190.463 248.005 193.778 247.05 197.023C246.633 198.44 247.218 199.913 248.39 200.686ZM253.387 173.846C253.578 173.971 253.782 174.078 253.998 174.163C254.288 174.276 254.6 174.348 254.926 174.376C256.731 174.521 258.314 173.176 258.462 171.37C258.749 167.835 258.899 164.246 258.908 160.705C258.911 159.557 258.324 158.544 257.432 157.956C256.916 157.615 256.298 157.417 255.635 157.416C253.823 157.411 252.35 158.877 252.345 160.689C252.338 164.058 252.196 167.472 251.921 170.839C251.82 172.075 252.42 173.208 253.387 173.846ZM252.781 146.536C252.974 146.664 253.18 146.77 253.397 146.855C253.89 147.047 254.436 147.122 254.997 147.052C256.795 146.825 258.069 145.183 257.842 143.386C257.398 139.869 256.81 136.325 256.092 132.85C255.907 131.964 255.385 131.236 254.685 130.774C253.983 130.311 253.103 130.116 252.213 130.3C250.438 130.667 249.298 132.404 249.664 134.178C250.348 137.486 250.909 140.861 251.331 144.207C251.457 145.197 252.009 146.027 252.781 146.536ZM246.596 119.925C246.79 120.053 246.997 120.162 247.215 120.246C247.913 120.518 248.707 120.554 249.47 120.291C251.185 119.703 252.096 117.836 251.507 116.122C250.354 112.765 249.056 109.415 247.649 106.167C247.386 105.559 246.96 105.073 246.447 104.734C245.554 104.145 244.389 104.003 243.333 104.461C241.67 105.181 240.906 107.113 241.628 108.776C242.967 111.869 244.203 115.057 245.302 118.254C245.546 118.967 246.012 119.54 246.596 119.925ZM111.358 30.0817C111.551 30.209 111.756 30.3167 111.973 30.4019C112.41 30.5718 112.889 30.6505 113.387 30.616C116.75 30.3854 120.169 30.2854 123.546 30.3203C125.358 30.3388 126.842 28.8835 126.86 27.0727C126.873 25.9156 126.284 24.8909 125.385 24.2974C124.876 23.9619 124.268 23.763 123.613 23.7575C120.064 23.7208 116.472 23.8269 112.939 24.0687C111.13 24.1927 109.766 25.7587 109.89 27.5676C109.962 28.6294 110.534 29.5381 111.358 30.0817ZM235.138 95.1346C235.333 95.2627 235.539 95.3692 235.754 95.4526C236.662 95.8065 237.717 95.7546 238.62 95.2201C240.178 94.2964 240.695 92.283 239.77 90.7241C237.963 87.674 236.013 84.6588 233.977 81.7606C233.732 81.4139 233.434 81.129 233.1 80.9088C232.006 80.1872 230.539 80.1643 229.406 80.9638C227.923 82.0063 227.565 84.0514 228.608 85.5344C230.548 88.2945 232.403 91.1654 234.124 94.0686C234.386 94.511 234.735 94.8688 235.138 95.1346ZM138.656 31.0356C138.845 31.1603 139.049 31.2671 139.267 31.351C139.5 31.443 139.749 31.5081 140.008 31.5441C143.351 32.0098 146.718 32.6126 150.015 33.3371C151.784 33.7262 153.534 32.6054 153.923 30.8356C154.223 29.4709 153.619 28.1179 152.518 27.392C152.192 27.177 151.825 27.0167 151.422 26.9268C147.962 26.1672 144.425 25.5327 140.913 25.044C139.119 24.794 137.46 26.0462 137.212 27.8412C137.031 29.1365 137.632 30.3604 138.656 31.0356ZM218.904 73.1913C219.098 73.3195 219.302 73.4242 219.515 73.5068C220.64 73.9458 221.967 73.7436 222.92 72.8753C224.259 71.6537 224.354 69.5778 223.133 68.2386C220.744 65.6202 218.223 63.0648 215.641 60.6427C215.502 60.5134 215.355 60.398 215.203 60.2974C213.891 59.4321 212.111 59.6087 211.003 60.7919C209.762 62.1139 209.83 64.1903 211.152 65.4298C213.612 67.7352 216.01 70.169 218.284 72.661C218.472 72.8672 218.681 73.0442 218.904 73.1913ZM165.183 37.5306C165.399 37.6734 165.636 37.7918 165.892 37.8859C169.093 39.0232 172.25 40.286 175.334 41.6582C175.382 41.6788 175.43 41.6993 175.479 41.7186C177.101 42.3511 178.949 41.6014 179.664 39.9947C180.327 38.5083 179.792 36.7915 178.477 35.9237C178.328 35.8256 178.171 35.7384 178.002 35.6626C174.765 34.2213 171.451 32.8974 168.091 31.7023C166.383 31.0941 164.507 31.986 163.899 33.6935C163.382 35.1468 163.944 36.7135 165.183 37.5306ZM198.532 55.015C198.728 55.1449 198.934 55.2505 199.146 55.3344C200.506 55.8628 202.103 55.4328 202.996 54.1956C204.057 52.7268 203.725 50.6742 202.255 49.6147C200.719 48.5058 199.148 47.4208 197.555 46.3697C196.171 45.4563 194.771 44.5685 193.361 43.7111C191.818 42.7737 189.796 43.2603 188.853 44.8088C187.932 46.3212 188.381 48.2844 189.847 49.252C189.881 49.2744 189.915 49.2968 189.95 49.3178C191.293 50.1349 192.629 50.9827 193.949 51.8531C195.462 52.8517 196.955 53.8816 198.416 54.935C198.453 54.9634 198.492 54.9892 198.532 55.015Z" fill="url(#paint5_linear_162_530)"/>
<path d="M338.676 277.429C343.803 280.032 350.243 277.642 353.063 272.091C355.881 266.54 354.01 259.93 348.883 257.327C348.617 257.192 348.346 257.078 348.075 256.97C349.027 253.899 349.746 250.803 350.227 247.705C350.52 247.704 350.816 247.699 351.116 247.673C356.965 247.152 361.608 241.777 361.485 235.667C361.363 229.559 356.521 225.029 350.672 225.55C350.366 225.577 350.065 225.625 349.767 225.678C349.157 222.651 348.319 219.693 347.264 216.831C347.532 216.673 347.801 216.51 348.062 216.327C353.066 212.822 354.666 205.901 351.636 200.872C348.605 195.842 342.091 194.606 337.087 198.113C336.831 198.293 336.59 198.487 336.352 198.684C334.375 196.498 332.207 194.473 329.861 192.626C330.027 192.355 330.188 192.082 330.334 191.794C333.152 186.243 336.835 180.179 331.669 177.657C319.716 171.822 314.587 176.816 311.768 182.368C311.623 182.655 311.496 182.947 311.375 183.241C308.499 182.438 305.585 181.883 302.655 181.576C302.673 181.268 302.687 180.958 302.681 180.645C302.559 174.536 304.372 171.23 298.5 171.117C285.698 170.868 281.378 176.425 281.5 182.533C281.506 182.853 281.533 183.165 281.564 183.474C278.631 184.311 275.749 185.38 272.943 186.673C272.81 186.401 272.672 186.13 272.513 185.866C269.483 180.837 262.969 179.601 257.965 183.108C252.961 186.613 251.361 193.534 254.391 198.563C254.547 198.82 254.716 199.062 254.89 199.299C252.673 201.516 250.599 203.922 248.681 206.503C248.433 206.347 248.181 206.196 247.916 206.06C242.789 203.457 236.348 205.848 233.53 211.398C230.711 216.949 232.582 223.559 237.709 226.163C237.975 226.297 238.246 226.411 238.517 226.519C237.565 229.591 236.846 232.686 236.365 235.784C236.072 235.785 235.776 235.789 235.478 235.816C229.629 236.339 224.986 241.712 225.109 247.822C225.231 253.931 230.073 258.461 235.921 257.94C236.227 257.913 236.527 257.864 236.826 257.812C237.437 260.839 238.275 263.796 239.33 266.659C239.061 266.817 238.793 266.98 238.532 267.162C233.527 270.668 231.927 277.588 234.958 282.618C237.989 287.648 248.022 289.985 253.026 286.479C253.283 286.299 250.004 285.004 250.243 284.807C252.22 286.992 254.388 289.017 256.733 290.865C256.568 291.136 256.406 291.409 256.261 291.696C253.443 297.248 255.314 303.858 260.44 306.461C265.567 309.064 272.009 306.673 274.827 301.123C274.972 300.836 275.099 300.544 275.22 300.25C278.096 301.053 281.01 301.609 283.94 301.915C283.921 302.223 283.908 302.532 283.914 302.846C284.036 308.954 288.878 313.484 294.726 312.963C300.575 312.443 305.218 307.067 305.095 300.959C305.089 300.639 305.061 300.327 305.03 300.018C307.964 299.181 310.846 298.112 313.651 296.818C313.784 297.09 313.922 297.361 314.081 297.625C317.112 302.654 323.626 303.89 328.629 300.383C333.634 296.876 335.234 289.957 332.203 284.928C332.048 284.67 331.878 284.429 331.705 284.192C333.921 281.975 335.996 279.569 337.914 276.987C338.159 277.142 338.41 277.295 338.676 277.429ZM274.766 278.241C256.152 268.79 249.358 244.789 259.591 224.635C269.824 204.479 293.21 195.802 311.824 205.252C330.438 214.704 337.232 238.704 326.998 258.859C316.765 279.014 293.38 287.691 274.766 278.241Z" fill="url(#paint6_linear_162_530)"/>
<path d="M351.115 247.673C356.963 247.153 361.606 241.777 361.483 235.667C361.362 229.559 356.52 225.029 350.671 225.55C350.365 225.577 350.065 225.626 349.767 225.678C349.156 222.651 348.319 219.694 347.262 216.831C347.531 216.674 347.799 216.51 348.06 216.327C353.065 212.822 359.256 204.35 355.725 199.657C349.025 190.752 342.09 194.607 337.086 198.112C336.83 198.292 336.589 198.485 336.35 198.683C334.374 196.497 332.206 194.474 329.86 192.625C330.025 192.354 330.187 192.081 330.332 191.793C331.866 188.773 332.002 185.441 330.989 182.609C326.156 191.117 321.387 199.66 316.704 208.25C331.554 219.132 336.282 240.575 327 258.858C319.135 274.35 303.499 283.05 288.231 281.959C287.55 283.726 286.881 285.501 286.153 287.25C284.174 291.996 281.925 296.645 279.675 301.288C281.091 301.556 282.513 301.766 283.939 301.915C283.92 302.223 283.906 302.533 283.913 302.846C284.034 308.955 287.744 314.146 298.345 313.583C304.209 313.272 305.217 307.066 305.095 300.958C305.089 300.638 305.061 300.326 305.03 300.017C307.964 299.18 310.846 298.111 313.651 296.818C313.784 297.09 313.924 297.361 314.081 297.624C317.112 302.655 327.626 304.791 332.63 301.285C337.634 297.779 335.234 289.957 332.203 284.927C332.048 284.669 331.878 284.428 331.705 284.191C333.921 281.974 335.996 279.568 337.914 276.987C338.162 277.142 338.414 277.295 338.679 277.43C343.805 280.033 350.246 277.642 353.065 272.092C355.883 266.541 354.012 259.93 348.886 257.327C348.62 257.192 348.349 257.079 348.078 256.971C349.03 253.899 349.748 250.804 350.23 247.707C350.52 247.706 350.815 247.701 351.115 247.673Z" fill="url(#paint7_linear_162_530)"/>
<path d="M344.189 278.057C349.316 280.66 355.758 278.27 358.576 272.719C361.394 267.168 359.523 260.558 354.397 257.955C354.13 257.819 353.86 257.706 353.589 257.598C354.541 254.526 355.259 251.431 355.74 248.333C356.034 248.332 356.33 248.327 356.629 248.301C362.478 247.78 367.121 242.405 366.998 236.296C366.876 230.188 362.034 225.658 356.185 226.179C355.88 226.206 355.579 226.255 355.28 226.307C354.67 223.279 353.832 220.322 352.777 217.46C353.045 217.302 353.314 217.14 353.575 216.956C358.578 213.451 360.179 206.53 357.149 201.501C354.118 196.471 347.604 195.235 342.601 198.741C342.345 198.921 342.103 199.115 341.865 199.312C339.888 197.126 337.72 195.102 335.375 193.254C335.54 192.983 335.702 192.709 335.847 192.422C338.665 186.871 336.794 180.261 331.668 177.658C326.541 175.055 320.101 177.445 317.281 182.996C317.136 183.283 317.009 183.575 316.888 183.868C314.013 183.065 311.098 182.51 308.168 182.204C308.187 181.896 308.2 181.586 308.194 181.273C308.071 175.164 303.23 170.634 297.382 171.155C291.533 171.676 286.89 177.051 287.013 183.161C287.019 183.481 287.046 183.793 287.078 184.102C284.144 184.939 281.262 186.008 278.457 187.301C278.324 187.028 278.186 186.757 278.027 186.494C274.996 181.464 268.482 180.229 263.477 183.735C258.473 187.241 256.873 194.161 259.903 199.191C260.059 199.448 260.228 199.689 260.402 199.927C258.185 202.143 256.111 204.55 254.193 207.132C253.945 206.977 253.693 206.825 253.428 206.689C248.301 204.086 241.86 206.477 239.042 212.027C236.223 217.579 238.094 224.189 243.221 226.792C243.487 226.927 243.758 227.04 244.029 227.148C243.077 230.22 242.358 233.315 241.877 236.413C241.584 236.414 241.288 236.419 240.988 236.446C235.139 236.966 230.497 242.342 230.62 248.451C230.741 254.56 235.583 259.09 241.432 258.569C241.738 258.542 242.037 258.494 242.337 258.441C242.947 261.469 243.785 264.425 244.842 267.288C244.573 267.446 244.305 267.608 244.044 267.792C239.039 271.297 237.439 278.217 240.47 283.247C243.501 288.277 250.014 289.512 255.018 286.007C255.274 285.826 255.515 285.633 255.754 285.436C257.73 287.622 259.898 289.645 262.244 291.494C262.079 291.765 261.918 292.038 261.772 292.325C258.954 297.877 260.824 304.487 265.951 307.09C271.078 309.693 277.519 307.302 280.337 301.752C280.483 301.465 280.61 301.173 280.73 300.879C283.607 301.682 286.521 302.238 289.451 302.544C289.432 302.852 289.418 303.162 289.425 303.475C289.546 309.583 294.388 314.113 300.237 313.592C306.086 313.072 310.729 307.696 310.606 301.588C310.6 301.268 310.572 300.956 310.541 300.646C313.475 299.809 316.356 298.74 319.162 297.447C319.295 297.719 319.434 297.99 319.592 298.253C322.623 303.282 329.137 304.518 334.14 301.012C339.145 297.505 340.745 290.586 337.714 285.557C337.559 285.299 337.388 285.058 337.216 284.821C339.432 282.604 341.507 280.198 343.425 277.616C343.674 277.77 343.925 277.922 344.189 278.057ZM280.28 278.868C261.666 269.416 254.872 245.417 265.106 225.261C275.339 205.106 298.724 196.428 317.338 205.879C335.953 215.33 342.746 239.33 332.513 259.485C322.28 279.641 298.894 288.319 280.28 278.868Z" fill="url(#paint8_linear_162_530)"/>
<defs>
<linearGradient id="paint0_linear_162_530" x1="183.924" y1="10.0002" x2="183.924" y2="354.497" gradientUnits="userSpaceOnUse">
<stop stop-color="#004CFF"/>
<stop offset="1" stop-color="#001B6D"/>
</linearGradient>
<linearGradient id="paint1_linear_162_530" x1="117.625" y1="891.85" x2="468.094" y2="219.144" gradientUnits="userSpaceOnUse">
<stop stop-color="#F2F5FF"/>
<stop offset="1" stop-color="#F7F9FE"/>
</linearGradient>
<linearGradient id="paint2_linear_162_530" x1="655.036" y1="391.788" x2="49.1151" y2="140.177" gradientUnits="userSpaceOnUse">
<stop offset="0.1" stop-color="#311944"/>
<stop offset="0.267" stop-color="#371B47"/>
<stop offset="0.4803" stop-color="#462150"/>
<stop offset="0.7186" stop-color="#612A5F"/>
<stop offset="0.9736" stop-color="#853774"/>
<stop offset="1" stop-color="#893976"/>
</linearGradient>
<linearGradient id="paint3_linear_162_530" x1="655.339" y1="391.056" x2="49.4189" y2="139.445" gradientUnits="userSpaceOnUse">
<stop offset="0.1" stop-color="#311944"/>
<stop offset="0.267" stop-color="#371B47"/>
<stop offset="0.4803" stop-color="#462150"/>
<stop offset="0.7186" stop-color="#612A5F"/>
<stop offset="0.9736" stop-color="#853774"/>
<stop offset="1" stop-color="#893976"/>
</linearGradient>
<linearGradient id="paint4_linear_162_530" x1="47.2318" y1="121.77" x2="486.779" y2="397.001" gradientUnits="userSpaceOnUse">
<stop stop-color="#6C7BFF"/>
<stop offset="1" stop-color="white"/>
</linearGradient>
<linearGradient id="paint5_linear_162_530" x1="-187.129" y1="289.501" x2="399.672" y2="101.724" gradientUnits="userSpaceOnUse">
<stop stop-color="#F2F5FF"/>
<stop offset="1" stop-color="#F7F9FE"/>
</linearGradient>
<linearGradient id="paint6_linear_162_530" x1="655.276" y1="391.208" x2="49.3572" y2="139.598" gradientUnits="userSpaceOnUse">
<stop offset="0.1" stop-color="#311944"/>
<stop offset="0.267" stop-color="#371B47"/>
<stop offset="0.4803" stop-color="#462150"/>
<stop offset="0.7186" stop-color="#612A5F"/>
<stop offset="0.9736" stop-color="#853774"/>
<stop offset="1" stop-color="#893976"/>
</linearGradient>
<linearGradient id="paint7_linear_162_530" x1="655.456" y1="390.774" x2="49.5364" y2="139.163" gradientUnits="userSpaceOnUse">
<stop offset="0.1" stop-color="#311944"/>
<stop offset="0.267" stop-color="#371B47"/>
<stop offset="0.4803" stop-color="#462150"/>
<stop offset="0.7186" stop-color="#612A5F"/>
<stop offset="0.9736" stop-color="#853774"/>
<stop offset="1" stop-color="#893976"/>
</linearGradient>
<linearGradient id="paint8_linear_162_530" x1="63.8415" y1="95.244" x2="503.39" y2="370.476" gradientUnits="userSpaceOnUse">
<stop stop-color="#183DFF"/>
<stop offset="1" stop-color="white"/>
</linearGradient>
</defs>
</svg>
