<svg width="521" height="521" viewBox="0 0 521 521" fill="none" xmlns="http://www.w3.org/2000/svg">
<rect width="521" height="521" rx="68" fill="#0066FF"/>
<g clip-path="url(#clip0_154_14)">
<path d="M368.613 161.263H152.387C138.94 161.263 128 172.203 128 185.666C128 199.113 138.94 210.053 152.387 210.053H368.613C382.06 210.053 393 199.113 393 185.666C393 172.203 382.06 161.263 368.613 161.263Z" fill="white"/>
<path d="M368.613 236.105H152.387C138.94 236.105 128 247.045 128 260.508C128 273.955 138.94 284.895 152.387 284.895H368.613C382.06 284.895 393 273.955 393 260.508C393 247.045 382.06 236.105 368.613 236.105V236.105Z" fill="white"/>
<path d="M368.613 310.947H152.387C138.94 310.947 128 321.887 128 335.35C128 348.797 138.94 359.737 152.387 359.737H368.613C382.06 359.737 393 348.797 393 335.35C393 321.887 382.06 310.947 368.613 310.947Z" fill="white"/>
</g>
<defs>
<clipPath id="clip0_154_14">
<rect width="265" height="265" fill="white" transform="translate(128 128)"/>
</clipPath>
</defs>
</svg>
