<svg width="26" height="26" viewBox="0 0 26 26" fill="none" xmlns="http://www.w3.org/2000/svg">
<path d="M26 13C26 20.1794 20.1794 26 12.9993 26C5.82067 26 0 20.1794 0 13C0 5.82065 5.82067 0 12.9993 0C20.1794 0 26 5.82065 26 13Z" fill="#0066FF"/>
<path d="M5.80005 20.9727V10.5727H11.8923H14.1078H20.2V20.9727H5.80005Z" fill="white"/>
<path d="M13 20.9727V10.5727H16.0461H17.1539H20.2V20.9727H13Z" fill="white"/>
<path opacity="0.7" d="M14.3335 11.6394V10.5727H16.8156H17.718H20.2002V11.6394H14.3335Z" fill="#0066FF"/>
<path opacity="0.4" d="M5.80005 11.6394V10.5727H8.28218H9.18458H11.6667V11.6394H5.80005Z" fill="#0066FF"/>
<path opacity="0.9" d="M5 7.90604H21V10.5727H5V7.90604Z" fill="white"/>
<path d="M13 7.90604H21V10.5727H13V7.90604Z" fill="white"/>
<path opacity="0.5" d="M11.1333 7.90604H14.8666V10.5727H11.1333V7.90604Z" fill="#0066FF"/>
<path opacity="0.6" d="M13 7.90604H14.8667V10.5727H13V7.90604Z" fill="#0066FF"/>
<path d="M12.4299 6.30603H13.5701C13.7018 6.30603 13.8281 6.35834 13.9213 6.45146C14.0144 6.54458 14.0667 6.67087 14.0667 6.80256V7.90603H11.9333V6.80256C11.9333 6.67087 11.9857 6.54458 12.0788 6.45146C12.1719 6.35834 12.2982 6.30603 12.4299 6.30603Z" fill="white"/>
<path d="M14.0667 6.80203V7.90603H13V6.30603H13.5707C13.6358 6.30589 13.7004 6.31862 13.7606 6.3435C13.8209 6.36838 13.8756 6.40491 13.9217 6.45099C13.9678 6.49708 14.0043 6.55181 14.0292 6.61205C14.0541 6.6723 14.0668 6.73686 14.0667 6.80203Z" fill="white"/>
<path d="M6.59985 7.90603V6.1143C6.59978 5.91705 6.65208 5.72331 6.75142 5.5529C6.85077 5.38248 6.99358 5.24151 7.16527 5.14438C7.33695 5.04726 7.53135 4.99747 7.72859 5.0001C7.92582 5.00273 8.11882 5.05769 8.28785 5.15937L11.9332 7.3727V7.90603H6.59985Z" fill="#77ADFF"/>
<path opacity="0.5" d="M11.6665 10.5727H14.3332V20.9727H11.6665V10.5727Z" fill="#0066FF"/>
<path opacity="0.6" d="M13 10.5727H14.3333V20.9727H13V10.5727Z" fill="#0066FF"/>
<path opacity="0.6" d="M11.6665 10.5727H14.3332V11.6394H11.6665V10.5727Z" fill="#0066FF"/>
<path opacity="0.7" d="M13 10.5727H14.3333V11.6394H13V10.5727Z" fill="#0066FF"/>
<path d="M14.0667 7.90603V7.3727L17.712 5.15937C17.881 5.05769 18.074 5.00273 18.2713 5.0001C18.4685 4.99747 18.6629 5.04726 18.8346 5.14438C19.0063 5.24151 19.1491 5.38248 19.2484 5.5529C19.3478 5.72331 19.4001 5.91705 19.4 6.1143V7.90603H14.0667Z" fill="#77ADFF"/>
</svg>
