<svg width="26" height="26" viewBox="0 0 26 26" fill="none" xmlns="http://www.w3.org/2000/svg">
<path d="M26 13C26 20.1794 20.1794 26 12.9993 26C5.82067 26 0 20.1794 0 13C0 5.82065 5.82067 0 12.9993 0C20.1794 0 26 5.82065 26 13Z" fill="#0066FF"/>
<path d="M22 7.53292V15.6451C22 15.9411 21.7217 16.178 21.3783 16.178H6.50992C6.16648 16.178 5.88818 15.9411 5.88818 15.6451V7.53292C5.88818 7.23685 6.16648 7 6.50992 7H21.3783C21.7217 7 22 7.23685 22 7.53292Z" fill="#1A6C37"/>
<path d="M21.1118 10.1975V18.3096C21.1118 18.6057 20.8335 18.8426 20.4901 18.8426H5.62173C5.2783 18.8426 5 18.6057 5 18.3096V10.1975C5 9.90142 5.2783 9.66457 5.62173 9.66457H20.4901C20.8335 9.66457 21.1118 9.90142 21.1118 10.1975Z" fill="#39B54A"/>
<path d="M16.9226 14.2536C16.9226 14.9552 16.7332 15.6095 16.4045 16.178C15.7384 17.3386 14.489 18.1202 13.056 18.1202C11.6231 18.1202 10.3737 17.3386 9.70757 16.178C9.37893 15.6095 9.18945 14.9552 9.18945 14.2536C9.18945 12.1189 10.9214 10.387 13.056 10.387C15.1907 10.387 16.9226 12.1189 16.9226 14.2536Z" fill="#85C774"/>
<path d="M20.6204 10.3781V18.129C20.6204 18.2119 20.5493 18.283 20.4576 18.283H17.6509V17.9781H20.2947V10.5291H17.6509V10.2241H20.4576C20.5493 10.2241 20.6204 10.2922 20.6204 10.3781Z" fill="#85C774"/>
<path d="M5.81737 10.5291V17.9781H8.46122V18.283H5.65453C5.56275 18.283 5.4917 18.2119 5.4917 18.129V10.3781C5.4917 10.2922 5.56275 10.2241 5.65453 10.2241H8.46122V10.5291H5.81737Z" fill="#85C774"/>
</svg>
