<svg width="26" height="26" viewBox="0 0 26 26" fill="none" xmlns="http://www.w3.org/2000/svg">
<path d="M26 13C26 20.1794 20.1794 26 12.9993 26C5.82067 26 0 20.1794 0 13C0 5.82065 5.82067 0 12.9993 0C20.1794 0 26 5.82065 26 13Z" fill="#0066FF"/>
<path d="M18.1719 8.16502L15.3438 13.9687L16.2301 14.29L18.1719 10.3052L20.1137 14.29L21 13.9687L18.1719 8.16502Z" fill="white"/>
<path d="M17.7031 9.21875H18.6406V14.4375H17.7031V9.21875Z" fill="white"/>
<path d="M15.3438 13.9688C15.3438 15.2611 16.3952 16.3125 17.6875 16.3125H18.6562C19.9486 16.3125 21 15.2611 21 13.9688H15.3438Z" fill="white"/>
<path d="M7.82812 8.16502L5 13.9687L5.88631 14.29L7.82812 10.3052L9.76994 14.29L10.6562 13.9687L7.82812 8.16502Z" fill="white"/>
<path d="M7.35938 9.21875H8.29688V14.4375H7.35938V9.21875Z" fill="white"/>
<path d="M5 13.9688C5 15.2611 6.05141 16.3125 7.34375 16.3125H8.3125C9.60484 16.3125 10.6562 15.2611 10.6562 13.9688H5Z" fill="white"/>
<path d="M6.89062 5.9375C6.11522 5.9375 5.48438 6.56834 5.48438 7.34375C5.48438 8.63609 6.53578 9.6875 7.82812 9.6875H12.5312V6.875H8.21656C8.02309 6.32934 7.50178 5.9375 6.89062 5.9375Z" fill="white"/>
<path d="M19.1094 5.9375C18.4982 5.9375 17.9769 6.32934 17.7834 6.875H13.4688V9.6875H18.1719C19.4642 9.6875 20.5156 8.63609 20.5156 7.34375C20.5156 6.56834 19.8848 5.9375 19.1094 5.9375Z" fill="white"/>
<path d="M14.4062 16.7812V6.40625C14.4062 5.63084 13.7754 5 13 5L11.5938 18.6562L14.4062 16.7812Z" fill="white"/>
<path d="M14.4062 16.7812H13L12.0625 19.125H14.4062V16.7812Z" fill="white"/>
<path d="M13 5C12.2246 5 11.5938 5.63084 11.5938 6.40625V16.7812L13 18.6562V5Z" fill="white"/>
<path d="M11.5938 16.7812H13V19.125H11.5938V16.7812Z" fill="white"/>
<path d="M17.5241 18.1875H13L11.5938 19.5938L13 21H18.9303L17.5241 18.1875Z" fill="white"/>
<path d="M8.47559 18.1875L7.06934 21H12.9997V18.1875H8.47559Z" fill="white"/>
</svg>
