<svg width="26" height="26" viewBox="0 0 26 26" fill="none" xmlns="http://www.w3.org/2000/svg">
<path d="M26 13C26 20.1794 20.1794 26 12.9993 26C5.82067 26 0 20.1794 0 13C0 5.82065 5.82067 0 12.9993 0C20.1794 0 26 5.82065 26 13Z" fill="#0066FF"/>
<path d="M8.81787 9.7915H17.2074V17.382H8.81787V9.7915Z" fill="#EA9D2D"/>
<path d="M14.0112 11.789L13.0124 11.3895L12.0137 11.789V9.7915H14.0112V11.789Z" fill="#007AF6"/>
<path d="M14.2111 12.588H11.8141C11.5934 12.588 11.4146 12.7669 11.4146 12.9875C11.4146 13.2082 11.5934 13.387 11.8141 13.387H14.2111C14.4317 13.387 14.6106 13.2082 14.6106 12.9875C14.6106 12.7669 14.4317 12.588 14.2111 12.588Z" fill="#C38325"/>
<path d="M9.61719 14.186H12.4137V16.583H9.61719V14.186Z" fill="#EAEAE8"/>
<path d="M10.8151 15.1848H10.2159C10.1629 15.1848 10.1121 15.1637 10.0746 15.1263C10.0372 15.0888 10.0161 15.038 10.0161 14.985C10.0161 14.932 10.0372 14.8812 10.0746 14.8438C10.1121 14.8063 10.1629 14.7853 10.2159 14.7853H10.8151C10.8681 14.7853 10.9189 14.8063 10.9564 14.8438C10.9938 14.8812 11.0149 14.932 11.0149 14.985C11.0149 15.038 10.9938 15.0888 10.9564 15.1263C10.9189 15.1637 10.8681 15.1848 10.8151 15.1848Z" fill="#CBCBCB"/>
<path d="M11.4144 15.9838H10.2159C10.1629 15.9838 10.1121 15.9627 10.0746 15.9253C10.0372 15.8878 10.0161 15.837 10.0161 15.784C10.0161 15.731 10.0372 15.6802 10.0746 15.6428C10.1121 15.6053 10.1629 15.5843 10.2159 15.5843H11.4144C11.4673 15.5843 11.5181 15.6053 11.5556 15.6428C11.5931 15.6802 11.6141 15.731 11.6141 15.784C11.6141 15.837 11.5931 15.8878 11.5556 15.9253C11.5181 15.9627 11.4673 15.9838 11.4144 15.9838Z" fill="#CBCBCB"/>
<path d="M8.81787 8.59302H17.2074V9.79152H8.81787V8.59302Z" fill="#FBB540"/>
<path d="M12.0137 8.59302H14.0112V9.79152H12.0137V8.59302Z" fill="#41B2FF"/>
<path d="M3 13H5.5C5.5 8.85781 8.85781 5.5 13 5.5L13.8195 4.28957L13 3C7.47734 3 3 7.47734 3 13Z" fill="white"/>
<path d="M21.3559 5.37695C21.1043 5.28281 21.0742 5.27148 20.823 5.17695L20.0711 5.92891C18.2613 4.11914 15.7613 3 13 3V5.5C15.0711 5.5 16.9461 6.33945 18.3031 7.69648V7.69687L17.5508 8.44922C17.6453 8.70039 17.6566 8.73047 17.7508 8.98203L21.0828 9.20664L21.5805 8.70898L21.3559 5.37695Z" fill="white"/>
<path d="M7.69678 18.3035V18.3031L8.44912 17.5508C8.35459 17.2996 8.34326 17.2695 8.24912 17.018L4.91709 16.7934C4.7167 16.9934 4.61943 17.091 4.41943 17.291L4.64404 20.623C4.89561 20.7172 4.92568 20.7285 5.17686 20.823L5.92881 20.0711C7.73857 21.8808 10.2386 23 12.9999 23L13.8194 21.7754L12.9999 20.5C10.9288 20.5 9.05381 19.6605 7.69678 18.3035Z" fill="white"/>
<path d="M20.5 13C20.5 17.1422 17.1422 20.5 13 20.5V23C18.5227 23 23 18.5227 23 13H20.5Z" fill="white"/>
</svg>
