<svg width="26" height="26" viewBox="0 0 26 26" fill="none" xmlns="http://www.w3.org/2000/svg">
<path d="M26 13C26 20.1794 20.1794 26 12.9993 26C5.82067 26 0 20.1794 0 13C0 5.82065 5.82067 0 12.9993 0C20.1794 0 26 5.82065 26 13Z" fill="#0066FF"/>
<g clip-path="url(#clip0_99_17)">
<path d="M13.3657 4H14.3032V5.87662H13.3657V4Z" fill="#005FE3"/>
<path d="M13.8345 4H14.3032V5.87662H13.8345V4Z" fill="#392E6E"/>
<path d="M6.10938 9.33662H11.2507V19.813H6.10938V9.33662Z" fill="#9DCFFF"/>
<path d="M8.48877 9.33662H10.8682V19.813H8.48877V9.33662Z" fill="#72BBFF"/>
<path d="M15.8994 7.3534V5.37019H11.866V7.3534H10.8682V19.813H16.8973V7.3534H15.8994Z" fill="#392E6E"/>
<path d="M15.8994 7.3534V5.37019H13.8345V19.813H16.8972V7.3534H15.8994Z" fill="#2B2256"/>
<path d="M13.8345 12.849H19.9599V19.813H13.8345V12.849Z" fill="#0094FF"/>
<path d="M16.8975 12.849H19.9602V19.813H16.8975V12.849Z" fill="#005FE3"/>
<path d="M15.4307 14.5045H16.3682V19.813H15.4307V14.5045Z" fill="#D0E8FF"/>
<path d="M17.4263 14.5045H18.3638V19.813H17.4263V14.5045Z" fill="#9DCFFF"/>
<path d="M12.3584 8.86787H13.2959V9.80537H12.3584V8.86787Z" fill="#D0E8FF"/>
<path d="M13.3818 6.85272H14.3193V7.79022H13.3818V6.85272Z" fill="#D0E8FF"/>
<path d="M13.835 6.85272H14.3197V7.79022H13.835V6.85272Z" fill="#9DCFFF"/>
<path d="M12.3901 10.8192H13.3276V11.7567H12.3901V10.8192Z" fill="#D0E8FF"/>
<path d="M14.3735 8.83594H15.311V9.77344H14.3735V8.83594Z" fill="#9DCFFF"/>
<path d="M14.3735 10.8192H15.311V11.7567H14.3735V10.8192Z" fill="#9DCFFF"/>
<path d="M8.02002 10.8511H8.95752V11.7886H8.02002V10.8511Z" fill="white"/>
<path d="M8.02002 12.9744H8.95752V13.9119H8.02002V12.9744Z" fill="white"/>
<path d="M8.02002 15.0977H8.95752V16.0352H8.02002V15.0977Z" fill="white"/>
<path d="M8.02002 17.2209H8.95752V18.1584H8.02002V17.2209Z" fill="white"/>
<path d="M8.48877 10.8511H8.95752V11.7886H8.48877V10.8511Z" fill="#E7F2FF"/>
<path d="M8.48877 12.9744H8.95752V13.9119H8.48877V12.9744Z" fill="#E7F2FF"/>
<path d="M8.48877 15.0977H8.95752V16.0352H8.48877V15.0977Z" fill="#E7F2FF"/>
<path d="M8.48877 17.2209H8.95752V18.1584H8.48877V17.2209Z" fill="#E7F2FF"/>
<path d="M5 19.0625H21V20H5V19.0625Z" fill="#D0E8FF"/>
<path d="M13 19.0625H21V20H13V19.0625Z" fill="#9DCFFF"/>
</g>
<defs>
<clipPath id="clip0_99_17">
<rect width="16" height="16" fill="white" transform="translate(5 4)"/>
</clipPath>
</defs>
</svg>
