<svg width="26" height="26" viewBox="0 0 26 26" fill="none" xmlns="http://www.w3.org/2000/svg">
<path d="M26 13C26 20.1794 20.1794 26 12.9993 26C5.82067 26 0 20.1794 0 13C0 5.82065 5.82067 0 12.9993 0C20.1794 0 26 5.82065 26 13Z" fill="#0066FF"/>
<path fill-rule="evenodd" clip-rule="evenodd" d="M15.917 9.72079H19.5866C19.9365 9.72079 20.235 9.90736 20.3615 10.2053L21.6786 13.3067C21.7176 13.3984 21.7349 13.4826 21.7349 13.581V17.418C21.7349 17.6924 21.5111 17.9161 21.2368 17.9161C16.1346 17.9161 11.0324 17.9161 5.93014 17.9161C5.56441 17.9161 5.26611 17.6178 5.26611 17.252V8.25381C5.26611 7.88808 5.56441 7.58978 5.93014 7.58978H15.253C15.6187 7.58978 15.917 7.88811 15.917 8.25381L15.917 9.72079Z" fill="#9C9C9C"/>
<path fill-rule="evenodd" clip-rule="evenodd" d="M15.9165 9.72079H16.3608V17.9161H15.9165V9.72079Z" fill="#003DFF"/>
<path fill-rule="evenodd" clip-rule="evenodd" d="M20.8917 15.3108H21.7344V16.7342H20.8917C20.7653 16.7342 20.6621 16.6311 20.6621 16.5046V15.5403C20.6621 15.4139 20.7653 15.3108 20.8917 15.3108Z" fill="#837683"/>
<path fill-rule="evenodd" clip-rule="evenodd" d="M21.4355 15.3108H21.7344V16.7342H21.4355V15.3108Z" fill="#685E68"/>
<path fill-rule="evenodd" clip-rule="evenodd" d="M20.4824 13.1021L19.5658 10.9438C19.5126 10.8185 19.3963 10.7416 19.2602 10.7416H17.2695C17.0866 10.7416 16.9375 10.8907 16.9375 11.0736V13.001C16.9375 13.1839 17.0866 13.333 17.2695 13.333H20.3296C20.387 13.333 20.4364 13.3065 20.4681 13.2587C20.4997 13.2108 20.5048 13.155 20.4824 13.1021Z" fill="#ECEFF1"/>
<path fill-rule="evenodd" clip-rule="evenodd" d="M17.2695 13.001V11.0736C17.2695 10.8907 17.4187 10.7416 17.6016 10.7416H17.2695C17.0866 10.7416 16.9375 10.8907 16.9375 11.0736V13.001C16.9375 13.1839 17.0866 13.3331 17.2695 13.3331H17.6016C17.4187 13.333 17.2695 13.1839 17.2695 13.001Z" fill="#D1D1D6"/>
<path fill-rule="evenodd" clip-rule="evenodd" d="M5.26611 17.2521V8.25381C5.26611 7.88808 5.56441 7.58978 5.93014 7.58978H15.253C15.6187 7.58978 15.917 7.88811 15.917 8.25381V17.9161H5.93014C5.56441 17.9161 5.26611 17.6178 5.26611 17.2521Z" fill="white"/>
<path fill-rule="evenodd" clip-rule="evenodd" d="M6.58594 17.2521V8.25381C6.58594 7.88808 6.88423 7.58978 7.24997 7.58978H5.93014C5.56441 7.58978 5.26611 7.88808 5.26611 8.25381V17.2521C5.26611 17.6178 5.56441 17.9161 5.93014 17.9161H7.2489C6.88367 17.9155 6.58594 17.6174 6.58594 17.2521Z" fill="#E9E9E9"/>
<path fill-rule="evenodd" clip-rule="evenodd" d="M5.26584 17.2521V15.5169H15.9168V17.9161H5.92987C5.87864 17.9181 5.67178 17.9204 5.49119 17.7683C5.26036 17.5737 5.26468 17.2887 5.26584 17.2521Z" fill="#E3E3E3"/>
<path fill-rule="evenodd" clip-rule="evenodd" d="M7.24842 17.9161C6.88319 17.9155 6.58546 17.6174 6.58546 17.2521V15.5169H5.26563V17.2521C5.26387 17.2922 5.25743 17.5292 5.44327 17.7218C5.63153 17.9168 5.87259 17.9166 5.91236 17.9159L7.24842 17.9161Z" fill="#E9E9E9"/>
<path fill-rule="evenodd" clip-rule="evenodd" d="M9.15527 7.58978H12.0273V10.7575C12.0273 10.9403 11.8782 11.0895 11.6953 11.0895H9.4873C9.30442 11.0895 9.15527 10.9403 9.15527 10.7575V7.58978Z" fill="#86B6FF"/>
<path fill-rule="evenodd" clip-rule="evenodd" d="M11.6953 7.58978V10.7575C11.6953 10.9403 11.5462 11.0895 11.3633 11.0895H11.6953C11.8782 11.0895 12.0273 10.9403 12.0273 10.7575V7.58978H11.6953Z" fill="#E3E3E3"/>
<path d="M18.8257 19.4102C19.6509 19.4102 20.3198 18.7413 20.3198 17.9161C20.3198 17.0909 19.6509 16.422 18.8257 16.422C18.0005 16.422 17.3315 17.0909 17.3315 17.9161C17.3315 18.7413 18.0005 19.4102 18.8257 19.4102Z" fill="#685E68"/>
<path fill-rule="evenodd" clip-rule="evenodd" d="M18.8257 17.169C18.4128 17.169 18.0786 17.5032 18.0786 17.9161C18.0786 18.329 18.4128 18.6632 18.8257 18.6632C19.2386 18.6632 19.5728 18.329 19.5728 17.9161C19.5728 17.5032 19.2386 17.169 18.8257 17.169Z" fill="#837683"/>
<path d="M9.27249 19.4104C10.0977 19.4104 10.7667 18.7414 10.7667 17.9162C10.7667 17.091 10.0977 16.422 9.27249 16.422C8.44728 16.422 7.77832 17.091 7.77832 17.9162C7.77832 18.7414 8.44728 19.4104 9.27249 19.4104Z" fill="#685E68"/>
<path fill-rule="evenodd" clip-rule="evenodd" d="M9.27243 17.169C8.85955 17.169 8.52539 17.5032 8.52539 17.9161C8.52539 18.329 8.85955 18.6632 9.27243 18.6632C9.68531 18.6632 10.0195 18.329 10.0195 17.9161C10.0195 17.5032 9.68534 17.169 9.27243 17.169Z" fill="#837683"/>
</svg>
