<svg width="26" height="26" viewBox="0 0 26 26" fill="none" xmlns="http://www.w3.org/2000/svg">
<path d="M26 13C26 20.1794 20.1794 26 12.9993 26C5.82067 26 0 20.1794 0 13C0 5.82065 5.82067 0 12.9993 0C20.1794 0 26 5.82065 26 13Z" fill="#0066FF"/>
<path d="M16.8055 8.13539C15.5787 7.80234 13.9513 8.20348 12.9967 9.56098C11.974 8.11975 10.3374 7.78624 9.15867 8.11791C7.82704 8.49236 7 9.65987 7 11.1646C7 14.6041 12.5882 18.7668 12.8259 18.9425C12.8779 18.9807 12.9391 19 12.9998 19C13.0605 19 13.1217 18.9807 13.1737 18.9425C13.4113 18.7668 19 14.6041 19 11.1646C19 9.66309 18.159 8.50203 16.8055 8.13539Z" fill="white"/>
</svg>
