<svg width="26" height="26" viewBox="0 0 26 26" fill="none" xmlns="http://www.w3.org/2000/svg">
<path d="M26 13C26 20.1794 20.1794 26 12.9993 26C5.82067 26 0 20.1794 0 13C0 5.82065 5.82067 0 12.9993 0C20.1794 0 26 5.82065 26 13Z" fill="#0066FF"/>
<path d="M21.182 10.2829V16.6937C21.182 18.5047 19.7102 19.9766 17.8991 19.9766H8.28287C6.47182 19.9766 5 18.5047 5 16.6937V10.2829C5 8.47182 6.47182 7 8.28287 7H17.8991C19.7102 7 21.182 8.47182 21.182 10.2829Z" fill="white"/>
<path d="M5 10.3176H21.182V13.4536H5V10.3176Z" fill="#525252"/>
<path d="M12.8239 17.8263H8.01582C7.6846 17.8263 7.41748 17.5592 7.41748 17.2279C7.41748 16.8967 7.6846 16.6296 8.01582 16.6296H12.8239C13.1552 16.6296 13.4223 16.8967 13.4223 17.2279C13.4223 17.5592 13.1552 17.8263 12.8239 17.8263Z" fill="#0066FF"/>
</svg>
