<svg width="26" height="26" viewBox="0 0 26 26" fill="none" xmlns="http://www.w3.org/2000/svg">
<path d="M26 13C26 20.1794 20.1794 26 12.9993 26C5.82067 26 0 20.1794 0 13C0 5.82065 5.82067 0 12.9993 0C20.1794 0 26 5.82065 26 13Z" fill="none"/>
<path d="M20.2496 10.237H14.479V5.85619C14.479 5.53964 14.2215 5.28217 13.905 5.28217H12.8174C12.5008 5.28217 12.2433 5.53967 12.2433 5.85619V10.237H6.47271C6.08958 10.237 5.77783 10.5487 5.77783 10.9319V12.4299C5.77783 12.8131 6.08958 13.1248 6.47271 13.1248H6.57269L7.35582 18.6905C7.4605 19.4346 8.10606 19.9956 8.85741 19.9956H17.8649C18.6162 19.9956 19.2618 19.4345 19.3665 18.6905L20.1496 13.1248H20.2496C20.6328 13.1248 20.9445 12.813 20.9445 12.4299V10.9319C20.9445 10.5487 20.6328 10.237 20.2496 10.237Z" fill="white"/>
<path d="M9.69079 13.7222C9.52393 13.7222 9.38867 13.8575 9.38867 14.0243V18.2541C9.38867 18.4209 9.52393 18.5562 9.69079 18.5562C9.85765 18.5562 9.99291 18.4209 9.99291 18.2541V14.0243C9.99294 13.8575 9.85765 13.7222 9.69079 13.7222Z" fill="#0066FF"/>
<path d="M11.4188 13.7222C11.252 13.7222 11.1167 13.8575 11.1167 14.0243V18.2541C11.1167 18.4209 11.252 18.5562 11.4188 18.5562C11.5857 18.5562 11.7209 18.4209 11.7209 18.2541V14.0243C11.7209 13.8575 11.5857 13.7222 11.4188 13.7222Z" fill="#0066FF"/>
<path d="M13.1473 13.7222C12.9805 13.7222 12.8452 13.8575 12.8452 14.0243V18.2541C12.8452 18.4209 12.9805 18.5562 13.1473 18.5562C13.3142 18.5562 13.4495 18.4209 13.4495 18.2541V14.0243C13.4495 13.8575 13.3142 13.7222 13.1473 13.7222Z" fill="#0066FF"/>
<path d="M14.8758 13.7222C14.709 13.7222 14.5737 13.8575 14.5737 14.0243V18.2541C14.5737 18.4209 14.709 18.5562 14.8758 18.5562C15.0427 18.5562 15.178 18.4209 15.178 18.2541V14.0243C15.178 13.8575 15.0427 13.7222 14.8758 13.7222Z" fill="#0066FF"/>
<path d="M16.8758 13.7222C16.709 13.7222 16.5737 13.8575 16.5737 14.0243V18.2541C16.5737 18.4209 16.709 18.5562 16.8758 18.5562C17.0427 18.5562 17.178 18.4209 17.178 18.2541V14.0243C17.178 13.8575 17.0427 13.7222 16.8758 13.7222Z" fill="#0066FF"/>
</svg>
