<svg width="26" height="26" viewBox="0 0 26 26" fill="none" xmlns="http://www.w3.org/2000/svg">
<path d="M26 13C26 20.1794 20.1794 26 12.9993 26C5.82067 26 0 20.1794 0 13C0 5.82065 5.82067 0 12.9993 0C20.1794 0 26 5.82065 26 13Z" fill="#0066FF"/>
<path d="M5 7H21V19.3685H5V7Z" fill="#E9EDF5"/>
<path d="M13.0056 7H20.9999V19.3685H13.0056V7Z" fill="#CDD2E1"/>
<path d="M6.71289 8.78972H19.2873V17.5788H6.71289V8.78972Z" fill="white"/>
<path d="M13.0056 8.78972H19.2871V17.5788H13.0056V8.78972Z" fill="#E9EDF5"/>
<path d="M17.8258 21.7832L16.245 20.7421L14.6643 21.7832V16.9538H17.8258V21.7832Z" fill="#FF6C52"/>
<path d="M16.2424 16.9538L16.2451 20.7421L17.8258 21.7832V16.9538H16.2424Z" fill="#FF432E"/>
<path d="M8.06787 10.037H12.2104V11.4678H8.06787V10.037Z" fill="#CDD2E1"/>
<path d="M8.06787 14.9007H12.2104V16.3315H8.06787V14.9007Z" fill="#CDD2E1"/>
<path d="M8.06787 12.4688H18.2299V13.8996H8.06787V12.4688Z" fill="#CDD2E1"/>
<path d="M13.0056 12.4688H18.2297V13.8996H13.0056V12.4688Z" fill="#AFB4C8"/>
<path d="M16.2452 19.0726C17.5691 19.0726 18.6423 17.9994 18.6423 16.6755C18.6423 15.3516 17.5691 14.2784 16.2452 14.2784C14.9214 14.2784 13.8481 15.3516 13.8481 16.6755C13.8481 17.9994 14.9214 19.0726 16.2452 19.0726Z" fill="#FFCE00"/>
<path d="M16.2451 14.2784L16.2424 14.2784V19.0724L16.2451 19.0725C17.5689 19.0725 18.6421 17.9993 18.6421 16.6754C18.6421 15.3516 17.5689 14.2784 16.2451 14.2784Z" fill="#FDBA12"/>
</svg>
