<svg width="26" height="26" viewBox="0 0 26 26" fill="none" xmlns="http://www.w3.org/2000/svg">
<path d="M26 13C26 20.1794 20.1794 26 12.9993 26C5.82067 26 0 20.1794 0 13C0 5.82065 5.82067 0 12.9993 0C20.1794 0 26 5.82065 26 13Z" fill="#0066FF"/>
<path d="M20.9849 13.4059L20.3889 18.321C20.2811 19.2122 19.5257 19.8821 18.6303 19.8821H13.5791C12.9962 19.8821 12.4077 19.7266 11.8831 19.4136C11.3707 19.1076 10.7847 18.9461 10.1881 18.9461H8.71973V11.1889L9.78106 11.133C10.5523 11.0925 11.2576 10.6828 11.6757 10.0317L13.0661 7.86812L14.6654 5.38021C14.8314 5.12188 15.1244 4.9797 15.4241 5.00235C15.4703 5.00572 15.517 5.01344 15.5632 5.025L15.6036 5.03464C16.4374 5.24382 17.0214 5.99375 17.0214 6.85358V6.87286C17.0161 7.42953 16.9493 7.98138 16.8227 8.51974C16.6957 9.0581 16.5095 9.58247 16.2661 10.0823C16.2141 10.1883 16.1881 10.3035 16.1881 10.4196C16.1881 10.4886 16.1973 10.5585 16.2165 10.6259C16.3089 10.959 16.6115 11.1889 16.9565 11.1889H19.0248C20.2098 11.1889 21.1283 12.2275 20.9849 13.4059Z" fill="#FFBFAB"/>
<path d="M10.121 10.9214V19.1668C10.121 19.5548 9.78231 19.8705 9.3628 19.8748L7.56054 19.8941L5.77558 19.9124H5.7669C5.56482 19.9124 5.37092 19.8392 5.22758 19.7081C5.08179 19.5746 5 19.3934 5 19.2044V10.9214C5 10.531 5.34302 10.2134 5.7669 10.2134H9.35413C9.77754 10.2134 10.121 10.531 10.121 10.9214Z" fill="#47568C"/>
<path d="M20.9851 13.4059L20.389 18.321C20.2812 19.2121 19.5259 19.8821 18.6305 19.8821H15.4243V5.00234C15.4705 5.00572 15.5172 5.01343 15.5634 5.02499L15.6038 5.03463C16.4376 5.24381 17.0216 5.99375 17.0216 6.85357V6.87285C17.0163 7.42952 16.9495 7.98137 16.8229 8.51973C16.6959 9.05809 16.5097 9.58247 16.2663 10.0823C16.2143 10.1883 16.1883 10.3035 16.1883 10.4196C16.1883 10.4886 16.1975 10.5584 16.2167 10.6259C16.3091 10.959 16.6117 11.1889 16.9567 11.1889H19.025C20.21 11.1889 21.1285 12.2275 20.9851 13.4059Z" fill="#F89580"/>
<path d="M10.121 10.9214V19.1668C10.121 19.5548 9.78231 19.8705 9.36281 19.8748L7.56055 19.8941V10.2134H9.35418C9.77754 10.2134 10.121 10.531 10.121 10.9214Z" fill="#29376D"/>
</svg>
