<svg width="26" height="26" viewBox="0 0 26 26" fill="none" xmlns="http://www.w3.org/2000/svg">
<path d="M26 13C26 20.1794 20.1794 26 12.9993 26C5.82067 26 0 20.1794 0 13C0 5.82065 5.82067 0 12.9993 0C20.1794 0 26 5.82065 26 13Z" fill="#0066FF"/>
<path d="M19.4688 20.7188H6.53125L7.9375 7.5H18.0625L19.4688 20.7188Z" fill="white"/>
<path opacity="0.7" d="M19.4688 20.7188H13V7.5H18.0625L19.4688 20.7188Z" fill="#0066FF"/>
<path d="M10.75 10.5938C11.216 10.5938 11.5938 10.216 11.5938 9.75C11.5938 9.28401 11.216 8.90625 10.75 8.90625C10.284 8.90625 9.90625 9.28401 9.90625 9.75C9.90625 10.216 10.284 10.5938 10.75 10.5938Z" fill="white"/>
<path d="M15.25 10.5938C15.716 10.5938 16.0938 10.216 16.0938 9.75C16.0938 9.28401 15.716 8.90625 15.25 8.90625C14.784 8.90625 14.4062 9.28401 14.4062 9.75C14.4062 10.216 14.784 10.5938 15.25 10.5938Z" fill="white"/>
<path d="M15.25 10.0312C15.1754 10.0312 15.1039 10.0016 15.0511 9.94887C14.9984 9.89613 14.9688 9.82459 14.9688 9.75V5.8125C14.9688 5.29035 14.7613 4.7896 14.3921 4.42038C14.0229 4.05117 13.5221 3.84375 13 3.84375C12.4779 3.84375 11.9771 4.05117 11.6079 4.42038C11.2387 4.7896 11.0312 5.29035 11.0312 5.8125V9.75C11.0312 9.82459 11.0016 9.89613 10.9489 9.94887C10.8961 10.0016 10.8246 10.0312 10.75 10.0312C10.6754 10.0312 10.6039 10.0016 10.5511 9.94887C10.4984 9.89613 10.4688 9.82459 10.4688 9.75V5.8125C10.4688 5.14117 10.7354 4.49734 11.2101 4.02264C11.6848 3.54793 12.3287 3.28125 13 3.28125C13.6713 3.28125 14.3152 3.54793 14.7899 4.02264C15.2646 4.49734 15.5312 5.14117 15.5312 5.8125V9.75C15.5312 9.82459 15.5016 9.89613 15.4489 9.94887C15.3961 10.0016 15.3246 10.0312 15.25 10.0312Z" fill="#E6E7E8"/>
<path d="M15.5312 5.8125V9.75C15.5312 9.82459 15.5016 9.89613 15.4489 9.94887C15.3961 10.0016 15.3246 10.0312 15.25 10.0312C15.1754 10.0312 15.1039 10.0016 15.0511 9.94887C14.9984 9.89613 14.9688 9.82459 14.9688 9.75V5.8125C14.9682 5.29054 14.7605 4.79012 14.3915 4.42104C14.0224 4.05196 13.522 3.84435 13 3.84375V3.28125C13.671 3.28229 14.3142 3.54931 14.7887 4.02379C15.2632 4.49826 15.5302 5.14149 15.5312 5.8125Z" fill="#D1D3D4"/>
</svg>
