<svg width="26" height="26" viewBox="0 0 26 26" fill="none" xmlns="http://www.w3.org/2000/svg">
<path d="M26 13C26 20.1794 20.1794 26 12.9993 26C5.82067 26 0 20.1794 0 13C0 5.82065 5.82067 0 12.9993 0C20.1794 0 26 5.82065 26 13Z" fill="#0066FF"/>
<path d="M7.24316 9.09667C7.24316 8.36749 7.47725 7.62861 7.94552 6.8802C8.41363 6.13178 9.09696 5.51197 9.99504 5.02064C10.8932 4.52947 11.941 4.28375 13.1384 4.28375C14.2513 4.28375 15.234 4.48922 16.0861 4.89975C16.9381 5.31048 17.5962 5.86893 18.0608 6.57506C18.5251 7.28139 18.7573 8.04888 18.7573 8.87789C18.7573 9.53041 18.6249 10.1024 18.3601 10.5935C18.0952 11.0848 17.7804 11.5089 17.4159 11.8658C17.0512 12.2228 16.3969 12.8234 15.4527 13.6678C15.1917 13.9058 14.9824 14.1151 14.8252 14.2954C14.6678 14.4758 14.5507 14.6408 14.474 14.7904C14.3972 14.9401 14.3376 15.0898 14.2955 15.2395C14.2532 15.3891 14.1899 15.6522 14.1056 16.0282C13.9597 16.8266 13.5029 17.2257 12.7354 17.2257C12.3362 17.2257 12.0003 17.0953 11.7279 16.8342C11.4553 16.5733 11.3191 16.1857 11.3191 15.6713C11.3191 15.0265 11.4188 14.4681 11.6185 13.996C11.8181 13.5239 12.0829 13.1094 12.413 12.7525C12.7429 12.3955 13.1882 11.9715 13.7486 11.4802C14.2398 11.0504 14.5949 10.726 14.8137 10.5072C15.0325 10.2884 15.2167 10.0448 15.3664 9.77602C15.5161 9.50741 15.591 9.21579 15.591 8.90095C15.591 8.2869 15.3625 7.76879 14.9058 7.34653C14.4491 6.92448 13.8598 6.71324 13.1384 6.71324C12.2939 6.71324 11.6721 6.92626 11.2731 7.3523C10.8739 7.77833 10.5362 8.40585 10.2598 9.23486C9.99881 10.1024 9.50366 10.536 8.77447 10.536C8.34446 10.536 7.98178 10.3845 7.68639 10.0812C7.39089 9.77796 7.24316 9.44982 7.24316 9.09667ZM12.8621 21.7163C12.3938 21.7163 11.985 21.5646 11.6358 21.2614C11.2864 20.9583 11.1119 20.5342 11.1119 19.9891C11.1119 19.5055 11.2806 19.0988 11.6185 18.7686C11.9562 18.4387 12.3707 18.2735 12.862 18.2735C13.3457 18.2735 13.7524 18.4387 14.0826 18.7686C14.4125 19.0988 14.5777 19.5055 14.5777 19.9891C14.5777 20.5265 14.4049 20.9487 14.0595 21.2557C13.7141 21.5627 13.315 21.7163 12.8621 21.7163Z" fill="white"/>
</svg>
