<svg width="36" height="36" viewBox="0 0 36 36" fill="none" xmlns="http://www.w3.org/2000/svg">
<path d="M36 18C36 27.9407 27.9407 36 17.999 36C8.05938 36 0 27.9407 0 18C0 8.05937 8.05938 0 17.999 0C27.9407 0 36 8.05937 36 18Z" fill="none"/>
<path d="M17.999 17C13.0288 17 9 20.9015 9 25.7137C9 26.9766 10.057 28 11.3614 28H24.6385C25.942 28 27 26.9766 27 25.7137C27 20.9015 22.9703 17 17.999 17Z" fill="white"/>
<path d="M23 9.99999C23 12.7624 20.7607 15 17.9995 15C15.2393 15 13 12.7624 13 9.99999C13 7.23853 15.2393 5 17.9995 5C20.7607 5 23 7.23853 23 9.99999Z" fill="white"/>
</svg>
