<svg width="26" height="26" viewBox="0 0 26 26" fill="none" xmlns="http://www.w3.org/2000/svg">
<path d="M26 13C26 20.1794 20.1794 26 12.9993 26C5.82067 26 0 20.1794 0 13C0 5.82065 5.82067 0 12.9993 0C20.1794 0 26 5.82065 26 13Z" fill="#0066FF"/>
<path d="M14.5558 16.6669H11.4447C11.29 16.6669 11.1416 16.7284 11.0322 16.8378C10.9228 16.9472 10.8613 17.0955 10.8613 17.2503V19.5836C10.8613 20.1509 11.0867 20.6949 11.4878 21.0961C11.8889 21.4972 12.433 21.7225 13.0002 21.7225C13.5675 21.7225 14.1116 21.4972 14.5127 21.0961C14.9138 20.6949 15.1392 20.1509 15.1392 19.5836V17.2503C15.1392 17.0955 15.0777 16.9472 14.9683 16.8378C14.8589 16.7284 14.7105 16.6669 14.5558 16.6669Z" fill="white"/>
<path d="M19.0279 7.13901V14.9169C19.0269 15.0713 18.9651 15.2191 18.8559 15.3283C18.7467 15.4374 18.5989 15.4992 18.4445 15.5002H7.55551C7.40111 15.4992 7.25333 15.4374 7.14415 15.3283C7.03497 15.2191 6.97319 15.0713 6.97217 14.9169V7.13901C6.97196 6.85806 7.02715 6.57984 7.13457 6.32024C7.24199 6.06064 7.39953 5.82477 7.59819 5.62611C7.79684 5.42745 8.03272 5.26991 8.29232 5.16249C8.55191 5.05507 8.83014 4.99989 9.11109 5.00009H9.70221C10.114 4.99625 10.5175 5.11541 10.8611 5.34232C11.0914 5.48441 11.29 5.67239 11.4445 5.89455C11.5989 5.67239 11.7975 5.48441 12.0278 5.34232C12.3714 5.11541 12.7749 4.99625 13.1867 5.00009H16.889C17.1699 4.99989 17.4481 5.05507 17.7077 5.16249C17.9673 5.26991 18.2032 5.42745 18.4019 5.62611C18.6005 5.82477 18.7581 6.06064 18.8655 6.32024C18.9729 6.57984 19.0281 6.85806 19.0279 7.13901Z" fill="white"/>
<path d="M18.4446 14.528H7.55558C6.69646 14.528 6 15.2245 6 16.0836C6 16.9427 6.69646 17.6392 7.55558 17.6392H18.4446C19.3037 17.6392 20.0002 16.9427 20.0002 16.0836C20.0002 15.2245 19.3037 14.528 18.4446 14.528Z" fill="#AFCBF9"/>
</svg>
