<svg width="26" height="26" viewBox="0 0 26 26" fill="none" xmlns="http://www.w3.org/2000/svg">
<path d="M26 13C26 20.1794 20.1794 26 12.9993 26C5.82067 26 0 20.1794 0 13C0 5.82065 5.82067 0 12.9993 0C20.1794 0 26 5.82065 26 13Z" fill="#0066FF"/>
<path d="M13.0211 6C9.17639 6 6 9.17639 6 13.0211C6 14.2392 6.31722 15.432 6.92624 16.4598C7.39573 17.2846 7.38308 18.5662 6.571 19.0483C6.31722 19.1879 5.96616 19.4459 6.0423 19.7251C6.11843 20.0042 6.34264 20 6.63444 20H13.0211C13.5795 20 14.1251 19.9366 14.5946 19.8224C17.1704 19.226 19.226 17.1704 19.8224 14.6073C19.9366 14.1251 20 13.5921 20 13.0211C20 9.17639 16.8659 6 13.0211 6ZM10.4834 13.6556C10.1281 13.6556 9.84894 13.3764 9.84894 13.0211C9.84894 12.6658 10.1281 12.3867 10.4834 12.3867C10.8387 12.3867 11.1178 12.6658 11.1178 13.0211C11.1178 13.3764 10.8387 13.6556 10.4834 13.6556ZM13.0211 13.6556C12.6658 13.6556 12.3867 13.3764 12.3867 13.0211C12.3867 12.6658 12.6658 12.3867 13.0211 12.3867C13.3765 12.3867 13.6556 12.6658 13.6556 13.0211C13.6556 13.3764 13.3765 13.6556 13.0211 13.6556ZM15.5589 13.6556C15.2036 13.6556 14.9245 13.3764 14.9245 13.0211C14.9245 12.6658 15.2036 12.3867 15.5589 12.3867C15.9142 12.3867 16.1934 12.6658 16.1934 13.0211C16.1934 13.3764 15.9142 13.6556 15.5589 13.6556Z" fill="url(#paint0_linear_99_11)"/>
<defs>
<linearGradient id="paint0_linear_99_11" x1="14.9033" y1="21.2689" x2="14.9033" y2="6" gradientUnits="userSpaceOnUse">
<stop stop-color="white"/>
<stop offset="1" stop-color="#FFF1FF"/>
</linearGradient>
</defs>
</svg>
