<svg width="26" height="26" viewBox="0 0 26 26" fill="none" xmlns="http://www.w3.org/2000/svg">
<path d="M26 13C26 20.1794 20.1794 26 12.9993 26C5.82067 26 0 20.1794 0 13C0 5.82065 5.82067 0 12.9993 0C20.1794 0 26 5.82065 26 13Z" fill="#0066FF"/>
<path d="M20.6448 11.6079L18.8095 11.1566C18.6992 10.8087 18.5573 10.4713 18.3861 10.1486C18.6616 9.68991 19.2407 8.7245 19.2407 8.7245C19.3515 8.54003 19.3222 8.30381 19.1702 8.15184L17.8445 6.82616C17.6926 6.67372 17.4568 6.64444 17.2719 6.75566L15.8455 7.61031C15.5246 7.44047 15.189 7.29994 14.8434 7.19053L14.3921 5.35525C14.3399 5.1465 14.1527 5 13.9375 5H12.0625C11.8473 5 11.6597 5.1465 11.6079 5.35522C11.6079 5.35522 11.2953 6.63616 11.157 7.19006C10.7885 7.30678 10.4324 7.45831 10.0932 7.64325L8.61416 6.75566C8.42922 6.64578 8.19394 6.67419 8.0415 6.82616L6.71581 8.15184C6.56384 8.30381 6.53453 8.54003 6.64531 8.7245L7.55994 10.2521C7.41253 10.5427 7.28894 10.8453 7.19053 11.1552L5.35525 11.6079C5.1465 11.6601 5 11.8473 5 12.0625V13.9375C5 14.1527 5.1465 14.3403 5.35522 14.3921L7.19097 14.8434C7.30222 15.1963 7.44684 15.5392 7.62219 15.8683L6.80372 17.2325C6.69294 17.4169 6.72225 17.6532 6.87422 17.8051L8.19991 19.1308C8.35144 19.2823 8.58763 19.3112 8.77256 19.2013C8.77256 19.2013 9.69038 18.6511 10.1399 18.3819C10.4654 18.5554 10.8059 18.6987 11.1571 18.8099L11.608 20.6447C11.6597 20.8535 11.8473 21 12.0625 21H13.9375C14.1527 21 14.3399 20.8535 14.3921 20.6448L14.843 18.8099C15.2042 18.6955 15.552 18.5476 15.883 18.3682C16.3449 18.6451 17.2718 19.2013 17.2718 19.2013C17.4563 19.3116 17.6925 19.2832 17.8445 19.1308L19.1702 17.8051C19.3222 17.6532 19.3515 17.4169 19.2407 17.2325L18.3979 15.8285C18.5641 15.5131 18.7019 15.1831 18.8095 14.8434L20.6447 14.3921C20.8535 14.3399 21 14.1527 21 13.9375V12.0625C21 11.8473 20.8535 11.6601 20.6448 11.6079ZM13 16.2812C11.1909 16.2812 9.71875 14.8091 9.71875 13C9.71875 11.1909 11.1909 9.71875 13 9.71875C14.8091 9.71875 16.2812 11.1909 16.2812 13C16.2812 14.8091 14.8091 16.2812 13 16.2812Z" fill="white"/>
</svg>
