<?xml version="1.0" encoding="utf-8"?>
<!-- Generator: Adobe Illustrator 26.0.3, SVG Export Plug-In . SVG Version: 6.00 Build 0)  -->
<svg version="1.1" id="Слой_1" xmlns="http://www.w3.org/2000/svg" xmlns:xlink="http://www.w3.org/1999/xlink" x="0px" y="0px"
	 viewBox="0 0 500 97.4" style="enable-background:new 0 0 500 97.4;" xml:space="preserve">
<style type="text/css">
	.st0{fill:#0066FF;}
</style>
<text transform="matrix(1 0 0 1 593.3336 -123.0283)" style="display:none;fill:#0066FF; font-family:'MontserratRoman-ExtraBold'; font-size:100px;">адепт</text>
<text transform="matrix(1 0 0 1 595.6328 -78.889)" style="display:none;fill:#FFFFFF; font-family:'MontserratRoman-Regular'; font-size:36px;">интернет-магазин компьютерной техники</text>
<g>
	<path class="st0" d="M35.9,83c-5.3,0-10.4-1.4-15.5-4.3c-5.1-2.9-9.2-7.1-12.5-12.6C4.6,60.6,2.9,53.9,2.9,46
		c0-6.6,1.1-12.7,3.4-18.3c2.2-5.6,5.3-10.4,9.3-14.6c4-4.1,8.5-7.4,13.6-9.7C34.3,1.1,39.8,0,45.5,0c6.2,0,11.7,1.3,16.3,3.8
		c4.6,2.5,7.9,6.8,9.9,12.8c2,6,2.2,14.3,0.5,24.8c-1.4,8.6-3.7,16-7,22.3C62,69.9,57.9,74.7,53,78C48.1,81.4,42.4,83,35.9,83z
		 M48.3,57c2.9,0,5.5-0.8,7.6-2.3c2.1-1.5,3.8-3.6,5.1-6.4c1.2-2.7,1.8-6,1.8-9.7c0-3.7-1-6.7-3.1-9.1c-2.1-2.3-5-3.5-8.7-3.5
		c-2.8,0-5.3,0.8-7.5,2.3c-2.2,1.5-3.9,3.6-5.1,6.4c-1.2,2.7-1.8,6-1.8,9.7c0,3.7,1,6.7,3.1,9.1C41.7,55.8,44.6,57,48.3,57z
		 M56.1,81.6l2.2-10.8l5.4-29.3l4.2-29l2.2-11h33.1l-16,80.1H56.1z"/>
	<path class="st0" d="M93.7,97.4l8.3-41.7h105.4l-8.3,41.7h-30.6l3.1-15.8h-44.2l-3.1,15.8H93.7z M161.5,67.3l7.9-40.1H153l-1.5,6.3
		c-0.8,3.4-1.5,6.5-2.3,9.4c-0.7,2.8-1.6,5.4-2.6,7.6c-1,2.2-2.2,4.2-3.8,5.8c-1.6,1.6-3.6,3-6.1,4l-33.5-4.7c2.5,0,4.8-0.7,6.9-2.2
		s3.9-3.5,5.4-6c1.6-2.5,2.9-5.4,4.1-8.7c1.2-3.3,2.2-6.7,3.1-10.3l6.4-26.9h78.5l-13.2,65.9H161.5z"/>
	<path class="st0" d="M259,83c-8.8,0-16.5-1.5-23.1-4.5c-6.6-3-11.7-7.3-15.4-12.9c-3.7-5.6-5.6-12.1-5.6-19.6
		c0-8.8,2-16.6,6.1-23.6C225.2,15.5,231,10,238.4,6c7.5-4,16.2-6,26.1-6c8.6,0,15.9,1.5,22,4.5c6.1,3,10.7,7.2,13.9,12.4
		c3.2,5.3,4.8,11.4,4.8,18.3c0,2.4-0.2,4.8-0.5,7.2c-0.3,2.3-0.8,4.6-1.2,6.7h-62.2l3.1-16h43.9l-13.8,4.2c0.8-3.1,0.8-5.8-0.1-8
		c-0.8-2.2-2.2-3.9-4.2-5.1c-2-1.2-4.3-1.8-7.2-1.8c-4,0-7.2,1.1-9.5,3.2c-2.3,2.1-4,4.9-5.1,8.3c-1,3.4-1.5,7-1.5,10.7
		c0,5,1.3,8.5,4,10.6c2.7,2.1,6.6,3.1,11.8,3.1c3,0,6.1-0.5,9.1-1.4c3-0.9,5.8-2.3,8.3-4.2L294,73.1c-5.5,3.7-11.2,6.3-17.1,7.8
		C271,82.3,265.1,83,259,83z"/>
	<path class="st0" d="M306.6,81.6l16.1-80.1h85.9l-16.1,80.1h-32.9l11.9-61.2l5.9,6.9h-34.4l8.5-6.9l-11.9,61.2H306.6z"/>
	<path class="st0" d="M426.5,81.6l11.9-61.3l5.9,7h-31.3l5.3-25.8H500l-5.3,25.8h-31.9l8.5-7l-11.9,61.3H426.5z"/>
</g>
</svg>
